<svg width="40" height="16" fill="none" xmlns="http://www.w3.org/2000/svg"><mask id="mask0" maskUnits="userSpaceOnUse" x="0" y="0" width="40" height="16"><path fill="#C4C4C4" d="M0 0h40v16H0z"/></mask><g mask="url(#mask0)"><path fill-rule="evenodd" clip-rule="evenodd" d="M0-5h40v28H0V-5z" fill="#009B3A"/><path d="M3.4 9L20 19.6 36.6 9 20-1.6 3.4 9z" fill="#FEDF00"/><path d="M20 16a7 7 0 100-14 7 7 0 000 14z" fill="#002776"/><path d="M-1 23a17 17 0 1134 0h-1a16 16 0 10-32 0h-1z" fill="#fff"/><path fill-rule="evenodd" clip-rule="evenodd" d="M14.03 6.954a.286.286 0 00.198-.123.353.353 0 00.059-.245.353.353 0 00-.116-.223.286.286 0 00-.222-.07.286.286 0 00-.199.122.354.354 0 00-.058.245.35.35 0 00.116.223c.063.055.143.08.222.07zm-.015-.123a.163.163 0 00.116-.076.232.232 0 00.033-.153.232.232 0 00-.07-.141.163.163 0 00-.13-.046.163.163 0 00-.116.076.232.232 0 00-.034.153.232.232 0 00.07.141.163.163 0 00.13.046zm.558.063l.124-.009-.018-.247.266-.019a.21.21 0 00-.029-.418l-.38.027.037.666zm.098-.38l.256-.017a.086.086 0 00-.012-.171l-.256.017.012.171z" fill="#009B3A"/><path d="M15.138 6.854c-.006-.095-.02-.304-.163-.294l-.18.013c.208-.015.223.194.23.29" fill="#009B3A"/><path fill-rule="evenodd" clip-rule="evenodd" d="M15.418 6.841l.314-.005a.286.286 0 00.28-.291V6.45a.286.286 0 00-.292-.281l-.314.005.012.667zm.122-.126l.18-.003a.18.18 0 00.178-.184V6.47a.18.18 0 00-.185-.178l-.18.003.007.42z" fill="#009B3A"/><path d="M16.264 6.833l.6.02.004-.123-.485-.017.006-.171.38.013.005-.114-.381-.014.005-.133.456.016.005-.124-.571-.02-.024.667zm.846.036l.114.01.04-.456.093.467.104.01.173-.444-.04.455.114.01.058-.664-.166-.015-.173.444-.093-.467-.166-.014-.058.664zm1.381.155l.493.085.02-.112-.38-.066.025-.15.31.053.02-.112-.31-.054.017-.103.369.063.02-.112-.482-.083-.102.591z" fill="#009B3A"/><path fill-rule="evenodd" clip-rule="evenodd" d="M19.757 7.273l.12.031.062-.24.258.067a.21.21 0 00.105-.406l-.369-.095-.176.643zm.213-.328l.25.064a.086.086 0 00.042-.166l-.249-.064-.043.166zm.605.546l.118.038.075-.237.254.08a.21.21 0 10.126-.399l-.363-.115-.21.633zm.23-.317l.245.078a.086.086 0 00.052-.164l-.245-.077-.052.163z" fill="#009B3A"/><path d="M21.116 7.662c.028-.091.091-.29-.045-.334l-.172-.054c.2.063.136.263.108.353" fill="#009B3A"/><path fill-rule="evenodd" clip-rule="evenodd" d="M21.662 7.857a.286.286 0 00.233-.017.353.353 0 00.164-.19.353.353 0 000-.252.286.286 0 00-.164-.165.286.286 0 00-.233.017.353.353 0 00-.165.19.353.353 0 000 .251c.031.079.09.138.165.166zm.043-.116a.163.163 0 00.138-.014.231.231 0 00.1-.12.231.231 0 00.004-.157.163.163 0 00-.095-.101.163.163 0 00-.138.014.231.231 0 00-.1.12.231.231 0 00-.004.157.163.163 0 00.095.101zm.742.433c.073.032.157.03.233-.005.076-.035.14-.1.175-.18a.354.354 0 00.013-.252.286.286 0 00-.156-.174.286.286 0 00-.233.005.353.353 0 00-.175.18.353.353 0 00-.013.252c.027.08.083.142.156.174zm.049-.113a.163.163 0 00.139-.007.23.23 0 00.106-.115.231.231 0 00.012-.157.163.163 0 00-.09-.106.163.163 0 00-.139.007.23.23 0 00-.106.115.231.231 0 00-.012.157.166.166 0 00.09.106z" fill="#009B3A"/><path d="M22.623 7.887l.232.101-.038.087-.232-.1.038-.088z" fill="#009B3A"/><path d="M22.767 7.95l.088.038-.133.306-.088-.038.133-.306z" fill="#009B3A"/><path fill-rule="evenodd" clip-rule="evenodd" d="M22.945 8.398l.11.055.111-.221.239.119a.21.21 0 00.187-.375l-.34-.17-.307.592zm.277-.277l.23.115a.086.086 0 00.076-.154l-.23-.115-.076.154z" fill="#009B3A"/><path d="M23.452 8.65c.043-.084.136-.272.008-.336l-.162-.08c.188.093.095.28.052.366m.35.181l.522.296.061-.108-.423-.239.085-.15.331.188.056-.1-.331-.187.066-.116.398.225.06-.107-.497-.282-.328.58zm.972.327c-.035.056 0 .119.081.17.08.051.135.05.158.013.073-.114-.348-.281-.218-.48.112-.172.303-.039.376.007.072.046.188.165.098.303l-.123-.078c.039-.06-.003-.118-.068-.16-.062-.04-.113-.057-.15.001-.062.093.351.269.225.468-.094.146-.256.082-.365.013-.092-.059-.23-.197-.14-.338l.126.08zm.716.472c-.04.055-.006.12.071.175.078.055.133.056.158.021.078-.11-.334-.299-.194-.491.121-.166.306-.022.376.027.07.05.179.175.082.307l-.119-.084c.042-.058.003-.118-.06-.162-.06-.043-.109-.064-.149-.008-.067.09.337.287.2.479-.101.141-.26.07-.365-.006-.09-.063-.22-.209-.123-.344l.123.087z" fill="#009B3A"/><path fill-rule="evenodd" clip-rule="evenodd" d="M26.064 10.348a.28.28 0 00.227.055.353.353 0 00.215-.13.353.353 0 00.078-.239.286.286 0 00-.105-.208.286.286 0 00-.227-.056.353.353 0 00-.215.13.353.353 0 00-.078.24.286.286 0 00.105.208zm.077-.097c.037.029.086.04.136.03a.23.23 0 00.132-.085.231.231 0 00.052-.147.163.163 0 00-.059-.126.163.163 0 00-.136-.03.231.231 0 00-.132.084.231.231 0 00-.052.148.163.163 0 00.06.126z" fill="#009B3A"/><path d="M14.286 7.443l-.093.285.143.047" fill="#fff"/><path d="M14.286 7.443l.092.285-.142.047" fill="#fff"/><path d="M14.571 7.65h-.3v.15" fill="#fff"/><path d="M14.571 7.65l-.243.176-.088-.12" fill="#fff"/><path d="M14 7.65l.243.177.088-.122" fill="#fff"/><path d="M14 7.65h.3v.15" fill="#fff"/><path d="M14.462 7.986L14.37 7.7l-.143.047" fill="#fff"/><path d="M14.462 7.986l-.243-.177.089-.121" fill="#fff"/><path d="M14.11 7.986l.242-.177-.088-.121" fill="#fff"/><path d="M14.11 7.986l.092-.286.143.047m.56 2.639l-.093.285.143.046" fill="#fff"/><path d="M14.905 10.386l.093.285-.143.046" fill="#fff"/><path d="M15.19 10.593h-.3v.15" fill="#fff"/><path d="M15.19 10.593l-.243.176-.088-.12" fill="#fff"/><path d="M14.62 10.593l.242.176.088-.121" fill="#fff"/><path d="M14.62 10.593h.3v.15" fill="#fff"/><path d="M15.081 10.928l-.092-.285-.143.046" fill="#fff"/><path d="M15.081 10.928l-.243-.176.089-.121" fill="#fff"/><path d="M14.729 10.928l.242-.176-.088-.121" fill="#fff"/><path d="M14.728 10.928l.093-.285.143.046m-.916.375l-.078.238.12.039" fill="#fff"/><path d="M14.048 11.064l.077.238-.119.039" fill="#fff"/><path d="M14.285 11.237h-.25v.125" fill="#fff"/><path d="M14.285 11.237l-.202.147-.073-.101" fill="#fff"/><path d="M13.81 11.237l.202.147.073-.101" fill="#fff"/><path d="M13.81 11.237h.25v.125" fill="#fff"/><path d="M14.194 11.517l-.077-.238-.119.038" fill="#fff"/><path d="M14.194 11.517l-.202-.147.074-.102" fill="#fff"/><path d="M13.9 11.517l.203-.147-.073-.102" fill="#fff"/><path d="M13.9 11.517l.078-.238.119.038m1.493-1.203l-.044.136.068.022" fill="#fff"/><path d="M15.59 10.114l.045.136-.068.022" fill="#fff"/><path d="M15.726 10.213h-.143v.071" fill="#fff"/><path d="M15.726 10.213l-.115.084-.042-.058" fill="#fff"/><path d="M15.455 10.213l.115.084.042-.058" fill="#fff"/><path d="M15.455 10.213h.142v.072" fill="#fff"/><path d="M15.675 10.373l-.045-.136-.068.022" fill="#fff"/><path d="M15.674 10.373l-.115-.084.042-.058" fill="#fff"/><path d="M15.507 10.373l.115-.084-.042-.058" fill="#fff"/><path d="M15.507 10.373l.044-.136.067.022m.744.872l-.077.238.119.038" fill="#fff"/><path d="M16.362 11.131l.077.238-.119.038" fill="#fff"/><path d="M16.6 11.304h-.25v.125" fill="#fff"/><path d="M16.6 11.304l-.203.147-.073-.101" fill="#fff"/><path d="M16.124 11.304l.202.147.074-.101" fill="#fff"/><path d="M16.124 11.304h.25v.125" fill="#fff"/><path d="M16.509 11.583l-.078-.238-.118.04" fill="#fff"/><path d="M16.509 11.583l-.203-.147.074-.1" fill="#fff"/><path d="M16.215 11.583l.202-.147-.073-.1" fill="#fff"/><path d="M16.215 11.583l.077-.238.12.04m-.26.491l-.062.19.096.031" fill="#fff"/><path d="M16.152 11.876l.062.19-.095.031" fill="#fff"/><path d="M16.343 12.014h-.2v.1" fill="#fff"/><path d="M16.343 12.014l-.162.118-.06-.081" fill="#fff"/><path d="M15.962 12.014l.162.118.059-.081" fill="#fff"/><path d="M15.962 12.014h.2v.1" fill="#fff"/><path d="M16.27 12.238l-.062-.19-.095.03" fill="#fff"/><path d="M16.27 12.238l-.162-.118.059-.08" fill="#fff"/><path d="M16.035 12.238l.162-.118-.06-.08" fill="#fff"/><path d="M16.035 12.238l.062-.19.095.03m5.979-5.549l-.092.285.142.046" fill="#fff"/><path d="M22.172 6.529l.092.285-.142.046" fill="#fff"/><path d="M22.457 6.736h-.3v.15" fill="#fff"/><path d="M22.457 6.736l-.243.176-.088-.121" fill="#fff"/><path d="M21.886 6.736l.243.176.088-.121" fill="#fff"/><path d="M21.886 6.736h.3v.15" fill="#fff"/><path d="M22.348 7.071l-.093-.285-.143.046" fill="#fff"/><path d="M22.348 7.071l-.243-.176.088-.121" fill="#fff"/><path d="M21.995 7.071l.243-.176-.088-.121" fill="#fff"/><path d="M21.995 7.071l.093-.285.142.046m2.675 4.325l-.093.285.143.047" fill="#fff"/><path d="M24.905 11.157l.092.285-.142.047" fill="#fff"/><path d="M25.19 11.364h-.3v.15" fill="#fff"/><path d="M25.19 11.364l-.243.177-.088-.122" fill="#fff"/><path d="M24.62 11.364l.242.177.088-.122" fill="#fff"/><path d="M24.62 11.364h.3v.15" fill="#fff"/><path d="M25.081 11.7l-.093-.285-.142.046" fill="#fff"/><path d="M25.081 11.7l-.242-.176.088-.122" fill="#fff"/><path d="M24.729 11.7l.242-.176-.088-.122" fill="#fff"/><path d="M24.728 11.7l.093-.285.143.046m.912-.137l-.062.19.096.03" fill="#fff"/><path d="M25.876 11.324l.062.19-.095.03" fill="#fff"/><path d="M26.066 11.462h-.2v.1" fill="#fff"/><path d="M26.066 11.462l-.161.117-.06-.08" fill="#fff"/><path d="M25.686 11.462l.162.117.059-.08" fill="#fff"/><path d="M25.686 11.462h.2v.1" fill="#fff"/><path d="M25.994 11.686l-.062-.19-.095.03" fill="#fff"/><path d="M25.994 11.686l-.162-.118.059-.08" fill="#fff"/><path d="M25.759 11.685l.162-.117-.06-.08" fill="#fff"/><path d="M25.759 11.686l.061-.19.096.03m-.726.3l-.077.238.12.039" fill="#fff"/><path d="M25.19 11.826l.078.238-.12.039" fill="#fff"/><path d="M25.428 11.999h-.25v.125" fill="#fff"/><path d="M25.428 11.999l-.202.147-.073-.101" fill="#fff"/><path d="M24.953 11.999l.202.147.073-.101" fill="#fff"/><path d="M24.953 11.999h.25v.125" fill="#fff"/><path d="M25.337 12.278l-.077-.237-.119.038" fill="#fff"/><path d="M25.337 12.278l-.202-.146.074-.102" fill="#fff"/><path d="M25.044 12.278l.202-.146-.074-.102" fill="#fff"/><path d="M25.044 12.278l.077-.237.119.038m-1.735 1.214l-.078.238.12.038" fill="#fff"/><path d="M23.505 13.293l.077.238-.119.038" fill="#fff"/><path d="M23.742 13.466h-.25v.125" fill="#fff"/><path d="M23.742 13.466l-.202.147-.073-.102" fill="#fff"/><path d="M23.267 13.466l.202.147.074-.102" fill="#fff"/><path d="M23.267 13.466h.25v.125" fill="#fff"/><path d="M23.652 13.745l-.078-.238-.118.039" fill="#fff"/><path d="M23.652 13.745l-.203-.147.074-.101" fill="#fff"/><path d="M23.358 13.745l.202-.147-.073-.101" fill="#fff"/><path d="M23.358 13.745l.077-.238.119.039m-.059.502l-.062.19.096.03" fill="#fff"/><path d="M23.495 14.048l.062.19-.095.03" fill="#fff"/><path d="M23.686 14.186h-.2v.1" fill="#fff"/><path d="M23.686 14.186l-.162.117-.06-.08" fill="#fff"/><path d="M23.305 14.186l.162.117.059-.08" fill="#fff"/><path d="M23.305 14.186h.2v.1" fill="#fff"/><path d="M23.613 14.41l-.062-.19-.095.03" fill="#fff"/><path d="M23.613 14.41l-.162-.118.059-.081" fill="#fff"/><path d="M23.378 14.41l.162-.118-.06-.081" fill="#fff"/><path d="M23.378 14.41l.061-.19.096.03m.665-1.46l-.062.19.095.031" fill="#fff"/><path d="M24.2 12.79l.062.19-.095.031" fill="#fff"/><path d="M24.39 12.929h-.2v.1" fill="#fff"/><path d="M24.39 12.929l-.162.117-.058-.08" fill="#fff"/><path d="M24.01 12.929l.162.117.058-.08" fill="#fff"/><path d="M24.01 12.929h.2v.1" fill="#fff"/><path d="M24.318 13.152l-.062-.19-.095.03" fill="#fff"/><path d="M24.317 13.152l-.161-.117.059-.081" fill="#fff"/><path d="M24.082 13.152l.162-.117-.058-.081" fill="#fff"/><path d="M24.082 13.152l.062-.19.095.03m.523-.604l-.077.238.119.038" fill="#fff"/><path d="M24.762 12.388l.077.238-.119.038" fill="#fff"/><path d="M25 12.56h-.25v.126" fill="#fff"/><path d="M25 12.56l-.203.148-.073-.101" fill="#fff"/><path d="M24.524 12.56l.202.148.074-.101" fill="#fff"/><path d="M24.524 12.56h.25v.126" fill="#fff"/><path d="M24.909 12.84l-.078-.237-.118.038" fill="#fff"/><path d="M24.909 12.84l-.203-.147.074-.1" fill="#fff"/><path d="M24.615 12.84l.202-.147-.073-.1" fill="#fff"/><path d="M24.615 12.84l.077-.237.12.038m-1.336.016l-.062.19.095.031" fill="#fff"/><path d="M23.476 12.657l.062.19-.095.031" fill="#fff"/><path d="M23.666 12.795h-.2v.1" fill="#fff"/><path d="M23.666 12.795l-.161.118-.06-.081" fill="#fff"/><path d="M23.286 12.795l.162.118.059-.081" fill="#fff"/><path d="M23.286 12.795h.2v.1" fill="#fff"/><path d="M23.594 13.019l-.062-.19-.095.03" fill="#fff"/><path d="M23.594 13.019l-.162-.118.059-.08" fill="#fff"/><path d="M23.359 13.019l.161-.118-.058-.08" fill="#fff"/><path d="M23.359 13.019l.061-.19.095.03m-6.182-3.823l-.077.237.12.04" fill="#fff"/><path d="M17.334 9.036l.077.237-.12.04" fill="#fff"/><path d="M17.571 9.208h-.25v.125" fill="#fff"/><path d="M17.571 9.208l-.202.147-.074-.1" fill="#fff"/><path d="M17.096 9.208l.202.147.073-.1" fill="#fff"/><path d="M17.096 9.208h.25v.125" fill="#fff"/><path d="M17.48 9.488l-.077-.238-.119.039" fill="#fff"/><path d="M17.48 9.488l-.202-.147.074-.101" fill="#fff"/><path d="M17.186 9.488l.203-.147-.074-.101" fill="#fff"/><path d="M17.186 9.488l.078-.238.119.039m4.522-.841l-.062.19.095.03" fill="#fff"/><path d="M21.905 8.448l.062.19-.095.03" fill="#fff"/><path d="M22.095 8.586h-.2v.1" fill="#fff"/><path d="M22.095 8.586l-.162.117-.059-.08" fill="#fff"/><path d="M21.715 8.586l.161.117.06-.08" fill="#fff"/><path d="M21.715 8.586h.2v.1" fill="#fff"/><path d="M22.022 8.81l-.061-.19-.096.03" fill="#fff"/><path d="M22.022 8.81l-.162-.118.06-.081" fill="#fff"/><path d="M21.787 8.81l.162-.118-.059-.081" fill="#fff"/><path d="M21.787 8.81l.062-.19.095.03M20 11.843l-.093.285.143.047" fill="#fff"/><path d="M20 11.843l.093.285-.143.047" fill="#fff"/><path d="M20.285 12.05h-.3v.15" fill="#fff"/><path d="M20.285 12.05l-.242.176-.089-.12" fill="#fff"/><path d="M19.715 12.05l.242.176.088-.12" fill="#fff"/><path d="M19.715 12.05h.3v.15" fill="#fff"/><path d="M20.176 12.386l-.092-.286-.143.047" fill="#fff"/><path d="M20.176 12.386l-.242-.177.088-.121" fill="#fff"/><path d="M19.824 12.386l.242-.177-.088-.121" fill="#fff"/><path d="M19.824 12.386l.092-.286.143.047m.751-1.645l-.078.238.12.039" fill="#fff"/><path d="M20.81 10.502l.077.238-.12.039" fill="#fff"/><path d="M21.047 10.675h-.25v.125" fill="#fff"/><path d="M21.047 10.675l-.202.147-.073-.101" fill="#fff"/><path d="M20.572 10.675l.202.147.073-.101" fill="#fff"/><path d="M20.572 10.675h.25v.125" fill="#fff"/><path d="M20.956 10.955l-.077-.238-.119.038" fill="#fff"/><path d="M20.956 10.955l-.202-.147.074-.101" fill="#fff"/><path d="M20.663 10.955l.202-.147-.074-.101" fill="#fff"/><path d="M20.663 10.955l.077-.238.119.038M20 9.874l-.077.238.119.038" fill="#fff"/><path d="M20 9.874l.077.238-.119.038" fill="#fff"/><path d="M20.238 10.046h-.25v.126" fill="#fff"/><path d="M20.238 10.047l-.203.146-.073-.1" fill="#fff"/><path d="M19.762 10.046l.203.148.073-.102" fill="#fff"/><path d="M19.762 10.047h.25v.125" fill="#fff"/><path d="M20.147 10.326l-.077-.238-.12.039" fill="#fff"/><path d="M20.147 10.326l-.202-.147.073-.101" fill="#fff"/><path d="M19.853 10.326l.202-.147-.073-.101" fill="#fff"/><path d="M19.853 10.326l.077-.238.12.039m-.755.425l-.062.19.096.031" fill="#fff"/><path d="M19.295 10.552l.062.19-.095.031" fill="#fff"/><path d="M19.485 10.69h-.2v.1" fill="#fff"/><path d="M19.485 10.69l-.161.118-.06-.08" fill="#fff"/><path d="M19.105 10.69l.162.118.059-.08" fill="#fff"/><path d="M19.105 10.69h.2v.1" fill="#fff"/><path d="M19.413 10.914l-.062-.19-.095.03" fill="#fff"/><path d="M19.413 10.914l-.162-.117.059-.081" fill="#fff"/><path d="M19.178 10.914l.162-.117-.06-.081" fill="#fff"/><path d="M19.178 10.914l.061-.19.095.03m.314.341l-.045.136.068.022" fill="#fff"/><path d="M19.648 11.095l.044.136-.068.022" fill="#fff"/><path d="M19.783 11.194h-.142v.071" fill="#fff"/><path d="M19.784 11.194l-.116.084-.042-.058" fill="#fff"/><path d="M19.512 11.194l.115.084.042-.058" fill="#fff"/><path d="M19.512 11.194h.143v.071" fill="#fff"/><path d="M19.732 11.354l-.044-.136-.068.022" fill="#fff"/><path d="M19.732 11.354l-.116-.084.042-.058" fill="#fff"/><path d="M19.564 11.354l.115-.084-.042-.058" fill="#fff"/><path d="M19.564 11.354l.044-.136.068.022m2.419 2.224l-.077.238.119.039" fill="#fff"/><path d="M22.095 13.464l.078.238-.12.039" fill="#fff"/><path d="M22.333 13.637h-.25v.125" fill="#fff"/><path d="M22.333 13.637l-.202.147-.074-.101" fill="#fff"/><path d="M21.858 13.637l.202.147.073-.101" fill="#fff"/><path d="M21.858 13.637h.25v.125" fill="#fff"/><path d="M22.242 13.916l-.077-.237-.119.038" fill="#fff"/><path d="M22.242 13.916l-.202-.146.073-.102" fill="#fff"/><path d="M21.948 13.917l.203-.147-.074-.101" fill="#fff"/><path d="M21.948 13.917l.078-.238.118.038m.551-.822l-.062.19.096.031" fill="#fff"/><path d="M22.695 12.895l.062.19-.095.031" fill="#fff"/><path d="M22.885 13.033h-.2v.1" fill="#fff"/><path d="M22.885 13.033l-.161.118-.06-.08" fill="#fff"/><path d="M22.505 13.033l.162.118.058-.08" fill="#fff"/><path d="M22.505 13.034h.2v.1" fill="#fff"/><path d="M22.813 13.257l-.062-.19-.095.03" fill="#fff"/><path d="M22.813 13.257l-.162-.117.059-.081" fill="#fff"/><path d="M22.578 13.257l.162-.118-.06-.08" fill="#fff"/><path d="M22.578 13.257l.062-.19.095.03m-1.192-.373l-.062.19.095.031" fill="#fff"/><path d="M21.543 12.724l.062.19-.095.031" fill="#fff"/><path d="M21.733 12.862h-.2v.1" fill="#fff"/><path d="M21.733 12.862l-.162.118-.059-.081" fill="#fff"/><path d="M21.353 12.862l.162.118.058-.081" fill="#fff"/><path d="M21.353 12.862h.2v.1" fill="#fff"/><path d="M21.66 13.086l-.061-.19-.096.03" fill="#fff"/><path d="M21.66 13.086l-.161-.118.058-.08" fill="#fff"/><path d="M21.425 13.086l.162-.118-.059-.08" fill="#fff"/><path d="M21.425 13.086l.062-.19.095.03m-4.392-.512l-.092.286.142.046" fill="#fff"/><path d="M17.19 12.414l.093.286-.143.046" fill="#fff"/><path d="M17.476 12.622h-.3v.15" fill="#fff"/><path d="M17.476 12.622l-.243.176-.088-.121" fill="#fff"/><path d="M16.905 12.622l.243.176.088-.121" fill="#fff"/><path d="M16.905 12.622h.3v.15" fill="#fff"/><path d="M17.367 12.957l-.093-.285-.143.046" fill="#fff"/><path d="M17.367 12.957l-.243-.176.088-.122" fill="#fff"/><path d="M17.014 12.957l.243-.176-.088-.122" fill="#fff"/><path d="M17.014 12.957l.093-.285.143.046M20 14.376l-.03.095.047.016" fill="#fff"/><path d="M20 14.376l.03.095-.047.016" fill="#fff"/><path d="M20.095 14.445h-.1v.05" fill="#fff"/><path d="M20.095 14.445l-.08.06-.03-.041" fill="#fff"/><path d="M19.905 14.445l.08.06.03-.041" fill="#fff"/><path d="M19.905 14.445h.1v.05" fill="#fff"/><path d="M20.059 14.557l-.031-.095-.048.015" fill="#fff"/><path d="M20.059 14.557l-.081-.059.03-.04" fill="#fff"/><path d="M19.941 14.557l.081-.059-.03-.04" fill="#fff"/><path d="M19.941 14.557l.031-.095.048.015" fill="#fff"/></g></svg>