<svg id="Слой_1" data-name="Слой 1" xmlns="http://www.w3.org/2000/svg" viewBox="0 0 1538.16 430.17"><defs><style>.cls-1{fill:#323337;fill-rule:evenodd;}</style></defs><path class="cls-1" d="M574.77,241a153.44,153.44,0,0,0,12.89,24.79c.75,1.14,1.32,2.1,2.07,3.21l4.44,6.35c.85,1.14,1.45,2.07,2.33,3.2l2.33,3,7.47,8.85c1.66,1.8,3.37,3.56,5.1,5.3H443.52a9.44,9.44,0,0,0-6.9,2.94,10,10,0,0,0,2.26,16.1,8.17,8.17,0,0,0,3.92,1.12H635.4c2,1.37,4,2.7,6,4A135.33,135.33,0,0,0,655,327.74c26,13,51.79,19.28,81.28,19.28,13.34,0,25.47-1.95,38.14-4.58a142.57,142.57,0,0,0,20.46-6.19,154.77,154.77,0,0,0,15.16-6.43c3.58-1.8,7.1-3.5,10.53-5.56l6.75-4.05c1.17-.69,2-1.33,3.18-2.09s2.17-1.39,3.29-2.24c.39-.29.77-.56,1.15-.82h203.5a10.78,10.78,0,0,0,4.17-1.11,9.36,9.36,0,0,0,3-2.3c4.72-5,3.54-17-9.54-17H858.77c10-10.53,19.13-21.82,26.28-34.6,8.13-14.56,14.69-29.73,18.41-46.15a176.85,176.85,0,0,0,0-80.83c-1.33-5.85-3.12-11.23-4.87-16.49-.47-1.41-.88-2.5-1.38-3.9A170.09,170.09,0,0,0,889,94.06c-8.05-16.2-19.32-31-32-43.62l-17.19-15-6.27-4.52c-1-.74-2-1.44-3.12-2.16a164.66,164.66,0,0,0-24.24-13.44c-42.63-19-91.62-20.74-135.6-3.12-5.64,2.26-11.17,4.87-16.56,7.68a181.15,181.15,0,0,0-24.75,15.8c-1,.78-1.93,1.46-3,2.3L611.94,50.8c-2,1.94-6,6-7.76,8.32l-6.07,7.37a167.21,167.21,0,0,0-14.2,21.08,122.33,122.33,0,0,0-7.33,14.27c-1.08,2.61-2.21,5-3.22,7.57A167,167,0,0,0,561.12,173a183.62,183.62,0,0,0,4.42,39.5A167.08,167.08,0,0,0,574.77,241Zm6.51-75.63a158.51,158.51,0,0,1,10.83-48.93l6.77-14.59c4.55-9.15,12.94-21.63,19.9-29.06a14.17,14.17,0,0,0,1-1.12l8.32-8.72a27.62,27.62,0,0,1,2.27-2.05l3.37-3.12a14.31,14.31,0,0,1,1.19-1c.77-.65,1.42-1.24,2.18-1.91A135.57,135.57,0,0,1,662.8,37.82c1.11-.55,1.72-1,2.8-1.53s1.83-.83,3-1.35l9-4a30.86,30.86,0,0,0,2.23,12.65c2.43,6.2,5.94,11.6,8.89,17.51,2.25,4.51,4.72,8.88,4.72,14.24,0,9.66-7.68,11.37-7.68,18,0,4.06,4.09,7.68,8.16,7.68s5.59-1.17,8-3.54l3.54-4.38c6.45-9.12,7.71-19.56,3.47-30.11l-3.47-7.33C702,48.9,695.28,40.13,695.28,32.38a14.87,14.87,0,0,1,1.3-5.66c1.17-2.83,1.26-2.28,4.22-3,3.14-.75,9-2.16,12.24-2.16-.37,1.59-1.06,3.14-1.42,4.81-2,9,.87,17.8,5.1,25.35,2.2,3.94,4.55,7.86,6.56,11.92,3.63,7.3,5.32,14.26.05,21.25-2.7,3.57-6,6.34-3.74,11.24,1.65,3.5,4.81,4.87,8.81,4.87,7.65,0,16.08-15.59,16.08-24.48a36.68,36.68,0,0,0-2.57-14c-3.38-8.72-13.27-21.48-13.27-29.93a16.53,16.53,0,0,1,1.4-6.28,15,15,0,0,1,1.34-2.5,15.51,15.51,0,0,1,1.75-2.34c2.18-2.61,1.65-1.48,5.82-1.35,1.27,0,2.59-.06,3.86,0s2.17.25,3.83.25c-.87,3.74-2.4,5.13-2.4,10.56,0,8.11,1.34,12.28,4.64,18.88,2.28,4.56,5.11,8.74,7.36,13.28,4.14,8.32,5.8,14.79-.38,22.66-1.85,2.37-3.7,4-3.7,7.58,0,7.2,10.12,10,14.82,5.46l.88-.8c9.44-9.46,12.44-22,7.55-34.87l-2.21-5c-.83-1.65-1.59-3.17-2.51-4.69C767.82,48.73,762,38.78,762,33.34A16.23,16.23,0,0,1,765.12,23c3.1.26,10.84,2.49,13.65,3.39a170.65,170.65,0,0,1,24.43,9.65A127.91,127.91,0,0,1,822,47.22c4.08,3,8.16,6.05,12,9.33a146.88,146.88,0,0,1,19.07,19.32,184.46,184.46,0,0,1,15.61,22.79c.59,1,1,1.89,1.5,2.83s1,1.71,1.51,2.81c2,3.93,3.69,7.7,5.37,11.91,8.66,21.63,13.34,48.92,10,75.36a154.09,154.09,0,0,1-9.64,38.36c-.9,2.27-1.77,4.58-2.83,6.77s-2,4.24-3.12,6.48c-6.12,12.24-12.75,21.18-21.37,31.43-2.61,3.1-9.16,10.13-11.83,12.17a9.55,9.55,0,0,0-1.26,1.14,94.6,94.6,0,0,1-8,6.74H785.76c-4.85,0-8.48,1.39-10.71,5.13a9.37,9.37,0,0,0-1.29,4.23v1.68c0,4.74,4.84,9.36,9.6,9.36H794a179.14,179.14,0,0,1-24.87,8.1,146.18,146.18,0,0,1-16.4,2.81c-25.94,3.48-52.32-.6-75.85-10.19h64c3.56,0,7.06-3.14,8.16-5.52,3.26-7-2-14.64-8.64-14.64H641.71c-2.15-1.69-4.24-3.4-6.77-5.38a99.22,99.22,0,0,1-8.84-8.2c-1.74-1.75-4.69-4.59-6.22-6.51l-7.67-9.36c-.68-.85-1.15-1.61-1.82-2.5l-3.48-4.92c-12.1-17.95-20.06-38.32-23.95-61.49-.4-2.37-.8-5.13-1-7.67s-.5-5.29-.7-7.71c-.11-1.32,0-2.95,0-4.31s-.25-2.34-.25-4.07.21-2.5.25-3.83S581.2,166.73,581.28,165.34Z"/><path class="cls-1" d="M658.32,139.18c0-2.81.25-5,.24-7.93l.48-7.67H798.72l.48,10.32c0,3.91.25,6.95.25,10.81L799.2,150c0,1.61.14,4,0,5.48s-.06,3.66-.28,5.25c-.17,1.26-.29,3.77-.4,5.12-.28,3.55-.41,6.57-.77,10-.34,3.21-.81,6.58-1.18,9.86-.73,6.48-2.06,12.72-3.13,18.95-.49,2.84-1.26,6-1.94,8.86s-1.33,5.89-2.2,8.84-1.61,5.65-2.45,8.59a222.94,222.94,0,0,1-12.34,31.82l-3.6,7.44c-8.5,0-16.21-.24-24.72-.24H711.6c-8.51,0-16.22.24-24.72.24a83.56,83.56,0,0,0-3.84-7.44H665c.08.92,5.58,13,6.4,14.72l1.9,3.38a9.76,9.76,0,0,0,2.6,2.68c2.14,1.55,5.21,2,8.78,2H773c10.47,0,11.52-4.29,15.6-13.44,1.5-3.35,3.09-6.61,4.49-10.15.72-1.81,1.34-3.34,2.06-5.14s1.27-3.53,2-5.42c3.24-8.2,7.86-24.81,10.06-33.63l3-11.66,9,4.18c10.33,4.16,18.62,3.45,27.5-3.19l3.64-3.08,6.1-7.34c4.83-6.45,10.7-18.45,13.71-26.61,2-5.51,5.8-15.88,5.8-21.32v-3.6a21.9,21.9,0,0,0-8.88-17.52c-5.94-4.5-12.89-5.56-20-6.59a40.73,40.73,0,0,0-4.9-.38c-2.12,0-3.44-.25-5.28-.24-3.7,0-6.59.23-10.34.24l-7.44.48c-.87.07-2,0-2.87,0,0-2.42-2.52-8-4.74-10.39-4-4.32-13.64-5.21-20.46-5.21H673.2c-9.26,0-23,1.28-28.53,8.19-3.25,4.07-4.83,8.23-4.83,14.61v6.72c0,1.74.24,2.4.24,4.08Zm156.62,34,1.77-24.63c.16-2.09.77-11.3,1.11-12.08s3.69-1.14,5.31-1.41c7.1-1.19,16.79-2,23.84-.18,6.51,1.67,12.23,6.07,12.23,14.17,0,7.46-1.19,11.78-4,18.31a94.71,94.71,0,0,1-6.93,12.74,72.4,72.4,0,0,1-8.56,11.13,21.81,21.81,0,0,1-5.29,4.55,15.22,15.22,0,0,1-7.37,2.47c-4.92,0-7.7-1.47-10-6.08C814.49,187,814.08,179.18,814.94,173.15Z"/><path class="cls-1" d="M604,222.08A70.7,70.7,0,0,0,612.06,233c.45.51.48.68,1,1.2a88.41,88.41,0,0,0,12.46,11.06c7.21,5.33,20.2,11.8,29,11.8,7.58,0,14.61-1.09,20.45-4.75,5.23-3.28,9.64-5.83,14.17-10.32.76-.75,1.36-1.1,2.16-1.91a93.33,93.33,0,0,0,9.16-11.25l2.35-3.64c.32-.51.45-.84.77-1.39a76.22,76.22,0,0,0,5.25-11.07A72.24,72.24,0,0,0,714,193.42c1.21-11.24,1.4-17.67-2.31-28.89-3-9.19-10.61-19-19.74-22.27-10.34-3.71-18.68-2.95-29,1.27-6.09,2.48-7.84,4.28-12.51,7.41-6.57-3.48-11.31-5.61-19.09-6.83s-14.82-.46-21.71,3a25.08,25.08,0,0,0-7.62,5.34c-7.12,7.14-10.86,17.88-10.86,28,0,7.64.37,11,2.35,18C596.42,209,598.58,213.07,604,222.08ZM654.31,164a13,13,0,0,0,1.31-1.09c12.86-12.79,35.42-17.06,43.64,3.51a43.74,43.74,0,0,1,3,14.8c0,1.21.27,1.44.24,2.37l-.91,9.17c-.51,3.07-1.16,5.4-1.86,8.22-2.15,8.64-7.5,18.39-12.82,25.35-.42.56-.77.88-1.2,1.44l-6.17,6.31c-5.35,4.5-10,8.41-18,10.3a19.86,19.86,0,0,1-8.9.16c-8.3-1.43-13.41-5.82-16.7-14a47.44,47.44,0,0,1-3.25-17.14A66,66,0,0,1,638,188.41a78.46,78.46,0,0,1,9.19-16.25A85.34,85.34,0,0,1,654.31,164Zm-47.19,1.77c6.5-11.72,19.69-11.74,31.08-7.16a22.91,22.91,0,0,0,2.84,1.24L636.38,166c-.84,1.16-1.46,2.09-2.25,3.26a22.23,22.23,0,0,1-2.21,3.32L626.57,163c-1.47-2.62-4.45-6.91-8.85-5.64a6.21,6.21,0,0,0-3.81,9.18c.43.82.87,1.37,1.38,2.22l4.25,7.27c1,1.63,1.92,3.06,2.78,4.66.43.79.84,1.43,1.34,2.26,2.35,3.91,2.14,2.27.25,8a74,74,0,0,0-3.52,26.51c0,.91.18,2.44.31,3.52a24.74,24.74,0,0,1,.42,3.43c-1.55-1-5.43-7-6.77-9.08a74.8,74.8,0,0,1-5.55-10.52,59.66,59.66,0,0,1-4-11.86C603.09,184.51,602.66,173.78,607.12,165.74Z"/><path class="cls-1" d="M659.91,235.33c.69-2,1.26-3.68,2-5.47l21.18-53.69c.88-2.18,6.21-15.15,6.21-16.35v-1.44c0-4-8.68-11-13.58,1.78-.74,1.93-1.2,3.6-2,5.49l-21.26,53.86c-1,2.37-6.17,15-6.17,16.39v1.2C646.32,242,655.81,247.4,659.91,235.33Z"/><path class="cls-1" d="M236.84,290.77h-1.91c-9.05.36-17.73,5.91-17.73,13.53,0,8.34,8.24,13.48,17,13.83h1.91c5.72-.23,11.4-2.53,14.92-7.36a11.29,11.29,0,0,0,.13-12.77A18.16,18.16,0,0,0,236.84,290.77ZM245,307c-1.67,1.22-11.38.91-14.2,1-2.16.06-4.86.59-6.41-.85a3.4,3.4,0,0,1,.36-5.3c1.75-1.08,11.44-.82,14.28-.89,2.27-.06,5-.52,6.34.9A3.44,3.44,0,0,1,245,307Z"/><path class="cls-1" d="M1208.91,294.24a21.76,21.76,0,0,0-10.9-3.47h-2c-9.17.41-17.21,6.32-17.21,13.84,0,7.75,8,13.2,17,13.52h1.68a21.79,21.79,0,0,0,11.18-3.47C1216.66,309.39,1216.52,299.16,1208.91,294.24Zm-1.34,12.16c-1.9,2.33-19.6,1.76-20.55,1.26a3.56,3.56,0,0,1-1-5.25c1.72-2,10.28-1.36,13.75-1.45,1.87,0,5.33-.45,6.82.35A3.42,3.42,0,0,1,1207.57,306.4Z"/><path class="cls-1" d="M273.32,304.14c-.57,8.05,8.58,14,16.78,14,5.92,0,9.19-1,13.27-3.7,11.22-7.49,5.89-23.66-12.64-23.66C282.36,290.77,273.88,296.21,273.32,304.14Zm19-3.13c4.07-.1,11.61-1.5,10.34,4.17-.85,3.78-8.6,2.64-12.57,2.74s-11.62,1.4-10.27-4.14C280.77,299.94,288.36,301.11,292.33,301Z"/><path class="cls-1" d="M1245.69,290.77c-8.62,0-17.91,5.49-17.91,13.84,0,8,8.24,13.27,17.12,13.52h1.4a21.18,21.18,0,0,0,11.46-3.64c3.7-2.56,5.55-5.84,5.84-9.14v-1.8C1263.05,296.94,1256.33,290.77,1245.69,290.77Zm11,15.41c-1.32,1.77-3.06,1.53-5.65,1.59-2.23,0-13.29.53-14.57.11a3.51,3.51,0,0,1-1.73-5.12c1.54-2.48,10-1.7,13.17-1.78,1.68,0,5.73-.35,7,0A3.44,3.44,0,0,1,1256.68,306.18Z"/><path class="cls-1" d="M1129.55,298.13a11.6,11.6,0,0,0-2,5.85,11.78,11.78,0,0,0,5.71,10.64,21,21,0,0,0,10.75,3.51h2.3c9-.45,17.06-6.13,17.06-13.83C1163.36,289.82,1138,285.79,1129.55,298.13Zm15,2.92c3.8-.09,11.36-1.63,12.31,2.34,1.35,5.63-7,4.4-10.75,4.48-3.89.1-11.24,1.52-12.1-2.32C1132.74,300.05,1140.56,301.15,1144.51,301.05Z"/><path class="cls-1" d="M343.59,290.77h-1.37c-9.09.27-17.55,5.81-17.55,13.84,0,8.61,9,13.52,18.54,13.52,14.84,0,23.56-15.27,11.94-23.59A20.87,20.87,0,0,0,343.59,290.77Zm-.08,17.1c-5.07.12-11.27,1.25-12.3-2.24-1.62-5.51,6.58-4.48,10.25-4.56s11.31-1.6,12.47,2C355.77,308.85,347.28,307.78,343.51,307.87Z"/><path class="cls-1" d="M1089,290.77a22,22,0,0,0-11.6,3.6c-2.56,1.7-5.8,5.26-5.8,9.3v1.88c0,7.68,9.14,12.58,18.23,12.58,8.44,0,17.3-5.69,17.47-13.56s-8-13.56-17.11-13.8Zm12.1,11.68a3.42,3.42,0,0,1-1.8,5c-1.35.45-5.54.33-7.27.37-3.76.09-11.61,1.24-13.09-1.45a3.45,3.45,0,0,1,1.8-4.94c1.27-.45,5.71-.33,7.38-.36C1091.71,301,1099.66,299.85,1101.1,302.45Z"/><path class="cls-1" d="M403.82,314.32c12.54-9.34,2.84-22.41-10.32-23.55h-3.69a21.88,21.88,0,0,0-10.1,3.52c-2.55,1.65-6,5.6-6,9.69C373.69,318.51,394.11,321.55,403.82,314.32Zm-23.53-11c1.37-3.34,8.77-2.25,12.56-2.34,1.79,0,6-.35,7.48-.08a3.46,3.46,0,0,1,2.54,4.63c-1.15,3.07-7.59,2.25-12.7,2.37a56.24,56.24,0,0,1-7.32.07A3.36,3.36,0,0,1,380.29,303.34Z"/><path class="cls-1" d="M1534.51,297.11c-2.18-1.79-4.48-2.45-8.35-2.45h-226.8c-3.53,0-6.31.63-8.22,2.34s-3.78,4.13-3.78,6.78c0,3.46.34,5.86,3.05,8.47a10.46,10.46,0,0,0,7,2.81h231.12c4.77,0,9.6-4.6,9.6-9.36C1538.16,302,1537.5,299.57,1534.51,297.11Z"/><path class="cls-1" d="M183.6,315.06a10.15,10.15,0,0,0,6.54-17.82c-2-1.83-4.66-2.58-8.46-2.58H12c-4.9,0-8.45,1.39-10.71,5.14A8.45,8.45,0,0,0,0,304v1.68c0,4.76,4.83,9.36,9.6,9.36Z"/><path class="cls-1" d="M45.44,376.18a5.23,5.23,0,0,0-6.26,0,3.2,3.2,0,0,0-1.28,2.53v19.72a7.71,7.71,0,0,1-3.21,6.22,11.72,11.72,0,0,1-7.64,2.57h-.32a11.81,11.81,0,0,1-7.68-2.57,7.75,7.75,0,0,1-3.17-6.22V378.71a3.2,3.2,0,0,0-1.28-2.53,4.88,4.88,0,0,0-3.13-1,5,5,0,0,0-3.17,1A3.2,3.2,0,0,0,7,378.71v19.72c0,4.4,1.92,8.16,5.79,11.29a21.46,21.46,0,0,0,13.92,4.67h.32a22.67,22.67,0,0,0,11-2.72c.53,1.82,2,2.72,4.27,2.72a4.81,4.81,0,0,0,3.12-1,3.19,3.19,0,0,0,1.32-2.57V378.71A3.16,3.16,0,0,0,45.44,376.18Z"/><path class="cls-1" d="M86.66,376.3a5.23,5.23,0,0,0-6.26,0,3.1,3.1,0,0,0-1.32,2.52v11.36H61.13V378.82a3.16,3.16,0,0,0-1.29-2.52,4.89,4.89,0,0,0-3.12-1,5,5,0,0,0-3.17,1,3.12,3.12,0,0,0-1.28,2.52v32a3.24,3.24,0,0,0,1.28,2.57,5,5,0,0,0,3.17,1,4.94,4.94,0,0,0,3.12-1,3.28,3.28,0,0,0,1.29-2.57V397.35H79.08v13.44a3.22,3.22,0,0,0,1.32,2.57,5.27,5.27,0,0,0,6.26,0A3.2,3.2,0,0,0,88,410.79v-32A3.09,3.09,0,0,0,86.66,376.3Z"/><path class="cls-1" d="M923.49,384.59a9.88,9.88,0,0,1,6.43-2.15h.3a10.41,10.41,0,0,1,5.3,1.37,7.39,7.39,0,0,1,3.27,3.6c.66,1.56,2.05,2.35,4.17,2.35a4.75,4.75,0,0,0,3.6-1.45,2.84,2.84,0,0,0,.62-3.19,14.72,14.72,0,0,0-6.45-7.1,20.32,20.32,0,0,0-10.51-2.76h-.3a19.52,19.52,0,0,0-12.69,4.26c-3.51,2.84-5.25,6.24-5.25,10.24v10.1c0,4,1.74,7.43,5.25,10.28a19.51,19.51,0,0,0,12.69,4.25h.3a20.06,20.06,0,0,0,10.51-2.8,14.68,14.68,0,0,0,6.45-7.06,2.81,2.81,0,0,0-.62-3.18,4.64,4.64,0,0,0-3.6-1.49c-2.12,0-3.51.78-4.17,2.37a7.46,7.46,0,0,1-3.27,3.57,10.07,10.07,0,0,1-5.3,1.42h-.3a9.88,9.88,0,0,1-6.43-2.15,6.51,6.51,0,0,1-2.65-5.21v-10.1A6.45,6.45,0,0,1,923.49,384.59Z"/><path class="cls-1" d="M1093.86,407.14a11.94,11.94,0,0,1-7.66-2.61,7.72,7.72,0,0,1-3.09-6.25v-7a7.75,7.75,0,0,1,3.09-6.25,12,12,0,0,1,7.66-2.6,4.82,4.82,0,0,0,3.14-1.07,3.18,3.18,0,0,0,1.27-2.55,3.22,3.22,0,0,0-1.27-2.52,4.91,4.91,0,0,0-3.14-1,21.39,21.39,0,0,0-13.87,4.72c-3.84,3.13-5.74,6.87-5.74,11.25h-4.64V378.71a3.23,3.23,0,0,0-1.28-2.53,4.89,4.89,0,0,0-3.12-1,4.81,4.81,0,0,0-3.14,1,3.17,3.17,0,0,0-1.33,2.53v12.48h-4.59c0-4.38-1.91-8.12-5.72-11.25a21.42,21.42,0,0,0-13.84-4.72,5,5,0,0,0-3.17,1,3.2,3.2,0,0,0-1.28,2.52,3.16,3.16,0,0,0,1.28,2.55,4.86,4.86,0,0,0,3.17,1.07,12,12,0,0,1,7.63,2.6,7.78,7.78,0,0,1,3.07,6.25v7a7.76,7.76,0,0,1-3.07,6.25,11.91,11.91,0,0,1-7.63,2.61,5,5,0,0,0-3.17,1,3.24,3.24,0,0,0-1.28,2.58,3.2,3.2,0,0,0,1.28,2.53,5,5,0,0,0,3.17,1,21.36,21.36,0,0,0,13.84-4.71q5.71-4.69,5.72-11.25h4.59v12.44a3.2,3.2,0,0,0,1.33,2.57,4.86,4.86,0,0,0,3.14,1,4.94,4.94,0,0,0,3.12-1,3.27,3.27,0,0,0,1.28-2.57V398.35h4.64c0,4.37,1.9,8.12,5.74,11.25a21.33,21.33,0,0,0,13.87,4.71,5,5,0,0,0,3.14-1,3.22,3.22,0,0,0,1.27-2.53,3.26,3.26,0,0,0-1.27-2.58A5,5,0,0,0,1093.86,407.14Z"/><path class="cls-1" d="M881.7,385.23a16.36,16.36,0,0,0-4.2-5.18,21.47,21.47,0,0,0-14-4.75h-.32A21.42,21.42,0,0,0,849.21,380q-5.79,4.65-5.79,11.23v7.38q.11,6.56,5.83,11.17a21.53,21.53,0,0,0,13.89,4.63h.32q10,0,15.88-6.52a2.93,2.93,0,0,0,.66-3.22,3.81,3.81,0,0,0-2.8-2.31,4.54,4.54,0,0,0-5,1.24,11.2,11.2,0,0,1-8.76,3.64h-.32a11.78,11.78,0,0,1-7.68-2.57,7.75,7.75,0,0,1-3.17-6.22l22,0c3.38,0,5.93-1.19,7.63-3.56a5.87,5.87,0,0,0,1.23-3.62,12,12,0,0,0-.32-2.72A13.35,13.35,0,0,0,881.7,385.23Zm-29.41,6v0a7.72,7.72,0,0,1,3.17-6.17,11.84,11.84,0,0,1,7.68-2.58h.32a11.89,11.89,0,0,1,7.63,2.58,8,8,0,0,1,3.17,6.21Z"/><path class="cls-1" d="M834,380.25a21.44,21.44,0,0,0-13.92-4.69h-.34a22.4,22.4,0,0,0-10.95,2.73c0,.08,0,0-.05-.08-.6-1.77-2-2.65-4.25-2.65s-3.74.91-4.27,2.73a22.46,22.46,0,0,0-11-2.73h-.32A21.36,21.36,0,0,0,775,380.25c-3.87,3.12-5.79,6.88-5.79,11.28v7.32c0,4.4,1.92,8.16,5.79,11.29a21.46,21.46,0,0,0,13.92,4.67h.32a22.8,22.8,0,0,0,10.86-2.64v14a3.27,3.27,0,0,0,1.27,2.58,4.82,4.82,0,0,0,3.14,1,5,5,0,0,0,2.93-.89,3.16,3.16,0,0,0,1.42-2.23,1.26,1.26,0,0,0,.1-.49v-14a22.48,22.48,0,0,0,10.8,2.64h.34A21.53,21.53,0,0,0,834,410.14q5.78-4.69,5.77-11.29v-7.32Q839.81,384.93,834,380.25Zm-33.92,18.6a7.72,7.72,0,0,1-3.22,6.22,11.78,11.78,0,0,1-7.64,2.57h-.32a11.87,11.87,0,0,1-7.68-2.57,7.75,7.75,0,0,1-3.17-6.22v-7.32a7.74,7.74,0,0,1,3.17-6.22,11.81,11.81,0,0,1,7.68-2.57h.32a11.72,11.72,0,0,1,7.64,2.57,7.71,7.71,0,0,1,3.22,6.22Zm30.83,0a7.75,7.75,0,0,1-3.17,6.22,11.81,11.81,0,0,1-7.66,2.57h-.34a11.77,11.77,0,0,1-7.63-2.57,7.75,7.75,0,0,1-3.17-6.22v-7.32a7.74,7.74,0,0,1,3.17-6.22,11.71,11.71,0,0,1,7.63-2.57h.34a11.76,11.76,0,0,1,7.66,2.57,7.74,7.74,0,0,1,3.17,6.22Z"/><path class="cls-1" d="M1029,385.23a16.26,16.26,0,0,0-4.21-5.18,21.45,21.45,0,0,0-14-4.75h-.33A21.41,21.41,0,0,0,996.46,380q-5.79,4.65-5.79,11.23v7.38q.11,6.56,5.82,11.17a21.55,21.55,0,0,0,13.89,4.63h.33q10,0,15.88-6.52a2.93,2.93,0,0,0,.66-3.22,3.83,3.83,0,0,0-2.8-2.31,4.54,4.54,0,0,0-5,1.24,11.2,11.2,0,0,1-8.76,3.64h-.33a11.81,11.81,0,0,1-7.68-2.57,7.75,7.75,0,0,1-3.17-6.22l22,0c3.38,0,5.93-1.19,7.63-3.56a5.93,5.93,0,0,0,1.23-3.62,11.44,11.44,0,0,0-.33-2.72A12.92,12.92,0,0,0,1029,385.23Zm-29.42,6v0a7.72,7.72,0,0,1,3.17-6.17,11.88,11.88,0,0,1,7.68-2.58h.33a11.89,11.89,0,0,1,7.63,2.58,8,8,0,0,1,3.17,6.21Z"/><path class="cls-1" d="M660.4,376.3a5.23,5.23,0,0,0-6.26,0,3.08,3.08,0,0,0-1.32,2.52v11.36h-18V378.82a3.16,3.16,0,0,0-1.29-2.52,4.89,4.89,0,0,0-3.12-1,5,5,0,0,0-3.17,1,3.12,3.12,0,0,0-1.28,2.52v32a3.24,3.24,0,0,0,1.28,2.57,5,5,0,0,0,3.17,1,4.94,4.94,0,0,0,3.12-1,3.28,3.28,0,0,0,1.29-2.57V397.35h18v13.44a3.19,3.19,0,0,0,1.32,2.57,5.27,5.27,0,0,0,6.26,0,3.2,3.2,0,0,0,1.33-2.57v-32A3.09,3.09,0,0,0,660.4,376.3Z"/><path class="cls-1" d="M724.2,378.71a3.2,3.2,0,0,0-1.28-2.53,5.2,5.2,0,0,0-6.24,0l-15.39,12.47v-9.94a3.23,3.23,0,0,0-1.3-2.53,4.87,4.87,0,0,0-3.12-1,5,5,0,0,0-3.17,1,3.22,3.22,0,0,0-1.27,2.53v32.08a3.25,3.25,0,0,0,1.27,2.57,5,5,0,0,0,3.17,1,4.92,4.92,0,0,0,3.12-1,3.26,3.26,0,0,0,1.3-2.57v-9.9l15.39,12.47a5.24,5.24,0,0,0,6.24,0,3.19,3.19,0,0,0,0-5.11l-16.67-13.5,16.67-13.46A3.25,3.25,0,0,0,724.2,378.71Z"/><path class="cls-1" d="M458.33,376.18a4.79,4.79,0,0,0-3.13-1q-3.46,0-4.26,2.73a22.68,22.68,0,0,0-11-2.73h-.32a21.42,21.42,0,0,0-13.93,4.68q-5.79,4.69-5.78,11.29v7.32q0,6.6,5.78,11.29a21.46,21.46,0,0,0,13.93,4.67h.32a22.51,22.51,0,0,0,11-2.72c.53,1.82,1.95,2.72,4.26,2.72a4.83,4.83,0,0,0,3.13-1,3.22,3.22,0,0,0,1.32-2.57V378.71A3.19,3.19,0,0,0,458.33,376.18Zm-7.54,22.25a7.72,7.72,0,0,1-3.22,6.22,11.7,11.7,0,0,1-7.63,2.57h-.32a11.79,11.79,0,0,1-7.68-2.57,7.75,7.75,0,0,1-3.17-6.22v-7.32a7.73,7.73,0,0,1,3.17-6.22,11.79,11.79,0,0,1,7.68-2.57h.32a11.7,11.7,0,0,1,7.63,2.57,7.7,7.7,0,0,1,3.22,6.22Z"/><path class="cls-1" d="M125,376.3a4.78,4.78,0,0,0-3.14-1H96.05a5,5,0,0,0-3.17,1,3.11,3.11,0,0,0,0,5.06,4.87,4.87,0,0,0,3.17,1.08h8.47v28.35a3.2,3.2,0,0,0,1.33,2.57,4.8,4.8,0,0,0,3.13,1,4.9,4.9,0,0,0,3.12-1,3.24,3.24,0,0,0,1.28-2.57V382.44h8.52a4.7,4.7,0,0,0,3.14-1.08,3.14,3.14,0,0,0,0-5.06Z"/><path class="cls-1" d="M366.92,382.9H338.27a5,5,0,0,0-3.17,1,3.23,3.23,0,0,0-1.3,2.53,3.27,3.27,0,0,0,1.3,2.57,5,5,0,0,0,3.17,1h28.65a5,5,0,0,0,3.18-1,3.25,3.25,0,0,0,1.28-2.57,3.2,3.2,0,0,0-1.28-2.53A5,5,0,0,0,366.92,382.9Z"/><path class="cls-1" d="M492.11,376.3a4.89,4.89,0,0,0-3.14-1H469.6a6.54,6.54,0,0,0-.81,0,4.55,4.55,0,0,0-2.6,1.22,3.12,3.12,0,0,0-1,2.3v32a3.25,3.25,0,0,0,1.27,2.57,5,5,0,0,0,3.17,1,4.92,4.92,0,0,0,3.12-1,3.26,3.26,0,0,0,1.3-2.57V382.44h15a4.81,4.81,0,0,0,3.14-1.08,3.14,3.14,0,0,0,0-5.06Z"/><path class="cls-1" d="M982.61,393.68a9.59,9.59,0,0,0,3.37-7.26v-.14a9.64,9.64,0,0,0-3.79-7.61,14.66,14.66,0,0,0-9.2-3.41l-.61,0H956.89a5,5,0,0,0-3.17,1,3.2,3.2,0,0,0-1.28,2.52v32a3.2,3.2,0,0,0,1.28,2.53,5,5,0,0,0,3.17,1h15.39v0a16.24,16.24,0,0,0,10.48-3.49,10.66,10.66,0,0,0,4.3-8.48v-.15A10.61,10.61,0,0,0,982.61,393.68ZM961.3,382.4l11,0a5.17,5.17,0,0,1,3.36,1.11,3.37,3.37,0,0,1,1.43,2.73v.14a3.32,3.32,0,0,1-1.43,2.72,5,5,0,0,1-3.36,1.16h-11Zm16.9,20a4.31,4.31,0,0,1-1.65,3.34,6.34,6.34,0,0,1-4,1.42H961.3v-9.71h11a6.37,6.37,0,0,1,4.17,1.42,4.23,4.23,0,0,1,1.7,3.38Z"/><path class="cls-1" d="M569.8,401.77q6.21-4.45,6.21-11.09v-.27c0-4-1.74-7.45-5.22-10.32a19.83,19.83,0,0,0-12.64-4.49h-.47a20.57,20.57,0,0,0-10.56,3,15,15,0,0,0-6.4,7.16,2.91,2.91,0,0,0,.66,3.2,4.73,4.73,0,0,0,3.6,1.45q3.22,0,4.18-2.34a7.52,7.52,0,0,1,3.31-3.76,10.87,10.87,0,0,1,5.45-1.53,10.27,10.27,0,0,1,6.53,2.3,6.7,6.7,0,0,1,2.7,5.33v.27a6.56,6.56,0,0,1-1.66,4.34,9.28,9.28,0,0,1-4.3,2.75c-2.35.78-3.51,2.13-3.51,4.08v.08q0,3,3.68,4.13a10.41,10.41,0,0,1,5,3.12,7.19,7.19,0,0,1,1.94,4.94v.12a7.74,7.74,0,0,1-2.23,5.4,10.5,10.5,0,0,1-5.82,3.08,12.62,12.62,0,0,1-8-1,8.9,8.9,0,0,1-4.74-4.91q-.94-2.5-4.22-2.51a4.56,4.56,0,0,0-3.59,1.5,3,3,0,0,0-.62,3.22c1.51,3.91,4.47,6.91,8.85,9a23.22,23.22,0,0,0,14.78,1.57,19.1,19.1,0,0,0,10.43-5.68,13.93,13.93,0,0,0,4-9.7v-.12Q577.15,406.52,569.8,401.77Z"/><path class="cls-1" d="M619.18,376.18a5.23,5.23,0,0,0-6.26,0,3.2,3.2,0,0,0-1.28,2.53v19.72a7.71,7.71,0,0,1-3.21,6.22,11.72,11.72,0,0,1-7.64,2.57h-.32a11.81,11.81,0,0,1-7.68-2.57,7.75,7.75,0,0,1-3.17-6.22V378.71a3.2,3.2,0,0,0-1.28-2.53,4.88,4.88,0,0,0-3.13-1,5,5,0,0,0-3.17,1,3.2,3.2,0,0,0-1.28,2.53v19.72c0,4.4,1.92,8.16,5.79,11.29a21.46,21.46,0,0,0,13.92,4.67h.32a22.67,22.67,0,0,0,11-2.72c.53,1.82,2,2.72,4.27,2.72a4.81,4.81,0,0,0,3.12-1,3.19,3.19,0,0,0,1.32-2.57V378.71A3.16,3.16,0,0,0,619.18,376.18Z"/><path class="cls-1" d="M533.51,376.18a4.74,4.74,0,0,0-3.12-1q-3.46,0-4.27,2.73a22.61,22.61,0,0,0-11-2.73h-.33a21.41,21.41,0,0,0-13.92,4.68q-5.79,4.69-5.79,11.29v7.32q0,6.6,5.79,11.29a21.46,21.46,0,0,0,13.92,4.67h.33a22.44,22.44,0,0,0,11-2.72c.54,1.82,2,2.72,4.27,2.72a4.79,4.79,0,0,0,3.12-1,3.2,3.2,0,0,0,1.33-2.57V378.71A3.17,3.17,0,0,0,533.51,376.18ZM526,398.43a7.72,7.72,0,0,1-3.22,6.22,11.71,11.71,0,0,1-7.63,2.57h-.33a11.81,11.81,0,0,1-7.68-2.57,7.75,7.75,0,0,1-3.17-6.22v-7.32a7.73,7.73,0,0,1,3.17-6.22,11.81,11.81,0,0,1,7.68-2.57h.33a11.71,11.71,0,0,1,7.63,2.57,7.7,7.7,0,0,1,3.22,6.22Z"/><path class="cls-1" d="M414.08,376.1a4.82,4.82,0,0,0-3.14-1.07,4.5,4.5,0,0,0-3.78,1.72l-.2.24-11.83,18.53L383.37,377a.88.88,0,0,1-.14-.2,4.49,4.49,0,0,0-3.79-1.76,4.86,4.86,0,0,0-3.17,1.07,3.15,3.15,0,0,0-1.28,2.54v32.15a3.27,3.27,0,0,0,1.28,2.57,5,5,0,0,0,3.17,1,4.92,4.92,0,0,0,3.12-1,3.26,3.26,0,0,0,1.3-2.57V393.44l7.47,11.83a1.85,1.85,0,0,0,.38.34,4.05,4.05,0,0,0,1.38.95,5.08,5.08,0,0,0,3.36.24,4.21,4.21,0,0,0,2.61-1.77l7.43-11.66v17.42a3.24,3.24,0,0,0,1.28,2.57,5.35,5.35,0,0,0,6.31,0,3.25,3.25,0,0,0,1.27-2.57V378.64A3.14,3.14,0,0,0,414.08,376.1Z"/><path class="cls-1" d="M206.29,379.9a21.41,21.41,0,0,0-13.92-4.68H192a22.44,22.44,0,0,0-11,2.73q-.86-2.73-4.27-2.73a5,5,0,0,0-3.17,1,3.22,3.22,0,0,0-1.27,2.52v47.09a3.25,3.25,0,0,0,1.27,2.56,5,5,0,0,0,3.17,1,4.87,4.87,0,0,0,3.12-1,3.25,3.25,0,0,0,1.3-2.56v-14A22.51,22.51,0,0,0,192,414.47h.34a21.36,21.36,0,0,0,13.92-4.69c3.87-3.11,5.79-6.87,5.79-11.27v-7.32C212.08,386.79,210.16,383,206.29,379.9Zm-3.07,18.61a7.74,7.74,0,0,1-3.22,6.22,11.78,11.78,0,0,1-7.63,2.56H192a11.79,11.79,0,0,1-7.66-2.56,7.77,7.77,0,0,1-3.17-6.22v-7.32a7.73,7.73,0,0,1,3.17-6.22A11.74,11.74,0,0,1,192,382.4h.34A11.73,11.73,0,0,1,200,385a7.7,7.7,0,0,1,3.22,6.22Z"/><path class="cls-1" d="M759.84,379.82a21.45,21.45,0,0,0-13.93-4.68h-.33a21.41,21.41,0,0,0-13.92,4.68q-5.79,4.69-5.79,11.29v7.32q0,6.6,5.79,11.29a21.46,21.46,0,0,0,13.92,4.67h.33a21.5,21.5,0,0,0,13.93-4.67q5.77-4.7,5.78-11.29v-7.32Q765.62,384.51,759.84,379.82Zm-3.08,18.61a7.72,7.72,0,0,1-3.22,6.22,11.71,11.71,0,0,1-7.63,2.57h-.33a11.81,11.81,0,0,1-7.68-2.57,7.75,7.75,0,0,1-3.17-6.22v-7.32a7.73,7.73,0,0,1,3.17-6.22,11.81,11.81,0,0,1,7.68-2.57h.33a11.71,11.71,0,0,1,7.63,2.57,7.7,7.7,0,0,1,3.22,6.22Z"/><path class="cls-1" d="M166.3,385.23a16.26,16.26,0,0,0-4.21-5.18,21.43,21.43,0,0,0-14-4.75h-.33A21.41,21.41,0,0,0,133.81,380Q128,384.63,128,391.21v7.38q.1,6.56,5.82,11.17a21.55,21.55,0,0,0,13.89,4.63h.33q10,0,15.88-6.52a2.93,2.93,0,0,0,.66-3.22,3.81,3.81,0,0,0-2.8-2.31,4.54,4.54,0,0,0-5,1.24,11.2,11.2,0,0,1-8.76,3.64h-.33a11.81,11.81,0,0,1-7.68-2.57,7.78,7.78,0,0,1-3.17-6.22l22,0c3.38,0,5.93-1.19,7.63-3.56a5.93,5.93,0,0,0,1.23-3.62,11.44,11.44,0,0,0-.33-2.72A12.92,12.92,0,0,0,166.3,385.23Zm-29.42,6v0a7.75,7.75,0,0,1,3.17-6.17,11.88,11.88,0,0,1,7.68-2.58h.33a11.89,11.89,0,0,1,7.63,2.58,8,8,0,0,1,3.17,6.21Z"/><path class="cls-1" d="M251,376.3a5.22,5.22,0,0,0-6.25,0,3.09,3.09,0,0,0-1.33,2.52v11.36H225.49V378.82a3.13,3.13,0,0,0-1.29-2.52,4.89,4.89,0,0,0-3.12-1,5,5,0,0,0-3.17,1,3.12,3.12,0,0,0-1.28,2.52v32a3.24,3.24,0,0,0,1.28,2.57,5,5,0,0,0,3.17,1,4.94,4.94,0,0,0,3.12-1,3.25,3.25,0,0,0,1.29-2.57V397.35h17.95v13.44a3.2,3.2,0,0,0,1.33,2.57,5.26,5.26,0,0,0,6.25,0,3.2,3.2,0,0,0,1.33-2.57v-32A3.09,3.09,0,0,0,251,376.3Z"/><path class="cls-1" d="M1136.31,385.23a16.09,16.09,0,0,0-4.2-5.18,21.47,21.47,0,0,0-14-4.75h-.32a21.41,21.41,0,0,0-13.92,4.68c-3.87,3.1-5.79,6.85-5.79,11.23v7.38q.09,6.56,5.82,11.17a21.53,21.53,0,0,0,13.89,4.63h.32q10,0,15.88-6.52a2.93,2.93,0,0,0,.66-3.22,3.79,3.79,0,0,0-2.79-2.31,4.53,4.53,0,0,0-5,1.24,11.24,11.24,0,0,1-8.77,3.64h-.32a11.81,11.81,0,0,1-7.68-2.57,7.75,7.75,0,0,1-3.17-6.22l22,0c3.38,0,5.94-1.19,7.64-3.56a5.92,5.92,0,0,0,1.22-3.62,12,12,0,0,0-.32-2.72A13,13,0,0,0,1136.31,385.23Zm-29.41,6v0a7.72,7.72,0,0,1,3.17-6.17,11.88,11.88,0,0,1,7.68-2.58h.32a11.92,11.92,0,0,1,7.64,2.58,8,8,0,0,1,3.16,6.21Z"/><path class="cls-1" d="M332.76,376.3a4.78,4.78,0,0,0-3.14-1H303.77a5,5,0,0,0-3.17,1,3.13,3.13,0,0,0,0,5.06,4.87,4.87,0,0,0,3.17,1.08h8.47v28.35a3.2,3.2,0,0,0,1.33,2.57,4.8,4.8,0,0,0,3.13,1,5,5,0,0,0,3.13-1,3.25,3.25,0,0,0,1.27-2.57V382.44h8.52a4.7,4.7,0,0,0,3.14-1.08,3.14,3.14,0,0,0,0-5.06Z"/><path class="cls-1" d="M295.18,385.23a16.26,16.26,0,0,0-4.21-5.18,21.45,21.45,0,0,0-14-4.75h-.33A21.41,21.41,0,0,0,262.69,380q-5.79,4.65-5.79,11.23v7.38q.11,6.56,5.82,11.17a21.55,21.55,0,0,0,13.89,4.63h.33q10,0,15.87-6.52a3,3,0,0,0,.67-3.22,3.83,3.83,0,0,0-2.8-2.31,4.54,4.54,0,0,0-5,1.24,11.2,11.2,0,0,1-8.76,3.64h-.33a11.81,11.81,0,0,1-7.68-2.57,7.75,7.75,0,0,1-3.17-6.22l22,0c3.38,0,5.93-1.19,7.63-3.56a5.93,5.93,0,0,0,1.23-3.62,12,12,0,0,0-.33-2.72A12.92,12.92,0,0,0,295.18,385.23Zm-29.42,6v0a7.72,7.72,0,0,1,3.17-6.17,11.88,11.88,0,0,1,7.68-2.58h.33a11.89,11.89,0,0,1,7.63,2.58,8,8,0,0,1,3.17,6.21Z"/><path class="cls-1" d="M1171,357.53a4.62,4.62,0,0,0-4.12,2.23,5.79,5.79,0,0,1-5.3,2.6,5.87,5.87,0,0,1-5.31-2.6,5,5,0,0,0-7.9-.54,3,3,0,0,0-.25,3.53,13.4,13.4,0,0,0,5.4,4.95,17.3,17.3,0,0,0,8.06,1.92,17,17,0,0,0,8.05-1.92,13,13,0,0,0,5.4-4.95,2.88,2.88,0,0,0-.23-3.53A4.56,4.56,0,0,0,1171,357.53Z"/><path class="cls-1" d="M1289.16,383a21.41,21.41,0,0,0-13.93-4.67h-.34a22.43,22.43,0,0,0-10.83,2.64v-4.53a7.67,7.67,0,0,1,3.12-6.21,11.52,11.52,0,0,1,7.63-2.6,4.93,4.93,0,0,0,3.12-1.08,3.08,3.08,0,0,0,0-5.07,4.66,4.66,0,0,0-3.12-1.07A21.59,21.59,0,0,0,1261,365.2q-5.78,4.67-5.77,11.21v34.38a3.24,3.24,0,0,0,1.28,2.57,5,5,0,0,0,3.17,1c2.28,0,3.7-.9,4.26-2.72a22.43,22.43,0,0,0,11,2.72h.34a21.46,21.46,0,0,0,13.93-4.67q5.79-4.7,5.78-11.29v-4.1Q1294.94,387.73,1289.16,383Zm-3.08,15.39a7.71,7.71,0,0,1-3.21,6.22,11.76,11.76,0,0,1-7.64,2.57h-.34a11.76,11.76,0,0,1-7.66-2.57,7.75,7.75,0,0,1-3.17-6.22v-4.1a7.73,7.73,0,0,1,3.17-6.22,11.76,11.76,0,0,1,7.66-2.57h.34a11.76,11.76,0,0,1,7.64,2.57,7.69,7.69,0,0,1,3.21,6.22Z"/><path class="cls-1" d="M1350.7,385a12,12,0,0,1,7.67-2.6,4.82,4.82,0,0,0,3.14-1.07,3.18,3.18,0,0,0,1.27-2.55,3.22,3.22,0,0,0-1.27-2.52,4.91,4.91,0,0,0-3.14-1,21.39,21.39,0,0,0-13.87,4.72c-3.84,3.13-5.74,6.87-5.74,11.25h-4.65V378.71a3.22,3.22,0,0,0-1.27-2.53,4.89,4.89,0,0,0-3.12-1,4.81,4.81,0,0,0-3.14,1,3.17,3.17,0,0,0-1.33,2.53v12.48h-4.59c0-4.38-1.91-8.12-5.72-11.25a21.42,21.42,0,0,0-13.84-4.72,5,5,0,0,0-3.17,1,3.2,3.2,0,0,0-1.28,2.52,3.16,3.16,0,0,0,1.28,2.55,4.86,4.86,0,0,0,3.17,1.07,12,12,0,0,1,7.63,2.6,7.78,7.78,0,0,1,3.07,6.25v7a7.76,7.76,0,0,1-3.07,6.25,11.91,11.91,0,0,1-7.63,2.61,5,5,0,0,0-3.17,1,3.24,3.24,0,0,0-1.28,2.58,3.2,3.2,0,0,0,1.28,2.53,5,5,0,0,0,3.17,1,21.36,21.36,0,0,0,13.84-4.71q5.71-4.69,5.72-11.25h4.59v12.44a3.2,3.2,0,0,0,1.33,2.57,4.86,4.86,0,0,0,3.14,1,4.94,4.94,0,0,0,3.12-1,3.25,3.25,0,0,0,1.27-2.57V398.35h4.65c0,4.37,1.9,8.12,5.74,11.25a21.33,21.33,0,0,0,13.87,4.71,5,5,0,0,0,3.14-1,3.22,3.22,0,0,0,1.27-2.53,3.26,3.26,0,0,0-1.27-2.58,5,5,0,0,0-3.14-1,12,12,0,0,1-7.67-2.61,7.74,7.74,0,0,1-3.08-6.25v-7A7.77,7.77,0,0,1,1350.7,385Z"/><path class="cls-1" d="M1402.91,376.18a4.76,4.76,0,0,0-3.12-1c-2.31,0-3.74.91-4.27,2.73a22.68,22.68,0,0,0-11-2.73h-.32a21.41,21.41,0,0,0-13.92,4.68c-3.87,3.13-5.79,6.89-5.79,11.29v7.32c0,4.4,1.92,8.16,5.79,11.29a21.46,21.46,0,0,0,13.92,4.67h.32a22.51,22.51,0,0,0,11-2.72c.53,1.82,2,2.72,4.27,2.72a4.81,4.81,0,0,0,3.12-1,3.19,3.19,0,0,0,1.32-2.57V378.71A3.16,3.16,0,0,0,1402.91,376.18Zm-7.54,22.25a7.71,7.71,0,0,1-3.21,6.22,11.72,11.72,0,0,1-7.64,2.57h-.32a11.81,11.81,0,0,1-7.68-2.57,7.75,7.75,0,0,1-3.17-6.22v-7.32a7.73,7.73,0,0,1,3.17-6.22,11.81,11.81,0,0,1,7.68-2.57h.32a11.72,11.72,0,0,1,7.64,2.57,7.69,7.69,0,0,1,3.21,6.22Z"/><path class="cls-1" d="M1179.82,376.18a5.23,5.23,0,0,0-6.26,0,3.2,3.2,0,0,0-1.28,2.53v19.72a7.72,7.72,0,0,1-3.22,6.22,11.68,11.68,0,0,1-7.63,2.57h-.32a11.81,11.81,0,0,1-7.68-2.57,7.75,7.75,0,0,1-3.17-6.22V378.71a3.2,3.2,0,0,0-1.28-2.53,4.89,4.89,0,0,0-3.14-1,5,5,0,0,0-3.17,1,3.22,3.22,0,0,0-1.27,2.53v19.72c0,4.4,1.92,8.16,5.79,11.29a21.42,21.42,0,0,0,13.92,4.67h.32a22.67,22.67,0,0,0,11-2.72c.53,1.82,2,2.72,4.27,2.72a4.83,4.83,0,0,0,3.12-1,3.19,3.19,0,0,0,1.32-2.57V378.71A3.16,3.16,0,0,0,1179.82,376.18Z"/><path class="cls-1" d="M1244.86,379.82a21.5,21.5,0,0,0-13.94-4.68h-.32a21.42,21.42,0,0,0-13.93,4.68q-5.79,4.69-5.78,11.29v7.32q0,6.6,5.78,11.29a21.46,21.46,0,0,0,13.93,4.67h.32a21.55,21.55,0,0,0,13.94-4.67q5.78-4.7,5.77-11.29v-7.32Q1250.63,384.51,1244.86,379.82Zm-3.09,18.61a7.72,7.72,0,0,1-3.22,6.22,11.7,11.7,0,0,1-7.63,2.57h-.32a11.79,11.79,0,0,1-7.68-2.57,7.75,7.75,0,0,1-3.17-6.22v-7.32a7.73,7.73,0,0,1,3.17-6.22,11.79,11.79,0,0,1,7.68-2.57h.32a11.7,11.7,0,0,1,7.63,2.57,7.7,7.7,0,0,1,3.22,6.22Z"/><path class="cls-1" d="M1527.84,376.18a5.23,5.23,0,0,0-6.26,0,3.22,3.22,0,0,0-1.27,2.53v19.72a7.72,7.72,0,0,1-3.22,6.22,11.71,11.71,0,0,1-7.63,2.57h-.33a11.81,11.81,0,0,1-7.68-2.57,7.75,7.75,0,0,1-3.17-6.22V378.71a3.2,3.2,0,0,0-1.28-2.53,4.86,4.86,0,0,0-3.13-1,5,5,0,0,0-3.17,1,3.2,3.2,0,0,0-1.28,2.53v19.72q0,6.6,5.79,11.29a21.46,21.46,0,0,0,13.92,4.67h.33a22.66,22.66,0,0,0,11-2.72c.53,1.82,2,2.72,4.27,2.72a4.81,4.81,0,0,0,3.12-1,3.2,3.2,0,0,0,1.33-2.57V378.71A3.17,3.17,0,0,0,1527.84,376.18Z"/><path class="cls-1" d="M1443.7,379.9a21.42,21.42,0,0,0-13.93-4.68h-.34a22.44,22.44,0,0,0-11,2.73q-.84-2.73-4.26-2.73a5,5,0,0,0-3.17,1,3.2,3.2,0,0,0-1.28,2.52v47.09a3.23,3.23,0,0,0,1.28,2.56,5,5,0,0,0,3.17,1,4.89,4.89,0,0,0,3.12-1,3.27,3.27,0,0,0,1.29-2.56v-14a22.54,22.54,0,0,0,10.83,2.64h.34a21.37,21.37,0,0,0,13.93-4.69q5.79-4.66,5.78-11.27v-7.32Q1449.48,384.59,1443.7,379.9Zm-3.08,18.61a7.73,7.73,0,0,1-3.21,6.22,11.81,11.81,0,0,1-7.64,2.56h-.34a11.81,11.81,0,0,1-7.66-2.56,7.77,7.77,0,0,1-3.17-6.22v-7.32a7.73,7.73,0,0,1,3.17-6.22,11.76,11.76,0,0,1,7.66-2.57h.34a11.76,11.76,0,0,1,7.64,2.57,7.69,7.69,0,0,1,3.21,6.22Z"/><path class="cls-1" d="M1485.81,378.71a3.2,3.2,0,0,0-1.28-2.53,5.2,5.2,0,0,0-6.24,0l-15.39,12.47v-9.94a3.23,3.23,0,0,0-1.3-2.53,4.87,4.87,0,0,0-3.12-1,5,5,0,0,0-3.17,1,3.2,3.2,0,0,0-1.28,2.53v32.08a3.24,3.24,0,0,0,1.28,2.57,5,5,0,0,0,3.17,1,4.92,4.92,0,0,0,3.12-1,3.26,3.26,0,0,0,1.3-2.57v-9.9l15.39,12.47a5.24,5.24,0,0,0,6.24,0,3.19,3.19,0,0,0,0-5.11l-16.67-13.5,16.67-13.46A3.25,3.25,0,0,0,1485.81,378.71Z"/><path class="cls-1" d="M96.21,221.34a10.61,10.61,0,0,0,4.79,7.09,10.4,10.4,0,0,0,8.41,1.68,11.17,11.17,0,0,0,7.21-4.8l23.76-35.77,23.77,35.77a10.62,10.62,0,0,0,7.09,4.8,10.78,10.78,0,0,0,8.52-1.68,10.9,10.9,0,0,0,4.8-7.09,11.68,11.68,0,0,0-1.68-8.53l-29.06-43.55,29.06-43.6a11.2,11.2,0,0,0,1.68-8.4,11.33,11.33,0,0,0-13.32-8.77,10.76,10.76,0,0,0-7.09,4.83L140.38,149.1l-23.76-35.78a11.32,11.32,0,0,0-7.21-4.83,10.51,10.51,0,0,0-8.41,1.68,10.68,10.68,0,0,0-4.79,7.09,10.38,10.38,0,0,0,1.68,8.4l28.93,43.6L97.89,212.81A10.81,10.81,0,0,0,96.21,221.34Z"/><path class="cls-1" d="M362.31,193.27h.82a48.93,48.93,0,0,0,27.5-8.28v34.09a11.13,11.13,0,0,0,3.24,8,11.34,11.34,0,0,0,15.85,0,10.93,10.93,0,0,0,3.36-8v-100a10.52,10.52,0,0,0-3.36-7.91,11.17,11.17,0,0,0-19.09,7.91v24.26a27.64,27.64,0,0,1-27.5,27.49h-.82a27.42,27.42,0,0,1-27.49-27.49V119.06a10.74,10.74,0,0,0-3.24-7.91,11,11,0,0,0-7.95-3.24,11.15,11.15,0,0,0-8,3.24,10.74,10.74,0,0,0-3.24,7.91v24.26a50.09,50.09,0,0,0,49.95,50Z"/><path class="cls-1" d="M247.21,230.35H248a49.95,49.95,0,0,0,50-49.95V157.5a49.93,49.93,0,0,0-50-49.95h-.82a50,50,0,0,0-50,50v22.9a50,50,0,0,0,50,49.95Zm-27.5-72.85a27.43,27.43,0,0,1,27.5-27.5H248a27.64,27.64,0,0,1,27.5,27.5v22.9A27.64,27.64,0,0,1,248,207.9h-.82a27.43,27.43,0,0,1-27.5-27.5Z"/><path class="cls-1" d="M467.54,218.72,450.29,263.5a10.64,10.64,0,0,0,.21,8.53,10.45,10.45,0,0,0,6.27,5.86,11.14,11.14,0,0,0,14.5-6.36l56.55-147.8a11.72,11.72,0,0,0-.25-8.65,10.91,10.91,0,0,0-6.35-5.85,10.62,10.62,0,0,0-8.52.24,10.86,10.86,0,0,0-5.9,6.23l-27.13,71.54L452.42,115.7a10.44,10.44,0,0,0-5.86-6.23,10.62,10.62,0,0,0-8.52-.24,10.44,10.44,0,0,0-6.27,5.85,11.17,11.17,0,0,0-.33,8.65Z"/><path class="cls-1" d="M1092.22,231.62h.82a50.41,50.41,0,0,0,50.41-50.41V158.09A50.39,50.39,0,0,0,1093,107.68h-.82a50.46,50.46,0,0,0-50.41,50.41v23.12a50.48,50.48,0,0,0,50.41,50.41Zm-27.75-73.53a27.67,27.67,0,0,1,27.75-27.75h.82a27.9,27.9,0,0,1,27.75,27.75v23.12A27.9,27.9,0,0,1,1093,209h-.82a27.67,27.67,0,0,1-27.75-27.75Z"/><path class="cls-1" d="M959.93,231.62a11.11,11.11,0,0,0,8-3.27,11.27,11.27,0,0,0,3.31-8.1V189l39.36,39.37a11.38,11.38,0,0,0,16,0,11.61,11.61,0,0,0,0-16.13l-42.64-42.63,42.64-42.51a11.29,11.29,0,0,0,3.26-8.15,11.08,11.08,0,0,0-3.26-8,11.38,11.38,0,0,0-16,0l-39.36,39.37V118.93a11.23,11.23,0,0,0-11.29-11.25,11.26,11.26,0,0,0-8.11,3.27,11.09,11.09,0,0,0-3.27,8V220.25a11.17,11.17,0,0,0,11.38,11.37Z"/><path class="cls-1" d="M1173.53,217.36c7.66,8.66,21.32,15.75,32.87,15.75,11.14,0,16.11,0,26.77-4.93,1.51-.7,3.71-2.45,5.29-2.82v9.82c0,4.85-.41,12.11,1.16,15.4,2.27,4.75,6.15,6.74,10,6.8h.35a11.77,11.77,0,0,0,10.35-6.33c1.76-3.73,1.4-10,1.4-15.52V225.36c1.47.35,3.47,1.93,5,2.71,13.5,6.76,31.75,6.94,45.1.23l7.28-4.35a52,52,0,0,0,16.32-19.26c2.3-4.57,4.81-12.13,4.81-18.79V156.3c0-17.68-13-34.77-28.64-42.52a47.82,47.82,0,0,0-18.49-4.7H1287a52.45,52.45,0,0,0-23.18,6.71c-1,.58-1.72,1.16-2.83,1.75a10.57,10.57,0,0,0-9.38-8.46h-3c-4.73.55-9.06,3.64-9.46,8.46-5.2-2.75-5-3.2-11.52-5.75a44.31,44.31,0,0,0-13.9-2.71h-5.12a51.61,51.61,0,0,0-20.31,4.82,53.91,53.91,0,0,0-24.42,24.9,52.36,52.36,0,0,0-4.35,20.67v23.61a48.2,48.2,0,0,0,11,31C1171.63,215.46,1172.37,216.05,1173.53,217.36ZM1261.71,157c0-7.15,4-13,8.54-17.53,7.51-7.58,21.41-9.66,30.8-5.26a28,28,0,0,1,13.62,13.16,23.39,23.39,0,0,1,2.7,10.69v25.72c0,13.56-12.18,26.43-25.72,26.43-9.7,0-14.91-1-21.85-7.74-3.58-3.47-8.09-10.31-8.09-17.28Zm-77.46-7.35a27.79,27.79,0,0,1,26-17.66c6.52,0,11.09,1.25,15.93,4.5,6.21,4.17,12.26,12.24,12.26,21.22v27.48c0,6.69-3.88,12.85-8.19,17.18-10.22,10.28-27.09,10.61-38.32,1.15a27,27,0,0,1-7.6-10.72,32.63,32.63,0,0,1-1.91-12.19C1182.44,172.12,1181.6,156.59,1184.25,149.65Z"/><path class="cls-1" d="M1406.72,230.25h.83q25.5,0,40.61-20.59a10.91,10.91,0,0,0,1.69-10.17,10.53,10.53,0,0,0-7.15-7.28c-5.25-1.86-9.47-.54-12.74,3.88-5.58,7.66-13,11.5-22.41,11.5h-.83A27.67,27.67,0,0,1,1379,179.84l56.33-.12c8.64,0,15.17-3.76,19.52-11.25a21.54,21.54,0,0,0,3.14-11.41,46,46,0,0,0-.83-8.6,48.12,48.12,0,0,0-2.93-10.3,50.64,50.64,0,0,0-10.76-16.34,48.58,48.58,0,0,0-35.89-15h-.83a50.5,50.5,0,0,0-50.41,50.25v23.28a50.41,50.41,0,0,0,50.41,49.91ZM1379,157.06a27.76,27.76,0,0,1,27.75-27.63h.83a26.87,26.87,0,0,1,19.52,8.15,27.63,27.63,0,0,1,8.1,19.6H1379Z"/></svg>