<svg id="Слой_1" data-name="Слой 1" xmlns="http://www.w3.org/2000/svg" viewBox="0 0 112.09 112"><defs><style>.cls-1{fill:#323337;fill-rule:evenodd;}</style></defs><path class="cls-1" d="M107.11,32.82a53.58,53.58,0,0,0-4.92-8.64,48.49,48.49,0,0,0-6.27-7.52c-5.23-5.24-9-7.87-16-11.36A53.21,53.21,0,0,0,57.55,0h-3a53.22,53.22,0,0,0-22.4,5.3,56.58,56.58,0,0,0-8.56,5l-5.67,4.62-1.75,1.75A55.39,55.39,0,0,0,0,55.42,53.2,53.2,0,0,0,1.49,68.89c3,12,7.56,19.24,16.31,28.1.72.72,1.17,1,1.87,1.64,3,2.86,8.76,6.21,12.48,8.09,13.76,6.94,33.6,7.11,47.64.08,15.64-7.84,26.3-20,30.72-37.53a54.56,54.56,0,0,0,1.58-12V54.84A55.51,55.51,0,0,0,107.11,32.82ZM95.65,85.72c-.39.51-.63.88-1,1.33l-3.49,4c-.54.53-.76.58-1.29,1-1.24,1.09-2.61,3-4.37,3.11-2.06.09-13.59-.19-14.63.08a2.65,2.65,0,0,0-1.41.93,3.41,3.41,0,0,0,1,5.19c1,.53,3,.34,4.34.34-2.13,1.85-13.82,3.74-17.28,3.74-5.93,0-13.79-.79-19.16-3.26-.46-.21-.2-.07-.46-.25H57c5.38,0,4.45-4.79,2.71-6-1.45-1-4.91-.55-7.16-.55-3.9,0-25.66.29-26.66-.19-.29-.15-1.84-1.42-2.23-1.75A50.21,50.21,0,0,1,8.56,70C4.15,55.1,7.19,38.59,16,26.82c.74-1,1.28-1.67,2-2.64A13,13,0,0,1,19.21,23a29.94,29.94,0,0,1,2.33-2.58,56.58,56.58,0,0,1,12.63-8.87c1.17-.58,2.31-.94,3.43-1.47,0,4.42,2.13,6.84,3.66,9.89.72,1.45,1.66,3.39,1.33,5.14-.56,2.93-4,4.32-1.68,6.68,3.35,3.43,7.66-3.05,7.66-7.45,0-5.87-5.13-9.47-5.13-14,0-1.57.42-2.31,1.8-2.64A26.65,26.65,0,0,1,49,7a8.57,8.57,0,0,0-.7,3.5c0,5.63,5.14,9.6,5.14,13.8,0,3.29-4.33,4.89-1.83,7.45,3.37,3.44,7.67-3.21,7.67-7.22,0-6.26-5.14-9.67-5.14-14.26a6.71,6.71,0,0,1,1.63-3.74h4c-.14,1.69-.7,1.19-.7,4.44,0,6.29,7.79,11,4.11,16.28-.73,1-1.54,1.18-1.54,2.9,0,1.95,3.23,3.89,5.54,1.1,7.63-9.23-2.27-15-2.27-21a5.78,5.78,0,0,1,.93-2.81c4,.34,12.42,4,15.7,6a68.86,68.86,0,0,1,9.24,7.11c1,1,1.67,1.88,2.68,2.93A17.37,17.37,0,0,1,94.63,25l3.5,4.92A49.55,49.55,0,0,1,95.65,85.72Z" transform="translate(0 0)"/><path class="cls-1" d="M93.92,39.25c-5-.85-6.81-.2-11.49-.2-.56-2.43-1.67-4.07-4-4.62a29.94,29.94,0,0,0-7.88-.29c-5.42.3-11.77,0-17.29,0H36c-4.75,0-10.51.68-10.51,6.78v4h6.08A19,19,0,0,1,31.76,40H76.6c.5,2.14.23,6,.23,8.42a92,92,0,0,1-2.66,21.18,69.14,69.14,0,0,1-5.48,15.56,9,9,0,0,0-1,2.08H40.63a12.13,12.13,0,0,0-1.16-2.34H33.63l1.86,4.45c.7,1.44,1.38,2.8,3.51,2.8H69.36c2.9,0,3.36-2.71,4.35-4.76a65.53,65.53,0,0,0,2.68-6.44c.8-2.2,3.9-12.33,3.94-14.29,3.45.8,9.5,6.84,16.81-5.86,1.36-2.37,4.68-9.87,4.68-13.32a7.43,7.43,0,0,0-3.89-6.86A12,12,0,0,0,93.92,39.25Zm-8,24.59c-1.18,0-1.42.15-2.39-.65-2.5-2-1.44-9.15-1.15-11.78L82.9,44c4.42-1,13.31-2.1,13.31,4.68C96.21,53.56,90.34,63.84,85.94,63.84Z" transform="translate(0 0)"/><path class="cls-1" d="M46.9,49.62c-3.37-5-9.06-5.37-14.18-3.29a40.6,40.6,0,0,0-4,2.31c-5.86-3.93-15.5-3.34-18.25,4.88C7.16,63.45,14,74.65,22,80a17.59,17.59,0,0,0,8.88,3C43.16,83,55.41,62.25,46.9,49.62Zm-6.66-.21s-.1,0-.07-.07ZM17.82,50.82s-.1,0-.07-.07Zm2.12,11.94a22.66,22.66,0,0,0-.6,2.91,27.92,27.92,0,0,0,0,6.59c-1.79-1.32-4.49-7.1-5.14-9.82a14.08,14.08,0,0,1-.14-6.69c.39-1.75,1.67-4.13,3.18-4.54-1,1.87-.35,2.44,1.07,4.78C21.45,61.13,20.81,59.25,19.94,62.76Zm-.61-12-.88-.29c1.05,0,.93-.23,2.1-.23,2.29,0,3.36.75,5.14,1.17a7.78,7.78,0,0,1-1.4,2.1c-1.41,1.87-.55,1.58-1.64,1.87C22.5,54.79,21.06,51.36,19.33,50.8ZM34,78.27c-4.57,2.16-9.67-.11-10.66-7.19-.94-6.75,2.49-14,6.93-18.29a12.12,12.12,0,0,1,9.18-3.68s-.14,0-.17.07l-.64.29a2.91,2.91,0,0,0-.79.61c-.81.86-1.92,4.33-2.41,5.54L28.05,74.39c-.6,1.45-1.05,3,.66,3.75,2.65,1.08,3.51-3,4.55-5.55s2-5,3-7.55,2-5.11,3-7.55c.54-1.34,1-2.45,1.53-3.84.74-1.82,1.21-2.23.14-3.84,5.49,1.28,5.75,12.14,2.49,18.63a23.27,23.27,0,0,1-2.32,4A17.71,17.71,0,0,1,34,78.27Z" transform="translate(0 0)"/></svg>