<svg id="Слой_1" data-name="Слой 1" xmlns="http://www.w3.org/2000/svg" viewBox="0 0 112.09 112"><defs><style>.cls-1{fill:#323337;fill-rule:evenodd}</style></defs><path class="cls-1" d="M107.11 32.82a53.58 53.58 0 00-4.92-8.64 48.49 48.49 0 00-6.27-7.52c-5.23-5.24-9-7.87-16-11.36A53.21 53.21 0 0057.55 0h-3a53.22 53.22 0 00-22.4 5.3 56.58 56.58 0 00-8.56 5l-5.67 4.62-1.75 1.75A55.39 55.39 0 000 55.42a53.2 53.2 0 001.49 13.47c3 12 7.56 19.24 16.31 28.1.72.72 1.17 1 1.87 1.64 3 2.86 8.76 6.21 12.48 8.09 13.76 6.94 33.6 7.11 47.64.08 15.64-7.84 26.3-20 30.72-37.53a54.56 54.56 0 001.58-12v-2.43a55.51 55.51 0 00-4.98-22.02zm-11.46 52.9c-.39.51-.63.88-1 1.33l-3.49 4c-.54.53-.76.58-1.29 1-1.24 1.09-2.61 3-4.37 3.11-2.06.09-13.59-.19-14.63.08a2.65 2.65 0 00-1.41.93 3.41 3.41 0 001 5.19c1 .53 3 .34 4.34.34-2.13 1.85-13.82 3.74-17.28 3.74-5.93 0-13.79-.79-19.16-3.26-.46-.21-.2-.07-.46-.25H57c5.38 0 4.45-4.79 2.71-6-1.45-1-4.91-.55-7.16-.55-3.9 0-25.66.29-26.66-.19-.29-.15-1.84-1.42-2.23-1.75A50.21 50.21 0 018.56 70C4.15 55.1 7.19 38.59 16 26.82c.74-1 1.28-1.67 2-2.64A13 13 0 0119.21 23a29.94 29.94 0 012.33-2.58 56.58 56.58 0 0112.63-8.87c1.17-.58 2.31-.94 3.43-1.47 0 4.42 2.13 6.84 3.66 9.89.72 1.45 1.66 3.39 1.33 5.14-.56 2.93-4 4.32-1.68 6.68 3.35 3.43 7.66-3.05 7.66-7.45 0-5.87-5.13-9.47-5.13-14 0-1.57.42-2.31 1.8-2.64A26.65 26.65 0 0149 7a8.57 8.57 0 00-.7 3.5c0 5.63 5.14 9.6 5.14 13.8 0 3.29-4.33 4.89-1.83 7.45 3.37 3.44 7.67-3.21 7.67-7.22 0-6.26-5.14-9.67-5.14-14.26a6.71 6.71 0 011.63-3.74h4c-.14 1.69-.7 1.19-.7 4.44 0 6.29 7.79 11 4.11 16.28-.73 1-1.54 1.18-1.54 2.9 0 1.95 3.23 3.89 5.54 1.1 7.63-9.23-2.27-15-2.27-21a5.78 5.78 0 01.93-2.81c4 .34 12.42 4 15.7 6a68.86 68.86 0 019.24 7.11c1 1 1.67 1.88 2.68 2.93A17.37 17.37 0 0194.63 25l3.5 4.92a49.55 49.55 0 01-2.48 55.8z"/><path class="cls-1" d="M93.92 39.25c-5-.85-6.81-.2-11.49-.2-.56-2.43-1.67-4.07-4-4.62a29.94 29.94 0 00-7.88-.29c-5.42.3-11.77 0-17.29 0H36c-4.75 0-10.51.68-10.51 6.78v4h6.08a19 19 0 01.19-4.92H76.6c.5 2.14.23 6 .23 8.42a92 92 0 01-2.66 21.18 69.14 69.14 0 01-5.48 15.56 9 9 0 00-1 2.08H40.63a12.13 12.13 0 00-1.16-2.34h-5.84l1.86 4.45c.7 1.44 1.38 2.8 3.51 2.8h30.36c2.9 0 3.36-2.71 4.35-4.76a65.53 65.53 0 002.68-6.44c.8-2.2 3.9-12.33 3.94-14.29 3.45.8 9.5 6.84 16.81-5.86 1.36-2.37 4.68-9.87 4.68-13.32a7.43 7.43 0 00-3.89-6.86 12 12 0 00-4.01-1.37zm-8 24.59c-1.18 0-1.42.15-2.39-.65-2.5-2-1.44-9.15-1.15-11.78L82.9 44c4.42-1 13.31-2.1 13.31 4.68 0 4.88-5.87 15.16-10.27 15.16z"/><path class="cls-1" d="M46.9 49.62c-3.37-5-9.06-5.37-14.18-3.29a40.6 40.6 0 00-4 2.31c-5.86-3.93-15.5-3.34-18.25 4.88C7.16 63.45 14 74.65 22 80a17.59 17.59 0 008.88 3c12.28 0 24.53-20.75 16.02-33.38zm-6.66-.21s-.1 0-.07-.07zm-22.42 1.41s-.1 0-.07-.07zm2.12 11.94a22.66 22.66 0 00-.6 2.91 27.92 27.92 0 000 6.59c-1.79-1.32-4.49-7.1-5.14-9.82a14.08 14.08 0 01-.14-6.69c.39-1.75 1.67-4.13 3.18-4.54-1 1.87-.35 2.44 1.07 4.78 3.14 5.14 2.5 3.26 1.63 6.77zm-.61-12l-.88-.29c1.05 0 .93-.23 2.1-.23 2.29 0 3.36.75 5.14 1.17a7.78 7.78 0 01-1.4 2.1c-1.41 1.87-.55 1.58-1.64 1.87-.15-.59-1.59-4.02-3.32-4.58zM34 78.27c-4.57 2.16-9.67-.11-10.66-7.19-.94-6.75 2.49-14 6.93-18.29a12.12 12.12 0 019.18-3.68s-.14 0-.17.07l-.64.29a2.91 2.91 0 00-.79.61c-.81.86-1.92 4.33-2.41 5.54l-7.39 18.77c-.6 1.45-1.05 3 .66 3.75 2.65 1.08 3.51-3 4.55-5.55s2-5 3-7.55 2-5.11 3-7.55c.54-1.34 1-2.45 1.53-3.84.74-1.82 1.21-2.23.14-3.84 5.49 1.28 5.75 12.14 2.49 18.63a23.27 23.27 0 01-2.32 4 17.71 17.71 0 01-7.1 5.83z"/></svg>