<svg id="Слой_1" data-name="Слой 1" xmlns="http://www.w3.org/2000/svg" viewBox="0 0 123.43 123.4"><defs><style>.cls-1{fill:#26272c;fill-rule:evenodd}</style></defs><path class="cls-1" d="M122.29 49.79c-.06-.29-.12-.55-.17-.82-.11-.52-.22-1.1-.37-1.61l-.78-3a57.07 57.07 0 00-2-5.69l-1.77-4-4.2-7.29c-1-1.52-2.11-3-3.26-4.42-.31-.39-.59-.69-.9-1.08l-2.69-3c-.76-.76-1.47-1.57-2.29-2.25l-.14-.12a5.67 5.67 0 01-.5-.48l-8.72-6.6c-.8-.54-1.59-1-2.42-1.46L88.34 6a51.54 51.54 0 00-6.85-2.8l-6-1.69L72.34.9a40.75 40.75 0 00-5.1-.68c-.61 0-1.18 0-1.78-.12a67.84 67.84 0 00-7.41 0c-1.15.17-2.34.14-3.56.32l-6.63 1.13c-.28.05-.4.11-.71.19s-.52.1-.81.18l-4.45 1.33a57.27 57.27 0 00-10 4.42c-1.86 1-3.64 2.19-5.4 3.36a47.9 47.9 0 00-4.34 3.32l-2.88 2.57-.14.11-2.9 2.97a3.28 3.28 0 00-.42.48c-.18.23-.3.31-.48.51a49.32 49.32 0 00-3.45 4.31l-1.59 2.29a57.92 57.92 0 00-3.88 6.68 63.33 63.33 0 00-3.12 7.52 66.15 66.15 0 00-2 7.61l-.8 5c-.21 1.14-.23 2.41-.38 3.51L0 61.69v2.02l.25 3.59a46.62 46.62 0 001 6.61 70.91 70.91 0 002 7.55c.33 1 .62 1.84 1 2.79L8 92l1.41 2.38a56.17 56.17 0 005.71 7.74 66.22 66.22 0 004.7 4.87l3.06 2.63A61.16 61.16 0 0036.42 118l3.38 1.41a60.17 60.17 0 0020.93 4 64.42 64.42 0 0014.65-1.52 56.76 56.76 0 0010.78-3.49 63.94 63.94 0 0011-6.16 52.28 52.28 0 005.79-4.61l2.14-2 .13-.11.67-.73c.19-.21.29-.32.48-.51l1.82-2a4.63 4.63 0 00.41-.49l.88-1c.15-.18.28-.36.44-.54a43.85 43.85 0 004-5.53c.25-.41.47-.79.72-1.18a34.11 34.11 0 002-3.65c.86-1.72 1.72-3.46 2.41-5.27L121 79c.31-1 .55-2 .79-3s.44-2.09.65-3.14a45.75 45.75 0 00.84-6.76c0-.37.08-.4.08-.82v-1c0-.33 0-.56.07-.87v-3.54a64.94 64.94 0 00-1.14-10.08zm-3.06 15.45l-.39 4.06A67.53 67.53 0 01117 78c-.41 1.32-.83 2.68-1.33 4-.17.43-.35.87-.51 1.31s-.32.79-.51 1.23-.35.85-.55 1.26-.34.77-.55 1.18L113 88a49 49 0 01-3.28 5.55l-.72 1.11-1.45 2a47.32 47.32 0 01-4.07 4.76l-3.59 3.43c-.92.85-1.91 1.6-2.88 2.4-1.29 1-2.71 2-4.1 2.91L89 112.45c-.26.13-.34.2-.58.33a56.75 56.75 0 01-15.65 5.47c-1.55.31-3 .52-4.59.7a51.92 51.92 0 01-9.49.25l-1.69-.09a46.06 46.06 0 01-6.25-.84 60.31 60.31 0 01-10.22-3 37.23 37.23 0 01-4.29-1.89l-5.64-3.19c-.72-.44-1.39-1-2.11-1.43-.38-.25-.65-.47-1-.74l-2-1.54c-1.08-.84-2.08-1.76-3.09-2.69l-4.94-5.21a59.06 59.06 0 01-6.4-9.44c-.22-.39-.42-.77-.63-1.19l-3.16-7.4a60.22 60.22 0 01-2.7-11.47l-.44-6.65a58 58 0 011.53-14.06c.65-2.4 1.22-4.51 2.06-6.77a57.86 57.86 0 016.8-12.92l3.93-5c.57-.74 1.23-1.33 1.86-2l.35-.39L21 21l.13-.12v-.05l.3-.27c.49-.41.88-.94 1.39-1.33l.93-.81A69.37 69.37 0 0131 13a30.2 30.2 0 013.39-2c.26-.13.34-.2.58-.33l1.81-.91a35.1 35.1 0 013.72-1.63c1.7-.61 3.52-1.35 5.29-1.81a64.2 64.2 0 0110.56-2 58.35 58.35 0 0131.36 5.93L90 11.52a66.41 66.41 0 016.89 4.58c.2.15.33.23.51.39a4 4 0 00.51.41l1.43 1.2c.21.21.29.23.49.41l1.41 1.32.21.2.08.08a14.08 14.08 0 011.46 1.43l.19.22.12.13a1.67 1.67 0 01.12.13c.16.18.28.29.45.46a50.35 50.35 0 015.48 6.89 52.38 52.38 0 015.09 9.19c.18.44.34.81.53 1.28a60.08 60.08 0 013.77 14 68.82 68.82 0 01.49 11.4z"/><path class="cls-1" d="M92.82 83.47a37.76 37.76 0 006.37-15.58c0-.3.09-.73.14-1a38.57 38.57 0 00-1.26-16.13c-.2-.66-.36-1.12-.57-1.74a37.21 37.21 0 00-2.12-4.89 41.43 41.43 0 00-5.26-7.61l-1.73-1.81-.58-.58L86 32.49a39.69 39.69 0 00-4.06-3l-4.56-2.45a37.87 37.87 0 00-27.87-1.33 36.87 36.87 0 00-9.41 4.79l-1.35 1a38.76 38.76 0 00-11.53 14.33 37.92 37.92 0 00-3.46 15.36 34.37 34.37 0 00.31 5.31 37.13 37.13 0 003.82 12.43l1.68 2.94c.77 1.17 1 1.55 1.91 2.79a41.16 41.16 0 004.43 4.89 41.47 41.47 0 006.64 4.92 37.87 37.87 0 0018.18 5.17A36.78 36.78 0 0067 99.3a37.7 37.7 0 007.43-1.82c.55-.18 1.15-.43 1.67-.63a37.64 37.64 0 007.47-4.09l2.61-2a36.83 36.83 0 006.64-7.29zm-9.95 6.06a.89.89 0 01-.77.3h-8.59c-1.65 0-5.17-.62-4.92 1.45.09.75.26 1 .91 1.24 1 .3 6.87.12 8.47.12l-.8.44a9.1 9.1 0 01-.84.39 33.61 33.61 0 01-9.84 2.86 36.35 36.35 0 01-13.75-.83 36 36 0 01-5.58-2 6.79 6.79 0 01-1.7-.86h17.41c1.83 0 4.54.46 4.54-1.32 0-.74-.16-1.24-1-1.42a10.61 10.61 0 00-1.91-.07H42.57a4.11 4.11 0 01-1.83-.15A18.67 18.67 0 0138 87.36c-.22-.21-.33-.25-.54-.45a32.89 32.89 0 01-3.73-4.27c-.29-.37-.58-.73-.85-1.13l-2.25-3.77c-.08-.16-.09-.16-.17-.33s-.09-.17-.16-.33-.18-.42-.31-.68c-.24-.48-.4-.87-.61-1.37a35.48 35.48 0 01-1.5-22.24c.29-1 .6-2 1-3l.85-2.11c.12-.24.21-.5.33-.74A48.24 48.24 0 0133 41.83a31.79 31.79 0 013.62-4.38 1.84 1.84 0 00.23-.27l.76-.72.5-.5a5.5 5.5 0 01.53-.45 35.2 35.2 0 019.85-6.16l3-1.08a13.32 13.32 0 00-.33 2.31 11.21 11.21 0 001.75 4.69c4 6.57.07 6.82.07 8.68 0 .89.89 1.23 1.65 1.23 1.47 0 3.13-3.3 3.13-5A9.9 9.9 0 0056 34.92c-.42-.7-.77-1.35-1.14-2.08a4.27 4.27 0 01-.22-4.24c.79-1.6 1.17-1.36 2.85-1.6.64-.1 1.55-.09 2.1-.21a3.5 3.5 0 01-.36.79 6.55 6.55 0 00-.71 2.75 8.28 8.28 0 00.55 2.67c.6 1.51 1.49 2.81 2.21 4.24 2.22 4.42-1 5.12-1 6.74 0 .84.84 1.23 1.57 1.23 1.55 0 3.22-3.15 3.22-5.28 0-3.9-3.93-6.77-3.47-10.07a5.12 5.12 0 011.4-2.67c.2-.27.14 0 .17-.4l1.89.09c.49.05 1.26.22 1.74.24-1.56 2.94-.85 5.44.74 8.09 1.3 2.16 2.7 4.29 1.24 6.84a7.27 7.27 0 01-.61.79c-1.1 1.39 0 2.34 1 2.34a1.6 1.6 0 001.39-.67 6.89 6.89 0 001.91-4.77c0-3.87-4.71-7.38-3.24-10.83a5.3 5.3 0 01.77-1.13c1.28 0 4.55 1.35 5.67 1.83a33.33 33.33 0 017.68 4.61c.19.15.38.27.57.43.34.29.68.63 1 .88s.62.63 1 .92a33.77 33.77 0 014.37 5 31.17 31.17 0 012.5 4.1c.11.2.21.42.34.66s.16.38.28.62.21.4.32.67a27.47 27.47 0 011.08 2.72 35.66 35.66 0 011.77 8.63 6.83 6.83 0 01.08.91c0 .69.08 1.08.08 1.81a35.51 35.51 0 01-.84 7.66 36.13 36.13 0 01-1.5 4.94c-.11.29-.19.54-.29.78a33.93 33.93 0 01-7.21 11 44.61 44.61 0 01-4.03 3.58z"/><path class="cls-1" d="M88.61 68.28L90 66.67a21.85 21.85 0 002.13-3.81c.31-.71.62-1.38.88-2.09.8-2.24 2-5.35.54-7.62-2.26-3.42-7.79-2.59-11.43-2.6-1.91 0-.65.35-1.67-1.71-.86-1.74-3.31-1.76-5.26-1.76H50a14 14 0 00-5.28.74 3.86 3.86 0 00-2.31 3.8c0 1.21-.19 2.15.25 2.15 3.4 0 3.07.23 3.05-.74 0-1.13.07-1.39.08-2 0-.38-.12-.82.25-.82H77.8c0 1.29.17 2.42.17 3.79l-.17 6.1a75.39 75.39 0 01-1.31 9.42 54.84 54.84 0 01-4.32 12.84 11.27 11.27 0 00-.72 1.43H52.23c-.35-.52-.56-1.13-.91-1.65h-3a15.1 15.1 0 00.85 2c.71 1.53 1 2.18 2.69 2.18h20c2.14 0 2.21-1.12 3.21-3.24a68.83 68.83 0 004-12.06l.61-2.61c1.29.3 4 2.87 7.3 1.12a8.2 8.2 0 001.63-1.25zm-3.2-1a4.24 4.24 0 01-1.83.56c-2.09 0-3-2.18-3-3.88a25 25 0 01.16-3.14c0-.62.09-1.09.08-1.73a4.48 4.48 0 01.08-.83v-.87l.3-3.42c.11-1.05 0-.8.91-1 6-1.16 11.54-.14 8.35 7.53-.24.57-.48 1-.75 1.56-.99 1.72-2.49 4.08-4.3 5.17z"/><path class="cls-1" d="M116.49 48.34c-.23-.92-.49-1.81-.75-2.73a38.49 38.49 0 00-1.8-5.13l-2.5-5.33c-.13-.25-.2-.32-.33-.58-.22-.44-.41-.72-.63-1.11a58.65 58.65 0 00-6.13-8.63c-.17-.19-.27-.26-.44-.47a28.4 28.4 0 00-2.57-2.71l-1.28-1.28c-1.1-.92-2.14-1.94-3.3-2.8a59.62 59.62 0 00-7.29-4.92c-.78-.43-1.47-.82-2.26-1.21l-2.39-1.16a52.48 52.48 0 00-5-1.95 53.21 53.21 0 00-11.35-2.58 55.25 55.25 0 00-19.41 1c-1 .24-1.86.41-2.76.7a61.46 61.46 0 00-10.08 3.95l-3.35 1.85c-1.8 1.09-3.54 2.27-5.22 3.52l-.46.37-2.46 2a4 4 0 01-.42.4 3.35 3.35 0 00-.49.43 4.08 4.08 0 01-.43.39l-.09.08a49.75 49.75 0 00-4.63 4.85 53.85 53.85 0 00-3.75 5 50.52 50.52 0 00-3.26 5.49L10 39.39A55.37 55.37 0 006.59 50a53.56 53.56 0 00-1.23 11 45.26 45.26 0 00.16 4.55c.12 1.13.13 2.08.29 3.16a56.2 56.2 0 003.06 12.57 52.08 52.08 0 002.61 6 53.8 53.8 0 006.1 9.49l1.16 1.4a6.4 6.4 0 00.42.49l2.89 3.14 8.57 6.93 1.61 1c.38.25.71.41 1.09.64a57.28 57.28 0 005.1 2.65 49.72 49.72 0 008.88 3.17 63.25 63.25 0 006.52 1.32 65.48 65.48 0 009.38.52 57.32 57.32 0 006.34-.51c.95-.1 1.95-.34 2.89-.49 1.35-.22 2.84-.61 4.15-1a48.25 48.25 0 007.69-2.72l3.46-1.65A59.37 59.37 0 0099 104a31 31 0 003.48-3.37c.5-.63 1.17-1.16 1.66-1.81l.81-.92a44.81 44.81 0 004.31-5.9l2.21-3.81a6.31 6.31 0 00.33-.58c1-2 1.84-3.91 2.64-5.94a45 45 0 002.06-6.6c.2-1 .43-1.81.59-2.79a63.15 63.15 0 001-11.56c0-1.21-.12-2.21-.17-3.3a48.73 48.73 0 00-1.43-9.08zm.65 14.15c-.12.83-.1 2.32-.14 3.24s-.23 2.17-.33 3.13-.27 2-.46 2.93c-.11.52-.17 1-.29 1.45a62.26 62.26 0 01-3.32 10.45 38.38 38.38 0 01-2.25 4.6l-1.94 3.26a35 35 0 01-2.83 4l-5.09 5.71-3.38 3.06c-.3.24-.6.52-.9.75-1.63 1.24-3.28 2.47-5 3.56-1.06.66-2.17 1.34-3.29 1.91l-3.48 1.72-1.16.49a53.41 53.41 0 01-13.47 3.77l-8.07.59-6.39-.37-1.46-.2c-.52-.07-1-.17-1.49-.24a43.88 43.88 0 01-5.53-1.23 47.39 47.39 0 01-7.55-2.69c-.79-.37-1.51-.71-2.28-1.1s-1.47-.73-2.23-1.16a62.13 62.13 0 01-8.11-5.5l-1.33-1.14a6.4 6.4 0 00-.5-.41 71 71 0 01-1.77-1.7l-1.71-1.67c-1.15-1.14-2.06-2.44-3.13-3.63a17.56 17.56 0 01-1.49-2c-1.15-1.68-2.31-3.34-3.29-5.13-.22-.39-.4-.76-.61-1.13a46.74 46.74 0 01-2.22-4.62 62 62 0 01-3.23-10.36 50.24 50.24 0 01-1.07-9.16c0-6 .12-9.53 1.64-15.53a55.19 55.19 0 014.91-12.66 45.58 45.58 0 013.17-5.17c.15-.21.2-.34.36-.54l3.3-4.21a3.79 3.79 0 01.38-.45l3.3-3.46L27 18.53c.93-.72 1.89-1.5 2.87-2.16l1-.67 3.11-1.94c.71-.43 1.41-.81 2.18-1.19l.54-.29c.19-.1.38-.17.56-.26a52 52 0 019.6-3.72l2.71-.67a55.79 55.79 0 0120.12-.78l2.1.37.78.13a67.13 67.13 0 018.05 2.26c.87.29 1.66.62 2.5 1L90 14l6 4.2 2.33 2a4.84 4.84 0 01.5.42l.9.82a28.12 28.12 0 012.52 2.6l1.23 1.32c.18.21.23.29.42.5a37.36 37.36 0 013 3.85 73.47 73.47 0 013.93 6.39c.22.4.37.74.58 1.15s.34.77.55 1.18.38.81.54 1.2l1.89 5a37.92 37.92 0 011.15 4c.12.52.21.88.32 1.41l.75 4.37c.07.54.17 1 .19 1.54 0 1.05.26 2.15.25 3.22s.21 2.41.09 3.32z"/><path class="cls-1" d="M52.19 78.4l2-1.64a20.34 20.34 0 002-2.43 18.91 18.91 0 003-7c.63-3.55.58-7-1.59-9.95a7.27 7.27 0 00-1.53-1.6c-.1-.08-.21-.14-.29-.2s-.19-.15-.34-.24c-3.1-1.92-7.2-.82-9.91 1.22l-.32.26a11.52 11.52 0 00-2.37-1.1c-4.12-1.46-8.48-.26-10.21 4.27s.46 10.62 3.37 14.33l3.34 3.27a15.64 15.64 0 002.32 1.47A11.45 11.45 0 0046 80.42a7.78 7.78 0 005-1.32c.47-.24.81-.42 1.19-.7zM40 59.7c-1.35-2.63-3.14-1.2-3.14-.24A7.27 7.27 0 0038.12 62c.46.77.91 1.56 1.39 2.33.26.41.11.48-.16 1.3a16.15 16.15 0 00-.76 6.47c0 .3.1.81.11 1-.72-.48-2.25-3.15-2.64-4-1.24-2.78-2.17-6.87-.16-9.56 1.75-2.34 4.77-2 7.17-.83a21 21 0 01-1.44 2.1 3.08 3.08 0 00-.46.78A9.12 9.12 0 0140 59.7zm7.55 18a5.66 5.66 0 01-3.66-.7c-1.94-1.41-2.64-3.85-2.64-6.35a14.11 14.11 0 011-5.06 17.58 17.58 0 012.11-3.91 14.09 14.09 0 013-3.05 8.23 8.23 0 011.89-1.09 9.22 9.22 0 011.09-.39 4.74 4.74 0 013.65.41c1.83 1 2.84 3.64 2.84 5.91a15 15 0 01-2 7.92A14.47 14.47 0 0153 74l-1.12 1.2c-.16.14-.18.14-.32.25s-.18.17-.3.28a10.34 10.34 0 01-1.31.92 8.41 8.41 0 01-2.38 1.01zM73.1 103l-1.4.08-.18-1.4-2.2.34c-.52.09-.86-.07-.8.43a6.18 6.18 0 00.21 1.13 4.05 4.05 0 00-3.8 3.8c0 1.69.25 2.93 1.43 3.93s2.58.78 3.77.69a9.92 9.92 0 00.17 1.15 5.27 5.27 0 001.09-.14l1.57-.25c.33-.06.34.08.36-.24a4.37 4.37 0 00-.22-1 6.09 6.09 0 001.51-.39 5.18 5.18 0 001.19-.7c2.38-2 1.07-7.43-2.7-7.43zm-4.73 6.22a5.39 5.39 0 01-.38-1.93c0-.45 0-1 .31-1.33a1.45 1.45 0 01.84-.32l.74 4.29c-.95.07-1.2.07-1.51-.69zm4.32.22c-.06-.71-.25-1.41-.34-2.13a16.26 16.26 0 01-.32-2.16 1 1 0 011.14.26c.48.5 1.64 4-.48 4.05zM38.85 97c-.7-.53-.53-.32-2.4.8-.56.34-1.11.65-1.63 1 0-1.48-.33-.62 1-2.67a1.8 1.8 0 00.44-.87c-.27-.08-.11 0-.32-.18l-.3-.19a14.92 14.92 0 00-1.93-1.2c-.21.39-.46.72-.71 1.1-.14.21-.22.37-.35.56s-.24.33-.4.59l-1.51 2.29c-.23.31-2.89 4.23-3 4.53.87.47 1.67 1.19 2.55 1.65l2.23-3.3c0 1-.31 3.3-.41 4.54l1.33.89.7.47a1.52 1.52 0 00.77.38v-1.82l.19-3.61c.08-.19 0-.1.19-.22a3.68 3.68 0 01.34-.16c.28-.13.37-.22.63-.36L40.65 99a1.2 1.2 0 00.31-.18c.22-.17.14 0 .21-.29a6.93 6.93 0 01-1.17-.76zm12.9 4.61c-2.62-.44-3.66.49-4.44 2.44-.52 1.29-1.25 4.37-.86 6 .49 2 2.52 2.8 4.46 2.8 2.66 0 3.5-2.64 3.94-4.89.6-3.05.78-5.71-3.1-6.35zm.15 4.88a25.11 25.11 0 01-.77 3.19c-.14.43-.38 1.1-.88 1.1-1.34 0-.91-1.84-.68-2.82s.63-4.44 1.75-4.44c1.36 0 .68 2.28.58 2.97zm0-84.82c2.19 0 4-.93 4.27-3.08a7.66 7.66 0 000-2.24c-.12-.82-.18-1.44-.35-2.13a9.57 9.57 0 00-.62-1.85 3.07 3.07 0 00-3.19-2 5.26 5.26 0 00-3.38 1.08 3.78 3.78 0 00-1 2.84 16.93 16.93 0 00.71 4.71c.66 2 1.55 2.67 3.56 2.67zm.18-8.93a7.63 7.63 0 01.65 2.32c.16.8.79 3.94.21 4.43l-.63.2c-.64 0-.76-.6-.9-1.08a29.1 29.1 0 01-.83-5.11c0-1.29 1.04-1.38 1.5-.76zM32.59 23.9l.57 4.54a9.43 9.43 0 01.17 1.56 7.89 7.89 0 001.44-.87 17 17 0 011.45-.94l-.82-3.3c.49.26 2 1.51 2.72 2l2.5-1.63c.2-.13.24-.1.3-.35a54.58 54.58 0 01-5.25-3.08l-.85-5.75a2.46 2.46 0 00-.73.43l-1.39.91a4.41 4.41 0 01-.77.47l.91 3.11c-.69-.46-1.8-1.53-2.48-2-.46.11-2.32 1.6-2.8 1.73V21c.3.07 3.24 1.87 3.76 2.18a6.75 6.75 0 001.27.72zm60.76 77.42c-.29.22-.5.33-.79.53l-.8.53a8.76 8.76 0 01-.84.56l-1-1.49c1-.66 2-1.31 3-2-.12-.45-1-1.43-1.15-1.89A2.8 2.8 0 0091 98c-.3.22-.5.33-.8.53-.5.34-1 .73-1.55 1-.13-.56-1-1.3-1.07-1.82.28-.07.19-.09.42-.24l2.88-1.9a17 17 0 00-1.32-1.9c-.44.1-5.22 3.46-5.86 3.79.12.43 3.35 5 4 6.19.29.48 1.81 2.58 1.89 2.89a6.17 6.17 0 001.5-.89c.55-.37 4.11-2.67 4.28-2.91-.12-.45-1-1.43-1.16-1.89a2.05 2.05 0 00-.86.47z"/><path class="cls-1" d="M50.82 59c-.26.81-.59 1.62-.9 2.4l-2.14 5.37c-.4 1.06-3.47 8.6-3.47 9.06a1.32 1.32 0 001.4 1.41c1.49 0 1.8-2.43 2.56-4.13.6-1.35 1.32-3.49 1.89-4.79l.94-2.36c.4-1 2.78-6.83 2.78-7.29 0-1.46-2.16-2.47-3.06.33zm17.74-42a8 8 0 002.89.57c-.07.15-.65 3.63-.66 4a12.22 12.22 0 011.73.26c1.33.17 1.25.41 1.35-.14.53-2.85 1.08-6.52 1.58-9.49a4.54 4.54 0 00.13-.94l-1.94-.29c-1.32-.24-1.07-.24-1.15.17 0 .13 0 .3-.06.52-.08.6-.21 1.28-.32 1.91-.06.36-.12.6-.18 1-.12.78.09.84-.64.84-.92 0-1.15-.53-1-1.35s.23-1.44.36-2.2c.27-1.62.47-1.32-.58-1.49a16.65 16.65 0 00-2.25-.37l-.51 3.21a6.39 6.39 0 00-.15 1.08c0 1.14.07 2.03 1.4 2.71zm15.79 9.59c2.31 1.24 3.35.09 5.05-1.24s3.76-3.25 5.4-4.51a1 1 0 00.5-.57 10.73 10.73 0 01-1.38-.77 8.64 8.64 0 00-1.43-.8L91.28 20a20.62 20.62 0 01-2 2.12l1-3.42a4.12 4.12 0 00.28-1.2c-.35-.09-2.56-1.54-2.71-1.59-.35-.12-.24.23-.3.64l-1 6.54c-.12.69-.06 1.06-.81 1.34s-1.09-.37-1.56-.49l-1.07 1.81c.21.15.34.29.61.47a7.14 7.14 0 00.63.37zM19.86 40.78a49.24 49.24 0 014.66-7.46c.32-.37.55-.74.87-1.11s.61-.75.95-1.11l3.47-3.63c.27-.23.35-.22.55-.52-.34-.51-.91-.92-1.23-1.4a28.6 28.6 0 00-2.17 2c-.77.76-2.82 3.08-3.43 3.91a48.61 48.61 0 00-5.17 8l-1.53 3.26c-.22.49-.4 1-.61 1.53a10.15 10.15 0 00-.54 1.61c.64.15 1.16.42 1.81.57a42.2 42.2 0 012.37-5.65zm74.95-14.66l-.67-.57-.53.62c-.35.42-.61.46-.62.95a11 11 0 011.57 1.39l.25.25a54.74 54.74 0 014 4.59 50.1 50.1 0 014 6.11l1 2a42.41 42.41 0 011.78 4.24c.1.26.2.56.3.77a6.69 6.69 0 00.86-.29c.34-.11.56-.21.87-.28a1.9 1.9 0 00-.22-.78l-.9-2.31a48.15 48.15 0 00-2.81-5.61c-.15-.27-.23-.42-.39-.68l-.83-1.32a51.41 51.41 0 00-3.11-4.2c-.19-.21-.3-.37-.5-.58l-4-4.23s-.04-.06-.05-.07zm9.93 53.67a47.69 47.69 0 01-7.36 12c-.65.73-3.28 3.8-3.82 3.94 0 .44.92 1.27 1.24 1.49l1.29-1.19.25-.25a50.49 50.49 0 005.92-7.36 46.92 46.92 0 003.63-6.52l1.21-2.9a6.12 6.12 0 00.49-1.57c-.64-.06-1.16-.5-1.82-.5a20.46 20.46 0 01-1.03 2.86zM28.63 97.25c.11-.42.62-.61 1.16-1.41l-.53-.46h-.05l-3.65-3.93A49.2 49.2 0 0121.15 85c-.24-.43-.48-.78-.69-1.21A48.25 48.25 0 0118 78.42a12.77 12.77 0 01-.51-1.42 7.52 7.52 0 00-1.81.58 46.05 46.05 0 002.39 5.77 47.83 47.83 0 003 5.18c.46.7 2 3 2.56 3.55L28 96.81c.21.19.28.41.63.44zM14 55.28c1.9 1.13 3.64-.49 4.32-2.17.88-2.21 0-5.45-2.48-5.45-1.93 0-3.38 2.34-3.38 4 0 1.5.24 2.84 1.54 3.62zm.81-2.3c.16-.85.34-1.72.49-2.55.09-.48.09-.92.49-1 .57-.11.59.42.5.88-.17.87-.34 1.74-.49 2.59-.08.45-.09.91-.49 1-.58.1-.6-.43-.5-.9zm1.74 11.23c1.41-1.86 1-5.09-.75-6.27a2.58 2.58 0 00-2.91 0 4.39 4.39 0 00-1.67 3.53 5.21 5.21 0 00.78 2.69 2.61 2.61 0 004.55.05zm-2.34-5c.86-.16.58 1.35.58 1.91a13.62 13.62 0 01-.08 2.51.79.79 0 01-.71.06 6.18 6.18 0 01-.16-2.32c0-.55-.25-2.05.37-2.17zm3.55 14.95a4.4 4.4 0 00.56-2.74 4.71 4.71 0 00-.93-2.53 3.13 3.13 0 00-.87-.87c-2.12-1.42-4.39.3-4.39 3.07 0 3.72 3.87 5.91 5.63 3.07zm-2.51-.58a4 4 0 01-.32-1.25c-.11-.57-.47-2.08-.48-2.56a.47.47 0 01.84-.35 38.52 38.52 0 01.77 3.82.46.46 0 01-.81.34zM105.84 69a5.31 5.31 0 00-.89 2.74c0 1.8.92 3.71 2.81 3.71 2.62 0 4.29-3.88 2.94-6.41-1.13-2.1-3.58-1.95-4.86-.04zm2.63 2.89c-.29 1.46-.15 2-1.07 1.76-.28-.55.06-1.53.19-2.23a6.73 6.73 0 01.55-2.16h.63a6.38 6.38 0 01-.3 2.64zm.77-14.41a2.63 2.63 0 00-2.48 1.23 4.81 4.81 0 00-.82 2.48 4.5 4.5 0 00.84 3c1.61 2.39 5.27 1.35 5.27-3 0-1.74-1.28-3.71-2.81-3.71zm.1 6.12a.48.48 0 01-.81-.26c-.09-.58 0-2.06 0-2.73 0-.36-.08-1 .11-1.26a.47.47 0 01.83.28 17.44 17.44 0 01-.13 3.97zM105 49.46a3.88 3.88 0 00-.32 1.17 5.06 5.06 0 00.92 3.62c2 2.62 5.27 1.34 5.27-2.3.02-3.41-3.87-6.3-5.87-2.49zm2.7 0a18.45 18.45 0 01.85 3.86.47.47 0 01-.76.43A19.75 19.75 0 01107 50a.47.47 0 01.72-.49z"/></svg>