<svg width="40" height="16" viewBox="0 0 40 16" fill="none" xmlns="http://www.w3.org/2000/svg">
<mask id="mask0" mask-type="alpha" maskUnits="userSpaceOnUse" x="0" y="0" width="40" height="16">
<rect width="40" height="16" fill="#C4C4C4"/>
</mask>
<g mask="url(#mask0)">
<path fill-rule="evenodd" clip-rule="evenodd" d="M0 -5H40V23H0V-5Z" fill="#009B3A"/>
<path d="M3.40002 8.99999L20 19.6L36.6 8.99999L20 -1.60001L3.40002 8.99999Z" fill="#FEDF00"/>
<path d="M20 16C23.866 16 27 12.866 27 8.99997C27 5.13398 23.866 1.99997 20 1.99997C16.134 1.99997 13 5.13398 13 8.99997C13 12.866 16.134 16 20 16Z" fill="#002776"/>
<path d="M-1 23C-1 18.4913 0.791067 14.1673 3.97919 10.9792C7.1673 7.79107 11.4913 6 16 6C20.5087 6 24.8327 7.79107 28.0208 10.9792C31.2089 14.1673 33 18.4913 33 23H32C32 18.7565 30.3143 14.6869 27.3137 11.6863C24.3131 8.68571 20.2435 7 16 7C11.7565 7 7.68687 8.68571 4.68629 11.6863C1.68571 14.6869 0 18.7565 0 23H-1Z" fill="white"/>
<path fill-rule="evenodd" clip-rule="evenodd" d="M14.0298 6.95384C14.1087 6.94407 14.1801 6.89988 14.2283 6.831C14.2765 6.76211 14.2975 6.67416 14.2867 6.58646C14.2759 6.49877 14.2343 6.41851 14.1709 6.36332C14.1075 6.30814 14.0275 6.28253 13.9486 6.29214C13.8697 6.30191 13.7983 6.3461 13.7501 6.41498C13.702 6.48387 13.681 6.57182 13.6917 6.65952C13.7025 6.74721 13.7442 6.82747 13.8076 6.88266C13.871 6.93785 13.9509 6.96345 14.0298 6.95384ZM14.0147 6.83095C14.0611 6.8252 14.1028 6.7978 14.1308 6.75479C14.1587 6.71177 14.1706 6.65666 14.1639 6.60154C14.1571 6.54643 14.1322 6.49583 14.0947 6.46086C14.0572 6.42589 14.01 6.4094 13.9637 6.41503C13.9173 6.42078 13.8756 6.44818 13.8476 6.49119C13.8197 6.53421 13.8078 6.58933 13.8145 6.64444C13.8213 6.69955 13.8462 6.75015 13.8837 6.78512C13.9213 6.8201 13.9684 6.83658 14.0147 6.83095Z" fill="#009B3A"/>
<path fill-rule="evenodd" clip-rule="evenodd" d="M14.5731 6.89365L14.6966 6.88501L14.6793 6.638L14.9453 6.6194C15.0007 6.61552 15.0524 6.58978 15.0888 6.54784C15.1253 6.5059 15.1436 6.4512 15.1397 6.39577C15.1358 6.34033 15.1101 6.28871 15.0682 6.25225C15.0262 6.2158 14.9715 6.19749 14.9161 6.20137L14.5361 6.22794L14.5731 6.89365ZM14.6707 6.51449L14.9272 6.49655C14.9498 6.49497 14.971 6.48444 14.9859 6.46728C15.0008 6.45012 15.0083 6.42775 15.0067 6.40507C15.0051 6.38239 14.9946 6.36127 14.9774 6.34636C14.9603 6.33144 14.9379 6.32396 14.9152 6.32554L14.6587 6.34348L14.6707 6.51449Z" fill="#009B3A"/>
<path d="M15.1384 6.85413C15.1318 6.75912 15.1172 6.5501 14.9746 6.56007L14.7941 6.57269C15.0031 6.55808 15.0178 6.76709 15.0244 6.8621" fill="#009B3A"/>
<path fill-rule="evenodd" clip-rule="evenodd" d="M15.4179 6.84105L15.7321 6.83556C15.8079 6.83424 15.88 6.80287 15.9327 6.74836C15.9853 6.69385 16.0141 6.62067 16.0128 6.5449L16.0111 6.44968C16.0105 6.41216 16.0024 6.37514 15.9875 6.34073C15.9725 6.30632 15.9509 6.2752 15.9239 6.24913C15.897 6.22307 15.8651 6.20258 15.8302 6.18883C15.7953 6.17507 15.758 6.16833 15.7205 6.16899L15.4062 6.17447L15.4179 6.84105ZM15.5395 6.71509L15.7204 6.71194C15.7684 6.7111 15.8141 6.69123 15.8474 6.65671C15.8808 6.62219 15.899 6.57583 15.8982 6.52785L15.8972 6.47071C15.8964 6.42273 15.8765 6.37704 15.842 6.34371C15.8075 6.31037 15.7611 6.29211 15.7131 6.29295L15.5322 6.2961L15.5395 6.71509Z" fill="#009B3A"/>
<path d="M16.2644 6.83269L16.864 6.85363L16.8684 6.7299L16.3829 6.71295L16.3889 6.54163L16.7696 6.55492L16.7736 6.44071L16.3929 6.42741L16.3976 6.29416L16.8544 6.31012L16.8587 6.18638L16.2877 6.16644L16.2644 6.83269Z" fill="#009B3A"/>
<path d="M17.1102 6.86869L17.2241 6.87865L17.2639 6.42325L17.3569 6.89027L17.4613 6.8994L17.6339 6.45562L17.5941 6.91102L17.7079 6.92098L17.7661 6.25685L17.6 6.24233L17.4274 6.68611L17.3344 6.21909L17.1683 6.20456L17.1102 6.86869Z" fill="#009B3A"/>
<path d="M18.4915 7.0245L18.9842 7.10917L19.0036 6.99654L18.6234 6.93122L18.6492 6.78104L18.959 6.83426L18.9783 6.72163L18.6686 6.6684L18.6863 6.56516L19.0547 6.62846L19.0741 6.51582L18.5931 6.43317L18.4915 7.0245Z" fill="#009B3A"/>
<path fill-rule="evenodd" clip-rule="evenodd" d="M19.7574 7.27314L19.8772 7.30414L19.9392 7.06441L20.1974 7.13117C20.2512 7.14508 20.3083 7.13705 20.3562 7.10884C20.404 7.08064 20.4388 7.03457 20.4527 6.98078C20.4666 6.92699 20.4586 6.86987 20.4304 6.82199C20.4022 6.77411 20.3561 6.7394 20.3023 6.72548L19.9335 6.6301L19.7574 7.27314ZM19.9702 6.94454L20.2192 7.00893C20.2412 7.01461 20.2645 7.01133 20.2841 6.99979C20.3037 6.98825 20.3179 6.96941 20.3236 6.9474C20.3293 6.92539 20.326 6.90203 20.3145 6.88244C20.3029 6.86285 20.2841 6.84865 20.2621 6.84296L20.0132 6.77858L19.9702 6.94454Z" fill="#009B3A"/>
<path fill-rule="evenodd" clip-rule="evenodd" d="M20.5754 7.49133L20.6934 7.52856L20.7679 7.29241L21.0222 7.3726C21.0752 7.38931 21.1327 7.38428 21.1819 7.35862C21.2312 7.33296 21.2683 7.28878 21.285 7.23578C21.3017 7.18278 21.2967 7.12532 21.271 7.07603C21.2454 7.02674 21.2012 6.98966 21.1482 6.97295L20.7849 6.85839L20.5754 7.49133ZM20.8051 7.17433L21.0503 7.25166C21.072 7.25849 21.0955 7.25644 21.1157 7.24594C21.1359 7.23544 21.151 7.21737 21.1579 7.19569C21.1647 7.17401 21.1626 7.1505 21.1521 7.13033C21.1416 7.11017 21.1236 7.095 21.1019 7.08816L20.8567 7.01084L20.8051 7.17433Z" fill="#009B3A"/>
<path d="M21.1158 7.66174C21.1444 7.57091 21.2074 7.37109 21.0712 7.32813L20.8986 7.27371C21.0984 7.33672 21.0354 7.53654 21.0068 7.62737" fill="#009B3A"/>
<path fill-rule="evenodd" clip-rule="evenodd" d="M21.6617 7.85715C21.7362 7.88502 21.82 7.87885 21.8946 7.83999C21.9692 7.80114 22.0285 7.73279 22.0594 7.64999C22.0904 7.56718 22.0905 7.47669 22.0597 7.39843C22.0289 7.32017 21.9697 7.26055 21.8952 7.23269C21.8207 7.20482 21.7369 7.211 21.6623 7.24985C21.5877 7.2887 21.5284 7.35705 21.4975 7.43986C21.4665 7.52267 21.4664 7.61315 21.4972 7.69141C21.528 7.76967 21.5872 7.82929 21.6617 7.85715ZM21.7051 7.74118C21.7488 7.75754 21.7986 7.75256 21.8433 7.72733C21.888 7.70209 21.924 7.65868 21.9435 7.60662C21.9629 7.55457 21.9642 7.49815 21.947 7.44978C21.9298 7.4014 21.8956 7.36503 21.8518 7.34866C21.8081 7.33229 21.7584 7.33728 21.7136 7.36251C21.6689 7.38775 21.6329 7.43116 21.6134 7.48322C21.594 7.53527 21.5927 7.59169 21.6099 7.64006C21.6271 7.68844 21.6613 7.72481 21.7051 7.74118Z" fill="#009B3A"/>
<path fill-rule="evenodd" clip-rule="evenodd" d="M22.4466 8.17418C22.5195 8.20591 22.6035 8.20413 22.68 8.16924C22.7565 8.13435 22.8193 8.0692 22.8546 7.98813C22.8898 7.90706 22.8946 7.8167 22.868 7.73694C22.8413 7.65718 22.7853 7.59454 22.7124 7.56281C22.6394 7.53108 22.5554 7.53286 22.4789 7.56775C22.4024 7.60264 22.3396 7.66779 22.3044 7.74886C22.2691 7.82993 22.2643 7.92029 22.291 8.00005C22.3176 8.07981 22.3736 8.14245 22.4466 8.17418ZM22.4959 8.06064C22.5388 8.07927 22.5887 8.0769 22.6346 8.05404C22.6806 8.03118 22.7189 7.98971 22.741 7.93876C22.7632 7.8878 22.7674 7.83152 22.7528 7.78231C22.7382 7.7331 22.7059 7.69498 22.663 7.67635C22.6202 7.65772 22.5703 7.66009 22.5243 7.68295C22.4783 7.7058 22.44 7.74727 22.4179 7.79823C22.3957 7.84919 22.3915 7.90547 22.4061 7.95468C22.4208 8.00389 22.4531 8.042 22.4959 8.06064Z" fill="#009B3A"/>
<path d="M22.6231 7.88745L22.8546 7.98809L22.8166 8.07543L22.5851 7.97479L22.6231 7.88745Z" fill="#009B3A"/>
<path d="M22.7672 7.95013L22.8545 7.98811L22.7216 8.29381L22.6343 8.25583L22.7672 7.95013Z" fill="#009B3A"/>
<path fill-rule="evenodd" clip-rule="evenodd" d="M22.9451 8.39801L23.0559 8.45325L23.1664 8.23165L23.405 8.35064C23.4548 8.37543 23.5123 8.37945 23.565 8.36182C23.6177 8.34419 23.6612 8.30635 23.686 8.25662C23.7108 8.20689 23.7148 8.14934 23.6972 8.09665C23.6796 8.04395 23.6417 8.00042 23.592 7.97562L23.2511 7.80564L22.9451 8.39801ZM23.2216 8.12085L23.4517 8.23559C23.4721 8.24573 23.4956 8.24738 23.5172 8.24016C23.5387 8.23295 23.5566 8.21747 23.5667 8.19712C23.5768 8.17678 23.5785 8.15324 23.5713 8.13168C23.5641 8.11012 23.5486 8.09231 23.5282 8.08217L23.2981 7.96743L23.2216 8.12085Z" fill="#009B3A"/>
<path d="M23.4523 8.65087C23.4948 8.56564 23.5883 8.37813 23.4604 8.31438L23.2985 8.23364C23.486 8.32713 23.3925 8.51464 23.35 8.59988" fill="#009B3A"/>
<path d="M23.6998 8.78149L24.222 9.07694L24.283 8.96919L23.8603 8.73001L23.9447 8.58081L24.2762 8.7684L24.3325 8.66893L24.001 8.48134L24.0666 8.3653L24.4645 8.5904L24.5255 8.48264L24.0281 8.20126L23.6998 8.78149Z" fill="#009B3A"/>
<path d="M24.6724 9.10788C24.6366 9.16411 24.6729 9.22676 24.7532 9.27794C24.8336 9.32911 24.8883 9.32726 24.9114 9.29117C24.9843 9.1767 24.5627 9.00976 24.6927 8.81023C24.8047 8.63881 24.9964 8.77222 25.0686 8.81827C25.1409 8.86433 25.257 8.98345 25.1667 9.12073L25.0442 9.04269C25.0826 8.98245 25.0405 8.92454 24.9762 8.8836C24.914 8.84394 24.8634 8.82584 24.8263 8.88408C24.7642 8.97718 25.1773 9.15288 25.0507 9.35168C24.9573 9.49828 24.7948 9.43428 24.6864 9.3652C24.594 9.30635 24.456 9.1676 24.5459 9.02729L24.6724 9.10788Z" fill="#009B3A"/>
<path d="M25.3876 9.58075C25.3489 9.63502 25.3819 9.69949 25.4594 9.75479C25.537 9.8101 25.5917 9.81111 25.6167 9.77628C25.6955 9.66579 25.2832 9.47703 25.4234 9.28458C25.5443 9.11927 25.7287 9.26252 25.7985 9.31229C25.8683 9.36206 25.9779 9.48709 25.8806 9.61945L25.7624 9.53511C25.8038 9.47697 25.7648 9.41693 25.7028 9.37269C25.6427 9.32983 25.5931 9.3091 25.553 9.36531C25.4861 9.45503 25.8895 9.65211 25.7526 9.844C25.6517 9.98549 25.4928 9.91309 25.3881 9.83843C25.2989 9.77483 25.1684 9.62905 25.2655 9.49365L25.3876 9.58075Z" fill="#009B3A"/>
<path fill-rule="evenodd" clip-rule="evenodd" d="M26.0641 10.3478C26.1263 10.3974 26.2079 10.4174 26.2908 10.4035C26.3738 10.3896 26.4513 10.3429 26.5063 10.2737C26.5614 10.2045 26.5894 10.1185 26.5843 10.0345C26.5792 9.9506 26.5413 9.87562 26.4791 9.82608C26.4168 9.77656 26.3352 9.75655 26.2523 9.77046C26.1693 9.78436 26.0918 9.83104 26.0368 9.90022C25.9818 9.96941 25.9537 10.0554 25.9588 10.1394C25.964 10.2233 26.0018 10.2983 26.0641 10.3478ZM26.1411 10.2509C26.1777 10.2799 26.2265 10.2904 26.2768 10.2802C26.327 10.27 26.3747 10.2399 26.4092 10.1964C26.4438 10.153 26.4624 10.0998 26.4611 10.0485C26.4597 9.99727 26.4385 9.95211 26.402 9.92298C26.3654 9.894 26.3166 9.88347 26.2664 9.89368C26.2161 9.9039 26.1685 9.93403 26.1339 9.97747C26.0994 10.0209 26.0807 10.0741 26.0821 10.1254C26.0834 10.1766 26.1047 10.2218 26.1411 10.2509Z" fill="#009B3A"/>
<path d="M14.2858 7.44284L14.1931 7.72815L14.3357 7.77451" fill="white"/>
<path d="M14.2857 7.44284L14.3784 7.72815L14.2358 7.77451" fill="white"/>
<path d="M14.571 7.65012L14.271 7.65012L14.271 7.80011" fill="white"/>
<path d="M14.571 7.65011L14.3283 7.82646L14.2402 7.7051" fill="white"/>
<path d="M14.0004 7.65018L14.2431 7.82652L14.3313 7.70516" fill="white"/>
<path d="M14.0005 7.65013L14.3005 7.65013L14.3005 7.80012" fill="white"/>
<path d="M14.4622 7.98553L14.3695 7.7002L14.2268 7.74655" fill="white"/>
<path d="M14.4621 7.98554L14.2194 7.8092L14.3076 7.68785" fill="white"/>
<path d="M14.1095 7.98553L14.3522 7.8092L14.264 7.68784" fill="white"/>
<path d="M14.1094 7.98553L14.2021 7.70021L14.3448 7.74656" fill="white"/>
<path d="M14.9048 10.3857L14.8121 10.671L14.9547 10.7174" fill="white"/>
<path d="M14.9048 10.3857L14.9975 10.671L14.8548 10.7174" fill="white"/>
<path d="M15.1901 10.593L14.8901 10.5931L14.8901 10.743" fill="white"/>
<path d="M15.1901 10.5931L14.9474 10.7694L14.8592 10.6481" fill="white"/>
<path d="M14.6194 10.593L14.8622 10.7693L14.9503 10.648" fill="white"/>
<path d="M14.6195 10.593L14.9195 10.593L14.9195 10.743" fill="white"/>
<path d="M15.0812 10.9284L14.9885 10.6431L14.8458 10.6895" fill="white"/>
<path d="M15.0811 10.9284L14.8384 10.7521L14.9266 10.6307" fill="white"/>
<path d="M14.7285 10.9284L14.9712 10.7521L14.8831 10.6307" fill="white"/>
<path d="M14.7284 10.9284L14.8212 10.6431L14.9638 10.6895" fill="white"/>
<path d="M14.0477 11.0642L13.9704 11.302L14.0893 11.3407" fill="white"/>
<path d="M14.0477 11.0642L14.1249 11.302L14.006 11.3407" fill="white"/>
<path d="M14.2853 11.237L14.0353 11.237L14.0353 11.362" fill="white"/>
<path d="M14.2854 11.237L14.0831 11.384L14.0096 11.2828" fill="white"/>
<path d="M13.8098 11.237L14.0121 11.3839L14.0855 11.2828" fill="white"/>
<path d="M13.8099 11.237L14.0599 11.237L14.0599 11.362" fill="white"/>
<path d="M14.1945 11.5165L14.1173 11.2787L13.9984 11.3174" fill="white"/>
<path d="M14.1945 11.5165L13.9923 11.3695L14.0658 11.2684" fill="white"/>
<path d="M13.9007 11.5165L14.103 11.3695L14.0295 11.2684" fill="white"/>
<path d="M13.9007 11.5165L13.978 11.2787L14.0968 11.3174" fill="white"/>
<path d="M15.5905 10.1143L15.5464 10.2501L15.6143 10.2722" fill="white"/>
<path d="M15.5905 10.1143L15.6346 10.2501L15.5667 10.2722" fill="white"/>
<path d="M15.7264 10.213L15.5835 10.213L15.5835 10.2844" fill="white"/>
<path d="M15.7262 10.213L15.6106 10.2969L15.5687 10.2392" fill="white"/>
<path d="M15.4547 10.213L15.5702 10.297L15.6122 10.2392" fill="white"/>
<path d="M15.4546 10.213L15.5974 10.213L15.5974 10.2845" fill="white"/>
<path d="M15.6745 10.3727L15.6304 10.2368L15.5624 10.2589" fill="white"/>
<path d="M15.6744 10.3727L15.5589 10.2888L15.6008 10.231" fill="white"/>
<path d="M15.5065 10.3727L15.622 10.2888L15.58 10.231" fill="white"/>
<path d="M15.5065 10.3727L15.5506 10.2369L15.6185 10.2589" fill="white"/>
<path d="M16.3619 11.131L16.2847 11.3687L16.4036 11.4074" fill="white"/>
<path d="M16.362 11.131L16.4392 11.3687L16.3204 11.4074" fill="white"/>
<path d="M16.5997 11.3037L16.3497 11.3037L16.3497 11.4287" fill="white"/>
<path d="M16.5997 11.3037L16.3974 11.4507L16.3239 11.3495" fill="white"/>
<path d="M16.1241 11.3037L16.3263 11.4507L16.3998 11.3496" fill="white"/>
<path d="M16.1241 11.3038L16.3741 11.3038L16.3741 11.4288" fill="white"/>
<path d="M16.5088 11.5833L16.4315 11.3454L16.3126 11.3841" fill="white"/>
<path d="M16.5088 11.5832L16.3065 11.4362L16.38 11.3351" fill="white"/>
<path d="M16.215 11.5832L16.4172 11.4363L16.3438 11.3352" fill="white"/>
<path d="M16.215 11.5833L16.2922 11.3455L16.4111 11.3841" fill="white"/>
<path d="M16.1523 11.8762L16.0905 12.0664L16.1856 12.0973" fill="white"/>
<path d="M16.1523 11.8762L16.2141 12.0664L16.119 12.0973" fill="white"/>
<path d="M16.3425 12.0144L16.1425 12.0144L16.1425 12.1144" fill="white"/>
<path d="M16.3425 12.0144L16.1807 12.132L16.1219 12.051" fill="white"/>
<path d="M15.9621 12.0143L16.1239 12.1319L16.1827 12.051" fill="white"/>
<path d="M15.9621 12.0144L16.1621 12.0144L16.1621 12.1144" fill="white"/>
<path d="M16.2698 12.238L16.208 12.0478L16.1129 12.0787" fill="white"/>
<path d="M16.2699 12.238L16.1081 12.1204L16.1669 12.0395" fill="white"/>
<path d="M16.0347 12.2379L16.1965 12.1204L16.1377 12.0395" fill="white"/>
<path d="M16.0348 12.238L16.0966 12.0478L16.1917 12.0787" fill="white"/>
<path d="M22.1714 6.52856L22.0787 6.81388L22.2214 6.86023" fill="white"/>
<path d="M22.1715 6.52856L22.2642 6.81388L22.1215 6.86023" fill="white"/>
<path d="M22.4567 6.73584L22.1567 6.73585L22.1567 6.88583" fill="white"/>
<path d="M22.4567 6.73583L22.214 6.91218L22.1258 6.79083" fill="white"/>
<path d="M21.8862 6.73587L22.1289 6.91219L22.217 6.79085" fill="white"/>
<path d="M21.8861 6.73585L22.1861 6.73585L22.1861 6.88584" fill="white"/>
<path d="M22.3478 7.07129L22.2551 6.78597L22.1124 6.83232" fill="white"/>
<path d="M22.3478 7.07129L22.105 6.89496L22.1932 6.77362" fill="white"/>
<path d="M21.9951 7.07126L22.2378 6.89492L22.1496 6.77357" fill="white"/>
<path d="M21.9951 7.07129L22.0878 6.78596L22.2305 6.83232" fill="white"/>
<path d="M24.9048 11.1571L24.8121 11.4424L24.9547 11.4888" fill="white"/>
<path d="M24.9048 11.1571L24.9975 11.4424L24.8549 11.4888" fill="white"/>
<path d="M25.1901 11.3644L24.8901 11.3644L24.8901 11.5145" fill="white"/>
<path d="M25.1901 11.3645L24.9474 11.5408L24.8592 11.4195" fill="white"/>
<path d="M24.6195 11.3644L24.8622 11.5407L24.9504 11.4193" fill="white"/>
<path d="M24.6194 11.3644L24.9194 11.3644L24.9194 11.5144" fill="white"/>
<path d="M25.0811 11.6999L24.9884 11.4145L24.8457 11.4609" fill="white"/>
<path d="M25.0812 11.6998L24.8385 11.5235L24.9267 11.4022" fill="white"/>
<path d="M24.7285 11.6998L24.9712 11.5235L24.883 11.4022" fill="white"/>
<path d="M24.7284 11.6998L24.8212 11.4145L24.9638 11.4609" fill="white"/>
<path d="M25.8762 11.3238L25.8143 11.514L25.9095 11.5449" fill="white"/>
<path d="M25.8761 11.3238L25.938 11.514L25.8428 11.5449" fill="white"/>
<path d="M26.0664 11.462L25.8664 11.462L25.8664 11.562" fill="white"/>
<path d="M26.0664 11.462L25.9046 11.5795L25.8458 11.4987" fill="white"/>
<path d="M25.686 11.462L25.8477 11.5795L25.9065 11.4986" fill="white"/>
<path d="M25.6859 11.462L25.8859 11.462L25.8859 11.562" fill="white"/>
<path d="M25.9938 11.6856L25.932 11.4954L25.8369 11.5263" fill="white"/>
<path d="M25.9937 11.6856L25.8319 11.568L25.8907 11.4871" fill="white"/>
<path d="M25.7587 11.6855L25.9205 11.568L25.8617 11.4871" fill="white"/>
<path d="M25.7586 11.6856L25.8204 11.4954L25.9156 11.5263" fill="white"/>
<path d="M25.1904 11.8262L25.1132 12.064L25.2321 12.1026" fill="white"/>
<path d="M25.1904 11.8262L25.2677 12.064L25.1488 12.1026" fill="white"/>
<path d="M25.4282 11.9989L25.1782 11.9989L25.1782 12.1239" fill="white"/>
<path d="M25.4283 11.9989L25.226 12.1458L25.1525 12.0447" fill="white"/>
<path d="M24.9527 11.9989L25.155 12.1459L25.2284 12.0448" fill="white"/>
<path d="M24.9527 11.9989L25.2028 11.9989L25.2028 12.1239" fill="white"/>
<path d="M25.3375 12.2784L25.2602 12.0407L25.1413 12.0793" fill="white"/>
<path d="M25.3375 12.2784L25.1352 12.1315L25.2087 12.0304" fill="white"/>
<path d="M25.0436 12.2784L25.2458 12.1315L25.1723 12.0303" fill="white"/>
<path d="M25.0435 12.2785L25.1208 12.0407L25.2397 12.0793" fill="white"/>
<path d="M23.5047 13.2928L23.4275 13.5306L23.5463 13.5692" fill="white"/>
<path d="M23.5048 13.2928L23.582 13.5306L23.4631 13.5692" fill="white"/>
<path d="M23.7425 13.4656L23.4925 13.4656L23.4925 13.5906" fill="white"/>
<path d="M23.7425 13.4656L23.5403 13.6125L23.4668 13.5114" fill="white"/>
<path d="M23.267 13.4655L23.4692 13.6125L23.5427 13.5114" fill="white"/>
<path d="M23.267 13.4656L23.517 13.4656L23.517 13.5906" fill="white"/>
<path d="M23.6517 13.7451L23.5744 13.5074L23.4556 13.546" fill="white"/>
<path d="M23.6517 13.7451L23.4495 13.5981L23.5229 13.497" fill="white"/>
<path d="M23.3578 13.7451L23.5601 13.5981L23.4866 13.497" fill="white"/>
<path d="M23.3578 13.7451L23.4351 13.5073L23.5539 13.546" fill="white"/>
<path d="M23.4953 14.0476L23.4335 14.2378L23.5286 14.2687" fill="white"/>
<path d="M23.4953 14.0476L23.5571 14.2378L23.462 14.2687" fill="white"/>
<path d="M23.6855 14.1859L23.4855 14.1859L23.4855 14.2859" fill="white"/>
<path d="M23.6855 14.1858L23.5236 14.3034L23.4649 14.2225" fill="white"/>
<path d="M23.3051 14.1858L23.4669 14.3033L23.5257 14.2224" fill="white"/>
<path d="M23.305 14.1858L23.505 14.1858L23.5051 14.2858" fill="white"/>
<path d="M23.6129 14.4094L23.5511 14.2192L23.4559 14.2501" fill="white"/>
<path d="M23.6128 14.4095L23.451 14.2919L23.5098 14.211" fill="white"/>
<path d="M23.3777 14.4094L23.5396 14.2918L23.4808 14.2109" fill="white"/>
<path d="M23.3777 14.4094L23.4395 14.2192L23.5346 14.2501" fill="white"/>
<path d="M24.2 12.7904L24.1382 12.9806L24.2332 13.0115" fill="white"/>
<path d="M24.2 12.7904L24.2618 12.9806L24.1667 13.0115" fill="white"/>
<path d="M24.3902 12.9287L24.1902 12.9287L24.1902 13.0287" fill="white"/>
<path d="M24.3902 12.9286L24.2284 13.0462L24.1696 12.9653" fill="white"/>
<path d="M24.0098 12.9286L24.1716 13.0462L24.2304 12.9653" fill="white"/>
<path d="M24.0097 12.9286L24.2098 12.9286L24.2098 13.0286" fill="white"/>
<path d="M24.3176 13.1523L24.2558 12.962L24.1607 12.9929" fill="white"/>
<path d="M24.3175 13.1522L24.1557 13.0347L24.2145 12.9538" fill="white"/>
<path d="M24.0825 13.1522L24.2442 13.0347L24.1855 12.9538" fill="white"/>
<path d="M24.0824 13.1522L24.1442 12.962L24.2393 12.9929" fill="white"/>
<path d="M24.7619 12.3881L24.6847 12.6258L24.8035 12.6644" fill="white"/>
<path d="M24.7619 12.3881L24.8392 12.6258L24.7203 12.6644" fill="white"/>
<path d="M24.9997 12.5608L24.7497 12.5608L24.7497 12.6858" fill="white"/>
<path d="M24.9997 12.5608L24.7975 12.7078L24.724 12.6066" fill="white"/>
<path d="M24.5242 12.5608L24.7264 12.7077L24.7999 12.6066" fill="white"/>
<path d="M24.5241 12.5608L24.7741 12.5608L24.7741 12.6858" fill="white"/>
<path d="M24.9088 12.8404L24.8315 12.6026L24.7126 12.6412" fill="white"/>
<path d="M24.9088 12.8403L24.7065 12.6934L24.78 12.5923" fill="white"/>
<path d="M24.6149 12.8403L24.8171 12.6934L24.7437 12.5922" fill="white"/>
<path d="M24.6149 12.8403L24.6922 12.6026L24.8111 12.6412" fill="white"/>
<path d="M23.4762 12.6571L23.4144 12.8473L23.5095 12.8782" fill="white"/>
<path d="M23.4762 12.6571L23.538 12.8473L23.4429 12.8782" fill="white"/>
<path d="M23.6664 12.7953L23.4664 12.7954L23.4664 12.8954" fill="white"/>
<path d="M23.6664 12.7954L23.5046 12.9129L23.4458 12.832" fill="white"/>
<path d="M23.286 12.7953L23.4478 12.9128L23.5066 12.8319" fill="white"/>
<path d="M23.286 12.7954L23.486 12.7954L23.486 12.8954" fill="white"/>
<path d="M23.5938 13.019L23.5319 12.8287L23.4368 12.8596" fill="white"/>
<path d="M23.5937 13.019L23.4319 12.9014L23.4907 12.8205" fill="white"/>
<path d="M23.3587 13.0189L23.5205 12.9013L23.4617 12.8204" fill="white"/>
<path d="M23.3586 13.0189L23.4204 12.8287L23.5155 12.8596" fill="white"/>
<path d="M17.3334 9.03571L17.2562 9.27347L17.3751 9.31209" fill="white"/>
<path d="M17.3335 9.03571L17.4108 9.27347L17.2919 9.31209" fill="white"/>
<path d="M17.571 9.20844L17.321 9.20843L17.321 9.3334" fill="white"/>
<path d="M17.5711 9.20845L17.3688 9.35541L17.2954 9.25427" fill="white"/>
<path d="M17.0956 9.2084L17.2978 9.35534L17.3713 9.25422" fill="white"/>
<path d="M17.0956 9.20845L17.3456 9.20846L17.3456 9.33347" fill="white"/>
<path d="M17.4803 9.48795L17.4031 9.25021L17.2842 9.28883" fill="white"/>
<path d="M17.4804 9.48794L17.2781 9.34099L17.3516 9.23986" fill="white"/>
<path d="M17.1865 9.48798L17.3887 9.34101L17.3152 9.23987" fill="white"/>
<path d="M17.1865 9.48798L17.2637 9.25019L17.3826 9.28882" fill="white"/>
<path d="M21.9047 8.4476L21.8429 8.63781L21.938 8.66871" fill="white"/>
<path d="M21.9048 8.4476L21.9666 8.63781L21.8715 8.66871" fill="white"/>
<path d="M22.095 8.58578L21.895 8.58579L21.895 8.68579" fill="white"/>
<path d="M22.0949 8.58578L21.9331 8.70333L21.8743 8.62243" fill="white"/>
<path d="M21.7145 8.58578L21.8763 8.70334L21.9351 8.62243" fill="white"/>
<path d="M21.7145 8.58581L21.9145 8.5858L21.9145 8.68582" fill="white"/>
<path d="M22.0223 8.80939L21.9605 8.61915L21.8654 8.65006" fill="white"/>
<path d="M22.0223 8.80937L21.8605 8.69182L21.9193 8.61092" fill="white"/>
<path d="M21.7872 8.80942L21.9491 8.69186L21.8903 8.61096" fill="white"/>
<path d="M21.7873 8.80941L21.8491 8.6192L21.9442 8.6501" fill="white"/>
<path d="M19.9999 11.8428L19.9072 12.1282L20.0499 12.1746" fill="white"/>
<path d="M20 11.8428L20.0927 12.1282L19.9501 12.1746" fill="white"/>
<path d="M20.2853 12.0502L19.9853 12.0502L19.9853 12.2002" fill="white"/>
<path d="M20.2852 12.0502L20.0425 12.2265L19.9544 12.1052" fill="white"/>
<path d="M19.7147 12.0501L19.9574 12.2265L20.0455 12.1051" fill="white"/>
<path d="M19.7147 12.0501L20.0146 12.0501L20.0146 12.2002" fill="white"/>
<path d="M20.1763 12.3856L20.0836 12.1002L19.941 12.1466" fill="white"/>
<path d="M20.1763 12.3856L19.9336 12.2093L20.0218 12.0879" fill="white"/>
<path d="M19.8236 12.3856L20.0663 12.2093L19.9782 12.0879" fill="white"/>
<path d="M19.8237 12.3855L19.9164 12.1002L20.0591 12.1466" fill="white"/>
<path d="M20.8095 10.5024L20.7323 10.7401L20.8511 10.7787" fill="white"/>
<path d="M20.8095 10.5024L20.8868 10.7401L20.7679 10.7787" fill="white"/>
<path d="M21.0474 10.6751L20.7974 10.6751L20.7974 10.8001" fill="white"/>
<path d="M21.0473 10.6751L20.8451 10.822L20.7716 10.7209" fill="white"/>
<path d="M20.5718 10.6751L20.774 10.822L20.8475 10.7209" fill="white"/>
<path d="M20.5718 10.6751L20.8218 10.6751L20.8218 10.8001" fill="white"/>
<path d="M20.9565 10.9546L20.8792 10.7168L20.7603 10.7555" fill="white"/>
<path d="M20.9565 10.9546L20.7542 10.8076L20.8277 10.7065" fill="white"/>
<path d="M20.6626 10.9546L20.8649 10.8076L20.7914 10.7065" fill="white"/>
<path d="M20.6626 10.9546L20.7399 10.7169L20.8587 10.7555" fill="white"/>
<path d="M19.9999 9.87378L19.9227 10.1116L20.0416 10.1502" fill="white"/>
<path d="M20 9.87378L20.0772 10.1116L19.9584 10.1502" fill="white"/>
<path d="M20.2377 10.0465L19.9877 10.0465L19.9877 10.1715" fill="white"/>
<path d="M20.2377 10.0466L20.0354 10.1935L19.962 10.0924" fill="white"/>
<path d="M19.7622 10.0465L19.9645 10.1935L20.0379 10.0924" fill="white"/>
<path d="M19.7622 10.0466L20.0122 10.0466L20.0122 10.1716" fill="white"/>
<path d="M20.147 10.326L20.0697 10.0883L19.9509 10.1269" fill="white"/>
<path d="M20.147 10.326L19.9447 10.1791L20.0182 10.078" fill="white"/>
<path d="M19.853 10.3261L20.0552 10.1791L19.9818 10.078" fill="white"/>
<path d="M19.853 10.3261L19.9303 10.0883L20.0492 10.127" fill="white"/>
<path d="M19.2953 10.5524L19.2335 10.7426L19.3286 10.7735" fill="white"/>
<path d="M19.2953 10.5524L19.357 10.7426L19.262 10.7735" fill="white"/>
<path d="M19.4855 10.6906L19.2855 10.6906L19.2855 10.7906" fill="white"/>
<path d="M19.4855 10.6906L19.3237 10.8082L19.2649 10.7273" fill="white"/>
<path d="M19.105 10.6906L19.2669 10.8081L19.3256 10.7272" fill="white"/>
<path d="M19.105 10.6906L19.305 10.6906L19.305 10.7906" fill="white"/>
<path d="M19.4128 10.9142L19.351 10.724L19.2559 10.7549" fill="white"/>
<path d="M19.4128 10.9142L19.251 10.7966L19.3097 10.7157" fill="white"/>
<path d="M19.1777 10.9142L19.3395 10.7966L19.2808 10.7157" fill="white"/>
<path d="M19.1777 10.9142L19.2394 10.724L19.3345 10.7549" fill="white"/>
<path d="M19.6476 11.0952L19.6034 11.2311L19.6714 11.2532" fill="white"/>
<path d="M19.6476 11.0952L19.6917 11.2311L19.6238 11.2532" fill="white"/>
<path d="M19.7834 11.1939L19.6406 11.1939L19.6406 11.2653" fill="white"/>
<path d="M19.7835 11.1939L19.6679 11.2779L19.6259 11.2201" fill="white"/>
<path d="M19.5117 11.194L19.6273 11.278L19.6693 11.2202" fill="white"/>
<path d="M19.5118 11.194L19.6547 11.194L19.6547 11.2654" fill="white"/>
<path d="M19.7316 11.3537L19.6875 11.2178L19.6196 11.2399" fill="white"/>
<path d="M19.7316 11.3537L19.616 11.2697L19.658 11.2119" fill="white"/>
<path d="M19.5637 11.3537L19.6792 11.2697L19.6373 11.2119" fill="white"/>
<path d="M19.5637 11.3536L19.6078 11.2178L19.6758 11.2398" fill="white"/>
<path d="M22.0953 13.4643L22.018 13.7021L22.1369 13.7407" fill="white"/>
<path d="M22.0952 13.4643L22.1725 13.7021L22.0536 13.7407" fill="white"/>
<path d="M22.333 13.637L22.083 13.637L22.083 13.762" fill="white"/>
<path d="M22.3329 13.637L22.1307 13.7839L22.0572 13.6828" fill="white"/>
<path d="M21.8575 13.6371L22.0597 13.784L22.1332 13.6829" fill="white"/>
<path d="M21.8575 13.637L22.1074 13.637L22.1074 13.762" fill="white"/>
<path d="M22.2422 13.9165L22.1649 13.6788L22.0461 13.7174" fill="white"/>
<path d="M22.2422 13.9165L22.04 13.7695L22.1134 13.6684" fill="white"/>
<path d="M21.9484 13.9166L22.1506 13.7697L22.0771 13.6685" fill="white"/>
<path d="M21.9483 13.9166L22.0256 13.6788L22.1444 13.7174" fill="white"/>
<path d="M22.6952 12.8953L22.6334 13.0854L22.7285 13.1163" fill="white"/>
<path d="M22.6952 12.8953L22.7571 13.0854L22.6619 13.1163" fill="white"/>
<path d="M22.8854 13.0334L22.6854 13.0335L22.6854 13.1334" fill="white"/>
<path d="M22.8854 13.0334L22.7236 13.151L22.6648 13.0701" fill="white"/>
<path d="M22.505 13.0334L22.6668 13.151L22.7255 13.0701" fill="white"/>
<path d="M22.505 13.0335L22.7049 13.0334L22.7049 13.1334" fill="white"/>
<path d="M22.8128 13.2571L22.751 13.0668L22.6559 13.0977" fill="white"/>
<path d="M22.8128 13.257L22.651 13.1395L22.7098 13.0586" fill="white"/>
<path d="M22.5777 13.257L22.7395 13.1394L22.6807 13.0585" fill="white"/>
<path d="M22.5777 13.257L22.6395 13.0668L22.7346 13.0977" fill="white"/>
<path d="M21.5429 12.7238L21.4811 12.9141L21.5762 12.945" fill="white"/>
<path d="M21.5429 12.7238L21.6047 12.9141L21.5096 12.945" fill="white"/>
<path d="M21.7331 12.8621L21.5331 12.8621L21.5331 12.9621" fill="white"/>
<path d="M21.7331 12.8621L21.5712 12.9796L21.5125 12.8987" fill="white"/>
<path d="M21.3527 12.862L21.5145 12.9796L21.5733 12.8987" fill="white"/>
<path d="M21.3526 12.862L21.5527 12.862L21.5527 12.962" fill="white"/>
<path d="M21.6605 13.0857L21.5987 12.8955L21.5035 12.9264" fill="white"/>
<path d="M21.6604 13.0856L21.4986 12.9681L21.5574 12.8872" fill="white"/>
<path d="M21.4254 13.0856L21.5872 12.9681L21.5284 12.8872" fill="white"/>
<path d="M21.4253 13.0856L21.4871 12.8954L21.5822 12.9263" fill="white"/>
<path d="M17.1905 12.4143L17.0978 12.6996L17.2404 12.746" fill="white"/>
<path d="M17.1905 12.4143L17.2832 12.6996L17.1405 12.746" fill="white"/>
<path d="M17.4758 12.6216L17.1758 12.6216L17.1758 12.7717" fill="white"/>
<path d="M17.4758 12.6216L17.2331 12.798L17.1449 12.6766" fill="white"/>
<path d="M16.9052 12.6216L17.1479 12.7979L17.236 12.6765" fill="white"/>
<path d="M16.9052 12.6216L17.2052 12.6216L17.2052 12.7715" fill="white"/>
<path d="M17.3669 12.957L17.2742 12.6717L17.1315 12.718" fill="white"/>
<path d="M17.3668 12.957L17.1241 12.7807L17.2123 12.6594" fill="white"/>
<path d="M17.0142 12.957L17.2569 12.7807L17.1688 12.6593" fill="white"/>
<path d="M17.0142 12.957L17.1069 12.6717L17.2495 12.718" fill="white"/>
<path d="M20 14.3762L19.9691 14.4713L20.0167 14.4868" fill="white"/>
<path d="M20 14.3762L20.0308 14.4713L19.9833 14.4868" fill="white"/>
<path d="M20.0951 14.4453L19.9951 14.4453L19.9951 14.4953" fill="white"/>
<path d="M20.0951 14.4453L20.0142 14.5041L19.9848 14.4636" fill="white"/>
<path d="M19.9049 14.4453L19.9858 14.5041L20.0152 14.4636" fill="white"/>
<path d="M19.9049 14.4453L20.0048 14.4453L20.0049 14.4953" fill="white"/>
<path d="M20.0588 14.5572L20.0279 14.4621L19.9803 14.4775" fill="white"/>
<path d="M20.0588 14.5571L19.9779 14.4983L20.0073 14.4579" fill="white"/>
<path d="M19.9412 14.5572L20.0221 14.4984L19.9927 14.4579" fill="white"/>
<path d="M19.9412 14.5572L19.9721 14.4621L20.0197 14.4775" fill="white"/>
</g>
</svg>
