<?xml version="1.0" encoding="utf-8"?>
<!-- Generator: Adobe Illustrator 24.0.3, SVG Export Plug-In . SVG Version: 6.00 Build 0)  -->
<svg version="1.1" id="Слой_1" xmlns="http://www.w3.org/2000/svg" xmlns:xlink="http://www.w3.org/1999/xlink" x="0px" y="0px"
	 viewBox="0 0 979 938.8" style="enable-background:new 0 0 979 938.8;" xml:space="preserve">
<path d="M978.1,364c-5.3-27.8-21.1-47.2-47.8-56.4c-9.9-3.4-20.7-4.5-31.2-6.1c-40.5-6-81-11.8-121.4-17.7
	c-35.2-5.1-70.4-10.3-105.7-15.2c-4.2-0.6-6.3-2.2-8.1-5.9c-36-73.2-72-146.5-108.4-219.5c-4.4-8.8-10.3-17.4-17.4-24
	c-35.6-33.4-91.9-21.9-114.1,23c-36.4,73.6-72.7,147.3-109,220.9c-1.3,2.7-2.5,4.7-5.9,5.2c-36.9,5.3-73.7,10.7-110.6,16
	c-46.2,6.7-92.5,13.2-138.7,20.2C26.2,309.7,0.4,340.2,0,374.1c-0.2,22.5,8.7,40.7,24.7,56.2c58.3,56.5,116.4,113.3,174.7,169.9
	c3,2.9,3.7,5.6,2.9,9.6c-3,16.5-5.8,33.1-8.6,49.6c-10.8,63.1-21.5,126.2-32.6,189.3c-5.1,29.1,1.5,54.3,24.9,73
	c25.6,20.5,53.6,21.6,82.6,6.4c72.1-38,144.2-75.8,216.3-113.8c3.3-1.7,5.8-1.8,9.1-0.1c57.6,30.4,115.1,61.1,173.1,90.9
	c24.9,12.8,48,30.4,77.1,33.6c2,0,4,0,6,0c7.1-1.5,14.5-2.3,21.3-4.7c34.8-12.3,53.1-46.7,46.3-84.9
	c-10.5-59.4-20.5-118.9-30.7-178.4c-3.5-20.5-7-41-10.7-61.4c-0.6-3.6-0.1-6.1,2.7-8.8c58.2-56.4,116.1-113.1,174.3-169.5
	c13.1-12.7,22.2-27.2,24.8-45.5c0.1-0.4,0.5-0.8,0.7-1.2c0-5.7,0-11.3,0-17C978.7,366.3,978.3,365.2,978.1,364z"/>
</svg>
