<?xml version="1.0" encoding="utf-8"?>
<!-- Generator: Adobe Illustrator 24.0.3, SVG Export Plug-In . SVG Version: 6.00 Build 0)  -->
<svg version="1.1" id="Слой_1" xmlns="http://www.w3.org/2000/svg" xmlns:xlink="http://www.w3.org/1999/xlink" x="0px" y="0px"
	 viewBox="0 0 470.2 352.7" style="enable-background:new 0 0 470.2 352.7;" xml:space="preserve">
<g>
	<path d="M469.9,221c-1.8-15.3-14.6-26.6-30.5-26.7c-20.3-0.1-40.6,0-60.9,0c-1.7,0-3.5-0.1-5.5-0.2c0-21.9,0-43.1,0-64.4
		c0-2.8-0.1-5.7-0.7-8.4c-3.6-15.8-17.4-25.4-33.7-23.8c-15,1.5-26.6,14.6-26.7,30.5c-0.1,15,0,29.9,0,44.9c0,6.9,0,13.9,0,21.4
		c-21.8,0-42.7,0-63.7,0c-2.8,0-5.7,0-8.4,0.5c-15.8,3.1-26.4,17.1-24.8,33c1.5,16,14.2,27.6,30.5,27.7c20.1,0.1,40.2,0,60.4,0
		c1.9,0,3.8,0,6.1,0c0,3.3,0,5.8,0,8.3c0,18.8,0,37.6,0,56.4c0,2.8,0.1,5.7,0.7,8.4c3.4,15.1,17.5,25.5,32.2,24
		c16.4-1.7,28.1-14.3,28.2-30.7c0.1-20,0-39.9,0-59.9c0-2,0-3.9,0-6.5c2.5,0,4.4,0,6.3,0c19.3,0,38.6,0,57.9,0
		c3.1,0,6.4-0.1,9.4-0.8C462.2,250.9,471.8,236.9,469.9,221z"/>
	<path d="M31.9,61.5c35.4,0.2,70.8,0,106.2,0c35.6,0,71.2,0.1,106.7,0c13.6,0,24.8-7.9,29.3-20.1c4.4-12,1.1-25.1-8.5-33.6
		c-6.3-5.6-13.8-7.8-22-7.7c-33.6,0-67.2,0-100.8,0C106.1,0,69.4,0,32.7,0C17.7,0.1,6.1,8,1.8,20.8C-5.1,41.1,9.8,61.4,31.9,61.5z"
		/>
	<path d="M275,119.7c-3.7-13.8-15.7-22.4-31.5-22.5c-40.9,0-81.8,0-122.7,0c-29.4,0-58.9,0.1-88.3,0c-11.3-0.1-20.5,4-26.9,13.3
		c-6.7,9.9-7.4,20.6-2,31.2c5.5,10.8,14.7,16.6,26.9,16.7c35.7,0.2,71.5,0.1,107.2,0.1c35.9,0,71.8,0.1,107.7,0
		C265.9,158.3,280.3,139.3,275,119.7z"/>
	<path d="M153.7,194.4c-41.1-0.1-82.2,0-123.2,0c-2,0-4,0.2-5.9,0.6c-15.4,3.4-25.7,17.2-24.2,32.5c1.5,16.1,13.9,27.8,30.3,28
		c20.5,0.2,40.9,0.1,61.4,0.1c0,0,0,0,0,0c19.8,0,39.6,0,59.4,0c3.1,0,6.4-0.1,9.4-0.9c14.8-3.6,24.9-17.7,23.4-32.2
		C182.3,206.2,169.7,194.4,153.7,194.4z"/>
</g>
</svg>
