<?xml version="1.0" encoding="utf-8"?>
<!-- Generator: Adobe Illustrator 24.0.3, SVG Export Plug-In . SVG Version: 6.00 Build 0)  -->
<svg version="1.1" id="Слой_1" xmlns="http://www.w3.org/2000/svg" xmlns:xlink="http://www.w3.org/1999/xlink" x="0px" y="0px"
	 viewBox="0 0 93.1 83.3" style="enable-background:new 0 0 93.1 83.3;" xml:space="preserve">
<path d="M92.7,21.5c-1.5-8.3-6-14.4-13.3-18.4C75.2,0.8,70.7-0.2,66,0.1c-3.4,0.2-6.7,1.3-9.7,2.9c-3.8,2.1-7,4.9-9.6,8.4
	c-0.1,0.1-0.1,0.1-0.2,0.3c-0.2-0.2-0.3-0.4-0.4-0.6C42,5.7,36.7,2,30,0.5c-5.4-1.2-10.6-0.3-15.5,2.1C6.8,6.5,2.1,12.7,0.4,21.2
	c-0.2,0.8-0.2,1.7-0.3,2.5C0.1,23.9,0,24,0,24.2c0,1.1,0,2.2,0,3.3c0,0.4,0.1,0.8,0.1,1.2c0.5,5.1,1.9,9.9,4.1,14.5
	c2.7,5.6,6.3,10.7,10.5,15.3c8.8,9.8,19.1,17.7,30.4,24.4c0.9,0.5,1.8,0.6,2.7,0c1.6-1,3.2-1.9,4.7-2.9c9.2-6,17.7-12.7,25-20.8
	C82.1,54.3,86,49,88.9,43.1c2-4.2,3.4-8.5,4-13.1c0.1-0.8,0.2-1.6,0.3-2.4c0-1.1,0-2.2,0-3.3C92.9,23.3,92.9,22.4,92.7,21.5z"/>
</svg>
