<?xml version="1.0" encoding="utf-8"?>
<!-- Generator: Adobe Illustrator 24.0.3, SVG Export Plug-In . SVG Version: 6.00 Build 0)  -->
<svg version="1.1" id="Слой_1" xmlns="http://www.w3.org/2000/svg" xmlns:xlink="http://www.w3.org/1999/xlink" x="0px" y="0px"
	 viewBox="0 0 321.9 184.2" style="enable-background:new 0 0 321.9 184.2;" xml:space="preserve">
<path d="M314.6,6.1c-9.3-8.6-23.1-8.1-32.3,1.1c-25.6,25.6-51.2,51.3-76.8,76.9c-14.7,14.7-29.3,29.4-45.2,45.3
	c-1.3-1.9-2.1-3.6-3.3-4.8C118.7,86.4,80.4,48.1,42.1,9.9c-1.5-1.5-2.9-3-4.5-4.3c-9-7.5-22.1-7-30.5,1.2c-9.8,9.5-9.5,23.6,0.9,34
	c44.6,44.6,89.2,89.2,133.7,133.8c12.9,12.9,25.4,12.9,38.1,0.1c44.1-44.1,88.3-88.3,132.4-132.4c1.4-1.4,2.7-2.7,3.9-4.2
	C324.4,28.3,323.7,14.5,314.6,6.1z"/>
</svg>
