<?xml version="1.0" encoding="utf-8"?>
<!-- Generator: Adobe Illustrator 24.0.3, SVG Export Plug-In . SVG Version: 6.00 Build 0)  -->
<svg version="1.1" id="Слой_1" xmlns="http://www.w3.org/2000/svg" xmlns:xlink="http://www.w3.org/1999/xlink" x="0px" y="0px"
	 viewBox="0 0 80.3 80.4" style="enable-background:new 0 0 80.3 80.4;" xml:space="preserve">
<path d="M45,40.4c-0.1-0.1-0.1-0.1-0.2-0.2c0.1-0.1,0.1-0.1,0.1-0.2C55.3,29.8,65.6,19.5,75.8,9.2c1.2-1.2,2.3-2.3,3.5-3.5
	c0.8-0.9,1.2-1.9,1-3.1c-0.3-1.3-1-2.1-2.3-2.5c-1.3-0.4-2.4-0.1-3.3,0.9C68.8,6.9,63,12.7,57.1,18.5c-5.6,5.6-11.2,11.2-16.8,16.8
	c-0.1,0.1-0.1,0.1-0.2,0.2c-0.1-0.1-0.1-0.1-0.2-0.2C29.2,24.5,18.4,13.7,7.6,3C6.9,2.3,6.3,1.5,5.5,0.9C4.5-0.1,3.2-0.3,1.9,0.3
	C0.6,0.9,0,2,0,3.4c0,1,0.4,1.7,1.1,2.4c11.3,11.3,22.6,22.6,34,34c0.1,0.1,0.3,0.2,0.4,0.4c-0.1,0.1-0.3,0.2-0.4,0.3
	c-3.2,3.2-6.3,6.3-9.5,9.5C19,56.6,12.4,63.2,5.8,69.8c-1.6,1.6-3.3,3.3-4.9,4.9c-1,1-1.2,2.4-0.6,3.7c0.5,1.2,1.8,2,3.1,2
	c1,0,1.7-0.5,2.4-1.1C17.2,67.8,28.6,56.5,40,45.1c0.1-0.1,0.1-0.1,0.2-0.2c0.1,0.1,0.1,0.2,0.2,0.2c3.5,3.5,7,7,10.5,10.5
	C57.6,62.3,64.3,69,71,75.7c1.2,1.2,2.5,2.5,3.7,3.7c1.3,1.3,3.4,1.3,4.7,0c1.3-1.3,1.3-3.4-0.1-4.8C67.8,63.2,56.4,51.8,45,40.4z"
	/>
</svg>
