<?xml version="1.0" encoding="utf-8"?>
<!-- Generator: Adobe Illustrator 24.0.3, SVG Export Plug-In . SVG Version: 6.00 Build 0)  -->
<svg version="1.1" id="Слой_1" xmlns="http://www.w3.org/2000/svg" xmlns:xlink="http://www.w3.org/1999/xlink" x="0px" y="0px"
	 viewBox="0 0 150.3 82.1" style="enable-background:new 0 0 150.3 82.1;" xml:space="preserve">
<path d="M150.1,40.8C136.7,27.5,123.4,14.1,110,0.7c-0.3-0.3-0.6-0.5-0.7-0.7c-2.7,2.7-5.4,5.4-8.3,8.2c9,9,18,18,27.1,27.1
	c-0.4,0-0.7,0-1.1,0c-42.3,0-84.7,0-127,0v11.5c41.9,0,83.9,0,125.8,0c0.5,0,1.1,0,1.6,0c0.2,0,0.5,0.1,0.9,0.1
	c-9.2,9.2-18.2,18.2-27.1,27.1c2.7,2.7,5.3,5.4,8.1,8.1c0.3-0.3,0.7-0.8,1.1-1.2c13-13,26-26,39-39c0.3-0.3,0.6-0.5,0.9-0.7
	c0-0.1,0-0.1,0-0.2C150.3,41,150.2,40.9,150.1,40.8z"/>
</svg>
