<svg width="40" height="40" viewBox="0 0 40 40" fill="none" xmlns="http://www.w3.org/2000/svg">
<path d="M40 9.34579C40 3.86293 36.1371 0 30.6542 0C27.1651 0 23.5514 0 20.0623 0C16.4486 0 12.8349 0 9.09657 0C3.98754 0.124611 0.124611 3.86293 0 9.09657C0 16.324 0 23.676 0 30.9034C0 36.0125 3.86293 39.8754 8.97196 39.8754C16.1994 39.8754 23.5514 39.8754 30.7788 39.8754C36.0125 39.8754 39.8754 36.0125 39.8754 30.6542C40 23.5514 40 16.4486 40 9.34579ZM37.8816 30.5296C37.8816 34.891 35.0156 37.757 30.5296 37.757C23.5514 37.757 16.5732 37.757 9.59502 37.757C5.10903 37.757 2.24299 34.891 2.24299 30.405C2.24299 26.9159 2.24299 23.3022 2.24299 19.8131C2.24299 16.324 2.24299 12.8349 2.24299 9.34579C2.24299 4.98442 5.10903 2.11838 9.47041 2.11838C16.5732 2.11838 23.676 2.11838 30.6542 2.11838C34.891 2.11838 37.757 5.10903 37.757 9.22118C37.8816 16.324 37.8816 23.4268 37.8816 30.5296Z" fill="#240C04"/>
<path d="M25.7946 7.60124C21.9317 7.47663 18.0688 7.47663 14.3304 7.60124C10.4675 7.72585 7.72607 10.5919 7.72607 14.4548C7.72607 16.324 7.72607 18.1931 7.72607 19.9377C7.72607 21.9315 7.72607 23.8006 7.72607 25.7944C7.85068 29.5327 10.5921 32.2741 14.3304 32.3987C18.1934 32.5234 22.0563 32.5234 26.0438 32.3987C29.7821 32.2741 32.5236 29.5327 32.6482 25.7944C32.7728 21.9315 32.7728 18.0685 32.6482 14.3302C32.399 10.5919 29.5329 7.72585 25.7946 7.60124ZM25.1716 30.2804C23.427 30.2804 21.8071 30.2804 20.0625 30.2804C18.1934 30.2804 16.3242 30.2804 14.5797 30.2804C11.7136 30.2804 9.84445 28.4112 9.84445 25.4206C9.84445 21.8068 9.84445 18.1931 9.84445 14.4548C9.84445 11.5888 11.7136 9.71962 14.455 9.71962C18.1934 9.59501 21.8071 9.59501 25.5454 9.71962C28.4114 9.71962 30.2806 11.5888 30.2806 14.5794C30.2806 18.0685 30.2806 21.6822 30.2806 25.1713C30.2806 28.5358 28.4114 30.2804 25.1716 30.2804Z" fill="#240C04"/>
<path d="M20.1868 13.7072C16.5731 13.5826 13.707 16.324 13.707 19.9377C13.5824 23.4268 16.4485 26.2928 19.813 26.4175C23.4267 26.5421 26.1681 23.8006 26.2927 20.1869C26.4173 16.6978 23.6759 13.8318 20.1868 13.7072ZM20.0622 24.2991C17.8192 24.2991 15.8254 22.4299 15.8254 20.1869C15.8254 17.9439 17.6946 16.0748 20.0622 16.0748C22.3052 16.0748 24.1743 17.9439 24.1743 20.1869C24.1743 22.3053 22.3052 24.1745 20.0622 24.2991Z" fill="#240C04"/>
<path d="M26.7914 11.838C26.2929 11.9626 25.5453 12.7103 25.4207 13.3333C25.1714 14.2056 25.9191 14.9533 26.7914 14.7041C27.4144 14.5794 27.9129 13.9564 28.5359 13.5826C28.5359 13.3333 28.5359 13.0841 28.5359 12.9595C27.9129 12.5857 27.2898 11.838 26.7914 11.838Z" fill="#240C04"/>
</svg>
