<?xml version="1.0" encoding="utf-8"?>
<!-- Generator: Adobe Illustrator 24.0.3, SVG Export Plug-In . SVG Version: 6.00 Build 0)  -->
<svg version="1.1" id="Слой_1" xmlns="http://www.w3.org/2000/svg" xmlns:xlink="http://www.w3.org/1999/xlink" x="0px" y="0px"
	 viewBox="0 0 40 40" style="enable-background:new 0 0 40 40;" xml:space="preserve">
<style type="text/css">
	.st0{fill:#240C04;}
</style>
<path class="st0" d="M31.3,0H8.8C3.7,0.1,0,4,0,9.1v21.7c0,5.4,3.9,9.1,9.2,9.2h10.7c3.6,0,7.4,0,11.2-0.1c4.9,0,8.7-3.7,8.8-8.6
	V8.7C39.9,3.9,36.1,0.1,31.3,0z M37.8,30.9c0,4.1-2.9,7-7,7c-2,0-4.1,0-6.4,0c0-3.9,0-7.7,0-11.8c1.4,0,2.7,0,4.2,0
	c0.2-2,0.5-3.7,0.7-5.6c-1.7,0-3.4,0-5.1,0c0-1.6-0.1-3.1,0-4.6c0.2-1.1,1.1-1.9,2.4-1.9c1,0,2,0,3.1,0c0-1.6,0-3.1,0-4.7
	c-3.4-0.6-6.5-0.5-9.1,2c-2.7,2.5-2,5.9-2.1,9.1c-1.6,0-3.1,0-4.6,0c0,2,0,3.7,0,5.6c1.5,0,3,0,4.6,0c0,4,0,7.9,0,11.8
	c-0.4,0-0.7,0.1-1.1,0.1c-2.7,0-5.6,0-8.3,0c-3.9,0-6.9-3-6.9-6.9c0-7.2,0-14.6,0-21.8c0-4,2.9-7,6.9-7c7.2,0,14.6,0,21.8,0
	c4,0,6.9,3,6.9,7C37.8,16.4,37.8,23.7,37.8,30.9z"/>
</svg>
