<svg id="Слой_1" data-name="Слой 1" xmlns="http://www.w3.org/2000/svg" viewBox="0 0 120 120.03"><title>icon_garbage</title><path d="M119.7,22.85A10.32,10.32,0,0,0,109.45,15H82.52c0-1.56,0-3.07,0-4.57a14.69,14.69,0,0,0-.35-3A9.91,9.91,0,0,0,72.65,0Q60.08,0,47.49,0a10,10,0,0,0-10,10c0,1.43,0,2.86,0,4.29V15H10.57A10.34,10.34,0,0,0,.31,22.84c-.12.47-.21.95-.31,1.43V35.78c.1.47.19.95.32,1.42A10.34,10.34,0,0,0,10.65,45H15v1q0,30.07,0,60.17a13.41,13.41,0,0,0,4.14,10.11A12.75,12.75,0,0,0,28.18,120q20.1,0,40.21,0,11.42,0,22.83,0A13.38,13.38,0,0,0,105,106.28q0-13.09,0-26.2V45h.85a51.21,51.21,0,0,0,5.55-.18,10.19,10.19,0,0,0,8.48-8.58,3.9,3.9,0,0,1,.12-.46V24.14C119.9,23.71,119.81,23.28,119.7,22.85ZM45,9.87A2.48,2.48,0,0,1,47.7,7.49H72.42A2.42,2.42,0,0,1,75,9.67c.11,1.74,0,3.49,0,5.28H45C45,13.21,45,11.54,45,9.87Zm46.5,102.64H28.9A5.92,5.92,0,0,1,23.07,109a9.65,9.65,0,0,1-.54-2.24,4.82,4.82,0,0,1,0-.85V45h15v55.82a3.8,3.8,0,0,0,2.73,4A3.72,3.72,0,0,0,45,101.69a11.43,11.43,0,0,0,0-1.17V45H56.2c0,.28,0,.56,0,.83q0,27.47,0,54.92a4,4,0,0,0,1.35,3.33,3.74,3.74,0,0,0,6.11-2.37,8,8,0,0,0,0-1.1q0-27.37,0-54.73V45H75c0,.28,0,.55,0,.83V100.6a6.93,6.93,0,0,0,.13,1.58A3.69,3.69,0,0,0,79.18,105a3.73,3.73,0,0,0,3.31-3.59c0-.26,0-.53,0-.79V45h15v.68q0,30.44,0,60.86A5.9,5.9,0,0,1,91.53,112.51Zm17.75-75H60c-16.38,0-32.77,0-49.16,0a3.11,3.11,0,0,1-3.38-3.39c.09-2.84,0-5.68,0-8.51A2.86,2.86,0,0,1,10.6,22.5h98.8a2.85,2.85,0,0,1,3.12,3.12c0,2.88,0,5.75,0,8.63A2.91,2.91,0,0,1,109.28,37.51Z"/></svg>