<?xml version="1.0" encoding="utf-8"?>
<!-- Generator: Adobe Illustrator 24.0.3, SVG Export Plug-In . SVG Version: 6.00 Build 0)  -->
<svg version="1.1" id="Слой_1" xmlns="http://www.w3.org/2000/svg" xmlns:xlink="http://www.w3.org/1999/xlink" x="0px" y="0px"
	 viewBox="0 0 40 40" style="enable-background:new 0 0 40 40;" xml:space="preserve">
<g>
	<path d="M20,0C9,0,0,9,0,20c0,11,9,20,20,20c11,0,20-9,20-20C40,9,31,0,20,0z M20,38c-9.9,0-18-8.1-18-18c0-9.9,8.1-18,18-18
		c9.9,0,18,8.1,18,18C38,29.9,29.9,38,20,38z"/>
	<path d="M24.5,17.1c2.2,0,4-1.7,4-3.8s-1.8-3.8-4-3.8s-4,1.7-4,3.8c0,0.4,0.1,0.8,0.2,1.2L16,17.2c-0.7-0.5-1.6-0.8-2.5-0.8
		c-2.2,0-4,1.7-4,3.8c0,2.1,1.8,3.8,4,3.8c0.9,0,1.8-0.3,2.5-0.8l4.5,2.7c-0.1,0.3-0.1,0.6-0.1,0.9c0,2.1,1.8,3.8,4,3.8s4-1.7,4-3.8
		s-1.8-3.8-4-3.8c-0.9,0-1.8,0.3-2.5,0.8L17.5,21c0.1-0.3,0.1-0.6,0.1-0.9c0-0.3,0-0.6-0.1-0.9l4.8-2.9
		C22.9,16.8,23.7,17.1,24.5,17.1z M24.5,12c0.8,0,1.4,0.6,1.4,1.3s-0.6,1.3-1.4,1.3s-1.4-0.6-1.4-1.3S23.7,12,24.5,12z M13.5,21.4
		c-0.8,0-1.4-0.6-1.4-1.3c0-0.7,0.6-1.3,1.4-1.3s1.4,0.6,1.4,1.3C14.9,20.9,14.3,21.4,13.5,21.4z M24.5,25.5c0.8,0,1.4,0.6,1.4,1.3
		c0,0.7-0.6,1.3-1.4,1.3s-1.4-0.6-1.4-1.3C23.1,26,23.7,25.5,24.5,25.5z"/>
</g>
</svg>
