<?xml version="1.0" encoding="utf-8"?>
<!-- Generator: Adobe Illustrator 24.0.3, SVG Export Plug-In . SVG Version: 6.00 Build 0)  -->
<svg version="1.1" id="Слой_1" xmlns="http://www.w3.org/2000/svg" xmlns:xlink="http://www.w3.org/1999/xlink" x="0px" y="0px"
	 viewBox="0 0 28.1 30" style="enable-background:new 0 0 28.1 30;" xml:space="preserve">
<style type="text/css">
	.st0{fill:#492C23;}
</style>
<g>
	<path class="st0" d="M23.7,6.4c-0.1,0-0.1-0.1-0.2-0.1c-2.2-0.8-4.3-0.6-6.3,0.7c-1.4,0.9-2.5,2.1-3.4,3.6
		c-1.2,1.9-2.1,4.1-2.8,6.3c-0.4,1.2-0.9,2.4-1.6,3.6c-1.1,1.7-2.4,3-4.4,3.5C5,23.9,5,23.9,4.9,24c1.5,0.7,3,0.8,4.5,0.2
		c1.5-0.6,2.5-1.7,3.5-3c0.9-1.3,1.6-2.8,2.2-4.3c0.8-1.8,1.5-3.6,2.3-5.4c0.5-1.1,1.2-2.1,2.1-3c1.1-1,2.3-1.5,3.7-1.9
		c0.2-0.1,0.4-0.1,0.6-0.2C23.7,6.4,23.7,6.4,23.7,6.4z M18.8,7.8c-1,0.9-1.7,1.9-2.3,3.3c-0.6,1.4-1.2,2.8-1.8,4.2L14,16.8
		c-0.6,1.4-1.2,2.8-2,3.9c-0.9,1.3-1.9,2.1-3,2.6c-0.4,0.2-0.7,0.2-1,0.3c0.9-0.7,1.6-1.5,2.3-2.6c0.7-1.1,1.2-2.3,1.7-3.9
		c0.8-2.5,1.7-4.4,2.7-6c1-1.5,1.9-2.5,3.1-3.3c0.7-0.4,1.4-0.7,2.1-0.9C19.5,7.2,19.2,7.5,18.8,7.8z"/>
	<path class="st0" d="M28.1,9.5c0-0.4-0.1-0.8-0.1-1.1c-0.3-2.2-1.1-4.2-2.5-5.7C23.8,1,21.6,0.1,18.9,0h-0.3c-1.5,0-3,0.3-4.7,0.9
		c-2.5,0.9-4.8,2.3-7,4.4c-3.1,3-5.2,6.5-6.3,10.4c-0.7,2.5-0.8,4.9-0.3,7.1c0.7,3,2.4,5.2,5.1,6.4C6.7,29.7,7.9,30,9.3,30
		c0.8,0,1.5-0.1,2.4-0.2c1.7-0.3,3.4-0.9,5.2-1.9c4.1-2.3,7.2-5.8,9.3-10.1c1.2-2.5,1.8-5.1,1.9-7.6V10L28.1,9.5z M25.3,17.3
		c-2,4.1-4.9,7.4-8.9,9.7c-1.5,0.9-3.1,1.5-4.8,1.8c-1.9,0.3-3.8,0.4-5.7-0.5c-2.5-1.1-4-3.1-4.6-5.7C0.8,20.4,1,18.2,1.6,16
		c1.1-3.9,3.2-7.2,6.1-10c1.9-1.8,4.1-3.3,6.6-4.1C15.7,1.4,17.3,1,18.8,1c2.2,0.1,4.2,0.7,5.8,2.4c1.4,1.4,2.1,3.2,2.3,5.1
		c0.1,0.5,0.1,1,0.1,1.5C27,12.6,26.4,15,25.3,17.3z"/>
</g>
</svg>
