<?xml version="1.0" encoding="utf-8"?>
<!-- Generator: Adobe Illustrator 24.0.3, SVG Export Plug-In . SVG Version: 6.00 Build 0)  -->
<svg version="1.1" id="Слой_1" xmlns="http://www.w3.org/2000/svg" xmlns:xlink="http://www.w3.org/1999/xlink" x="0px" y="0px"
	 viewBox="0 0 28.1 30" style="enable-background:new 0 0 28.1 30;" xml:space="preserve">
<style type="text/css">
	.st0{fill:#492C23;}
</style>
<path class="st0" d="M28.1,9.5c0-0.4,0-0.7-0.1-1.1c-0.2-2.3-1.1-4.2-2.6-5.7C23.8,1,21.6,0.1,18.9,0h-0.3c-1.5,0-3,0.3-4.8,0.9
	c-2.5,0.9-4.9,2.3-7,4.4c-3.1,3-5.3,6.5-6.3,10.4C0.2,17.1,0,18.5,0,19.9v0.4c0,0.9,0.1,1.7,0.3,2.5c0.7,3,2.4,5.2,5.2,6.4
	C6.7,29.7,7.9,30,9.3,30c0.7,0,1.6-0.1,2.5-0.2c1.7-0.3,3.4-0.9,5.2-1.9c4.1-2.3,7.2-5.7,9.3-10.1c1.2-2.5,1.8-5.1,1.9-7.7v0
	L28.1,9.5z M18.8,7.8c-1,0.9-1.7,1.9-2.3,3.3c-0.6,1.4-1.2,2.8-1.8,4.2L14,16.7c-0.6,1.4-1.2,2.7-2,3.9c-0.9,1.3-1.9,2.1-3,2.6
	c-0.3,0.1-0.7,0.2-1,0.3c0.9-0.7,1.6-1.5,2.3-2.6c0.7-1.1,1.2-2.3,1.8-3.8c0.8-2.5,1.7-4.4,2.7-6c1-1.5,1.9-2.6,3-3.2
	c0.7-0.4,1.4-0.7,2.1-0.9C19.5,7.2,19.1,7.5,18.8,7.8z"/>
</svg>
