<?xml version="1.0" encoding="utf-8"?>
<!-- Generator: Adobe Illustrator 24.0.3, SVG Export Plug-In . SVG Version: 6.00 Build 0)  -->
<svg version="1.1" id="Слой_1" xmlns="http://www.w3.org/2000/svg" xmlns:xlink="http://www.w3.org/1999/xlink" x="0px" y="0px"
	 viewBox="0 0 132.9 131.4" style="enable-background:new 0 0 132.9 131.4;" xml:space="preserve">
<g>
	<path d="M97.7,75.1L96.8,75c-2.6-0.9-5.1-0.6-7.5,0.9c-1.5,0.9-2.8,2.3-4,4.2c-1.2,1.9-2.2,4.2-3.2,7.1C81.6,88.8,81,90,80.4,91
		c-1.2,1.9-2.6,3.1-4.4,3.5c-0.2,0-0.3,0.1-0.4,0.2l-1.5,0.8l1.5,0.7c1.1,0.5,2.1,0.8,3.2,0.8c0.9,0,1.7-0.2,2.5-0.5
		c1.6-0.7,2.9-1.8,4.2-3.6c1.1-1.6,1.9-3.4,2.5-5l0.6-1.4c0.7-1.5,1.3-3.1,2-4.6c0.6-1.3,1.3-2.3,2.1-3c1-0.9,2.2-1.5,3.7-1.9
		c0.3-0.1,0.5-0.1,0.8-0.3l1.2-0.5l-0.8-0.8V75.1z M86,85.6l-0.7,1.7c-0.4,1-0.8,2-1.3,2.9c0.3-0.6,0.5-1.3,0.8-2
		c0.8-2.6,1.7-4.6,2.9-6.5c0.1-0.2,0.2-0.3,0.3-0.5C87.3,82.5,86.7,84,86,85.6z"/>
	<path d="M102.4,78.1c-0.3-2.7-1.3-5-3-6.8c-2-2.1-4.6-3.2-7.8-3.3h-0.3c-1.7,0-3.5,0.3-5.5,1.1c-2.9,1-5.6,2.7-8.1,5.1
		c-3.6,3.5-6,7.5-7.2,11.9c-0.8,3-0.9,5.7-0.3,8.3c0.9,3.6,3,6.2,6.2,7.7c1.4,0.6,2.9,0.9,4.5,0.9c1,0,1.9-0.1,2.8-0.2
		c1.9-0.3,4-1,6.1-2.3c4.6-2.7,8.2-6.6,10.7-11.6c1.4-2.8,2.1-5.8,2.2-9l-0.1-0.5C102.6,79,102.5,78.5,102.4,78.1z M97.9,87.7
		L97.9,87.7c-2.2,4.5-5.4,8-9.6,10.4c-1.8,1-3.4,1.6-5.1,1.9c-1.8,0.3-3.8,0.4-5.8-0.4c-2.4-1.1-4-3-4.6-5.8c-0.5-2.2-0.4-4.5,0.3-7
		c1.1-4.1,3.2-7.6,6.5-10.7c2.2-2.1,4.5-3.5,7-4.4c1.9-0.6,3.4-0.9,4.9-0.9c2.5,0.1,4.4,0.8,5.9,2.4c1.3,1.4,2.1,3.1,2.3,5.2
		c0,0.3,0,0.5,0.1,0.8c0,0.3,0,0.6,0.1,0.8C99.8,82.7,99.2,85.2,97.9,87.7z"/>
	<path d="M59.2,115.3c-1.7-1.8-3.3-3.6-4.9-5.5c-0.3-0.4-0.7-0.6-1.2-0.6c-13.2,0-26.3,0-39.5,0c-4.2,0-7-2.8-7-7
		c0-29.5,0-59.1,0-88.6c0-0.5,0-1,0.1-1.4c0.6-3.4,3.3-5.6,6.9-5.6c18.4,0,36.7,0,55.1,0c0.2,0,0.5,0,0.7,0c0,0.4,0,0.6,0,0.9
		c0,8.4,0,16.9,0,25.3c0,2.6,0.6,5,2,7.2c2.7,4.2,6.6,6.3,11.6,6.3c6.2,0,12.4,0,18.7,0c0.3,0,0.6,0,0.9,0c0,1.1,0,2,0,3
		c0,0.4,0.1,0.7,0.5,0.9c1.9,1.1,3.8,2.2,5.6,3.3c0.1,0.1,0.3,0.2,0.5,0.3c0-4.6,0-9.2,0-13.7c0-0.2-0.2-0.5-0.3-0.7
		c-0.8-1-1.6-1.9-2.4-2.9c-10-12-20-24-30-36C76.2,0.2,76,0,75.5,0C54.8,0,34,0,13.2,0C7.3,0,2.1,4,0.5,9.6
		c-0.2,0.8-0.3,1.5-0.5,2.3c0,30.7,0,61.3,0,92c0,0.1,0.1,0.3,0.1,0.4c1,6.8,6.4,11.5,13.3,11.5c15.2,0,30.4,0,45.7,0
		c0.2,0,0.4,0,0.7,0C59.5,115.6,59.4,115.4,59.2,115.3z M76.1,8c8.9,10.6,17.6,21.1,26.5,31.7c-0.3,0-0.5,0-0.6,0
		c-6.4,0-12.7,0-19.1,0c-3.5,0-6.1-2.3-6.7-5.6c-0.1-0.4-0.1-0.7-0.1-1.1c0-8.1,0-16.3,0-24.4C76.1,8.4,76.1,8.3,76.1,8z"/>
	<path d="M116.7,110.5c-1.5,1.5-3,3-4.6,4.6c0.1,0.1,0.3,0.3,0.5,0.4c5.1,5.1,10.2,10.2,15.2,15.2c0.2,0.2,0.3,0.4,0.5,0.6
		c0,0,0.1,0,0.1,0c1.5-1.6,3-3.1,4.5-4.6C127.4,121.3,122,115.9,116.7,110.5z"/>
	<path d="M86.1,53c-18.3,0-33.2,14.8-33.2,33.1c0,18.2,14.8,33.1,32.9,33.1c18.4,0,33.2-14.7,33.3-33.1C119.2,67.8,104.3,53,86.1,53
		z M86.1,112.5c-14.6,0-26.5-11.8-26.5-26.5c0-14.6,11.9-26.5,26.5-26.5c14.6,0,26.4,11.8,26.4,26.4
		C112.5,100.7,100.7,112.5,86.1,112.5z"/>
	<path d="M52.9,26.5c-11.1,0-22,0-33,0c0,2.2,0,4.4,0,6.5c11,0,22,0,33,0C52.9,30.9,52.9,28.7,52.9,26.5z"/>
	<path d="M19.9,52.9c11.1,0,22,0,33,0c0-2.2,0-4.4,0-6.5c-11,0-22,0-33,0C19.9,48.6,19.9,50.7,19.9,52.9z"/>
	<path d="M50.2,69c1-1.9,2.1-3.7,3.2-5.6c0.1-0.1,0.2-0.3,0.3-0.5c-11.3,0-22.6,0-33.9,0c0,2.2,0,4.3,0,6.5c0.2,0,0.4,0,0.6,0
		c9.7,0,19.3,0,29,0C49.9,69.5,50,69.4,50.2,69z"/>
	<path d="M19.9,89.3c8.9,0,17.7,0,26.5,0c0-2.2,0-4.3,0-6.5c-8.8,0-17.7,0-26.5,0C19.9,85,19.9,87.2,19.9,89.3z"/>
</g>
</svg>
