<?xml version="1.0" encoding="utf-8"?>
<!-- Generator: Adobe Illustrator 24.0.3, SVG Export Plug-In . SVG Version: 6.00 Build 0)  -->
<svg version="1.1" id="Слой_1" xmlns="http://www.w3.org/2000/svg" xmlns:xlink="http://www.w3.org/1999/xlink" x="0px" y="0px"
	 viewBox="0 0 673.8 673.6" style="enable-background:new 0 0 673.8 673.6;" xml:space="preserve">
<g>
	<path d="M614.7,305.3c-83.9-67-167.6-134-251.4-201.1c-8.7-7-17.4-13.9-26.2-20.9c-1.3,0.9-2.4,1.7-3.4,2.5
		c-91.2,73-182.4,146-273.7,218.9c-3,2.4-4.4,4.7-4.4,8.7c0.1,110,0.1,220,0.1,330c0,10,0,20,0,30.2c65.8,0,131.2,0,197.1,0
		c0-75,0-149.6,0-224.2c56.4,0,112.2,0,168.7,0c0,75,0,149.6,0,224.3c65.8,0,131,0,196.7,0c0-1.8,0-3.3,0-4.8
		c0-118.7,0-237.3,0.1-356C618.2,309.6,617.4,307.4,614.7,305.3z M590,640.1c0,1.6-0.1,3.3-0.2,5.2c-46.7,0-93.1,0-140.1,0
		c0-74.7,0-149.3,0-224.3c-75.2,0-149.8,0-225.1,0c0,74.6,0,149.3,0,224.3c-47.2,0-93.6,0-140.4,0c-0.1-1.8-0.2-3.4-0.2-5
		c0-105,0-210,0.1-315c0-1.9,1-4.4,2.3-5.5c82.9-66.5,166-132.9,249-199.3c0.4-0.3,0.8-0.5,1.8-1.1c14.1,11.2,28,22.3,41.9,33.5
		c69.4,55.5,138.7,110.9,208,166.5c1.6,1.3,2.9,4.1,2.9,6.2C590,430.5,590,535.3,590,640.1z"/>
	<path d="M670,265.1C560.3,177.3,450.6,89.7,340.9,1.9c-3-2.4-4.8-2.5-7.9,0c-53,42.6-106.1,85-159.2,127.5
		c-1.6,1.3-3.3,2.5-5.9,4.5c0-27,0-52.7,0-78.3c-37.7,0-74.8,0-112.2,0c0,2.2,0,4,0,5.8c0,52.5,0,105,0.1,157.5c0,3.5-1,5.8-3.8,8
		C36,239.3,20.2,252,4.3,264.7c-1.5,1.2-3,2.5-4.3,3.6c6.7,6.8,13,13.4,19.7,20.2c1.9-1.4,3.4-2.5,4.8-3.6
		c28.6-22.9,57.2-45.8,85.9-68.7c74.2-59.3,148.3-118.6,222.4-178.1c3.2-2.6,5.1-2.6,8.3,0c95,76.2,190.1,152.2,285.2,228.3
		c9.2,7.4,18.5,14.7,27.8,22.1c6.7-6.8,13-13.4,19.7-20.2C672.7,267.4,671.4,266.2,670,265.1z M139.8,152.3c0,2.2-1.5,5.1-3.2,6.5
		c-16.6,13.6-33.4,26.9-50.2,40.4c-0.5,0.4-1.1,0.7-2.4,1.5c0-39.4,0-77.9,0-116.9c18.4,0,36.7,0,55.7,0c0.1,1.7,0.3,3.4,0.3,5.2
		C140,110,140.1,131.2,139.8,152.3z"/>
</g>
</svg>
