<svg width="274" height="69" viewBox="0 0 274 69" fill="none" xmlns="http://www.w3.org/2000/svg">
<g clip-path="url(#clip0)">
<path d="M47.1 6.2C19.2 15.9 0 60.7 0 60.7C21.5 34.5 50.8 14.2 50.8 14.2C85.1 14.9 108 3.5 108 3.5C70.6 9 66.5 -0.5 47.1 6.2Z" fill="#105D50"/>
<path d="M53 20C47.7 20.2 40.7 27.8 40.7 27.8C40.7 27.8 73.4 26.5 86.3 21.6C99.3 16.7 102.3 10.2 103.4 8.20001C103.5 8.30001 90.2 18.5 53 20Z" fill="#105D50"/>
<path d="M38.8 30.9C33.5 31.1 26.1 39 26.1 39C26.1 39 62 38.1 72 34.6C85.5 29.8 89.9 24 89.9 24C89.9 24 76 29.3 38.8 30.9Z" fill="#1DBBB0"/>
<path d="M25.9 42.3C20.6 42.5 13.2 50.4 13.2 50.4C13.2 50.4 49.1 49.5 59.1 46C72.6 41.2 77 35.5 77 35.5C77 35.5 63.1 40.8 25.9 42.3Z" fill="#105D50"/>
<path d="M48.9 9.30001C21.1 18.9 0 60.7 0 60.7C21.5 34.5 52 16.2 52 16.2C86.4 16.9 108 3.60001 108 3.60001C70.6 9.00001 68.3 2.60001 48.9 9.30001Z" fill="#1DBBB0"/>
<path d="M123.6 45.6V0H130V20H149.8V0H156.2V45.6H149.8V26.1H130V45.6H123.6Z" fill="black"/>
<path d="M169.1 45.6H162.7V0H169.1V45.6Z" fill="black"/>
<path d="M193.4 45.6H187V0H193.4V45.6Z" fill="black"/>
<path d="M199.8 45.6V0H206.2V20.7H211.9L224.3 0H231.6L218.9 21.4C221.5 22.4 223.2 24.5 224.8 28.3L232.1 45.6H225.2L218.5 30C217.4 27.4 216 26.8 213 26.8H206.2V45.6H199.8Z" fill="black"/>
<path d="M233.7 45.6L250.3 0H256.7L273.3 45.6H266.3L261.5 32.4H245.4L240.6 45.6H233.7ZM253.5 10.3L247.7 26.4H259.3L253.5 10.3Z" fill="black"/>
<path d="M167.2 41.2L162.7 36.7L188.5 10.9L193 15.4L167.2 41.2Z" fill="black"/>
<path d="M129.6 63.8C129.6 64.3 129.5 64.8 129.4 65.2C129.2 65.6 129 65.9 128.8 66.2C128.5 66.5 128.2 66.7 127.9 66.8C127.5 66.9 127.2 67 126.8 67C126.4 67 126 66.9 125.7 66.8C125.3 66.7 125 66.5 124.8 66.2C124.5 65.9 124.3 65.6 124.2 65.2C124 64.8 124 64.3 124 63.8C124 63.3 124.1 62.8 124.2 62.4C124.4 62 124.6 61.7 124.8 61.4C125.1 61.1 125.4 60.9 125.7 60.8C126.1 60.7 126.4 60.6 126.8 60.6C127.2 60.6 127.6 60.7 127.9 60.8C128.3 60.9 128.6 61.1 128.8 61.4C129.1 61.7 129.3 62 129.4 62.4C129.5 62.8 129.6 63.3 129.6 63.8ZM128.9 63.8C128.9 63.4 128.8 63 128.7 62.7C128.6 62.4 128.4 62.1 128.2 61.9C128 61.7 127.8 61.5 127.5 61.4C127.2 61.3 126.9 61.2 126.6 61.2C126.3 61.2 125.9 61.3 125.7 61.4C125.4 61.5 125.2 61.7 125 61.9C124.8 62.1 124.7 62.4 124.5 62.7C124.4 63 124.3 63.4 124.3 63.8C124.3 64.2 124.4 64.6 124.5 64.9C124.6 65.2 124.8 65.5 125 65.7C125.2 65.9 125.4 66.1 125.7 66.2C126 66.3 126.3 66.4 126.6 66.4C126.9 66.4 127.3 66.3 127.5 66.2C127.8 66.1 128 65.9 128.2 65.7C128.4 65.5 128.5 65.2 128.7 64.9C128.9 64.6 128.9 64.2 128.9 63.8Z" fill="black"/>
<path d="M138 67C137.6 67 137.2 66.9 136.9 66.8C136.6 66.7 136.3 66.4 136 66.2C135.7 65.9 135.5 65.6 135.4 65.2C135.3 64.8 135.2 64.3 135.2 63.8C135.2 63.3 135.3 62.8 135.4 62.4C135.6 62 135.8 61.7 136 61.4C136.3 61.1 136.6 60.9 136.9 60.8C137.2 60.7 137.6 60.6 138 60.6C138.2 60.6 138.4 60.6 138.6 60.6C138.8 60.6 139 60.7 139.1 60.7C139.2 60.7 139.4 60.8 139.5 60.8C139.6 60.8 139.7 60.9 139.7 60.9L139.5 61.4C139.4 61.3 139.2 61.2 138.9 61.1C138.7 61 138.4 61 138 61C137.6 61 137.3 61.1 137 61.2C136.7 61.3 136.5 61.5 136.3 61.8C136.1 62 136 62.3 135.9 62.6C135.8 62.9 135.8 63.3 135.8 63.7C135.8 64.1 135.8 64.5 135.9 64.8C136 65.1 136.1 65.4 136.3 65.6C136.5 65.8 136.7 66 137 66.1C137.3 66.2 137.6 66.3 138 66.3C138.4 66.3 138.7 66.3 139 66.2C139.3 66.1 139.5 66 139.6 66L139.8 66.5C139.8 66.5 139.7 66.6 139.6 66.6C139.5 66.6 139.4 66.7 139.2 66.7C139 66.7 138.9 66.8 138.7 66.8C138.4 67 138.2 67 138 67Z" fill="black"/>
<path d="M146.8 67C146.7 67 146.6 67 146.4 67C146.3 67 146.1 67 146 67C145.9 67 145.7 67 145.6 66.9C145.5 66.9 145.4 66.9 145.3 66.8V60.8C145.4 60.8 145.5 60.7 145.7 60.7C145.8 60.7 146 60.7 146.1 60.6C146.2 60.6 146.4 60.6 146.5 60.6C146.6 60.6 146.8 60.6 146.9 60.6C147.2 60.6 147.6 60.6 147.9 60.7C148.2 60.8 148.5 60.8 148.7 61C148.9 61.1 149.1 61.3 149.2 61.5C149.3 61.7 149.4 62 149.4 62.3C149.4 62.6 149.3 62.9 149.1 63.2C148.9 63.4 148.7 63.6 148.4 63.7C148.6 63.7 148.7 63.8 148.9 63.9C149 64 149.2 64.1 149.3 64.2C149.4 64.3 149.5 64.5 149.6 64.6C149.7 64.8 149.7 65 149.7 65.2C149.7 65.8 149.5 66.2 149 66.5C148.5 66.8 147.8 67 146.8 67ZM145.9 63.4H147.1C147.3 63.4 147.5 63.4 147.7 63.4C147.9 63.4 148.1 63.3 148.2 63.2C148.3 63.1 148.5 63 148.5 62.9C148.6 62.8 148.6 62.6 148.6 62.3C148.6 62.1 148.6 61.9 148.5 61.8C148.4 61.7 148.3 61.5 148.1 61.5C147.9 61.4 147.7 61.3 147.5 61.3C147.3 61.3 147 61.2 146.8 61.2C146.6 61.2 146.4 61.2 146.2 61.2C146 61.2 145.9 61.2 145.8 61.2V63.4H145.9ZM145.9 63.9V66.3C146 66.3 146.1 66.3 146.3 66.3C146.5 66.3 146.7 66.3 146.8 66.3C147.1 66.3 147.3 66.3 147.6 66.2C147.9 66.2 148.1 66.1 148.3 66C148.5 65.9 148.7 65.8 148.8 65.6C148.9 65.4 149 65.2 149 65C149 64.8 149 64.6 148.9 64.4C148.8 64.2 148.7 64.1 148.5 64C148.3 63.9 148.2 63.8 147.9 63.8C147.7 63.8 147.4 63.7 147.2 63.7H145.9V63.9Z" fill="black"/>
<path d="M155.4 66.9V60.7H159V61.2H156V63.4H158.6V63.9H156V66.4H159.2V66.9H155.4Z" fill="black"/>
<path d="M171.8 66.9H164.8V60.7H165.4V66.4H168V60.7H168.6V66.4H171.2V60.7H171.8V66.4H172.4V68.6H171.8V66.9Z" fill="black"/>
<path d="M182.4 66.9C182.3 66.6 182.2 66.3 182.1 66C182 65.7 181.9 65.4 181.8 65.2H178.8C178.7 65.5 178.6 65.7 178.5 66C178.4 66.3 178.3 66.6 178.2 66.9H177.6C177.8 66.3 178.1 65.7 178.3 65.1C178.5 64.5 178.7 64 178.9 63.5C179.1 63 179.3 62.5 179.5 62.1C179.7 61.6 179.9 61.2 180.1 60.7H180.6C180.8 61.2 181 61.6 181.2 62.1C181.4 62.6 181.6 63 181.8 63.5C182 64 182.2 64.5 182.4 65.1C182.6 65.7 182.8 66.3 183.1 66.9H182.4ZM180.2 61.4C180 61.9 179.8 62.4 179.5 63C179.3 63.5 179.1 64.1 178.8 64.7H181.4C181.2 64.1 180.9 63.5 180.7 63C180.7 62.4 180.4 61.9 180.2 61.4Z" fill="black"/>
<path d="M188.4 66.9V60.7H192V61.2H189V63.4H191.6V63.9H189V66.4H192.2V66.9H188.4Z" fill="black"/>
<path d="M200.6 66C200.5 65.9 200.5 65.7 200.3 65.4C200.2 65.2 200.1 64.9 199.9 64.6C199.8 64.3 199.6 64 199.5 63.7C199.4 63.4 199.2 63.1 199.1 62.8C199 62.5 198.9 62.3 198.8 62.1C198.7 61.9 198.6 61.8 198.6 61.7C198.5 62.4 198.5 63.3 198.4 64.1C198.4 65 198.3 65.9 198.3 66.8H197.7C197.8 65.7 197.8 64.6 197.9 63.6C198 62.6 198.1 61.6 198.2 60.6H198.7C198.9 60.9 199.1 61.2 199.3 61.6C199.5 62 199.7 62.4 199.9 62.8C200.1 63.2 200.3 63.6 200.5 64C200.7 64.4 200.9 64.8 201 65.1C201.1 64.8 201.3 64.4 201.5 64C201.7 63.6 201.9 63.2 202.1 62.8C202.3 62.4 202.5 62 202.7 61.6C202.9 61.2 203.1 60.9 203.3 60.6H203.8C203.9 61.5 204 62.5 204.1 63.6C204.2 64.6 204.2 65.7 204.3 66.8H203.7C203.7 65.8 203.6 64.9 203.6 64.1C203.6 63.2 203.5 62.4 203.4 61.7C203.4 61.8 203.3 61.9 203.2 62.1C203.1 62.3 203 62.5 202.9 62.8C202.8 63.1 202.6 63.4 202.5 63.7C202.4 64 202.2 64.3 202.1 64.6C202 64.9 201.8 65.2 201.7 65.4C201.6 65.6 201.5 65.8 201.4 66H200.6Z" fill="black"/>
<path d="M219.8 60.7V61.2H217.1V66.9H216.5V60.7H219.8Z" fill="black"/>
<path d="M230.6 63.8C230.6 64.3 230.5 64.8 230.4 65.2C230.2 65.6 230 65.9 229.8 66.2C229.5 66.5 229.2 66.7 228.9 66.8C228.5 66.9 228.2 67 227.8 67C227.4 67 227 66.9 226.7 66.8C226.3 66.7 226 66.5 225.8 66.2C225.5 65.9 225.3 65.6 225.2 65.2C225 64.8 225 64.3 225 63.8C225 63.3 225.1 62.8 225.2 62.4C225.4 62 225.6 61.7 225.8 61.4C226.1 61.1 226.4 60.9 226.7 60.8C227.1 60.7 227.4 60.6 227.8 60.6C228.2 60.6 228.6 60.7 228.9 60.8C229.3 60.9 229.6 61.1 229.8 61.4C230.1 61.7 230.3 62 230.4 62.4C230.6 62.8 230.6 63.3 230.6 63.8ZM230 63.8C230 63.4 229.9 63 229.8 62.7C229.7 62.4 229.5 62.1 229.3 61.9C229.1 61.7 228.9 61.5 228.6 61.4C228.3 61.3 228 61.2 227.7 61.2C227.4 61.2 227 61.3 226.8 61.4C226.5 61.5 226.3 61.7 226.1 61.9C225.9 62.1 225.8 62.4 225.6 62.7C225.5 63 225.4 63.4 225.4 63.8C225.4 64.2 225.5 64.6 225.6 64.9C225.7 65.2 225.9 65.5 226.1 65.7C226.3 65.9 226.5 66.1 226.8 66.2C227.1 66.3 227.4 66.4 227.7 66.4C228 66.4 228.4 66.3 228.6 66.2C228.9 66.1 229.1 65.9 229.3 65.7C229.5 65.5 229.6 65.2 229.8 64.9C230 64.6 230 64.2 230 63.8Z" fill="black"/>
<path d="M238 60.7C238.9 60.7 239.5 60.9 240 61.2C240.4 61.5 240.6 62 240.6 62.6C240.6 63 240.5 63.3 240.4 63.5C240.3 63.7 240.1 63.9 239.9 64.1C239.7 64.3 239.4 64.4 239 64.4C238.7 64.5 238.3 64.5 237.9 64.5H237.1V66.9H236.5V60.8C236.7 60.7 237 60.7 237.3 60.7C237.5 60.7 237.8 60.7 238 60.7ZM238.1 61.2C237.9 61.2 237.7 61.2 237.5 61.2C237.3 61.2 237.2 61.2 237.1 61.2V64H237.9C238.2 64 238.5 64 238.8 63.9C239.1 63.9 239.3 63.8 239.5 63.7C239.7 63.6 239.8 63.5 239.9 63.3C240 63.1 240.1 62.9 240.1 62.6C240.1 62.3 240 62.1 239.9 61.9C239.8 61.7 239.6 61.6 239.5 61.5C239.3 61.4 239.1 61.3 238.9 61.3C238.5 61.2 238.3 61.2 238.1 61.2Z" fill="black"/>
<path d="M251.8 63.8C251.8 64.3 251.7 64.8 251.6 65.2C251.4 65.6 251.2 65.9 251 66.2C250.7 66.5 250.4 66.7 250.1 66.8C249.7 66.9 249.4 67 249 67C248.6 67 248.2 66.9 247.9 66.8C247.5 66.7 247.2 66.5 247 66.2C246.7 65.9 246.5 65.6 246.4 65.2C246.2 64.8 246.2 64.3 246.2 63.8C246.2 63.3 246.3 62.8 246.4 62.4C246.6 62 246.8 61.7 247 61.4C247.3 61.1 247.6 60.9 247.9 60.8C248.3 60.7 248.6 60.6 249 60.6C249.4 60.6 249.8 60.7 250.1 60.8C250.5 60.9 250.8 61.1 251 61.4C251.3 61.7 251.5 62 251.6 62.4C251.7 62.8 251.8 63.3 251.8 63.8ZM251.1 63.8C251.1 63.4 251 63 250.9 62.7C250.8 62.4 250.6 62.1 250.4 61.9C250.2 61.7 250 61.5 249.7 61.4C249.4 61.3 249.1 61.2 248.8 61.2C248.5 61.2 248.1 61.3 247.9 61.4C247.6 61.5 247.4 61.7 247.2 61.9C247 62.1 246.9 62.4 246.7 62.7C246.6 63 246.5 63.4 246.5 63.8C246.5 64.2 246.6 64.6 246.7 64.9C246.8 65.2 247 65.5 247.2 65.7C247.4 65.9 247.6 66.1 247.9 66.2C248.2 66.3 248.5 66.4 248.8 66.4C249.1 66.4 249.5 66.3 249.7 66.2C250 66.1 250.2 65.9 250.4 65.7C250.6 65.5 250.7 65.2 250.9 64.9C251.1 64.6 251.1 64.2 251.1 63.8Z" fill="black"/>
<path d="M257.4 66.9V68.6H256.8V66.4H257.4C257.7 66.1 257.9 65.7 258.1 65.3C258.3 64.9 258.4 64.4 258.5 64C258.6 63.5 258.6 63 258.7 62.5C258.7 62 258.7 61.5 258.7 61V60.8H261.9V66.5H262.5V68.7H261.9V67H257.4V66.9ZM259.3 61.2C259.3 61.7 259.3 62.1 259.3 62.6C259.3 63.1 259.2 63.5 259.2 64C259.1 64.4 259 64.9 258.9 65.3C258.7 65.7 258.5 66.1 258.3 66.4H261.4V61.3H259.3V61.2Z" fill="black"/>
<path d="M272.4 66.9C272.3 66.6 272.2 66.3 272.1 66C272 65.7 271.9 65.4 271.8 65.2H268.8C268.7 65.5 268.6 65.7 268.5 66C268.4 66.3 268.3 66.6 268.2 66.9H267.6C267.8 66.3 268.1 65.7 268.3 65.1C268.5 64.5 268.7 64 268.9 63.5C269.1 63 269.3 62.5 269.5 62.1C269.7 61.6 269.9 61.2 270.1 60.7H270.6C270.8 61.2 271 61.6 271.2 62.1C271.4 62.6 271.6 63 271.8 63.5C272 64 272.2 64.5 272.4 65.1C272.6 65.7 272.8 66.3 273.1 66.9H272.4ZM270.3 61.4C270.1 61.9 269.9 62.4 269.6 63C269.4 63.5 269.2 64.1 268.9 64.7H271.5C271.3 64.1 271 63.5 270.8 63C270.7 62.4 270.5 61.9 270.3 61.4Z" fill="black"/>
<line x1="115" y1="14" x2="115" y2="46" stroke="black" stroke-width="6"/>
<line x1="115" y1="6" x2="115" y2="12" stroke="black" stroke-width="6"/>
</g>
<defs>
<clipPath id="clip0">
<rect width="273.3" height="68.6" fill="white"/>
</clipPath>
</defs>
</svg>
