<?xml version="1.0" encoding="utf-8"?>
<!-- Generator: Adobe Illustrator 25.0.0, SVG Export Plug-In . SVG Version: 6.00 Build 0)  -->
<svg version="1.1" id="Слой_1" xmlns="http://www.w3.org/2000/svg" xmlns:xlink="http://www.w3.org/1999/xlink" x="0px" y="0px"
	 viewBox="0 0 226 110" style="enable-background:new 0 0 226 110;" xml:space="preserve">
<style type="text/css">
	.st0{fill:#FFFFFF;}
	.st1{fill:#323337;}
</style>
<path class="st0" d="M84.2,48C84.2,48,84.1,47.9,84.2,48L84.2,48z"/>
<path class="st0" d="M77.2,34.2c0-0.1,0-0.1-0.1-0.1C77.1,34.2,77.1,34.2,77.2,34.2z"/>
<path class="st0" d="M175.6,60.4c-0.9,0.2-1.7-0.5-2,0.6c-0.3,1.2-0.3,17-0.3,18.3c0.1,3.3,0.5,6.7,0.7,10.1
	c0.2,2.7-0.8,3.4,2.1,3.3c6.4-0.1,7.7-0.4,7.7-8.4c0-3.6,0.1-7.1-0.3-10.6C182.9,68.1,184.3,58.9,175.6,60.4z M182.1,86.8
	c-0.2,1.3,0.1,3.3-1.4,3.9c-0.9,0.4-3.9,0.6-4.8,0.3L175,76.8c0-1.9,0.1-13.6,0.5-14.6c1-0.4,3.5,0,4.4,0.6
	c2.1,1.3,1.8,10.5,2.3,13.6C182.3,77.9,182.3,85.1,182.1,86.8z"/>
<path class="st0" d="M68.5,38.3l0.1,0.4C68.6,38.7,68.5,38.4,68.5,38.3z"/>
<path class="st0" d="M185.4,59.6c-3.4-2.9-10.1-2.8-14.3-2.4c-4.3,0.4-10-0.3-12.7,4.1c-2.5,4-2,10.1-1.7,14.6
	c0.4,4.5-0.6,11.3,1.4,15.2c2.3,4.7,7.3,5.2,12,5c0,2,0.2,4,0.4,6c0.2,1.7,0.8,3.1,2.5,3.2h0.6c0.1,0,0.1,0,0.2,0
	c5-0.5,2.5-4.3,2.5-8.9c2.6-0.6,9.2,0.2,11-5.9c0.8-2.8,0.7-13.1,0.5-16.2C187.4,70.6,188.1,62,185.4,59.6z M185.5,90
	c-1.4,4.5-7.3,4.5-11.1,4.5c0,1.6,0.2,2.9,0.2,4.4c0.1,1.4,0.6,2.8,0.6,4.1c-0.8,0.4-1.5,0.7-2.5,0.4c-0.6-0.7-1-7.5-1-8.8
	c-4.1-0.3-9.4,0.5-11.8-3.7c-2.1-3.8-1.2-10.1-1.4-14.2c-0.3-4.3-1-9.8,1-13.8c2-4.1,7.7-3.8,11.7-4c3.4-0.2,10.6-0.2,13.2,2.2
	c1.4,1.3,1.4,4.6,1.4,6.4C185.7,72.3,186.9,85.5,185.5,90z"/>
<path class="st0" d="M206.3,51.6c1.8,1.1,5.2-0.6,6.6-1.8c4.4-4.2,6.7-16.8,10.2-24.9c0.8-1.8,2.8-4.6-0.9-5.4c-2.1-0.4-3.4,3-4,4.6
	c-0.6,1.4-2.2,5.2-2.2,6.5c-1.7-1-3.6-10.2-6.5-11.1c-1-0.3-2.6,0.1-3,1.2c-0.6,1.3,0.2,2.3,0.7,3.3c2.1,4,3.2,8,6.3,11.3
	c1,1.1,0.5,1.7,0,3c-4.7,13.2-5.5,7-7.6,10.1C205.2,49.4,205.3,50.9,206.3,51.6z M210.6,47.7c1.1-0.9,1.7-2.4,2.2-3.6
	c0.6-1.3,1.3-2.8,1.8-4.1c0.6-1.4,0.7-2.9,1.6-4.2c-1.4-2-2-1.1-4.8-6.6c-0.6-1.3-3.5-7-3.5-8.1c1.5-0.4,2.2,1,2.8,2.3
	c1.3,2.9,3.6,8.9,5.7,10.5c1.2-1.7,3.3-11.8,5.5-12.9c1.7,0.8,0.3,2-0.4,3.4c-1.6,3.4-3.3,9.2-4.4,12.9c-0.8,2.7-1.9,5.8-3.1,8.2
	c-1,1.9-4.4,6-6.8,4.4C206.9,48.5,209,49.3,210.6,47.7z"/>
<path class="st1" d="M84.7,44.6c-0.2-0.3-0.7-2.6-0.9-3.3c-0.1-0.4-0.3-0.4-0.4-0.8c-0.4-1.5-0.7-3-1.1-4.5
	c-0.2-0.9-1.1-3.5-1.1-4.1c0-0.2-0.1-1.4-0.6-1c-0.1,0.1-0.1,0-0.1,0.2c-0.1,0.6,0,0.8,0,1.4c0,0.2-0.1,0.2-0.1,0.4
	c-0.1,1-0.1,0.6,0.2,1.5c0.1,0.4,0.1,0.6,0.1,1c0.1,0.3,0.1,0.7,0.1,1c0,0.3,0.1,0.6,0.2,1c0.2,0.8,0.7,3.8,1.1,4.3
	c0.1,0.1,0.8,2.3,1.4,3l0.3,0.5c0.2,0.3,0.8,1.4,1.1,1.4c0.3,0,0.2-0.1,0.2-0.2C85.2,46.1,84.8,45,84.7,44.6z"/>
<path class="st0" d="M223.1,97.1c-0.2-0.1-7.4,0.9-8.6,0.9c-6.4,0.4-4.9,1-5-4.3c-0.1-2.7,0.2-6.8,0.4-9.5c1.2-0.6,6.9-0.4,8.7-0.3
	c2.4,0.2,5.3,0.4,5.6-3c0.1-1.2-0.4-2.4-1.3-3.1c-1.2-0.9-2.4-0.5-3.9-0.7c-2.8-0.4-6.2,0.1-8.8,0.1l-0.1-13c2.9,0,6.2-0.4,9.1-0.6
	c1.3-0.1,3,0.3,4.1-0.5c1.1-0.8,1.5-2.3,1.3-3.6c-0.6-3.3-4.7-2.7-7.2-2.7c-1.7,0-3.1-0.1-4.8,0.1c-4.6,0.4-10-2.2-9.6,4.8
	c0.2,3.1,0.3,6.3,0.5,9.4c0.2,3.2-0.2,6.5-0.2,9.7c0.1,3.3-0.1,6.3-0.3,9.6c-0.3,4.9-2,13.1,4.4,14.5c3.4,0.7,14.4,0.4,17.3-1.8
	c0.8-0.6,1.2-1.4,1.2-2.2v-0.6C225.8,98.8,224.7,97.5,223.1,97.1z M223.2,101.9c-2.2,1.4-6.8,1.4-9.5,1.4c-2.5,0.1-7.8,0.6-8.8-2.2
	c-1.2-3.2-0.4-6.7-0.3-9.9c0.1-3.6,0.4-7,0.4-10.8V69.9c0-1.8-0.6-9.8-0.2-10.6c0.7-1,6.7-0.6,8.7-0.7c1.7-0.1,8.3-0.5,9.1,0.7
	c0.6,1.3,0.2,2.6-1.4,2.7c-1.7,0.1-2.9,0-4.4,0.2c-2.9,0.2-5.8,0.4-8.8,0.4c0,1.2,0.3,2.7,0.4,3.9v12.9c1.3,0,2.4-0.4,3.7-0.4
	c1.4,0,2.8,0,4.2,0c1.9,0,6.4-0.9,6.2,2.1c-0.3,3-6.2,0-14.2,1.9c0,3-0.8,14.9-0.3,16.8c1.9,0.6,7.9,0.1,10.2-0.1
	c1-0.1,4-0.9,4.5-0.8C224.2,99.1,224.9,100.9,223.2,101.9z"/>
<path class="st0" d="M127.6,35.1c0.8,1.8,0.4,1.6-0.2,3.4l-3.9,10.9c-0.5,2.4,3.6,4.1,5.1,0.3c0.7-1.8,1.8-6.1,2.7-7.3
	c1,1,2.6,5.3,3.4,7c2.2,4.3,5.6,2.4,5.4,0.2c0-0.1-2.9-6.8-3.2-7.4c-0.9-1.8-4.1-4.7-3.3-6.7c1-2.5,2-4.9,3.1-7.2
	c0.7-1.5,3.7-5.7,3.4-6.9c-0.3-1.4-1.9-2.2-3.3-1.8c-2.1,0.6-4.4,7.5-6.1,9.9c-0.6-0.6-2.5-7.8-5.1-9.5c-1.2-0.8-2.8-0.1-3.4,1
	c-1,1.9,1,2,2.5,6.9C125.6,30.2,126.6,32.7,127.6,35.1z M124.2,21.3c2.9-0.6,5.3,11.4,6.5,12.8c0.7-0.8,5.3-13.9,7.4-13
	c1.2,0.5-1.5,3.7-2.9,6.5c-4.6,9.9-4.4,8.2-0.6,14.2c1.5,2.4,2,4.7,3.3,7.1c0.3,0.6,0.6,1.3-0.4,1.4c-1.7,0.1-4.4-9.8-6.8-11.6
	c-0.6,0.7-1.9,5-2.3,6.3c-0.4,1.1-0.8,2.1-1.2,3.2c-0.4,1.3-0.6,2.6-2.2,2c-0.4-1.8,5.3-12.4,4.3-14.7c-1-2.3-2-4.9-2.8-7.2
	c-0.4-1.3-0.7-2.4-1.3-3.7C124.9,23.2,123.4,22.2,124.2,21.3z"/>
<path class="st0" d="M80.5,36.6C80.4,36.6,80.5,36.6,80.5,36.6L80.5,36.6z"/>
<path class="st0" d="M196.2,25.2c0-2.1,0.8-6.5-2.9-5.7c-2.8,0.6-1.8,4.4-1.8,6.9c0,2.9-0.1,5.8,0,8.7c0.1,1.8,0.6,2.9-1.6,2.8
	c-5.5-0.1-6.8-0.7-6.1-7.2c0.2-2.2,0.3-6.1-0.3-8.2c-0.3-1-0.6-2.4-1.7-2.8c-1.2-0.4-2.6,0.1-3.1,1.3c-0.2,0.4,0.5,6,0.4,7.5
	c-0.3,6.9-1.5,12.9,7.7,14.1c1.7,0.2,3.3-0.2,4.3-0.1c1.7,0.2,0.8,6,0.8,7.1c-0.1,2.5,3.8,3.5,4.6,0.7c1.2-4.1-0.4-11.6-0.4-16.3
	C196.2,31,196.2,28.2,196.2,25.2z M194.7,50.3c-2.1-0.1-0.6-2.2-0.9-4.2c-0.3-1.8-0.6-3.9-0.6-5.6c-3.1,0.3-3.9,1-7.6,0.3
	c-2.3-0.4-4.1-1.4-4.8-3.7c-1.1-3.9,0.4-9.6-0.3-13.3c-0.1-0.6-0.6-1.3-0.6-1.7c-0.1-1.3,2-2.4,2,4.1c0,2.7-0.4,5.5-0.2,8.1
	c0.2,2.4,1.1,4.2,3.6,4.8c2.9,0.7,5,0.4,7.7-0.3c0-2.7-0.2-5.8-0.2-8.7c0-3,0-6,0-9.1c1.8-0.4,1.5,0.6,1.4,2.2v12.2
	C194.6,38.8,196.3,48,194.7,50.3z"/>
<path class="st0" d="M170.5,77.5c-0.3-2.8,0.2-12.6,0.2-16.4c-3.7,0-6.7,1-8.8,4.3c-1.5,2.4-1.7,9.2-1.2,12c0.6,4.1-0.7,8.1,1,12.4
	c1,2.8,3.8,3,7,3c2.1-0.1,1.3,0.2,2.8,0.6c0-2.4-0.3-5.5-0.5-7.7C170.7,82.9,170.8,80,170.5,77.5z M162.7,87.2
	c-0.6-2.2-0.4-7.5-0.5-10.1c-0.2-5.6-0.9-13.5,6.7-14.3c0,4.8-0.5,9.4-0.2,14.1c0.2,2.4,0.2,4.7,0.3,7.1c0.2,2.3,0.4,4.6,0.4,7
	C163.5,91,163.6,90.6,162.7,87.2z"/>
<path class="st0" d="M129,61.4c-11.7,0.4-9.7,9.5-10.5,19.5c-0.3,3,0.1,11.3,0.8,14.1c1.6,5.5,4.7,5.1,9.6,5.5
	c4.9,0.4,7.3-1.3,8.9-5.8c1.4-4,1.6-9.6,1.2-13.7C138.5,74.5,138.5,61.1,129,61.4z M134.3,97.6c-1.9,1.8-8.8,1.5-11,0.5
	c-3.3-1.5-2.8-7.2-3.1-10.2c-0.4-3.4,0.3-9.2,0.4-12.9c0.1-3.6,0.2-7.8,3-10.4c2.4-2.1,7.5-1.9,9.8,0.2c2.7,2.5,2.9,6.6,3.4,10
	C137.5,80.2,138.6,93.4,134.3,97.6z"/>
<path class="st1" d="M30.5,51.9c-1.8-1.6-4-2.3-6.4-2.2c-1.8,0-2.1,0.3-3.5,0.7c0.1,0.1-0.1,0.1,0.2,0.1l0.7-0.1
	c3.2-0.2,6.5,1,8.8,3.1l1.6,1.4c-0.1-0.8-0.2-1.2-0.5-1.8C31.2,52.7,30.8,52.1,30.5,51.9z"/>
<path class="st1" d="M89.2,35.2l-0.5-5.6l-3.1,2.9c-1.2,0.9-1.4,4.9-1.2,6.4l1.7,4.1l0.6,0.7c0.2,0.4,1,1.2,1.4,1.4l4.6,1.7l0.1-0.3
	c0.2-1.8-0.6-7.2-1.9-8.6L89.2,35.2z"/>
<path class="st0" d="M139.6,62.3c-3.2-4.3-8.8-5.9-13.9-5.2c-5.7,0.7-9.3,3.3-10.4,9.1c-0.9,4.5-1.4,13.5-1.3,18.2
	c0.1,5.2-0.4,12.2,3,16.6c3,3.9,10.6,4.7,15.1,4c13.6-2,12.1-16.4,11.4-26.9C143.1,73.4,142.4,66,139.6,62.3z M141.8,90.3
	c-0.5,4.5-1.4,9.7-6,11.8c-4.1,1.8-11,1.8-14.9-0.3c-4.6-2.3-5.2-8-5.2-12.5c0.1-5.8,0.2-11.4,0.6-17.2c0.3-5.1,0.6-9.7,5.6-12.2
	c4.1-2,10.5-1.5,14.2,1.2c4,2.9,4.7,7.8,5.3,12.5C141.9,78.8,142.4,85,141.8,90.3z"/>
<path class="st1" d="M42.3,13.6c0.1,0.9-0.1,2.3,0,2.5c0.3-0.3,0.7-1.3,1-1.7c0.9-1.5,2.8-2.5,4.5-2.9c0.3-0.1,0.4-0.1,0.6-0.2
	c-2.4-0.5-2.8,0-4.6,0.7c-0.3-0.3-0.6-0.8-0.7-1c-0.7-0.9-1.8-2.4-3-2.7c0.1,0.1,0.1,0.2,0.1,0.2C41.3,10.1,42,11.4,42.3,13.6z"/>
<path class="st1" d="M45.7,16.6c0.6,0,1.4-0.6,1.8-0.9c1.3-0.8,2.9-0.9,4.5-0.8c0.6,0.1,1.9,0.5,2.3,0.5c-0.1-0.3,0.1-0.1-0.2-0.3
	c-0.1,0-0.2-0.1-0.2-0.2c-0.6-0.4-1-0.6-1.7-0.7c-1.6-0.6-3.9-0.6-5.2,0.4C46.5,15,45.8,15.7,45.7,16.6z"/>
<path class="st1" d="M23,41.1c1.3-1.2,2.5-1.8,4.1-2.7c-0.5-0.1-4.7,0.6-5.8,2.5c-0.2,0.3-0.3,0.7-0.3,1.2c0,0.3,0,1,0.2,1.3
	C21.9,42.5,21.9,42.1,23,41.1z"/>
<path class="st1" d="M89.5,29.7c0,3.4-0.4,3.3,1.9,5.9c1.8,2.1,1.7,4,2.1,6.5l-0.2,4.1c3.3-0.9,4.3-3.3,5-6.4L97.6,35
	C96.9,32.1,92.8,28.7,89.5,29.7z"/>
<path class="st0" d="M162.3,51.6c8.8-1.4,8-12.3,7.3-18.7c-0.4-3.2-0.6-7.8-3-10.3c-1.7-1.8-4.1-2.9-6.7-3.2h-2.4
	c-0.4,0.1-0.7,0.1-1.1,0.2c-4.2,1-6.1,2.3-6.9,6.6c-0.7,3.8-0.7,8.6-0.7,12.5c0,3.5-0.4,8.1,2.5,10.8
	C154,51.9,158.9,52.1,162.3,51.6z M154.1,49.3c-3.4-1.3-3.6-5.1-3.6-8.1c0-3.5-0.2-7.9,0.3-11.3c0.4-3.2,0.2-6.4,3.7-8.1
	c2.9-1.4,7-1.2,9.8,0.6c4.1,2.8,4.6,14.6,4.1,19c-0.4,2.9-0.6,6.5-3.9,7.9C161.3,50.6,157.1,50.5,154.1,49.3z"/>
<path class="st1" d="M22.1,25.1L21.8,25c-0.9-0.3-1.5-0.8-2.1-1.5c-0.3-0.3-0.6-0.8-0.8-1.3c-0.3-0.5-0.6-1.4-0.7-1.5
	c0.1,1.4,0.6,4.4,2.2,4.9c0.6,0.2,1.4,0,1.9-0.4C22.2,25.1,22.2,25.1,22.1,25.1C22.1,25.1,22.2,25.1,22.1,25.1z"/>
<path class="st0" d="M166.6,34.6c-0.7-5-0.6-13.3-8.4-12.1c-3.1,0.5-4.9,1.3-5.7,4.6c-0.6,2.2-0.7,7.2-0.7,9.6
	c0,2.8-0.1,6.8,0.9,9.3c1,2.7,5.2,3,7.7,2.9c3.4-0.3,4.6-1.8,5.6-4.7C166.9,41.8,167,36.9,166.6,34.6z M163.5,46
	c-1.4,1.8-5.2,1.5-7.3,0.9c-2.8-0.7-2.3-4-2.7-6.1c-0.4-2,0.2-6.1,0.2-8.3s0.1-5.4,1.5-7.2c1.4-1.8,4.8-1.8,6.7-0.7
	c1.9,1.2,2.3,4.2,2.6,6.2C165.1,34.7,165.9,42.6,163.5,46z"/>
<path class="st1" d="M100.2,93.4c-2.4-6.8-6.1-11.4-7.6-15.5c-1.2-3.1-1.4-1.5,3.7-8.3c1.3-1.8,2.6-3.5,4-5.2c1.3-1.6,3.9-4,2.5-6.1
	c-1.6-2.3-4.3-1.8-6,0.2c-2.1,2.7-11.1,14.9-12.1,15.6c-0.7-3.1-0.6-9.4-0.1-12.6c0.9-5.4-5.4-5.9-6.2-2.1c-0.4,1.8-0.6,3.8-0.6,5.8
	v3.1c0.2,5.6,0.9,11.4,1.4,16.3c0.1,1.4-0.2,4.8-0.2,6.5c0,2.8-0.1,9.9,1.2,12.3c0.9,1.6,3.2,1.9,4.7,1c1.9-1.3,1.2-3.1,0.9-5
	c-1-5.7,0-9.1-0.2-12.9c-0.1-2.9-0.8-3.1,1.3-5.2c0.6,0.5,5.7,10.5,6.3,12c0.8,2.2,1.5,4.6,2.4,6.7c0.8,2,1.7,5.1,4.2,5.1
	c2.9-0.1,3.9-2.6,2.6-5.1C101.6,97.7,101,95.8,100.2,93.4z M99.4,103.3C98,102,95.1,92.9,94,90.4c-0.6-1.5-2.3-4.4-3.2-5.9
	c-0.8-1.4-2.5-5.3-3-6.1c-0.4,0.1-3.1,3-3.5,3.6c-0.6,0.8-0.3,2.4-0.2,3.3c0.2,1.4-0.1,2.3-0.1,3.5c-0.1,2.5-0.1,8.1,0.3,10.5
	c0.2,1,0.6,2.3,0.6,3c-2.7,3.7-3.5-1.8-3.7-3.5c-0.6-5.6,0.2-12.7-0.4-18.6c-0.6-5.9-1.4-11.9-0.8-17.8c0.1-1,0.1-3.3,1.2-3.6
	c1.5-0.4,2.1,0.8,1.9,2.2c-0.5,3.4-0.6,5.4-0.4,8.8c0.2,1.8,0.3,7.4,0.9,8.6c1.1-0.7,7.3-9.1,8.5-10.7c1.4-1.8,2.8-3.7,4.1-5.5
	c1-1.4,3.4-5.5,5.2-2.7c0.2,0.8-6.2,8.6-7.2,10c-1.2,1.7-2.5,3.3-3.7,4.9c-0.9,1.1-0.4,1.5,0.2,3c2.2,5.6,5.4,9.4,7.2,14.6
	c0.7,2.2,1.4,4.3,2.2,6.4C100.6,99.9,103.5,103.8,99.4,103.3z"/>
<path class="st1" d="M105.6,42.1c-0.2-0.9-1-4.5-1.4-5.3c-0.1-0.3-0.2-0.3-0.3-0.8c-0.2-0.9-0.6-1.7-0.8-2.5
	c-0.2-0.6-0.3-1.2-0.6-1.7v0.1c-0.2-0.6-0.3-1-0.4-1.6c-0.1-0.4-0.1-0.4-0.3-0.7c-0.1-0.2-0.2-0.5-0.2-0.7c-0.1-0.3-0.2-0.6-0.2-0.8
	c-0.1-0.4,0-0.4-0.1-0.7c-0.2-0.7-0.7-2.4-0.7-3.1l-0.4-2.2c-0.1-0.6,0.1-0.8-0.1-1.4c-0.1-0.4-0.1-0.7-0.4-0.9l-0.5-0.2
	c-0.3-0.1-0.9-0.1-1.2-0.1c-0.4-0.1-0.9,0.1-1.2,0.1c-0.4,0-0.9,0-1.3,0L94,19.8c-0.3,0.1-0.6,0.2-0.7,0.1c-0.6-0.1-0.9,0.2-1.5,0.3
	c-0.3,0-0.4,0.1-0.7,0.1c-0.3,0.1-0.4,0-0.7,0.1c-0.4,0.1-1.2,0.3-1.5,0.4c-0.3,0.1-0.4,0-0.7,0.1c-0.3,0.1-0.6,0.1-0.8,0.2
	c-0.3,0.1-0.3,0.2-0.7,0.3c-0.3,0.1-0.3,0-0.6,0.1c-0.4,0.1-1.3,0.3-1.6,0.4c-0.5,0.3-0.9,0.3-1.4,0.5c-0.3,0.1-0.3,0.2-0.7,0.3
	c-2,0.6-5.7,2.5-7.4,3.8c-0.5,0.3-0.8,0.5-1.2,0.8c-0.4,0.4-0.1,1.2,0.1,1.7c0.1,0.2,0.1,0.2,0.2,0.4c0.2,0.3,0.2,0.7,0.4,1l0.2,0.3
	c0.2,0.5,0.3,0.6,0.4,1c0.1,0.4,0.6,0.9,0.5,1.2L74.5,32c-1-0.3-2.1-0.2-2.9,0.4l-2.9,2.9c-0.3,0.4-0.4,0.9-0.6,1.4
	c-0.1-0.2-0.4-0.4-1.7-0.4c-2.4-0.3-3,2.2-3.4,2.5c-0.2-0.3-2.9-1.1-4.2-1.4c-0.2,0-0.4-0.1-0.6-0.1c-1.3-0.2-2.6-0.3-3.4-0.4
	c0.2-0.6,0.7-1.6,1-2.1c0.8-1.5,0.8-1.7,1.8-3l1.4-1.8c1.4-1.9-0.5-2.8-0.1-6.7c0.3-3,0.2-2.9-0.2-6c0.2,0.1,0.2,0.1,0.4,0.3
	c0.8,1.3,0.5,2.4,0.4,3.8c-0.2,2.8,0.2,6.2,2.4,7.8c2,1.6,1.8-2.7,4-5.6c0.6-0.8,1.9-2.2,1-3.5c-0.7-1.1-1.8-0.9-3.1-1.9
	c-1.5-1.1-1.6-1.5-2.6-2.5c-1.2-1.2-2.4-1.9-4.1-2.3c-1.8-0.3-0.8,0.3-1.8-0.7c-0.7-0.7-1.4-1.1-2.3-1.5c-1-0.5-1.4-0.4-1.7-0.9
	c-0.6-1.1-1.5-1.9-2.5-2.6c-1.8-1.3-3.3-1.2-3.8-1.4c-0.1-0.1-0.6-0.4-0.7-0.6c-1.4-1-3.3-1.5-5-1.4c-1.7,0.1-0.8,0.4-2-0.2
	c-1.3-0.6-2.5-0.8-4-1.1C32,0.2,30,1.2,27.3,1.2c-1.3,0.1-2.6,0.1-3.9-0.1c-0.9-0.1-2.7-0.3-3.3-0.8h-0.7c-0.5,0.3-0.6,0.3-0.8,0.8
	c-0.4,0.8-0.8,3.8-2,5.9c-0.8,1.5-1.9,2.2-0.2,2.2c0.9,0,1.8-0.2,2.7-0.6c1.9-0.7,3.7-1.9,5.4-3.1l2.4-1.8c-0.3,0.8-1.5,2-2,2.5
	c-0.3,0.2-0.4,0.3-0.7,0.6C24,7,23.8,7.1,23.5,7.2C22,8.2,20,9,19.8,9.1c-0.5,0.3-1.7,2.9-1.8,3.8c-0.6,1.7-0.4,2.8-0.9,3.6
	c-2.4,4.3-3.7,9.7-2.6,14.7c0.2,0.9,0.4,1.7,0.8,2.6c0.1,0.3,0.3,0.5,0.2,0.8c-0.4,1.3-0.7,2.3-0.7,3.8c-0.1,0.6,0.2,1.7-0.1,2.2
	c-0.3,0.4-0.6,1-0.7,1.5c-1.4,3.4-2.3,7.3,0.2,10.7c0.3,0.5,0.7,0.8,1,1.2l1.2,1c-0.1,1.2-0.3,1.8-0.1,3.1c0.6,3,3.1,3.8,6.1,4.3
	c0.2,0.4,0.5,1.2,0.6,1.7l0.5,1c-5.6,0.5-10.5,1.2-15,3.7c-0.6,0.3-0.9,0.6-1.4,1c-1.5,1.1-2.2,2.9-2.8,4.7c-0.4,1.3-0.7,2.7-1,4
	c-0.4,1.7-0.7,2.5,0.2,3.9c0.8,1,1.1,0.6,0.6,3.8c-0.6,3.3-4.1,14.2-3.9,15.8c0.4,2.2,5,3.9,6.4,3.1c0.8-0.5,1.5-1.9,1.9-3
	c1.5-3.5,3.6-11.1,4.8-15.1c0.9-0.1,1.8,0.6,2.6,0.6c0.6,0.6,7.1,1.8,8.4,1.9c0.1,1.8-0.5,4.3-0.7,6.1c-0.3,2.2-1.2,11.1-0.9,12.6
	c0.4,2,2.4,2.1,4.6,2.2c2.6,0.1,3.4-0.6,4.1-2.7c0.9-2.8,1.6-13.6,1.8-17.7c0.1-1.1-0.1-0.9,2.4-0.9c-0.1,3.7,0.1,6,4.2,5.6
	c1.8-0.2,2.7-0.3,3.2-1.8c0.6-1.6,0.4-2.9,0.4-4.5c0.5-0.1,1.3-0.2,1.7-0.4c1,0.1,6-1.3,6.4-0.9l1.3,10c0.2,1.2,0.4,2,0.6,3.3
	c0.2,1.8,0.8,4.5,2.7,5c1.1,0.2,2.3,0,3.2-0.4c3.7-1.4,3.3-4.9,2.9-8c-0.3-2.2-0.6-4.5-0.8-6.7c-0.3-2.3-0.8-4.3-1.2-6.5
	c0.2-0.3,0.3-0.3,0.6-0.6c0.2-0.2,0.4-0.5,0.6-0.7c0.4-0.7,0.6-1,0.6-1.8c0.2-1.3,0.1-3.5-0.1-4.8c-0.6-6.5-4.6-8.4-10.1-9.7
	c-1.7-0.4-3.6-0.7-5.5-0.9c0.3-0.6,0.6-1.2,0.8-1.7c0.8-1.6,1.5-2.9,2-4.6c1.3-4.1,1-8.3,0.8-12.5c3.4,0.2,5.2,0.2,8,0.1
	c2.2,1,3.7,1.5,5.6,2.8c2.3,1.2,4.9,2,7.1,2.4c0.6,0.1,1.2,0.2,1.8,0.3l1.8,0.2c0.6,0.1,1.2,0.1,1.8-0.4c0.2-0.2,0.3-0.4,0.4-0.6
	c0.7,0.2,2.8-0.1,3.3-0.5l0.6-0.3c0.2-0.2,0.4-0.4,0.6-0.4c0.2,0.6,0.3,0.7,0.4,1.2c0.2,0.7,0.4,1.7,1,1.9c0.2,0.1,0.3,0.2,0.4,0.2
	c0.5,0.2,0.7,0.1,1,0.2c0.2,0.1,0.3,0.1,0.5,0.1c0.6,0.1,1.7,0.1,2.2,0.1c0.2,0,0.2,0,0.3,0l1.8,0.1c0.6,0.1,2.1-0.2,2.5-0.2
	l1.1-0.1c0.7-0.2,1.2-0.3,1.9-0.4c0.4-0.1,1-0.3,1.4-0.2c0.3,0,1.3-0.3,1.5-0.4c0.3-0.2-0.2,0,0.2-0.2c0.6-0.2,1.9-0.6,2.5-0.8
	c0.1-0.1,0.1-0.1,0.3-0.2l1.4-0.7c0.3-0.2,0.7-0.3,1-0.6c0.8-0.6,1.7-1.1,2.5-1.7l1.3-1.2c0.2-0.4,0.4-0.4,0.6-0.6
	c0.2-0.3-0.2-1.6-0.3-2C105.8,43.3,105.7,42.7,105.6,42.1z M75.8,26.2c2.1-2.7,19.8-7.1,21.9-6.2c0.4,0.2,0.6,0.5,0.6,0.9
	c0,0.2,0,0.3-0.1,0.4c-0.1,0.6-1,1.1-1.5,1.5L96.4,23c-0.5,0.2-0.4,0.3-1.2,0.6l-0.7,0.4c-0.2,0.1-0.3,0.1-0.4,0.2
	c-0.6,0.3-0.6,0.2-0.9,0.4c-0.1,0.1-0.6,0.4-1.2,0.6c-0.5,0.1-0.6,0.2-0.9,0.4c-0.4,0.1-0.5,0.3-0.8,0.4c-2.4,0.7-5,1.4-7.4,2
	c-0.4,0.1-0.5,0.1-0.8,0.1c-0.6,0.1-0.9,0.1-1.5,0.2c-0.6,0.1-2,0.2-2.7,0c-0.3-0.1-0.7-0.1-0.9-0.3C75.8,28,75.2,26.9,75.8,26.2z
	 M68.5,37.8v-0.3c0-0.5,0.1-1,0.3-1.3l0.3-0.8c0.1-0.2,0.3-0.3,0.4-0.4l0.2-0.3c0.1-0.1,0.1-0.1,0.1-0.2l0.5-0.6
	c0.3-0.2,0.6-0.6,1-0.9c0.6-0.4,0.7-0.6,1.4-0.7c0.5-0.1,0.7-0.2,1.2-0.2l0.7,0.2c0.1,0.1,0.1,0,0.2,0.1c0.3,0,0.1,0,0.2,0.1
	l0.2,0.1c0.4,0.2,0.7,0.3,0.8,0.4c0.1,0.1,0.2,0.1,0.2,0.2c0.6,0.3,0.9,0.5,1.1,1c0-0.1,0-0.1,0.1-0.1c0.1,0.4,0.6,0.9,0.8,1.6
	c0.1,0.4,0.5,1.7,0.5,2h-0.2c-0.6-0.2-1-0.3-1.2-1c-0.1-0.2-0.1-0.4-0.2-0.6c-0.2-0.6-0.7-1.2-1.3-1.5c-0.7-0.4-1.3-0.3-1.5-0.3
	h-0.5c-0.3,0.1-0.6,0.3-0.7,0.4c-0.1,0.1-0.2,0.1-0.3,0.2l-1,0.9c-0.1,0.1-0.2,0.2-0.3,0.4c-0.2,0.3-0.4,0.7-0.6,1.1
	c-0.1,0.1-0.1,0.2-0.1,0.3c-0.1,0.2,0.1,0.3,0,0.8c0,0.1,0,0.3,0,0.6c-0.6,0.3-1.3,1.1-1.8,0.5c-0.1,0-0.2-0.1-0.2-0.1
	c-0.1,0-0.2-0.1-0.2-0.2v-0.1l0.1-0.2C68.5,38.4,68.5,38,68.5,37.8z M78.3,43.8c0-0.1,0-0.1-0.1-0.1c-0.3-0.9-1-1.2-2.7-1.9
	c-0.8-0.1,0.4,0.1-0.4-2.2C74,37.4,73,37.4,72,37.9c0.1-0.2,0.2-0.5,0.3-0.6l0.6-0.7c0.4-0.4,0.2-0.3,1.3-0.6c0.6-0.1,0.7-0.1,1,0.4
	c0.3,0.3,0.4,0.8,0.3,1.2c0,0.8,0.1,1.3,0.8,1.7c0.5,0.3,0.8,0.2,1.1,0.2c0.2,0.3,0.2,0.7,0.3,1c0.2,0.3,0.2,0.6,0.3,0.9
	c0.1,0.2,0.1,0.2,0.2,0.4c0.1,0.2,0.1,0.4,0.2,0.6c0.1,0.4,0.3,0.6,0.4,0.9C78.5,43.6,78.5,43.3,78.3,43.8z M78.4,46.3
	c-0.3,0.4-1,0.7-1.6,0.8c-0.2-0.5-0.8,0.1,0.8-0.8c0.2-0.2,0.6-0.6,0.7-1.1C78.6,45.8,78.8,45.7,78.4,46.3z M10.3,90.7
	c-0.9,2.9-2.7,9.9-4.2,12.2c-0.5,0.7-1.5,0.3-2.5-0.1c-2.7-1-2.2-2-1.7-4c0.5-1.8,0.9-3.4,1.4-5.2c0.7-2.9,1.4-4.7,2-7.8
	c0.1-0.6,0.4-2.3,0.6-2.8C6.1,83,6,83,6.2,83.1l2.4,1.3c0.9,0.4,2,0.8,3,1.2C11.6,87.2,10.8,89.3,10.3,90.7z M29.7,107.2
	c-0.4,1.2-0.8,1.3-2.3,1.3c-4.4-0.2-3.6-0.2-3.1-6.7c0.4-4.6,1-8.6,1.4-12.8c0.1-0.8-0.2-1,0.6-1c1.9,0.1,3.5,0,5.3,0
	C31.5,91.3,30.8,104.2,29.7,107.2z M41.7,91.1c-0.3,1.7-0.6,1.5-2.2,1.7c-1.4,0.1-2.3,0-2.5-1.4c-0.2-1.3-0.1-2.5,0.1-3.8l4.6-0.3
	C41.7,88.4,41.8,90,41.7,91.1z M60.7,99.2c0.1,0.8-0.1,1.9-0.5,2.5c-0.3,0.5-1,1.1-1.8,1.4c-0.6,0.3-1.8,0.6-2.5,0.3
	c-0.6-0.2-0.9-1.3-1-1.9c-0.3-0.9-1.4-9.4-1.5-10.4c-0.2-1.2-0.4-4.6-0.7-5.4c2.9-0.7,3.5-1.2,5.8-2L60.7,99.2z M59.1,71.8
	c1,1.7,1,4.4,1.1,6.6c0.1,3-0.3,3.2-3.1,4.6c-3.5,1.8-5.2,1.9-8.9,2.6c-0.8,0.2-2.6,0.3-3.3,0.6c-2.4,0.4-4.6,0.6-7.1,0.7
	c-5.3,0.3-8.8,0.8-14.6,0.2c-1.9-0.3-5.9-1.2-6.6-1.2c-0.3-0.3-2.8-0.7-3.4-0.8c-1-0.3-2.4-0.7-3.3-1.1c-2.4-0.9-4.1-2-5.6-3.3
	c-0.2-0.4,1-5.9,1.5-6.4c1.2,2,2.7,3.1,4.7,4.1c7,3.5,19.5,3.9,27.5,3.5c1.4-0.1,2.6-0.3,4-0.4c5-0.6,13.3-1.8,16.2-6.1
	C58.8,73.9,58.8,73.4,59.1,71.8z M56.3,68.9c0.9,0.6,1.7,0.9,1.9,2.3c0.7,3.1-2.6,5.8-5.6,7c-3.4,1.3-10.5,2.5-14.3,2.8L30,81.1
	c-6-0.2-19.5-1-23.3-6.5c-0.8-1.2-1-1.8-0.2-2.9c1.2-1.7,2.8-2.5,5.2-3.4c2.8-1.1,7.5-1.8,12.1-2.2l0.5,1.2c-1.6,0.3-3,0.6-3.7,0.6
	c-2.4,0.4-6.8,0.8-8.2,2.3c-0.9,1-1.2,2.6-0.4,4c0.6,0.9,1.7,1.8,2.8,2.4c6.1,3.4,21.4,1.9,27.9,1.1c2.9-0.4,6.2-0.7,8.1-2.3
	c1-0.8,1.5-2.2,0.6-3.6c-0.8-1.1-1.5-1.4-3.2-1.9c-0.5-0.2-0.9-0.3-1.5-0.4c-0.6-0.6-1.3-1-1.9-1.4c0.1-0.4,0.4-1.1,0.6-1.7
	C49.8,66.6,54.1,67.5,56.3,68.9z M26,68.1c-0.6-1.4-1-2.7-1.2-4.3c0.5,0.3,0.9,0.6,1.5,0.8c0.2,0.1,0.4,0.1,0.6,0.2
	c-0.5,0.1-0.9,0.2-1.3,0.4c0.1,0.1,0,0.1,0.1,0.1c0.4,0.2,1.8,0.4,2.2,0.4c-0.1,0.3-0.2,0.6-0.3,0.8h-0.2v0.1l0.1,0.1
	c-0.2,0.6-0.4,1.5-0.2,3c-1.2-0.1-1.8,0.2-2.8,0.4c0-0.1,0.1-0.3,0.1-0.4c0.6-0.4,1.4-0.6,2-0.7C26.5,68.9,26.2,68.5,26,68.1z
	 M24,68.6c-0.9,0.6-1.1,1-1.2,1.6c-0.7,0.2-1.3,0.5-1.7,0.8c-2,0-5-0.1-6.4,0.4c-0.7,0.2-0.6,1.2-0.1,1.6c3.7,3.4,16.3,2.7,21.5,2
	c4.2-0.6,7.4-2.1,11.2-2.3c0.6-1,0.8-1.3,0.2-2.5c0-0.1-0.1-0.1-0.1-0.2c0.6,0.2,1.1,0.3,1.7,0.6c2,0.7,3.3,3.1,0.3,4.6
	c-2.9,1.4-11,2-14.7,2.4C30.6,78,22.4,77.9,18.6,77c-3-0.7-7.8-3.3-5.7-6.2c0.8-1.2,4.8-1.9,6.4-2.2c1.7-0.4,3.6-0.6,5.4-0.9
	l0.2,0.6C24.5,68.3,24.1,68.5,24,68.6z M31.1,69.6c2.1-0.2,4.2-0.4,6.4-0.6c0,0.3,0,0.6,0,0.9c-0.4,0-0.7,0-0.9,0
	c-1,0.1-3.5,0.3-5.4,0.7C31.1,70.4,31.1,70,31.1,69.6z M36.4,70.8c0.3,0,0.7,0,1.2,0c0.1,0.2,0.1,0.4,0.1,0.6L32,71.5
	C33.6,71.1,35.4,70.9,36.4,70.8z M37.5,68.4c-2.2,0.1-4.4,0.3-6.4,0.6c-0.1-0.6-0.3-1-0.6-2.4c0.5,0,1.2,0.2,1.8,0.2
	c1.9,0.2,2.9,0.1,4.7-0.1c0.1,0.1,0.4,0.2,0.6,0.2C37.6,67.4,37.5,67.9,37.5,68.4z M73.2,46c0.6,0.3,1,0.6,1.5,1
	c0.6,0.6,0.6,0.9-0.1,1.3c0.2,0.6,0.5,1.4-0.4,1.8c-0.3,0.1-0.7,0.2-0.9-0.1c-0.3-0.3-0.2-0.6-0.2-0.9c-0.4-0.2-0.9-0.3-1-0.8
	c-0.1-0.4,0.1-0.7,0.2-1.2c-0.2-0.1-0.8,0.2-1,0.2c-1.8,0.1-0.9-1.7-0.9-2.4c-0.6,0.2-2.1,1.7-2.1-0.1V44V44
	c-0.9,0.2-1.4,0.6-2.5,0.6c-0.8,0.1-1.7,0.1-2.5,0c-2-0.2-5-1.5-5-1.5c2.1,2.4,5.8,4.3,8.8,5.4c0.7,0.3,2.4,0.8,2.9,1.2h-0.5
	c-4-0.6-8.9-3.9-11.1-4.9c-0.3-0.2-0.6-0.3-0.9-0.3c-3.6-0.1-6.8-0.1-11.1-0.8c-1.5-0.3-2.5-0.5-4.1-0.5c0.1,0.2,0.3,0.2,0.4,0.3
	l1.1,0.7c0.4,0.3,1.2,0.8,1.4,1.1c-0.4,0.3-3.8,1.7-4.4,2.5c0.7-0.1,2.4-0.7,3.3-0.9c1.1-0.3,2.3-0.6,3.5-0.6c0.2,1,0.4,2,0.5,3.1
	c0.1,1.2,0.2,2.3,0.2,3.4c0,1.5-0.3,5.1-0.9,6.4c-0.8,1.7-1.7,3.2-2.2,5c-0.5,1.3-1.1,2.8-1.2,4.3c0,0.4-0.1,1.2,0.3,1.4
	c0.2-0.4,0.1-0.6,0.3-0.7c0.2-0.1,0.6,0.1,1,0.3c0.6,0.4,1.2,1,1.2,1.9l-6.8,0.2c-0.6-1.4-0.4-3.4-0.3-4.9c0-0.6-0.2-0.8-0.3-1.4
	c-0.4-2.4,1.2-4.4,1.5-5.4c-1.9,0.6-2.4,3.5-2.9,4.7c-0.4-0.3-1.4-1.7-1.8-1.7c0.1,0.4,0.2,0.8,0.3,1.2c0.1,0.4,0.3,0.7,0.4,1.1
	c-1.3-0.1-2.4-0.2-3.6-0.3c-2.9-0.4-6.4-1.3-8.6-3l0.2-0.1l0.2-0.1c0.8-0.3,1.8-0.7,2.4-1.3c0.2-0.1,0.1,0,0.1-0.2
	c-0.6-0.6-2.3-1.5-2.6-2.2c0.3-0.3,0.7-0.5,0.8-0.9c-0.4,0.1-0.6,0.2-1.1,0.2c-0.2-0.3-0.4-0.9-0.6-1.3c-0.3-0.4-0.6-0.8-1-0.9
	c0.3,0.7,0.4,1.2,0.3,2c-0.4-0.1-1.7-0.9-2.4-1.1c0.2,1.5,2.9,3,4.2,3.8l0.3,0.3c-0.5,0.1-0.9,0.5-1.7,0.6c-1.8,0.4-3.7-0.3-4.8-1.5
	c-0.6-0.8-1.1-2-0.9-3.4c0.4-2.8,4-2.7,5.8-1.9c1.1,0.4,1.9,1,2.7,1.7c1.8,1.7,2.3,3.9,2.4,6.4c0.3-0.4,0.6-1.5,0.6-2
	c0.1-1.5-0.4-2.9-1.2-4.1c-0.4-0.6-0.7-0.9-1.3-1.4c-1.3-1.4-3.7-2.3-5.6-2.4c-1-0.1-1.5,0.2-2.4,0.2c-0.8-1.4-1.5-3.1-1.8-4.5
	c-0.1-0.1-0.1-0.3-0.1-0.4l-0.2-0.3c-0.2,0.1-0.2,0.2-0.3,0.4L16.5,48l-0.1,0.1c-0.7-0.6-1.3-1.8-1.4-2.8L15,45
	c0-0.1-0.1-0.1-0.1-0.2c-0.4,1.5-0.7,2.5-0.6,4.1c0.1,0.4,0.2,1,0.2,1.3c-0.3-0.4-0.6-1.2-0.7-1.8c-0.2-0.7-0.2-1.5-0.1-2.3
	c0.1-0.8,0.9-3.2,1.3-3.8c0.3,0.5,0.6,2.3,1.1,3.1c0.5-0.7,0.6-5.9,7.1-9.6l0.3-0.3c-2.8,0.4-5.2,1.6-6.6,3.8
	c-0.2,0.3-0.3,0.6-0.6,0.9c-0.1-0.1-0.1-0.1-0.1-0.2C16,39.7,16,39,15.9,38.5c-0.1-1.8,0.6-3.9,1.7-5c1.9-1.9,4-1.8,7.3-1.7
	l-0.4-0.2c-2-0.8-3.9-1.8-5.5-3.1c-0.7-0.6-1.2-1.2-1.7-1.9c-0.1-0.2-0.2-0.4-0.3-0.6c-0.1-0.2-0.2-0.5-0.3-0.6
	c-0.6,1.1,1,3.6,1.7,4.5c0.2,0.3,0.7,1,0.8,1.3c-1.9,0.7-2.1,1.2-2.5,1.4c-0.9-1.9-1.5-5.4-1.2-7.8c0.2-1.3,0.5-2.6,0.9-3.7
	c0.3-0.7,1.2-2.5,1.7-2.9c0.2,0.3,0.3,0.6,0.4,0.9c1,2.1,2.3,4.4,5.2,4.4c-0.1-0.1-0.2-0.2-0.3-0.3c-0.1-0.1-0.1-0.1-0.2-0.1
	c-0.9-0.6-1.6-1.3-2.3-2.3c-0.7-0.7-1.3-2.1-1.5-3.5c-0.6-3.5,0.7-7.2,3.6-9.3c0.3-0.2,0.6-0.4,0.7-0.6c0.3-0.2,0.5-0.4,0.7-0.6
	c2.2-1.7,5.2-2.6,8.2-2.2c0.9,0.1,3.5,0.7,4,1.2c-0.4,0.5-0.6,0.6-0.7,1.5c-0.1,0-0.6-0.4-0.8-0.6c-0.3-0.2-0.7-0.3-1.2-0.3l1.6,1.6
	c0.3,0.3,0.5,0.6,0.7,0.8c0.2,0.3,0.4,0.6,0.6,0.9c1.2,1.8,1.2,2.9,1.3,4.9c0.4-0.3,0.8-1.2,0.9-1.8c0.1-0.8-0.1-1.7-0.4-2.4
	C38,9.4,37,7.8,36,7.3c0.2-0.5,1.1-1.1,1.8-1.4c1.6-0.7,3.5-0.6,4.9,0.4c0.7,0.4,1,0.9,1.5,1.5c4.2-1,6.1,4.4,6.6,5.1
	c0.3-0.3,0.3-0.7,0.2-1.3c1.2,0.2,2.4,1.2,2.9,1.8c2.4,2.7,3.5,6.4,3.6,10.2c0.3,6.9-2.3,8.9-8.7,9.7c-0.1-0.3,0-0.6-0.1-0.9
	c-0.1-0.5-0.4-0.9-0.6-1.3c-0.1-0.2-0.3-0.4-0.4-0.6c1.7,0.3,2.9,0.6,4.6,0.1c1.5-0.5,2.3-1.2,2.9-2.2c0.7-1,1.3-2.4,1.4-3.9
	c0.2-1.8-0.2-2.9-0.8-4.3c-0.6-1.3-1.4-2.3-2.2-2.9c-2.4-1.8-5.5-0.7-7.8,0.7c-1.9,1.1-1.9-0.9-2-2.4c0,0.1-0.2,0.6-0.3,0.9
	c-0.2,0.4-0.4,0.6-0.4,1c-0.2,2.1,2.1,4.1,2.1,6.3c-0.1-0.1-0.5-0.4-0.6-0.6l-1.7-1.7c-0.4-0.4-0.8-0.7-1.2-1.1
	c-0.2-0.2-0.4-0.3-0.6-0.6c-0.1-0.1-0.6-0.4-0.6-0.5c-0.6-0.2-3.6-0.2-4.4-0.2c-0.8,0.2-1.4,0.2-2.1,0.3c-0.6,0.1-1.4,0.3-1.9,0.3
	c0.2-0.6,1.6-0.7,2.3-0.9c0.9-0.3,1.7-0.5,2.5-0.8c0.9-0.3,1.4-0.6,2-1.3c0.6-0.6,0.8-1.4,0.8-2.4c-0.2,0.1-0.5,0.7-0.6,0.8
	c-0.2,0.3-0.4,0.6-0.6,0.7c-0.3,0.3-0.7,0.3-1,0c-0.3-0.3-0.3-0.4-0.4-0.9c-0.6-2.2-1.7-3.8-3.3-5.1c-2.6-2.1-5.5-1.8-8.2,0
	c-3.1,2.1-4,6.6-1.8,9.8c0.4,0.6,0.8,1,1.3,1.5c0.6,0.5,1.4,0.8,1.7,1c-0.5,0.6-1.3,1-1.8,1.7C24,25,23,26.3,23.6,28.1
	c0.1,0.3,0.3,0.6,0.4,0.8c0.8,1.1,1,2.2,3.2,2.7c0.5,0.1,1.7,0.1,1.9,0.3c0.1,0.2,0.1,0.4,0.2,0.6c0.2,0.2,0.3,0.2,0.4,0.3
	c-0.6,0.2-2.6,0.9-2.9,1.5c2.1-0.2,4.5-0.2,6.6,0.1c1,0.1,2,0.2,3,0.4c0.8,0.1,2.3,0.5,2.9,0.6c0.2-1.5,0.5-3,0.4-4.6
	c-0.1-1.4-0.9-2.3-1.8-3.1c0.1-1.3,0.9-2.6,0.8-4.3c-0.3,0.2-1.9,2.9-2.1,3.5c-1.2,0.1-2.2,0.2-3.4,0.4c-0.8,0.2-0.7,0.1-1,0.8
	l-0.6,1.3l-0.2-0.1c0-0.6,0.1-0.9,0.2-1.4c0.1-0.2,0.1-0.4,0.2-0.6l0.2-0.4c0.2-0.2,1.5-0.3,1.9-0.4c0.4-0.1,1.3-0.3,1.5-0.6
	c-0.2-0.6-0.5-1.1-0.5-1.8c0.4,0.2,1.2,1,2.1,0.1c1.6-1.5-1.1-2.7-1.1-0.7c-0.8-0.1-1.5-0.8-1.7-1.6c0.6-0.7,1.5-1.5,2.8-1.5
	c1.3,0,3.3,1.2,4.5,1.8c0.6,0.3,1,0.4,1.2,0.8c0.6,1-0.1,2.1-2,1.8c0-0.1,0.7-0.9-0.1-1.4c-0.6-0.3-1.2,0-1.3,0.5
	c-0.2,0.4-0.3,1.3,0,1.7c0.4,0.4,1.2,0.2,1.8,0.2c-0.2,0.2-0.9,0.6-1.2,0.7c-1.3,0.8-1,0.7-0.5,1.6c0.2,0.2,0.3,0.6,0.5,0.8
	c0.9,1.8,0.4,5,0.6,6.6c1.5,0.5,3.7,0.8,5.3,1.1c4.2,0.7,8.3,1.1,12.5,1.9c0.4,0.2,2.9,0.8,2.9,0.9c0.3,0.4,0.5,0.7,0.7,1.2
	c0.2,0.3,0.4,0.8,0.6,1.1c1.2-1.5,3-3.8,4.6-3.5c0.3,0.1,0.5,0.1,0.7,0.3c0.1,0,0.1,0,0.1,0.1c0.1,0.1,0.2,0.2,0.2,0.2
	c0.5,2.1,2.6,2,3,1.9c3.5-2.9,0.9,2.8,1.5,2.7c2.8-0.4,1.9-1.1,4.2,0.6c0.9,1.5-0.4,1.8-0.9,1.9C75.2,45.9,73.8,45.8,73.2,46z
	 M54.1,33.5c-0.2,0.7-1,2.6-2,2.5c-1.4-0.1-2.7-0.4-4-0.6c0.2-0.6,0.6-0.7,0.6-1.5C51.7,34.2,51.4,34.1,54.1,33.5z M46.6,23.9
	c0.2,0.6,0.5,0.9,0.7,1.3c0.6,0.6,1.8,1.2,3.1,0.7c0.9-0.3,1.7-1,1.9-2.1c0.2-0.6,0.1-1.2-0.1-1.8c-0.2-0.6-0.6-0.8-0.8-1.2
	c1.5,0.4,2.9,2,2.9,3.9c0,2.9-2.9,4.9-5.8,4c-0.6-0.2-0.6-0.3-0.9-0.7c-0.2-0.3-0.4-0.7-0.6-1.1c-0.4-0.7-0.7-1.6-0.9-2.4
	c-0.4-1.3-0.2-1.2,0.5-2.2C46.5,22.8,46.4,23,46.6,23.9z M49.2,23c-1.6,0.4-1.8-1.4-0.3-1.7C50.4,21,50.7,22.7,49.2,23z M50.3,25.5
	c-0.8,0.3-1.3-0.6-0.3-0.9C50.8,24.4,51,25.2,50.3,25.5z M26.1,16c0.4,1.8,2.4,2.7,3.9,1.8c0.8-0.5,1.7-1.5,1.3-2.9
	c-0.4-1.4-1.2-1.7-2.3-2c0.4-0.2,1.5,0.1,1.9,0.2c1.7,0.7,2.8,2.4,2.6,4.2c-0.1,0.4-0.2,0.5-0.6,0.6c-1.4,0.6-4.2,0.6-5.1,2.9
	c-0.6-0.1-1.3-0.7-1.6-1c-2.1-2.4-0.6-5.2-0.1-5.6C26.2,14.8,26,15.2,26.1,16z M28.4,15.4c-1.3,0.4-1.8-1-0.4-1.4
	C29.3,13.6,29.7,15,28.4,15.4z M29.7,16.9c0.2,0.3-0.1,0.6-0.3,0.6c-0.6,0.3-1.3-0.3-0.5-0.7C29.1,16.7,29.5,16.6,29.7,16.9z
	 M80.3,46.8c-0.1,0.1-0.1,0.2-0.2,0.3c-0.5,0.8-0.6,0.6-1,1c-0.2,0.2,0.1,0.1-0.2,0.2c-0.2,0.1-0.6,0.2-0.8,0.3
	c-0.3,0.1-0.1,0.1-0.3,0.2c-0.5,0.2-0.7,0.1-1.2,0.2c-0.2,0.1-0.3,0-0.4,0c0.3-0.4,0.5-0.6,0.6-1.1c0.8-0.2,1.7-0.3,2.1-1.1
	c0.3-0.6,0.1-0.8,0.1-1.1l-0.3-1.1c0.2,0,0.3,0,0.4,0.1c0.3,0.2,0.3,0.4,0.9,0.9C80.3,45.6,80.5,46.4,80.3,46.8z M80.9,47.3
	c-0.5,0.5-0.4-1.3-0.6-1.8c-0.1-0.1-0.3-0.5-0.2-0.6c0.1-0.1-0.2-0.1,0.2-0.1C80.6,44.8,81.4,46.9,80.9,47.3z M81.7,51.6
	c0.1,0.2,0.4,0.3,0.6,0.4C82.1,51.9,81.9,51.8,81.7,51.6z M83.7,52.1c0.4,0.1,0.8,0.1,1.2,0.2C84.5,52.2,84.1,52.1,83.7,52.1z
	 M105.6,45.8c-0.2,0.3-0.8,1-1,1c-0.2,0.1-0.2,0.1-0.3,0.2c0-0.2,0.1-0.7,0.2-0.8c0.2-0.3,0.3-0.4,0.4-0.7c0-0.1,0-0.1,0.1-0.2
	c0.1-0.3,0.1-0.3,0.1-0.7l-1-4.3c-0.1-0.4-0.1-0.6-0.2-1l-0.8-3.3c-0.2-0.6-0.6-1.3-0.7-1.8l-0.4-0.8c-0.1-0.3-0.3-0.6-0.4-0.8
	c-0.1-0.3-0.2-0.7-0.4-1v0.2c-0.3-0.8-0.5-1.3-0.7-2.1l-1-4.3c0-0.3-0.1-0.6-0.2-0.8c-0.1-0.6,0.1-1-0.1-1.5c-0.6,0.1-1,0.9-1.8,1.4
	c-1.1,0.8-0.9,0.9-0.6,2.2c0.3,1,0.6,2,0.8,2.9c0.3,0.9,0.4,1.9,0.7,2.9c0.6,2.5,1.5,6.6,2.2,8.8l0.6,2.2c0.1,0.4,0,0.4,0.1,0.1
	c0.2,0.8,0.4,1.5,0.2,2.3l-0.3,0.7c-0.2,0.3-0.4,0.6-0.7,0.7c-0.3,0.3-0.6,0.6-0.9,0.8c-0.3,0.2-0.7,0.3-0.9,0.5
	c-0.3,0.2-0.4,0.4-0.8,0.6c-0.3,0.1-0.3,0.2-0.5,0.2c-0.7,0.3-1.8,0.4-2.4,0.6c-0.2,0.1-0.4,0.1-0.6,0.2c-0.2,0.1-0.3,0-0.6,0.1
	c-0.5,0.1-1,0.3-1.5,0.3c-0.2,0,0-0.1-0.3,0c-0.2,0-0.4,0.1-0.6,0.1C91,50.9,90.7,51,90.6,51l-0.4-0.1c-0.2-0.1-0.4,0-0.6,0
	l-3.3-0.6c-0.5-0.2-0.9-0.2-1.2-0.6c-0.1-0.1-0.2-0.3-0.3-0.4c-0.1-0.1-0.1,0-0.2-0.2c-0.2-0.3-0.3-0.6-0.6-0.9c0,0,0-0.1-0.1-0.1
	c0,0,0,0-0.1-0.1c-0.6-0.6-0.9-1.7-1.2-2.6c-0.1-0.3-0.2-0.3-0.2-0.5l-1.1-3.3c-0.1-0.3-0.1-0.2-0.2-0.5c-0.5-1.3-0.5-2.3-0.7-3.5
	c-0.1-0.4-0.2-0.8-0.3-1.2c0,0,0,0,0.1,0.1c-0.1-0.3-0.1-0.6-0.2-0.9c-0.1-0.4,0-0.5-0.1-0.8c-0.1-0.3-0.1-0.6-0.2-0.9
	c-0.1-0.2,0-0.3,0-0.4c-0.1-0.7-0.2-1.5-0.4-2.2c-0.4-1.3,0-1.8-1-1.9c-0.4,0-0.7,0-1-0.1l-0.6-0.3c-0.4-0.1-0.7-0.1-1-0.3l-1-0.8
	c-0.1-0.3-0.1-0.2-0.2-0.4c-0.1-0.2-0.1-0.2-0.2-0.4l0.2-0.2c0,0.3-0.1,0.3,0.1,0.5l0.1,0.2c0.2,0.3,0.6,0.3,0.8,0.5
	c0.2,0.1,0.1,0.1,0.3,0.2c0.2,0.1,0.2,0.1,0.4,0.2L78,29c0.1,0,0.1,0.1,0.2,0.1c0.6,0.1,1.5,0.3,2.1,0.2c0.4-0.1,1.2-0.1,1.3-0.1
	l1.5-0.3c0.6-0.2,2-0.6,2.5-0.7c0.4-0.1,0.6,0.1,1.4-0.3c4.7-2.3,7.9-1.2,12.2-6.5l0.1-0.1c0.6-0.7-0.4-0.9-0.6-1.1
	c0.3-0.1,0.6,0,0.7,0.3c0.1,0.3,0.4,1.5,0.4,1.8l0.2,2.4c0.2,1,0,0.5,0.3,1.8c0.3,1.2,0.6,2.4,0.9,3.7c0.2,0.6,0.3,1.3,0.5,1.8
	c0.1,0.4,0.2,0.4,0.3,0.8c0.1,0.3,0.2,0.6,0.2,0.9c0.2,0.7,0.4,1,0.6,1.7c0.1,0.3,0.2,0.6,0.3,0.8c0.1,0.3,2.4,9.4,2.5,9.7
	C105.6,45.7,105.6,45.7,105.6,45.8z"/>
</svg>
