<?xml version="1.0" encoding="utf-8"?>
<!-- Generator: Adobe Illustrator 25.0.0, SVG Export Plug-In . SVG Version: 6.00 Build 0)  -->
<svg version="1.1" id="Слой_1" xmlns="http://www.w3.org/2000/svg" xmlns:xlink="http://www.w3.org/1999/xlink" x="0px" y="0px"
	 viewBox="0 0 417.5 208.5" style="enable-background:new 0 0 417.5 208.5;" xml:space="preserve">
<style type="text/css">
	.st0{fill:#ffffff;}
</style>
<g>
	<path class="st0" d="M159.8,91C159.9,91,159.7,90.8,159.8,91L159.8,91z"/>
	<path class="st0" d="M146.5,64.9c0-0.1,0-0.1-0.1-0.2C146.4,64.8,146.4,64.9,146.5,64.9z"/>
	<path class="st0" d="M322,114.5c-1.7,0.3-3.2-0.9-3.8,1.2c-0.6,2.2-0.6,32.3-0.6,34.8c0.1,6.2,0.9,12.8,1.3,19.1
		c0.3,5.1-1.5,6.4,4,6.3c12.3-0.2,14.7-0.8,14.7-16c0-6.8,0.2-13.4-0.6-20.1C335.9,129.2,338.5,111.7,322,114.5z M334.3,164.5
		c-0.3,2.4,0.1,6.2-2.7,7.3c-1.8,0.7-7.3,1.1-9.1,0.6l-1.8-26.9c0-3.7,0.2-25.9,0.9-27.8c1.9-0.7,6.6,0,8.4,1.1
		c4,2.4,3.5,19.9,4.3,25.8C334.7,147.8,334.7,161.4,334.3,164.5z"/>
	<path class="st0" d="M130.1,72.6l0.1,0.7C130.2,73.3,130.1,72.8,130.1,72.6z"/>
	<path class="st0" d="M340.5,113.1c-6.5-5.4-19.2-5.3-27.2-4.6c-8.2,0.7-19.1-0.5-24.2,7.8c-4.7,7.6-3.9,19.2-3.2,27.7
		c0.7,8.5-1,21.4,2.6,28.8c4.3,8.9,13.9,9.9,22.8,9.5c0,3.8,0.3,7.6,0.8,11.3c0.4,3.2,1.5,5.9,4.8,6.1h1c0.1,0,0.2,0,0.3,0
		c9.5-0.9,4.7-8.2,4.7-17c4.9-1,17.4,0.4,20.9-11.1c1.6-5.2,1.4-24.8,0.9-30.8C344.3,133.8,345.7,117.5,340.5,113.1z M340.8,170.7
		c-2.6,8.6-13.8,8.6-21.1,8.6c0,3,0.3,5.4,0.3,8.3c0.1,2.6,1,5.3,1,7.7c-1.6,0.8-2.9,1.4-4.8,0.8c-1.2-1.4-1.9-14.1-1.9-16.8
		c-7.8-0.6-17.9,0.9-22.4-7c-4-7.1-2.2-19.1-2.7-27c-0.5-8.2-2-18.6,1.9-26.2c3.9-7.7,14.7-7.1,22.2-7.5c6.4-0.4,20.2-0.4,25.1,4.2
		c2.6,2.4,2.6,8.8,2.6,12.1C341,137.2,343.4,162.2,340.8,170.7z"/>
	<path class="st0" d="M380.3,97.8c3.4,2.1,9.9-1,12.5-3.5c8.4-8,12.7-31.9,19.4-47.2c1.5-3.4,5.2-8.8-1.7-10.2
		c-4.1-0.8-6.4,5.7-7.6,8.7c-1.1,2.6-4.2,10-4.2,12.4c-3.2-2-6.9-19.3-12.4-21c-2-0.6-4.9,0.2-5.7,2.3c-1,2.4,0.3,4.3,1.4,6.3
		c4,7.5,6.1,15.2,11.9,21.5c1.9,2.1,0.9,3.1,0,5.7c-8.9,25-10.5,13.3-14.4,19.1C378.1,93.6,378.4,96.6,380.3,97.8z M388.5,90.5
		c2.1-1.8,3.1-4.6,4.2-6.8c1.2-2.4,2.4-5.2,3.3-7.7c1-2.7,1.3-5.5,3-8c-2.7-3.9-3.9-2.1-9.1-12.6c-1.2-2.5-6.6-13.2-6.6-15.4
		c2.9-0.7,4.1,1.9,5.2,4.4c2.5,5.5,6.9,17,10.8,19.9c2.3-3.1,6.3-22.3,10.5-24.5c3.1,1.5,0.6,3.8-0.7,6.5c-3,6.5-6.2,17.5-8.3,24.5
		c-1.5,5-3.6,11-6,15.6c-1.9,3.6-8.3,11.4-13,8.4C381.5,91.9,385.3,93.4,388.5,90.5z"/>
	<path class="st0" d="M160.7,84.5c-0.3-0.6-1.3-4.9-1.7-6.2c-0.2-0.7-0.5-0.8-0.7-1.6c-0.8-2.8-1.4-5.7-2.1-8.5
		c-0.4-1.8-2.1-6.7-2.1-7.9c0-0.3-0.2-2.6-1-2c-0.2,0.2-0.1,0-0.1,0.4c-0.1,1.1,0,1.6,0,2.7c0,0.3-0.1,0.4-0.1,0.8
		c-0.1,2-0.1,1,0.3,2.9c0.1,0.7,0.1,1.2,0.2,1.9c0.1,0.6,0.2,1.4,0.2,1.9c0,0.6,0.2,1.2,0.4,1.9c0.3,1.5,1.4,7.1,2.1,8.2
		c0.1,0.1,1.6,4.4,2.6,5.8l0.5,0.9c0.3,0.6,1.5,2.6,2.1,2.6c0.6,0,0.3-0.1,0.3-0.3C161.7,87.4,161.1,85.3,160.7,84.5z"/>
	<path class="st0" d="M412.3,184.2c-0.4-0.1-14.1,1.7-16.3,1.8c-12.1,0.8-9.2,1.9-9.4-8.1c-0.1-5.1,0.3-12.9,0.7-18
		c2.2-1.2,13.1-0.8,16.4-0.6c4.5,0.3,10.2,0.8,10.7-5.7c0.2-2.2-0.7-4.5-2.5-5.9c-2.3-1.8-4.6-0.9-7.4-1.3
		c-5.3-0.7-11.7,0.1-16.8,0.1l-0.2-24.7c5.4,0,11.8-0.8,17.4-1.2c2.5-0.2,5.7,0.6,7.7-0.9c2.1-1.6,2.8-4.3,2.4-6.8
		c-1.1-6.3-8.9-5.1-13.6-5.1c-3.1,0-6-0.1-9.1,0.2c-8.7,0.8-19-4.1-18.2,9.1c0.4,5.9,0.5,11.9,0.9,17.8c0.4,6.1-0.4,12.3-0.3,18.3
		c0.1,6.3-0.1,11.9-0.5,18.2c-0.6,9.2-3.9,24.8,8.3,27.4c6.5,1.4,27.4,0.8,32.9-3.5c1.5-1.2,2.2-2.6,2.3-4.1v-1
		C417.3,187.5,415.3,184.9,412.3,184.2z M412.5,193.3c-4.1,2.6-13,2.6-18,2.7c-4.7,0.1-14.8,1.2-16.8-4.2
		c-2.3-6.1-0.7-12.7-0.5-18.8c0.2-6.9,0.7-13.3,0.7-20.4l0-20c0-3.4-1.1-18.5-0.4-20.1c1.3-1.9,12.7-1.1,16.4-1.3
		c3.2-0.1,15.8-0.9,17.3,1.4c1.2,2.4,0.4,4.9-2.6,5c-3.1,0.1-5.4,0-8.4,0.3c-5.6,0.4-11,0.7-16.7,0.7c0,2.2,0.6,5.1,0.7,7.3l0,24.4
		c2.5,0,4.5-0.7,7-0.7c2.7,0,5.3,0,8,0c3.7,0,12.3-1.7,11.7,4c-0.6,5.8-11.7,0-27,3.7c0,5.7-1.5,28.3-0.5,31.8
		c3.6,1.1,15.1,0.2,19.4-0.2c2-0.1,7.6-1.7,8.6-1.5C414.2,187.9,415.6,191.3,412.5,193.3z"/>
	<path class="st0" d="M230.8,66.5c1.5,3.4,0.8,3-0.4,6.4L223,93.5c-0.9,4.5,6.8,7.9,9.6,0.6c1.3-3.4,3.5-11.5,5.1-13.8
		c1.9,2,4.9,10.1,6.5,13.2c4.1,8.1,10.7,4.5,10.3,0.3c0-0.2-5.6-13-6.1-14c-1.7-3.4-7.8-8.9-6.2-12.7c2-4.7,3.9-9.3,6-13.7
		c1.3-2.8,7-10.8,6.5-13.1c-0.6-2.6-3.6-4.1-6.2-3.3c-4,1.2-8.4,14.2-11.6,18.8c-1.1-1.2-4.7-14.8-9.6-18c-2.3-1.5-5.3-0.1-6.4,2
		c-1.9,3.6,2,3.8,4.7,13.1C227,57.3,228.8,62.1,230.8,66.5z M224.4,40.3c5.4-1.2,10.1,21.6,12.4,24.3c1.4-1.5,10.2-26.3,14.1-24.6
		c2.2,0.9-2.9,7-5.4,12.3c-8.8,18.7-8.3,15.6-1,27c2.8,4.5,3.9,8.9,6.3,13.4c0.6,1.2,1.1,2.5-0.8,2.6c-3.2,0.1-8.4-18.5-12.9-22
		c-1.2,1.3-3.6,9.5-4.4,11.9c-0.7,2.1-1.5,4-2.2,6.1c-0.8,2.4-1,4.9-4.2,3.8c-0.7-3.3,10.1-23.6,8.2-27.9c-1.9-4.3-3.9-9.2-5.3-13.6
		c-0.8-2.5-1.4-4.6-2.5-7C225.5,44,222.8,42.1,224.4,40.3z"/>
	<path class="st0" d="M178.7,177.1c-4.5-13-11.5-21.7-14.3-29.4c-2.2-6-2.6-2.8,7.1-15.8c2.4-3.3,5-6.6,7.6-9.8
		c2.4-3,7.3-7.6,4.7-11.5c-3-4.3-8.2-3.5-11.3,0.4c-4,5.1-21,28.2-22.9,29.5c-1.4-5.9-1.2-17.8-0.2-23.9c1.7-10.3-10.3-11.1-11.7-4
		c-0.7,3.4-1,7.1-1.1,11v6c0.3,10.6,1.8,21.7,2.6,31c0.2,2.6-0.3,9.1-0.3,12.3c0,5.3-0.2,18.8,2.3,23.4c1.7,3,6.1,3.7,8.9,1.9
		c3.7-2.5,2.3-5.9,1.7-9.4c-2-10.8,0-17.3-0.3-24.5c-0.2-5.5-1.6-5.9,2.5-10c1,0.9,10.9,20,11.9,22.7c1.5,4.2,2.9,8.7,4.6,12.8
		c1.5,3.8,3.2,9.7,8.1,9.6c5.4-0.1,7.4-4.9,5-9.7C181.3,185.3,180.3,181.7,178.7,177.1z M177.3,195.9c-2.7-2.4-8.3-19.8-10.3-24.5
		c-1.2-2.9-4.4-8.3-6.1-11.2c-1.6-2.7-4.7-10.1-5.8-11.5c-0.8,0.1-5.9,5.8-6.7,6.8c-1.2,1.5-0.5,4.5-0.3,6.2
		c0.3,2.6-0.2,4.3-0.2,6.6c-0.2,4.7-0.2,15.4,0.5,19.9c0.3,1.9,1.1,4.4,1.2,5.8c-5.1,7-6.6-3.3-7-6.7c-1.1-10.6,0.3-24.1-0.8-35.3
		c-1.1-11.1-2.7-22.6-1.6-33.8c0.2-1.9,0.1-6.2,2.3-6.8c2.9-0.8,4.1,1.5,3.7,4.1c-0.9,6.4-1.2,10.3-0.7,16.8
		c0.3,3.5,0.5,14,1.7,16.3c2.1-1.3,13.8-17.2,16.2-20.2c2.7-3.4,5.3-7,7.9-10.4c2-2.7,6.5-10.4,10-5.1c0.4,1.5-11.7,16.2-13.7,19
		c-2.3,3.1-4.7,6.2-7.1,9.2c-1.7,2.1-0.8,2.9,0.3,5.7c4.2,10.7,10.3,17.8,13.7,27.7c1.4,4.1,2.7,8.2,4.2,12.2
		C179.4,189.4,185,196.9,177.3,195.9z"/>
	<path class="st0" d="M152.8,69.3C152.8,69.3,152.8,69.3,152.8,69.3C152.7,69.4,152.9,69.4,152.8,69.3z"/>
	<path class="st0" d="M361,47.9c0-4,1.5-12.3-5.5-10.8c-5.3,1.2-3.5,8.3-3.5,13.1c0,5.4-0.1,11,0,16.4c0.1,3.3,1.2,5.4-3,5.3
		c-10.4-0.2-13-1.4-11.6-13.7c0.4-4.1,0.6-11.6-0.5-15.5c-0.5-1.9-1-4.5-3.1-5.3c-2.3-0.8-5,0.2-6,2.4c-0.3,0.7,0.9,11.3,0.8,14.2
		c-0.6,13.1-2.9,24.4,14.7,26.7c3.2,0.4,6.2-0.3,8.2-0.1c3.2,0.3,1.6,11.4,1.5,13.4c-0.1,4.8,7.2,6.7,8.8,1.4
		c2.3-7.8-0.8-22-0.7-30.9C361,58.9,361,53.4,361,47.9z M358.3,95.3c-4-0.1-1.2-4.1-1.7-8c-0.5-3.3-1-7.3-1-10.6
		c-5.9,0.5-7.4,1.9-14.3,0.6c-4.4-0.8-7.9-2.7-9.1-7c-2.1-7.4,0.7-18.1-0.6-25.2c-0.2-1-1-2.5-1-3.2c-0.1-2.4,3.9-4.5,3.9,7.9
		c0,5-0.7,10.5-0.4,15.3c0.4,4.5,2.1,8,6.9,9.1c5.5,1.3,9.5,0.7,14.6-0.5c0-5.1-0.4-11-0.4-16.4c0-5.7,0-11.4,0-17.2
		c3.5-0.8,2.8,1.1,2.7,4.1l0,23.1C358,73.5,361.2,91,358.3,95.3z"/>
	<path class="st0" d="M312.3,146.9c-0.6-5.2,0.4-24,0.4-31.1c-7.1,0-12.8,2-16.8,8.2c-2.9,4.5-3.1,17.4-2.3,22.7
		c1.1,7.9-1.3,15.3,1.9,23.5c2,5.3,7.2,5.8,13.3,5.7c4-0.1,2.5,0.3,5.3,1c0-4.5-0.5-10.4-0.9-14.7
		C312.6,157.2,312.8,151.7,312.3,146.9z M297.5,165.4c-1-4.2-0.7-14.2-0.9-19.2c-0.4-10.7-1.8-25.6,12.7-27.1
		c0,9.1-0.9,17.9-0.3,26.7c0.3,4.6,0.3,8.9,0.6,13.4c0.4,4.4,0.7,8.8,0.7,13.3C298.9,172.6,299.1,171.9,297.5,165.4z"/>
	<path class="st0" d="M233.4,116.5c-22.2,0.8-18.4,18-20,37.1c-0.5,5.7,0.1,21.4,1.6,26.7c3,10.5,8.9,9.6,18.3,10.4
		c9.2,0.8,13.8-2.5,16.9-11c2.7-7.5,3-18.1,2.3-26C251.4,141.4,251.5,115.8,233.4,116.5z M243.5,185.1c-3.6,3.5-16.7,2.8-20.8,0.9
		c-6.3-2.9-5.3-13.6-6-19.4c-0.8-6.5,0.5-17.5,0.7-24.4c0.2-6.8,0.3-14.9,5.7-19.7c4.6-4,14.2-3.7,18.6,0.4c5.1,4.7,5.5,12.5,6.4,19
		C249.6,152.2,251.6,177.2,243.5,185.1z"/>
	<path class="st0" d="M57.8,98.4c-3.3-3-7.6-4.3-12.2-4.2c-3.4,0-4,0.5-6.7,1.4c0.2,0.2-0.1,0.1,0.4,0.1l1.4-0.1
		c6.1-0.4,12.4,1.9,16.7,5.9l3,2.7c-0.2-1.5-0.3-2.2-0.9-3.5C59.1,99.9,58.4,98.9,57.8,98.4z"/>
	<path class="st0" d="M169.4,66.8l-0.9-10.7l-5.9,5.4c-2.3,1.8-2.7,9.2-2.3,12l3.2,7.9l1,1.3c0.4,0.7,2,2.3,2.7,2.6l0,0l8.8,3.1
		l0.2-0.6c0.4-3.4-1.2-13.7-3.6-16.2L169.4,66.8z"/>
	<path class="st0" d="M253.5,118.1c-6.1-8.2-16.6-11.2-26.5-9.9c-10.9,1.4-17.6,6.2-19.8,17.2c-1.7,8.5-2.6,25.6-2.5,34.5
		c0.1,10-0.8,23.1,5.7,31.4c5.7,7.4,20.2,8.9,28.7,7.6c25.9-3.9,22.9-31.1,21.7-51.1C260.2,139.2,258.8,125.1,253.5,118.1z
		 M257.7,171.3c-0.9,8.6-2.6,18.3-11.4,22.3c-7.7,3.5-20.8,3.3-28.4-0.5c-8.7-4.3-10-15.1-9.9-23.8c0.1-11,0.4-21.7,1.1-32.7
		c0.6-9.6,1.1-18.4,10.6-23.1c7.7-3.8,19.9-2.9,26.9,2.2c7.6,5.6,9,14.9,10.1,23.7C257.9,149.4,258.8,161.2,257.7,171.3z"/>
	<path class="st0" d="M80.2,25.9c0.2,1.7-0.1,4.4,0,4.7c0.6-0.5,1.4-2.4,1.9-3.2c1.8-2.8,5.3-4.8,8.6-5.6c0.5-0.1,0.7-0.1,1-0.4
		c-4.6-0.9-5.3,0-8.7,1.4c-0.5-0.5-1-1.5-1.4-2c-1.4-1.8-3.3-4.6-5.7-5c0.1,0.1,0.1,0.3,0.2,0.4C78.3,19.2,79.7,21.6,80.2,25.9z"/>
	<path class="st0" d="M86.7,31.5c1.2,0,2.6-1.2,3.4-1.7c2.5-1.6,5.6-1.8,8.5-1.5c1.2,0.2,3.6,0.9,4.4,0.9c-0.2-0.5,0.1-0.1-0.4-0.5
		c-0.1,0-0.3-0.2-0.4-0.3c-1-0.7-1.9-1-3.1-1.4c-3-1-7.3-1-9.9,0.8C88.2,28.5,86.8,29.8,86.7,31.5z"/>
	<path class="st0" d="M43.6,78c2.5-2.2,4.8-3.4,7.9-5c-0.9-0.2-9,1.2-11.1,4.8c-0.3,0.6-0.6,1.3-0.6,2.2c0,0.6,0,1.9,0.4,2.4
		C41.4,80.6,41.6,79.8,43.6,78z"/>
	<path class="st0" d="M170,56.2c0,6.5-0.8,6.3,3.6,11.2c3.5,4,3.1,7.6,4,12.3l-0.4,7.7c6.2-1.7,8.2-6.3,9.4-12l-1.3-9
		C184,60.8,176.1,54.5,170,56.2z"/>
	<path class="st0" d="M296.7,97.8c16.7-2.7,15.3-23.3,13.9-35.4c-0.7-6.1-1.2-14.8-5.7-19.6c-3.1-3.4-7.9-5.5-12.7-6.1h-4.6
		c-0.7,0.1-1.4,0.2-2.1,0.4c-8,1.9-11.6,4.3-13.1,12.5c-1.3,7.2-1.4,16.3-1.4,23.7c0,6.6-0.7,15.4,4.8,20.4
		C280.9,98.4,290.1,98.9,296.7,97.8z M281.1,93.5c-6.4-2.5-6.9-9.7-6.9-15.4c0-6.7-0.3-15,0.5-21.5c0.8-6.1,0.4-12.2,7-15.3
		c5.6-2.6,13.3-2.2,18.5,1.2c7.9,5.2,8.8,27.8,7.7,36c-0.7,5.4-1.1,12.3-7.3,15C294.8,96,286.8,95.8,281.1,93.5z"/>
	<path class="st0" d="M41.9,47.5l-0.5-0.2c-1.7-0.6-2.9-1.6-4.1-2.9c-0.6-0.6-1.2-1.6-1.6-2.4c-0.5-0.9-1-2.6-1.3-2.9
		c0.1,2.7,1.1,8.4,4.2,9.3c1.1,0.3,2.7,0,3.6-0.7C42.1,47.6,42,47.5,41.9,47.5C42,47.6,41.9,47.5,41.9,47.5z"/>
	<path class="st0" d="M103,135.4c1.6,2.2,0.8,3.4,1.3,5.8c1-0.7,2.8-5.8-3.7-9.4c-2.8-1.6-7.8-3.2-11.5-3.6c1.2,0.6,3.7,1.3,5.2,1.9
		C96.7,131.1,101.6,133.5,103,135.4z"/>
	<path class="st0" d="M304.9,65.6c-1.3-9.4-1.1-25.2-15.9-22.9c-6,0.9-9.3,2.5-10.8,8.7c-1,4.2-1.4,13.6-1.4,18.1
		c0,5.3-0.2,12.9,1.7,17.7c2,5,9.8,5.8,14.7,5.4c6.4-0.5,8.8-3.4,10.6-9C305.3,79.3,305.5,70.1,304.9,65.6z M298.9,87.2
		c-2.6,3.4-10,2.8-13.8,1.8c-5.3-1.4-4.3-7.6-5.1-11.6c-0.7-3.8,0.4-11.6,0.4-15.7c0-4.1,0.2-10.3,2.9-13.7
		c2.7-3.4,9.2-3.4,12.8-1.3c3.7,2.2,4.3,8,4.9,11.8C302,65.8,303.6,80.9,298.9,87.2z"/>
	<path class="st0" d="M200.4,79.9c-0.4-1.8-2-8.6-2.6-10.1c-0.2-0.6-0.4-0.6-0.6-1.5c-0.4-1.7-1.1-3.1-1.5-4.8
		c-0.3-1.1-0.5-2.3-1-3.2l0,0.1c-0.3-1-0.6-2-0.8-3c-0.2-0.7-0.2-0.8-0.5-1.3c-0.2-0.4-0.3-0.9-0.4-1.4c-0.1-0.5-0.3-1-0.4-1.5
		c-0.2-0.7,0-0.7-0.2-1.3c-0.3-1.4-1.4-4.6-1.3-5.9l-0.7-4.2c-0.2-1.1,0.1-1.6-0.2-2.6c-0.2-0.7-0.2-1.3-0.8-1.8l-0.9-0.4
		c-0.5-0.1-1.7-0.2-2.3-0.2c-0.7-0.1-1.7,0.1-2.3,0.2c-0.8,0-1.7,0-2.5,0l-2.7,0.3c-0.5,0.1-1,0.3-1.4,0.2c-1-0.1-1.8,0.4-2.8,0.5
		c-0.5,0-0.8,0.1-1.3,0.1c-0.5,0.1-0.8,0-1.3,0.1c-0.8,0.2-2.2,0.6-2.9,0.7c-0.6,0.1-0.7,0-1.3,0.1c-0.5,0.1-1.1,0.2-1.5,0.4
		c-0.6,0.2-0.5,0.4-1.3,0.5c-0.6,0.1-0.5,0-1.2,0.1c-0.7,0.2-2.4,0.5-3,0.8c-0.9,0.5-1.8,0.5-2.7,0.9c-0.6,0.2-0.6,0.4-1.3,0.5
		c-3.9,1-10.8,4.7-14.1,7.1c-0.9,0.5-1.6,0.9-2.3,1.6c-0.8,0.8-0.2,2.2,0.1,3.1c0.1,0.3,0.1,0.4,0.3,0.7c0.3,0.5,0.4,1.4,0.7,1.9
		l0.3,0.6c0.3,0.9,0.6,1.1,0.8,1.9c0.2,0.7,1,1.7,0.9,2.2l-2.1-1.2c-1.9-0.6-4.1-0.4-5.5,0.7l-5.5,5.6c-0.5,0.8-0.8,1.7-1.1,2.6
		c-0.1-0.4-0.8-0.7-3.2-0.7c-4.5-0.5-5.8,4.1-6.4,4.7c-0.3-0.6-5.6-2.1-8.1-2.6l0,0c-0.3,0-0.7-0.1-1-0.1c-2.4-0.3-4.9-0.5-6.4-0.7
		c0.3-1,1.4-3,1.9-4c1.5-2.9,1.6-3.2,3.4-5.7l2.6-3.4c2.7-3.6-0.9-5.3-0.2-12.8c0.5-5.8,0.4-5.6-0.4-11.3c0.4,0.2,0.4,0.2,0.7,0.6
		c1.6,2.4,0.9,4.6,0.8,7.1c-0.4,5.2,0.4,11.7,4.5,14.9c3.9,3,3.3-5,7.6-10.7c1.2-1.6,3.7-4.1,2-6.7c-1.3-2.1-3.3-1.8-6-3.7
		c-2.9-2.1-3-2.9-4.9-4.8c-2.3-2.2-4.6-3.7-7.9-4.3c-3.3-0.5-1.5,0.5-3.5-1.4c-1.4-1.3-2.6-2.1-4.4-2.9c-1.9-0.9-2.6-0.7-3.2-1.7
		c-1.2-2.1-2.8-3.6-4.7-4.9c-3.4-2.4-6.2-2.2-7.2-2.6c-0.2-0.1-1.1-0.8-1.4-1c-2.7-1.9-6.2-2.8-9.5-2.6c-3.1,0.2-1.5,0.8-3.8-0.3
		c-2.4-1.2-4.7-1.6-7.6-2.1C60.8-0.1,57,1.6,51.9,1.7c-2.4,0.1-4.9,0.1-7.3-0.2c-1.7-0.2-5.1-0.6-6.2-1.5H37
		c-0.9,0.6-1.1,0.5-1.6,1.5c-0.8,1.6-1.6,7.1-3.9,11.2c-1.6,2.8-3.7,4.1-0.4,4.2c1.8,0,3.5-0.4,5.1-1c3.7-1.3,7.1-3.6,10.3-5.9
		l4.5-3.5c-0.5,1.6-2.9,3.9-3.9,4.7c-0.5,0.4-0.8,0.6-1.3,1c-0.4,0.3-0.8,0.5-1.3,0.8c-2.9,1.8-6.8,3.3-7.1,3.5
		c-0.9,0.5-3.1,5.6-3.5,7.1c-1,3.1-0.8,5.3-1.7,6.9c-4.5,8.2-7,18.4-5,27.9c0.4,1.8,0.8,3.2,1.5,4.9c0.2,0.6,0.5,0.9,0.3,1.6
		c-0.8,2.4-1.3,4.3-1.4,7.1c-0.1,1.2,0.3,3.2-0.2,4.1c-0.5,0.9-1,1.9-1.4,2.8c-2.7,6.5-4.4,13.8,0.3,20.2c0.6,0.9,1.3,1.6,2,2.3
		l2.2,1.9c-0.2,2.2-0.6,3.5-0.2,6c1.1,5.8,6,7.2,11.5,8.2c0.4,0.7,0.9,2.2,1.2,3.1l0.9,2c-10.7,0.9-20,2.2-28.5,7
		c-1,0.6-1.8,1.2-2.6,1.9c-2.8,2.1-4.2,5.6-5.2,8.9c-0.7,2.5-1.3,5-1.9,7.5c-0.7,3.2-1.4,4.8,0.4,7.4c1.5,2,2.1,1,1.1,7.1
		c-1,6.2-7.8,27-7.3,30.1c0.7,4.1,9.5,7.4,12.2,5.9c1.6-0.9,2.8-3.7,3.7-5.7c2.8-6.7,6.8-21,9.1-28.6c1.7-0.1,3.4,1.1,5,1.1
		c1.1,1.1,13.4,3.5,15.9,3.6c0.1,3.5-0.9,8.1-1.4,11.6c-0.5,4.1-2.3,21-1.8,24c0.7,3.9,4.6,4,8.7,4.2c5,0.2,6.5-1,7.8-5.1
		c1.7-5.2,3-25.8,3.5-33.5c0.1-2.1-0.1-1.8,4.5-1.8c-0.2,7,0.2,11.3,8.1,10.6c3.3-0.3,5.1-0.5,6.1-3.3c1-3,0.8-5.4,0.8-8.6
		c0.9-0.2,2.5-0.3,3.1-0.8c1.9,0.2,11.4-2.4,12.1-1.7l2.4,19c0.3,2.2,0.8,3.9,1,6.2c0.3,3.3,1.6,8.6,5.1,9.4c2.1,0.4,4.4,0,6.1-0.7
		c7-2.7,6.2-9.3,5.4-15.1c-0.6-4.2-1.1-8.5-1.6-12.8c-0.5-4.3-1.6-8.2-2.2-12.3c0.3-0.5,0.6-0.6,1-1.1c0.3-0.3,0.7-0.9,1-1.4
		c0.8-1.3,1-1.9,1.1-3.5c0.3-2.5,0.2-6.6-0.1-9.1c-1.1-12.4-8.7-16-19.2-18.4c-3.2-0.7-6.8-1.3-10.4-1.8c0.5-1.1,1-2.2,1.5-3.2
		c1.5-3,2.9-5.4,3.9-8.8C94.8,103,94.3,95,93.8,87c6.5,0.3,9.9,0.4,15.3,0.1c4.2,1.9,7.1,2.9,10.7,5.2c4.4,2.2,9.2,3.9,13.5,4.6
		c1.2,0.2,2.3,0.4,3.4,0.5l3.3,0.3c1,0.1,2.3,0.1,3.3-0.8c0.4-0.3,0.6-0.7,0.8-1c1.4,0.3,5.2-0.1,6.3-0.9l1-0.6
		c0.4-0.3,0.8-0.7,1.2-0.8c0.3,1,0.5,1.3,0.8,2.3c0.3,1.3,0.7,3.1,2,3.6c0.3,0.1,0.5,0.3,0.8,0.4c0.9,0.3,1.3,0.2,1.9,0.3
		c0.3,0.1,0.6,0.2,0.9,0.2c1.1,0.1,3.1,0.2,4.2,0.1c0.3,0,0.3,0,0.5,0l3.4,0.1c1.2,0.2,4-0.4,4.7-0.4l2.1-0.2
		c1.3-0.3,2.3-0.6,3.6-0.7c0.8-0.1,2-0.5,2.7-0.4c0.6,0,2.4-0.5,2.9-0.7c0.5-0.3-0.3,0,0.4-0.3c1.1-0.4,3.7-1,4.7-1.6
		c0.2-0.1,0.2-0.2,0.6-0.3l2.6-1.4c0.6-0.4,1.3-0.6,1.9-1c1.6-1.1,3.2-2.1,4.8-3.2l2.5-2.2c0.4-0.7,0.7-0.7,1-1.1
		c0.4-0.6-0.3-3-0.5-3.9C201,82.2,200.7,81.1,200.4,79.9z M143.9,49.6c4-5.1,37.6-13.5,41.7-11.7c0.7,0.3,1.1,0.9,1.2,1.7
		c0,0.4,0,0.5-0.1,0.8c-0.2,1.2-1.9,2.1-2.9,2.8l-0.7,0.4c-0.9,0.4-0.8,0.5-2.3,1.1l-1.4,0.8c-0.3,0.1-0.5,0.2-0.8,0.3
		c-1.1,0.6-1,0.3-1.8,0.7c-0.2,0.1-1.2,0.7-2.3,1.1c-0.9,0.2-1,0.4-1.8,0.7c-0.7,0.2-0.9,0.5-1.5,0.7c-4.6,1.3-9.4,2.6-14.1,3.8
		c-0.7,0.2-0.9,0.1-1.5,0.2c-1.1,0.2-1.8,0.2-2.9,0.4c-1.2,0.2-3.9,0.3-5.1,0c-0.6-0.1-1.3-0.2-1.8-0.5
		C143.9,53.1,142.8,51,143.9,49.6z M130,71.6l0-0.6c0-0.9,0.1-2,0.5-2.4l0.5-1.5c0.2-0.4,0.5-0.5,0.8-0.7l0.4-0.6
		c0.2-0.2,0.1-0.2,0.2-0.4l0.9-1c0.5-0.4,1.1-1.2,2-1.8c1.2-0.8,1.4-1.1,2.7-1.4c0.9-0.2,1.4-0.4,2.3-0.3l1.3,0.4
		c0.2,0.1,0.1,0,0.3,0.2c0.5,0,0.1,0,0.4,0.1l0.3,0.2c0.7,0.4,1.3,0.5,1.5,0.7c0.1,0.1,0.3,0.2,0.4,0.3c1.2,0.6,1.7,0.9,2.1,2
		c0-0.1,0-0.2,0.1-0.2c0.2,0.7,1.2,1.8,1.6,3c0.2,0.8,0.9,3.1,0.9,3.8l-0.4,0c-1.1-0.4-2-0.6-2.3-1.9c-0.1-0.4-0.2-0.8-0.3-1.2
		c-0.4-1-1.4-2.3-2.4-2.8c-1.4-0.7-2.5-0.5-2.8-0.5l-0.9,0c-0.5,0.2-1,0.6-1.3,0.8c-0.2,0.1-0.3,0.1-0.5,0.3l-2,1.8
		c-0.2,0.2-0.4,0.4-0.6,0.7c-0.4,0.5-0.8,1.4-1,2.1c-0.1,0.1-0.1,0.4-0.2,0.6c-0.1,0.4,0.1,0.6,0,1.5c0,0.2,0,0.5,0,1
		c-1.1,0.6-2.4,2.1-3.5,0.9c-0.1,0-0.3-0.1-0.4-0.2c-0.1,0-0.3-0.1-0.4-0.3l0-0.1l0.2-0.4C130.1,72.8,130,72.2,130,71.6z
		 M148.7,83.2c0-0.1,0-0.1-0.1-0.2c-0.6-1.7-1.9-2.3-5.1-3.6c-1.6-0.1,0.8,0.2-0.7-4.2c-2.2-4.3-4.1-4.3-6-3.3
		c0.1-0.4,0.3-0.9,0.6-1.2l1.2-1.3c0.8-0.8,0.4-0.6,2.5-1.1c1-0.2,1.3-0.1,1.9,0.7c0.5,0.6,0.7,1.6,0.6,2.3c0,1.5,0.2,2.4,1.5,3.2
		c0.9,0.6,1.5,0.3,2.1,0.3c0.3,0.6,0.3,1.3,0.6,1.9c0.3,0.6,0.3,1.1,0.6,1.8c0.1,0.3,0.2,0.3,0.4,0.8c0.1,0.3,0.2,0.7,0.3,1
		c0.2,0.7,0.5,1,0.7,1.8C149.1,82.7,149.1,82.2,148.7,83.2z M148.8,87.9c-0.6,0.8-1.9,1.4-3,1.6c-0.4-0.9-1.5,0.2,1.6-1.5
		c0.4-0.4,1-1.1,1.3-2.1C149.2,86.9,149.6,86.6,148.8,87.9z M19.5,172.1c-1.8,5.4-5.1,18.8-8,23.1c-0.9,1.3-2.9,0.5-4.7-0.2
		c-5.1-2-4.2-3.9-3.2-7.5c0.9-3.3,1.8-6.5,2.7-9.8c1.4-5.6,2.6-9,3.8-14.9c0.2-1.2,0.7-4.3,1.1-5.2c0.3-0.1,0.1-0.1,0.5,0.1l4.5,2.4
		c1.8,0.8,3.9,1.6,5.8,2.2C21.9,165.4,20.4,169.3,19.5,172.1z M56.2,203.3c-0.8,2.2-1.5,2.5-4.3,2.4c-8.4-0.3-6.9-0.3-6-12.8
		c0.7-8.8,2-16.3,2.6-24.2c0.1-1.6-0.3-2,1.2-1.9c3.6,0.2,6.6,0,10.1,0C59.8,173.2,58.3,197.6,56.2,203.3z M79,172.7
		c-0.5,3.1-1,2.9-4.2,3.2c-2.6,0.2-4.4,0-4.8-2.6c-0.3-2.4-0.2-4.8,0.1-7.2l8.8-0.6C79.1,167.7,79.4,170.6,79,172.7z M115.2,188.1
		c0.1,1.5-0.2,3.7-0.9,4.8c-0.6,0.9-2,2.1-3.3,2.6c-1.2,0.5-3.5,1-4.8,0.5c-1.1-0.4-1.7-2.4-2-3.7c-0.6-1.8-2.7-17.8-2.9-19.8
		c-0.3-2.2-0.7-8.7-1.3-10.3c5.6-1.3,6.6-2.3,11-3.9L115.2,188.1z M112.1,136.1c2,3.2,2,8.3,2.1,12.5c0.2,5.7-0.5,6.1-5.9,8.7
		c-6.7,3.3-9.8,3.6-17,4.9c-1.6,0.3-4.9,0.6-6.2,1.1c-4.6,0.7-8.8,1.1-13.5,1.4c-10.2,0.5-16.8,1.6-27.8,0.3
		c-3.7-0.5-11.2-2.2-12.5-2.3c-0.6-0.5-5.2-1.3-6.5-1.6c-2-0.5-4.5-1.4-6.3-2.1c-4.5-1.8-7.7-3.8-10.6-6.2
		c-0.4-0.8,1.9-11.1,2.8-12.2c2.2,3.9,5.1,6,8.9,7.9c13.3,6.7,37,7.3,52.2,6.6c2.7-0.1,5-0.5,7.6-0.8c9.4-1.2,25.3-3.5,30.7-11.6
		C111.6,140.2,111.5,139.2,112.1,136.1z M106.8,130.7c1.8,1.2,3.1,1.8,3.7,4.4c1.3,6-5,11-10.7,13.3c-6.4,2.5-20,4.8-27.1,5.3
		L57,153.8c-11.3-0.4-37-2-44.2-12.4c-1.5-2.2-2-3.3-0.4-5.6c2.2-3.1,5.3-4.7,9.8-6.5c5.3-2.1,14.2-3.4,22.9-4.2l0.9,2.2
		c-3,0.5-5.8,1-7.1,1.1c-4.6,0.7-13,1.6-15.5,4.3c-1.8,1.9-2.2,4.9-0.7,7.5c1.1,1.8,3.1,3.5,5.2,4.6c11.5,6.4,40.6,3.6,53.1,2.1
		c5.6-0.7,11.8-1.3,15.4-4.4c1.9-1.6,2.9-4.2,1-6.9c-1.5-2.1-2.9-2.7-6.1-3.7c-0.9-0.3-1.8-0.6-2.8-0.8c-1.1-1.1-2.4-2-3.7-2.6
		c0.2-0.8,0.7-2.1,1.2-3.2C94.4,126.3,102.7,128.1,106.8,130.7z M49.2,129.1c-1.2-2.7-1.9-5.1-2.3-8.1c0.9,0.5,1.7,1.2,2.9,1.6
		c0.3,0.1,0.7,0.2,1,0.4c-0.9,0.1-1.8,0.4-2.4,0.8c0.1,0.1,0,0.1,0.2,0.2c0.7,0.4,3.4,0.8,4.2,0.8c-0.1,0.5-0.3,1-0.6,1.6l-0.4,0
		l0,0.2l0.2,0.2c-0.4,1.2-0.7,2.8-0.4,5.8c-2.2-0.1-3.4,0.3-5.2,0.8c0-0.2,0.1-0.5,0.1-0.7c1-0.7,2.6-1.1,3.8-1.4
		C50.1,130.6,49.6,129.9,49.2,129.1z M45.4,130.1c-1.7,1.1-2.1,1.9-2.2,3c-1.3,0.4-2.5,0.9-3.2,1.6c-3.9,0-9.4-0.1-12.2,0.7
		c-1.3,0.4-1,2.2-0.1,3c7.1,6.4,31,5.1,40.8,3.8c8-1,14-4,21.3-4.3c1.2-1.9,1.6-2.4,0.4-4.7c0-0.1-0.1-0.2-0.1-0.3
		c1,0.3,2.1,0.6,3.1,1c3.8,1.4,6.3,5.9,0.5,8.8c-5.6,2.7-20.8,3.9-28,4.5c-7.8,0.6-23.4,0.5-30.7-1.1c-5.8-1.3-14.8-6.2-10.9-11.8
		c1.6-2.3,9.1-3.6,12.1-4.2c3.2-0.7,6.8-1.2,10.3-1.7l0.4,1C46.5,129.5,45.7,129.9,45.4,130.1z M43,134.6L43,134.6L43,134.6
		L43,134.6z M59,132.1c4-0.4,8-0.8,12.1-1c0,0.6,0,1.2,0,1.8c-0.7,0-1.3,0-1.8,0c-2,0.1-6.6,0.6-10.3,1.4
		C59,133.4,59,132.7,59,132.1z M69,134.4c0.6,0,1.4,0,2.3,0c0.1,0.3,0.1,0.7,0.2,1l-10.8,0.1C63.7,134.9,67.1,134.5,69,134.4z
		 M71.2,129.8c-4.2,0.2-8.3,0.6-12.3,1c-0.2-1.2-0.5-2-1-4.6c0.9,0,2.3,0.3,3.3,0.4c3.6,0.3,5.6,0.1,9-0.1c0.2,0.2,0.7,0.3,1.2,0.4
		C71.3,127.8,71.2,128.8,71.2,129.8z M139,87.2c1,0.6,1.9,1.2,2.8,2c1.1,1.1,1.1,1.7-0.2,2.5c0.3,1,0.9,2.6-0.7,3.3
		c-0.5,0.2-1.3,0.3-1.8-0.2c-0.6-0.6-0.4-1.2-0.4-1.7c-0.8-0.3-1.7-0.5-1.9-1.6c-0.1-0.8,0.1-1.4,0.4-2.3c-0.3-0.1-1.5,0.3-2,0.4
		c-3.4,0.1-1.8-3.1-1.8-4.6c-1.1,0.3-4,3.2-4.1-0.2l0-1.5c0,0,0-0.1,0-0.1c-1.7,0.3-2.6,1-4.8,1.2c-1.6,0.2-3.2,0.2-4.8,0
		c-3.8-0.4-9.4-2.8-9.5-2.8c4.1,4.5,11.1,8.1,16.6,10.3c1.3,0.5,4.5,1.6,5.5,2.2l-0.9,0c-7.5-1.2-17-7.3-21.2-9.2
		c-0.6-0.3-1.1-0.6-1.7-0.6c-6.8-0.2-13-0.1-21.2-1.5c-2.8-0.5-4.7-0.9-7.7-0.9c0.2,0.3,0.5,0.4,0.8,0.6l2.2,1.3
		c0.8,0.5,2.3,1.5,2.6,2.1c-0.7,0.6-7.2,3.1-8.4,4.8c1.3-0.2,4.5-1.3,6.2-1.7c2.1-0.5,4.4-1.1,6.6-1.2c0.3,2,0.7,3.9,0.9,6
		c0.2,2.2,0.3,4.3,0.3,6.5c0,2.9-0.6,9.7-1.8,12c-1.6,3.1-3.1,6.1-4.2,9.5c-0.9,2.5-2.1,5.3-2.3,8.1c0,0.7-0.1,2.2,0.6,2.7
		c0.3-0.7,0.1-1.1,0.6-1.4c0.3-0.1,1.1,0.1,1.9,0.6l0,0l0,0c1.1,0.7,2.3,1.9,2.3,3.6L75,135.7c-1-2.6-0.7-6.4-0.6-9.2
		c0-1.2-0.4-1.6-0.6-2.7c-0.8-4.6,2.2-8.4,2.8-10.2c-3.6,1.1-4.6,6.7-5.6,9c-0.7-0.5-2.6-3.2-3.4-3.2c0.2,0.8,0.3,1.5,0.6,2.3
		c0.2,0.8,0.6,1.4,0.8,2.1c-2.4-0.2-4.5-0.3-6.9-0.6c-5.5-0.8-12.1-2.5-16.3-5.8l0.4-0.2l0.4-0.1c1.5-0.5,3.5-1.3,4.6-2.4
		c0.3-0.2,0.1,0,0.2-0.3c-1.2-1.1-4.4-2.9-5-4.2c0.6-0.5,1.3-0.9,1.6-1.7c-0.7,0.2-1.2,0.4-2.1,0.3c-0.3-0.5-0.7-1.8-1.1-2.4
		c-0.5-0.8-1-1.5-1.9-1.8c0.5,1.3,0.7,2.2,0.6,3.8c-0.7-0.1-3.2-1.8-4.6-2.1c0.3,2.9,5.5,5.8,8.1,7.1l0.6,0.5
		c-0.9,0.2-1.8,0.9-3.1,1.1c-3.3,0.7-7.1-0.6-9.1-2.9c-1.2-1.5-2.1-3.9-1.8-6.4c0.8-5.3,7.5-5,11.1-3.7c2.1,0.8,3.7,2,5.1,3.2
		c3.5,3.1,4.3,7.3,4.6,12c0.6-0.7,1.1-2.8,1.2-3.9c0.2-2.9-0.7-5.5-2.2-7.8c-0.8-1.2-1.4-1.7-2.4-2.7c-2.5-2.7-7-4.3-10.7-4.5
		c-1.9-0.1-2.9,0.3-4.5,0.4c-1.4-2.3-2.6-5.5-3.3-8.1c-0.1-0.2-0.1-0.5-0.2-0.7l-0.3-0.5c-0.3,0.2-0.4,0.3-0.5,0.8l-0.2,0.8
		c0,0-0.1,0.2-0.1,0.2c-1.3-1.2-2.4-3.3-2.7-5.2l-0.1-0.6c0-0.1-0.1-0.2-0.2-0.3c-0.8,2.9-1.4,4.7-1.1,7.9c0.1,0.8,0.4,1.9,0.4,2.5
		c-0.6-0.7-1.1-2.3-1.4-3.4c-0.3-1.4-0.4-2.9-0.2-4.4c0.2-1.6,1.7-6.1,2.5-7.1c0.6,0.9,1.2,4.4,2.1,5.9c0.9-1.4,1.1-11.2,13.5-18.2
		l0.6-0.5c-5.2,0.7-9.8,3-12.5,7.2c-0.3,0.5-0.6,1.2-1,1.7c-0.1-0.1-0.1-0.2-0.2-0.3c-0.5-0.9-0.6-2.2-0.7-3.2
		c-0.2-3.3,1-7.4,3.1-9.5c3.7-3.7,7.5-3.3,13.8-3.2l-0.7-0.4c-3.8-1.5-7.3-3.5-10.4-6c-1.3-1.1-2.3-2.3-3.2-3.7
		c-0.2-0.3-0.4-0.7-0.6-1.1c-0.2-0.4-0.4-0.9-0.6-1.1c-1.2,2.1,1.9,6.8,3.1,8.6c0.4,0.6,1.4,1.9,1.6,2.4c-3.7,1.4-4,2.3-4.8,2.6
		c-1.8-3.7-2.8-10.3-2.3-14.9c0.3-2.5,0.9-4.9,1.8-7c0.6-1.3,2.3-4.8,3.1-5.5c0.4,0.5,0.5,1.2,0.8,1.7c1.9,4,4.3,8.4,9.8,8.4
		c-0.1-0.2-0.3-0.3-0.5-0.5c-0.2-0.1-0.2-0.1-0.4-0.2c-1.7-1.2-3-2.5-4.3-4.3c-1.3-1.8-2.5-4.4-3-7c-1.2-6.6,1.4-13.7,6.8-17.7
		c0.5-0.4,1-0.7,1.4-1c0.5-0.4,0.9-0.7,1.4-1.1c4.2-3.2,10-4.9,15.5-4.2c1.8,0.2,6.6,1.3,7.5,2.3c-0.7,0.9-1,1.2-1.3,2.8
		c-0.2,0-1-0.8-1.6-1c-0.6-0.3-1.4-0.5-2.2-0.5l3,3c0.5,0.5,0.9,1,1.4,1.6c0.4,0.5,0.8,1,1.2,1.7c2.2,3.5,2.3,5.4,2.4,9.2
		c0.7-0.6,1.5-2.2,1.7-3.4c0.2-1.6-0.1-3.2-0.7-4.5c-0.8-1.8-2.8-4.8-4.6-5.7c0.4-0.9,2.1-2.1,3.3-2.6c3-1.3,6.6-1,9.3,0.7
		c1.3,0.8,1.9,1.8,2.9,2.9c8.1-2,11.5,8.3,12.5,9.7c0.5-0.6,0.5-1.4,0.4-2.4c2.2,0.4,4.5,2.3,5.5,3.4c4.6,5,6.6,12.1,6.9,19.4
		c0.6,13.1-4.4,17-16.5,18.4c-0.1-0.6,0-1.1-0.1-1.8c-0.2-0.9-0.7-1.7-1.2-2.5c-0.2-0.3-0.6-0.7-0.8-1c3.2,0.6,5.4,1.1,8.7,0.1
		c2.9-0.9,4.3-2.2,5.6-4.2c1.3-1.9,2.4-4.5,2.6-7.3c0.3-3.4-0.4-5.5-1.5-8.2c-1-2.4-2.6-4.4-4.2-5.6c-4.6-3.3-10.4-1.3-14.9,1.3
		c-3.7,2.1-3.6-1.7-3.9-4.5C83,30,82.7,31,82.5,31.5c-0.3,0.7-0.8,1.2-0.8,1.9c-0.4,4,4,7.7,4.1,11.9c-0.2-0.1-0.9-0.8-1.1-1.1
		l-3.2-3.2c-0.7-0.7-1.5-1.4-2.3-2.1c-0.4-0.3-0.7-0.6-1.2-1c-0.2-0.1-1-0.8-1.2-0.9c-1-0.4-6.9-0.4-8.3-0.4c-1.4,0.1-2.7,0.1-4,0.3
		c-1.2,0.1-2.6,0.5-3.7,0.5c0.4-1.1,3-1.4,4.3-1.8c1.7-0.5,3.1-0.9,4.7-1.5c1.7-0.6,2.7-1.2,3.8-2.4c1-1.1,1.6-2.7,1.6-4.6
		c-0.4,0.2-0.9,1.3-1.1,1.6c-0.3,0.5-0.8,1-1.2,1.4c-0.6,0.5-1.3,0.5-1.9,0c-0.6-0.5-0.6-0.8-0.8-1.8c-1-4.2-3.2-7.1-6.3-9.6
		c-5-4-10.5-3.4-15.6,0c-5.9,4-7.5,12.6-3.4,18.5c0.8,1.2,1.5,1.9,2.5,2.8c1.1,0.9,2.6,1.5,3.2,2c-0.9,1-2.5,2-3.5,3.2
		c-1.7,2.1-3.6,4.7-2.4,8.1c0.2,0.6,0.5,1,0.8,1.5c1.5,2.1,1.9,4.1,6.1,5c0.9,0.2,3.1,0.1,3.7,0.6c0.2,0.3,0.2,0.7,0.4,1
		c0.3,0.3,0.5,0.3,0.8,0.6c-1.1,0.4-5,1.7-5.6,2.9c4.1-0.3,8.5-0.3,12.5,0.1c1.9,0.2,3.8,0.4,5.7,0.7c1.5,0.2,4.3,0.9,5.4,1.1
		c0.4-2.9,0.9-5.7,0.7-8.7c-0.2-2.7-1.7-4.3-3.5-5.9c0.2-2.4,1.7-4.9,1.6-8.1c-0.6,0.3-3.6,5.5-4,6.6c-2.2,0.2-4.2,0.3-6.4,0.7
		c-1.6,0.3-1.4,0.2-2,1.6l-1.2,2.4c0,0-0.1,0.1-0.1,0.1c0-1,0.2-1.8,0.4-2.7c0.1-0.4,0.2-0.7,0.3-1.1l0.3-0.8
		c0.3-0.4,2.9-0.5,3.6-0.7c0.8-0.2,2.4-0.6,2.9-1.1c-0.4-1-0.9-2.1-0.9-3.3c0.7,0.3,2.2,1.9,4,0.2c3-2.9-2.1-5.1-2.1-1.3
		c-1.5-0.2-2.8-1.6-3.2-3c1-1.3,2.8-2.8,5.2-2.9c2.5,0,6.3,2.2,8.6,3.3c1,0.5,1.9,0.8,2.3,1.6c1,1.9-0.2,4-3.8,3.5
		c0-0.1,1.4-1.7-0.1-2.6c-1-0.6-2.2,0-2.5,0.9c-0.4,0.8-0.6,2.5,0,3.1c0.8,0.7,2.3,0.4,3.4,0.3c-0.4,0.3-1.7,1-2.2,1.4
		c-2.4,1.5-2,1.3-0.9,3c0.3,0.4,0.6,1,0.9,1.5c1.8,3.5,0.8,9.4,1.1,12.5c2.9,0.9,7,1.6,10.1,2.1c8,1.4,15.7,2.1,23.7,3.6
		c0.8,0.4,5.5,1.5,5.6,1.8c0.5,0.7,0.9,1.4,1.4,2.2c0.4,0.6,0.8,1.6,1.1,2.1c2.2-2.9,5.7-7.1,8.8-6.7c0.5,0.1,0.9,0.2,1.3,0.5
		c0.1,0,0.1,0,0.1,0.1v0l0,0c0.1,0.1,0.3,0.3,0.4,0.4c0.9,4,4.9,3.9,5.8,3.6c6.7-5.6,1.7,5.2,2.8,5c5.2-0.7,3.7-2.1,8,1.2
		c1.7,2.8-0.8,3.5-1.8,3.6C142.8,87,140.1,86.9,139,87.2z M102.7,63.6c-0.4,1.4-2,4.9-3.8,4.8c-2.6-0.2-5.1-0.8-7.6-1
		c0.3-1,1-1.4,1.2-2.8C98.1,64.9,97.5,64.7,102.7,63.6z M88.4,45.2c0.3,1,0.9,1.8,1.4,2.4c1.2,1.2,3.5,2.2,5.9,1.4
		c1.8-0.6,3.2-2,3.7-4c0.3-1.2,0.2-2.3-0.2-3.4c-0.4-1.1-1.1-1.6-1.6-2.3c2.8,0.7,5.5,3.9,5.5,7.4c0,5.5-5.6,9.2-11,7.5
		c-1.2-0.4-1.2-0.5-1.8-1.4c-0.4-0.6-0.8-1.4-1.1-2.1c-0.7-1.4-1.3-3-1.8-4.6c-0.8-2.5-0.3-2.3,0.9-4.2
		C88.3,43.1,87.9,43.6,88.4,45.2z M93.3,43.7c-3,0.7-3.3-2.6-0.5-3.2C95.7,39.9,96.1,43,93.3,43.7z M95.4,48.4
		c-1.6,0.5-2.4-1.2-0.6-1.7C96.4,46.2,96.8,47.9,95.4,48.4z M49.5,30.3c0.7,3.4,4.5,5.1,7.4,3.4c1.5-0.9,3.1-2.9,2.4-5.6
		c-0.7-2.6-2.3-3.2-4.3-3.8c0.7-0.4,2.9,0.1,3.7,0.4c3.2,1.3,5.3,4.5,5,8c-0.1,0.8-0.4,0.9-1.1,1.2c-2.7,1.1-8,1.2-9.6,5.5
		c-1-0.2-2.5-1.4-3-1.9c-4.1-4.5-1.2-9.9-0.1-10.6C49.6,28.1,49.2,28.8,49.5,30.3z M53.9,29.2c-2.5,0.8-3.4-1.9-0.8-2.7
		C55.6,25.8,56.2,28.5,53.9,29.2z M56.3,32c0.3,0.5-0.2,1-0.6,1.2c-1.2,0.5-2.4-0.6-0.9-1.4C55.2,31.6,56,31.5,56.3,32z M152.4,88.8
		c-0.1,0.2-0.2,0.4-0.3,0.6c-0.9,1.5-1.2,1.2-1.9,2c-0.3,0.4,0.1,0.1-0.4,0.4c-0.4,0.2-1,0.3-1.5,0.5c-0.6,0.2-0.1,0.1-0.6,0.3
		c-0.9,0.4-1.3,0.2-2.2,0.3c-0.3,0.1-0.5,0-0.7,0c0.6-0.8,0.9-1.2,1-2.1c1.6-0.4,3.1-0.6,4-2.1c0.6-1,0.2-1.5,0.2-2.1l-0.6-2.1
		c0.3,0,0.5,0,0.7,0.1c0.6,0.3,0.6,0.7,1.7,1.7C152.4,86.5,152.8,88,152.4,88.8z M153.6,89.7c-0.9,0.9-0.7-2.5-1.2-3.4
		c-0.1-0.2-0.6-0.9-0.3-1.2c0.1-0.1-0.3-0.2,0.3-0.1C153,85,154.4,88.9,153.6,89.7z M155.2,97.8c0.2,0.4,0.8,0.6,1.2,0.7
		C155.9,98.3,155.4,98.2,155.2,97.8z M158.9,98.8c0.7,0.1,1.5,0.2,2.2,0.3C160.4,99,159.7,98.8,158.9,98.8z M200.4,86.8
		c-0.4,0.5-1.5,1.9-2,2c-0.4,0.2-0.3,0.2-0.6,0.4c0-0.4,0.2-1.3,0.4-1.6c0.3-0.5,0.6-0.8,0.7-1.3c0-0.2,0-0.2,0.1-0.4
		c0.2-0.6,0.2-0.6,0.1-1.3l-2-8.1c-0.2-0.8-0.1-1.1-0.3-1.9l-1.5-6.2c-0.3-1-1-2.4-1.4-3.5l-0.7-1.6c-0.2-0.5-0.6-1-0.8-1.5
		c-0.2-0.6-0.4-1.3-0.7-2l0,0.3c-0.5-1.5-0.9-2.4-1.4-4l-1.9-8.1c0-0.5-0.2-1-0.3-1.6c-0.1-1,0.2-1.9-0.2-2.8
		c-1.1,0.2-2,1.7-3.4,2.7c-2.1,1.5-1.7,1.8-1.1,4.2c0.5,1.9,1,3.8,1.5,5.6c0.5,1.8,0.8,3.7,1.3,5.5c1.2,4.7,2.8,12.5,4.2,16.8
		l1.2,4.1c0.2,0.7,0,0.7,0.2,0.2c0.4,1.6,0.8,2.9,0.4,4.4l-0.6,1.4c-0.3,0.5-0.8,1-1.3,1.4c-0.6,0.5-1.2,1.2-1.8,1.6
		c-0.6,0.4-1.4,0.6-1.8,0.9c-0.5,0.4-0.8,0.7-1.5,1c-0.5,0.2-0.6,0.3-0.9,0.4c-1.3,0.6-3.3,0.8-4.5,1c-0.4,0.1-0.8,0.2-1.2,0.3
		c-0.4,0.1-0.5,0-1,0.1c-0.9,0.1-1.9,0.5-2.8,0.6c-0.4,0,0-0.1-0.5,0c-0.3,0-0.8,0.1-1.1,0.2c-0.4,0.1-0.8,0.2-1.1,0.2l-0.7-0.1
		c-0.4-0.1-0.8,0-1.2,0l-6.2-1c-0.9-0.3-1.7-0.4-2.3-1.2c-0.2-0.2-0.3-0.5-0.5-0.7c-0.2-0.2-0.1,0-0.3-0.3c-0.4-0.5-0.6-1.2-1-1.7
		c0,0,0-0.1-0.1-0.1c0,0,0,0-0.1-0.1c-1.1-1.2-1.7-3.2-2.2-4.9c-0.1-0.5-0.3-0.5-0.4-0.9L155,79c-0.1-0.5-0.2-0.4-0.4-0.9
		c-0.9-2.5-0.9-4.3-1.4-6.6c-0.2-0.7-0.4-1.5-0.5-2.2c0,0,0,0,0,0c0,0,0,0,0.1,0.1c0,0,0,0,0,0c-0.1-0.6-0.2-1.2-0.4-1.8
		c-0.2-0.8,0-0.9-0.2-1.6c-0.1-0.6-0.2-1.1-0.3-1.8c-0.1-0.3,0-0.5,0-0.8c-0.1-1.4-0.4-2.8-0.8-4.2c-0.7-2.4,0-3.5-2-3.6
		c-0.7,0-1.4,0-2-0.2l-1.2-0.5c-0.7-0.2-1.3-0.2-1.9-0.5l-1.9-1.6c-0.2-0.5-0.2-0.3-0.4-0.7c-0.2-0.3-0.2-0.4-0.3-0.8l0.3-0.3
		c0,0.5-0.1,0.5,0.2,0.9l0.2,0.3c0.4,0.5,1,0.6,1.5,0.9c0.4,0.2,0.2,0.1,0.6,0.3c0.4,0.1,0.4,0.2,0.7,0.3l3.3,0.8
		c0.1,0,0.2,0.1,0.4,0.1c1.1,0.2,2.9,0.5,4.1,0.3c0.7-0.2,2.2-0.1,2.5-0.1l2.8-0.5c1.1-0.3,3.8-1.2,4.7-1.3c0.7-0.1,1.2,0.1,2.6-0.6
		c8.9-4.3,15-2.2,23.2-12.3l0.1-0.1c1.2-1.3-0.8-1.8-1-2.1c0.5-0.1,1.1,0,1.3,0.5c0.2,0.5,0.7,2.8,0.8,3.5l0.4,4.5
		c0.4,1.9,0,0.9,0.6,3.3c0.6,2.3,1.2,4.6,1.8,7c0.3,1.2,0.6,2.4,0.9,3.5c0.2,0.7,0.4,0.7,0.6,1.5c0.2,0.6,0.3,1.1,0.4,1.7
		c0.3,1.3,0.7,1.9,1.1,3.2c0.2,0.6,0.3,1,0.5,1.5c0.2,0.5,4.6,17.9,4.7,18.3C200.5,86.7,200.5,86.7,200.4,86.8z"/>
</g>
</svg>
