<?xml version="1.0" encoding="utf-8"?>
<!-- Generator: Adobe Illustrator 24.0.3, SVG Export Plug-In . SVG Version: 6.00 Build 0)  -->
<svg version="1.1" id="Слой_1" xmlns="http://www.w3.org/2000/svg" xmlns:xlink="http://www.w3.org/1999/xlink" x="0px" y="0px"
	 viewBox="0 0 979 938.8" style="enable-background:new 0 0 979 938.8;" xml:space="preserve">
<g>
	<g>
		<path d="M744.2,938.8c-29.2-3.2-52.2-20.8-77.1-33.6c-58-29.7-115.5-60.4-173.1-90.9c-3.3-1.8-5.8-1.7-9.1,0.1
			c-72.1,38-144.2,75.8-216.3,113.8c-29,15.3-56.9,14.2-82.6-6.4c-23.3-18.7-30-43.9-24.9-73c11.1-63,21.7-126.2,32.6-189.3
			c2.8-16.6,5.6-33.1,8.6-49.6c0.7-4,0.1-6.7-2.9-9.6C141.2,543.6,83.1,486.8,24.7,430.3c-16-15.5-25-33.8-24.7-56.2
			c0.4-33.9,26.1-64.4,59.7-69.5c46.2-7.1,92.5-13.5,138.7-20.2c36.9-5.4,73.7-10.8,110.6-16c3.4-0.5,4.6-2.5,5.9-5.2
			c36.3-73.7,72.5-147.3,109-220.9c22.2-44.8,78.4-56.4,114.1-23c7.1,6.7,13,15.3,17.4,24c36.4,73,72.4,146.3,108.4,219.5
			c1.8,3.7,3.9,5.3,8.1,5.9c35.3,4.9,70.5,10.1,105.7,15.2c40.5,5.9,81,11.7,121.4,17.7c10.5,1.6,21.3,2.6,31.2,6.1
			c26.7,9.3,42.5,28.7,47.8,56.4c0.2,1.1,0.6,2.2,0.9,3.3c0,5.7,0,11.3,0,17c-0.3,0.4-0.7,0.8-0.7,1.2
			c-2.6,18.3-11.7,32.8-24.8,45.5c-58.2,56.4-116.1,113.1-174.3,169.5c-2.8,2.7-3.3,5.2-2.7,8.8c3.6,20.5,7.1,40.9,10.7,61.4
			c10.2,59.5,20.2,119,30.7,178.4c6.7,38.2-11.5,72.6-46.3,84.9c-6.8,2.4-14.2,3.2-21.3,4.7C748.2,938.8,746.2,938.8,744.2,938.8z
			 M747.1,865.8c-0.1-1.5-0.1-2.5-0.3-3.4c-3.1-18.2-6.3-36.4-9.4-54.6c-12.8-74.7-25.5-149.5-38.4-224.2c-0.6-3.3-0.2-5.4,2.3-7.8
			C759.7,518.9,818.2,462,876.5,405c9.8-9.6,19-19.9,28.2-29.7c-0.7-0.1-2.4-0.6-4.2-0.8c-49.4-7.1-98.8-14.2-148.1-21.4
			c-42.5-6.2-84.9-12.5-127.4-18.5c-4.8-0.7-7.5-2.4-9.6-6.8c-40.9-83.3-81.9-166.4-122.9-249.6c-0.8-1.7-1.7-3.3-3-5.6
			c-1.3,2.6-2.2,4.2-3,5.9c-41.2,83.5-82.4,167-123.4,250.5c-1.8,3.6-4,5-7.8,5.5c-42.3,6-84.6,12.2-126.9,18.3
			c-42.6,6.2-85.2,12.4-127.9,18.6c-9.1,1.3-18.1,2.7-26.4,3.9c7.4,7.8,14.4,15.9,22,23.3c60.5,59.1,121,118.1,181.6,177.1
			c2.2,2.1,3.2,4,2.6,7.3c-4.3,24.1-8.3,48.2-12.5,72.3c-9.5,55.2-18.9,110.5-28.4,165.7c-2.5,14.7-5.1,29.4-7.7,44.9
			c2.7-1.3,4.7-2.3,6.7-3.4c81.5-42.8,163.1-85.7,244.5-128.7c4.7-2.5,8.2-2.8,13.2-0.2c69.6,36.9,139.4,73.5,209.2,110.1
			C719,851.1,732.8,858.3,747.1,865.8z"/>
	</g>
</g>
</svg>
