<?xml version="1.0" encoding="utf-8"?>
<!-- Generator: Adobe Illustrator 24.0.3, SVG Export Plug-In . SVG Version: 6.00 Build 0)  -->
<svg version="1.1" id="Слой_1" xmlns="http://www.w3.org/2000/svg" xmlns:xlink="http://www.w3.org/1999/xlink" x="0px" y="0px"
	 viewBox="0 0 470.2 352.7" style="enable-background:new 0 0 470.2 352.7;" xml:space="preserve">
<path d="M469.9,221c-1.8-15.3-14.6-26.6-30.5-26.7c-20.3-0.1-40.6,0-60.9,0c-1.7,0-3.5-0.1-5.5-0.2c0-21.9,0-43.1,0-64.4
	c0-2.8-0.1-5.7-0.7-8.4c-3.6-15.8-17.4-25.4-33.7-23.8c-15,1.5-26.6,14.6-26.7,30.5c-0.1,15,0,29.9,0,44.9c0,6.9,0,13.9,0,21.4
	c-21.8,0-42.7,0-63.7,0c-2.8,0-5.7,0-8.4,0.5c-15.8,3.1-26.4,17.1-24.8,33c1.5,16,14.2,27.6,30.5,27.7c20.1,0.1,40.2,0,60.4,0
	c1.9,0,3.8,0,6.1,0c0,3.3,0,5.8,0,8.3c0,18.8,0,37.6,0,56.4c0,2.8,0.1,5.7,0.7,8.4c3.4,15.1,17.5,25.5,32.2,24
	c16.4-1.7,28.1-14.3,28.2-30.7c0.1-20,0-39.9,0-59.9c0-2,0-3.9,0-6.5c2.5,0,4.4,0,6.3,0c19.3,0,38.6,0,57.9,0c3.1,0,6.4-0.1,9.4-0.8
	C462.2,250.9,471.8,236.9,469.9,221z M442,235.2c-0.9,0.2-3.6,0.2-4.7,0.2c-10,0-20,0-29.9,0l-54.2,0l0,26.5c0,6,0,12.1,0,18.1
	c0,13.7,0,27.8,0,41.7c0,6.2-3.9,10.2-10.2,10.9c-0.3,0-0.5,0-0.8,0c-4.5,0-8.8-3.7-9.9-8.6c-0.2-0.7-0.2-3-0.2-4
	c0-14.2,0-28.6,0-42.5l0-42.1h-27.2c-5.7,0-11.4,0-17.1,0c-5.7,0-11.4,0-17.1,0c-9.7,0-17.6,0-24.9-0.1c-6,0-10.2-3.8-10.8-9.6
	c-0.5-5.6,3.1-10.3,8.8-11.4c0.7-0.1,2.6-0.1,4-0.1l0.7,0c10.9,0,21.8,0,32.8,0l50.9,0v-41.4c0-4.6,0-9.2,0-13.9
	c0-10.1,0-20.6,0-30.9c0-5.6,3.8-10.2,8.7-10.7c0.5-0.1,1.1-0.1,1.6-0.1c5.5,0,9.4,3.1,10.6,8.4c0.2,0.8,0.2,3.2,0.2,4
	c0,16.1,0,31.9,0,48.7l0,34.8l19.1,0.9c0.6,0,1.1,0.1,1.7,0.1c1.4,0.1,3,0.2,4.7,0.2l7.1,0c4.8,0,24,0,28.8,0c8.3,0,16.6,0,24.8,0
	c5.7,0,10.1,3.7,10.7,9C450.7,229.2,447.6,233.9,442,235.2z"/>
<path d="M31.9,61.5c35.4,0.2,70.8,0,106.2,0c35.6,0,71.2,0.1,106.7,0c13.6,0,24.8-7.9,29.3-20.1c4.4-12,1.1-25.1-8.5-33.6
	c-6.3-5.6-13.8-7.8-22-7.7c-33.6,0-67.2,0-100.8,0C106.1,0,69.4,0,32.7,0C17.7,0.1,6.1,8,1.8,20.8C-5.1,41.1,9.8,61.4,31.9,61.5z
	 M20.7,27.2c2-5.9,7.6-7.2,12-7.2c18.5,0,37,0,55.4,0l122.7,0c10.9,0,21.9,0,32.8,0c5,0,7.3,1.4,8.8,2.7c3.4,3,4.5,7.4,3,11.8
	c-1.6,4.4-5.5,7-10.6,7c-15.3,0-30.7,0.1-46,0.1c-10,0-19.9,0-29.9,0c-10,0-30.8,0-30.8,0c-10.5,0-20.9,0-31.4,0
	c-10.6,0-21.2,0-31.8,0c-16.6,0-30.3,0-42.9-0.1c-5.8,0-8.8-3-10-4.7C20.8,35.1,19.2,31.8,20.7,27.2z"/>
<path d="M275,119.7c-3.7-13.8-15.7-22.4-31.5-22.5c-40.9,0-81.8,0-122.7,0c-29.4,0-58.9,0.1-88.3,0c-11.3-0.1-20.5,4-26.9,13.3
	c-6.7,9.9-7.4,20.6-2,31.2c5.5,10.8,14.7,16.6,26.9,16.7c35.7,0.2,71.5,0.1,107.2,0.1c35.9,0,71.8,0.1,107.7,0
	C265.9,158.3,280.3,139.3,275,119.7z M201.8,138.5c-11,0-22,0-33,0c-10.3,0-20.7,0-31,0h-1.5c-9.8,0-19.5,0-29.3,0
	c-9.8,0-19.5,0-29.3,0c-18.5,0-33.4,0-47.1-0.1c-4.6,0-7-1.5-9.2-5.8c-2.1-4.1-1.9-7,0.7-10.8c1.6-2.3,3.7-4.6,10.2-4.6h0.1
	c10.4,0,21.6,0.1,35.1,0.1c9.2,0,18.3,0,27.5,0c8.6,0,17.2,0,25.8,0c0,0,60.5,0,74.6,0c16,0,32,0,48,0c6.7,0,10.9,2.6,12.2,7.7
	c1.2,4.5-0.6,7.8-1.7,9.4c-1.2,1.5-3.8,4.1-8.5,4.1C232.5,138.5,218.7,138.5,201.8,138.5z"/>
<path d="M153.7,194.4c-41.1-0.1-82.2,0-123.2,0c-2,0-4,0.2-5.9,0.6c-15.4,3.4-25.7,17.2-24.2,32.5c1.5,16.1,13.9,27.8,30.3,28
	c20.5,0.2,40.9,0.1,61.4,0.1c0,0,0,0,0,0c19.8,0,39.6,0,59.4,0c3.1,0,6.4-0.1,9.4-0.9c14.8-3.6,24.9-17.7,23.4-32.2
	C182.3,206.2,169.7,194.4,153.7,194.4z M156,235.2c-1.2,0.3-3.8,0.3-4.8,0.3c-10,0-20,0-30,0l-9.3,0v0l-20,0c-6.2,0-12.4,0-18.5,0
	c-6.1,0-12.3,0-18.4,0c-9.3,0-17,0-24.2-0.1c-6-0.1-10-3.8-10.6-9.9c-0.5-5.2,3.1-9.9,8.7-11.1c0.1,0,0.6-0.1,1.6-0.1l16.8,0
	c18.4,0,36.9,0,55.3,0c17,0,34,0,51.1,0.1c5.6,0,9.9,4.1,10.5,10.2C164.7,229.1,160.9,234,156,235.2z"/>
</svg>
