<?xml version="1.0" encoding="utf-8"?>
<!-- Generator: Adobe Illustrator 24.0.3, SVG Export Plug-In . SVG Version: 6.00 Build 0)  -->
<svg version="1.1" id="Слой_1" xmlns="http://www.w3.org/2000/svg" xmlns:xlink="http://www.w3.org/1999/xlink" x="0px" y="0px"
	 viewBox="0 0 93.1 83.3" style="enable-background:new 0 0 93.1 83.3;" xml:space="preserve">
<g>
	<g>
		<path d="M93.1,27.5c-0.1,0.8-0.2,1.6-0.3,2.4c-0.5,4.6-2,9-4,13.1c-2.9,6-6.7,11.2-11.2,16.1c-7.4,8.1-15.9,14.9-25,20.8
			c-1.6,1-3.2,1.9-4.7,2.9c-0.9,0.5-1.8,0.5-2.7,0c-11.3-6.7-21.6-14.6-30.4-24.4C10.6,53.8,7,48.8,4.3,43.1
			C2,38.6,0.6,33.8,0.1,28.7c0-0.4-0.1-0.8-0.1-1.2c0-1.1,0-2.2,0-3.3c0-0.2,0.1-0.3,0.1-0.5c0.1-0.8,0.2-1.7,0.3-2.5
			C2.1,12.7,6.8,6.5,14.5,2.6C19.4,0.2,24.6-0.7,30,0.5C36.7,2,42,5.7,46.1,11.1c0.1,0.2,0.3,0.4,0.4,0.6c0.1-0.1,0.2-0.2,0.2-0.3
			c2.5-3.6,5.7-6.4,9.6-8.4c3-1.6,6.2-2.7,9.7-2.9c4.7-0.3,9.2,0.7,13.4,2.9c7.3,4,11.8,10.2,13.3,18.4c0.2,0.9,0.2,1.8,0.4,2.7
			C93.1,25.3,93.1,26.4,93.1,27.5z M4.8,26c0.1,1.5,0.2,3,0.5,4.4C6,35,7.6,39.2,9.8,43.2C13,49,17.1,54.1,21.8,58.8
			c7.3,7.4,15.5,13.6,24.3,19c0.3,0.2,0.6,0.2,0.9,0c7.2-4.4,13.9-9.3,20.1-15c5.3-4.8,10-10,13.9-15.9c3.6-5.5,6.2-11.3,6.9-17.9
			c0.3-2.9,0.3-5.7-0.5-8.5c-1.9-6.9-6.2-11.6-12.8-14.2c-3-1.2-6.2-1.6-9.4-1.2c-2.7,0.3-5.1,1.3-7.4,2.7c-4.1,2.5-7.3,5.7-9,10.3
			c-0.4,1-1.3,1.6-2.3,1.6c-1,0-1.9-0.6-2.3-1.6c-0.2-0.5-0.4-1-0.6-1.4c-1.5-3.2-3.9-5.7-6.7-7.7c-4.6-3.3-9.6-4.7-15.2-3.5
			C11.9,7.3,4.8,16,4.8,26z"/>
	</g>
</g>
</svg>
