<?xml version="1.0" encoding="utf-8"?>
<!-- Generator: Adobe Illustrator 24.0.3, SVG Export Plug-In . SVG Version: 6.00 Build 0)  -->
<svg version="1.1" id="Слой_1" xmlns="http://www.w3.org/2000/svg" xmlns:xlink="http://www.w3.org/1999/xlink" x="0px" y="0px"
	 viewBox="0 0 520.4 746.5" style="enable-background:new 0 0 520.4 746.5;" xml:space="preserve">
<style type="text/css">
	.st0{fill:#160A0A;}
</style>
<g>
	<path class="st0" d="M520,125.4c-2.5-29-17.9-37.5-32-39.1c-0.2-2.1-0.4-4.1-0.7-6.2c-0.9-8.6-1.9-17.5-2.7-26.3
		c-0.7-7.7-4-14.2-9.6-18.8l-0.8-0.7c-4.3-3.6-9.1-7.6-14.9-9.8c-13.2-4.9-26.9-10-41.1-13.1c-40.7-8.9-82-10.3-120.7-11.1
		C286.1,0.1,274.9,0,264.1,0C220.8,0,181.5,1.7,144,5.2c-21.6,2-46.9,5-71.9,12.2c-10.4,3-22.4,6.9-32.7,15.3
		c-5.9,4.9-9,10.8-9.3,18c-0.4,9.6-1.1,19.4-1.7,28.8c-0.2,2.5-0.3,4.9-0.5,7.4c-2.6,0.8-5.3,1.6-7.9,3
		c-9.9,5.3-15.9,14.5-18.5,28.2c-3.2,17.3-0.7,34.7,1.4,48.7c1.3,8.6,5.8,14,13.8,16.6c6.2,2,12.3,3.9,18.1,5.7
		c0.5,0.1,0.9,0.3,1.4,0.4c-0.1,0.8-0.1,1.6,0,2.4c3.6,33.5,7.4,67.3,11.3,101.8c2.8,25,5.6,50,8.5,75l7.2,63.5
		c2.4,21.3,4.8,42.7,7.2,64c2,17.9,4,35.8,6,53.7c1.8,16,3.6,32,5.4,48.1c1.1,9.4,2.1,18.8,3.2,28.2c2.8,24.4,5.6,49.6,8.3,74.5
		c0.9,8.1,4.5,13.3,11.1,16.2c1.3,0.6,2.7,1.2,4,1.7c5.9,2.5,11.9,5.2,18.2,7.2c29.8,9.3,62.1,15.2,101.8,18.6
		c16.7,1.4,32,2.1,46.9,2.1c26.4,0,50.5-2.2,73.7-6.6c28.5-5.4,50.9-13.7,70.6-25.8c2.9-1.8,6.1-5.4,6.6-9.5
		c4.7-38.5,9.1-76.7,14-119.1c2.2-19.4,4.5-38.8,6.7-58.2c2.6-22.3,5.1-44.5,7.7-66.8c3-25.9,6-51.8,9.1-77.7
		c2.2-18.6,4.4-37.2,6.5-55.8c5.3-45.3,10.6-90.6,15.8-136c0.3-2.3,0.4-4.5,0.6-6.7c1.4-0.8,2.9-1.6,4.3-2.4
		c7.1-4,14.4-8.1,21.6-12.5c3-1.8,6.2-5.9,6.5-10.2c0.1-2.2,0.3-4.4,0.5-6.6C520.2,143.7,520.8,134.6,520,125.4z M50,87.3
		c0.7-11,1.3-22.4,1.9-33.6c0.1-3,1.2-4.1,2.8-4.9l1.1-0.5c6.2-3.1,12.6-6.2,19-8.3c22-7,44.7-10.1,71.9-12.7
		c37.1-3.5,75.6-5.2,117.9-5.2c10.6,0,21.6,0.1,32.8,0.3c34,0.7,73.4,2,111.8,9.7c10.9,2.2,21.9,5.7,32.5,9.1
		c1.7,0.6,3.4,1.1,5.2,1.7c2.8,0.9,5.7,2.7,8.7,4.7c0.6,0.4,1.2,0.7,1.7,1.1c4,2.5,5.8,5.8,6.3,11.2c1.8,21.6,4.1,42.8,5.9,58.8
		c0,0.2,0,0.4,0,0.5c-0.1,0-0.2,0.1-0.3,0.1c-2.3,0.8-4.5,1.6-6.8,2.4c-8,2.9-15.5,5.6-23.3,7.4c-29.2,6.6-61.4,10.7-101.5,13
		c-20.9,1.2-42.3,2.1-62.9,2.9c-9.2,0.4-18.5,0.7-27.7,1.1c-36.3-0.6-79-1.8-121.4-7.1c-24-3-43.8-6.4-62.8-13.7
		c-4.1-1.6-8.5-3.8-14-7.3c-0.1-0.2-0.2-0.5-0.3-0.7C48.8,107.3,49.4,97.1,50,87.3z M415.8,603.3c-1,8.5-1.9,16.8-2.9,25.1
		c-0.7,6.4-1.5,12.7-2.2,19.1c-1.7,15.2-3.6,30.9-5.2,46.4c-0.3,2.8-0.9,3.7-3.2,5c-20.6,11.1-43.5,18.3-70,22
		c-20.4,2.8-41.2,4.2-61.9,4.2c-44.7,0-91-6.7-137.8-19.8c-5.5-1.6-10.9-4-16.9-6.7c-0.1-0.1-0.2-0.3-0.3-0.4
		c-3.8-32.1-7.5-64.7-11-96.3l-0.6-5.4c51.3,16.7,104.5,25.1,158.1,25.1c49.8,0,101.6-7.3,154.3-21.6L415.8,603.3z M458.1,240.5
		c-1,9-2,17.8-3.1,26.6c-1.6,13.7-3.2,27.3-4.8,41c-2.2,19.2-4.5,38.5-6.7,57.7c-1.9,16.5-3.8,32.9-5.7,49.4
		c-1.9,16.4-3.8,32.9-5.7,49.3c-1.2,10.3-2.4,20.5-3.6,30.8c-2.6,22.6-5.4,45.9-8,68.9c-0.1,0.5-0.1,0.8-0.2,1
		c-0.1,0-0.3,0.1-0.5,0.2C368.3,581.1,315.9,589,264.2,589c-12.3,0-24.8-0.5-37.1-1.3c-47.5-3.4-88.7-12.2-126.1-26.9
		c-0.4-0.2-0.8-0.3-1.2-0.4l-36.6-325c76.5,16.2,145.6,24,211.1,24c64.8,0,125.2-7.6,184.3-23.1L458.1,240.5z M462.5,201.5
		c-6.6,1.6-13.2,3.2-19.7,4.8c-16.7,4.1-34,8.4-51.1,11.5c-34.5,6.2-71.2,9.2-112.3,9.2c-6.5,0-13.2-0.1-19.9-0.2
		c-47.8-1.1-91.2-5.1-132.8-12.4c-14.6-2.6-29.4-5.6-43.7-8.5c-7.8-1.6-15.8-3.2-23.7-4.7h-0.1c0-2.2-0.2-4.3-0.5-6.5
		c0.2,0,0.3,0.1,0.5,0.1c6.3,1.3,12.2,2.4,18.4,3.2c5.8,0.8,11.6,1.5,17.5,2.3c26.3,3.5,53.5,7,80.3,9.8c32.6,3.4,65.8,5,101.7,5
		c8.8,0,17.8-0.1,26.9-0.3c56.1-1.3,98.6-6.2,138-16c6.9-1.7,13.6-3.7,20.6-5.8c0.4-0.1,0.7-0.2,1.1-0.3
		C463.3,195.7,463,198.6,462.5,201.5z M498.7,138.7c-0.2,3.3-0.2,6-0.3,8.1c-0.1,2.8-0.1,5.6-0.4,6.2c-0.5,0.6-3.3,2.1-6.1,3.5
		c-1.7,0.9-3.8,1.9-6.2,3.2c-26.3,14.1-55.4,20.4-77.9,24.3c-37,6.5-77.4,9.7-123.3,9.7c-16.4,0-33.6-0.4-52.7-1.2
		c-46.5-1.9-87.4-5.7-125.1-11.6c-17.2-2.7-34.5-6.3-51.3-9.8c-7.8-1.6-15.8-3.3-23.8-4.9c-6.7-1.3-7.9-3.8-7.8-8.3
		c0.1-5-0.1-10.1-0.2-15.1c-0.2-7.1-0.3-14.4,0-21.5c0.1-2.3,1.5-5.1,2.7-7.2c-0.1,1.4-0.2,2.8-0.4,4.2c-1.2,7.8,2.9,12.3,6.1,14.9
		c11.3,9.5,24.6,14,37.2,17.6c28.5,8,57.4,11.1,84.4,13.3c28.3,2.3,58.2,3.4,88.9,3.4c19.9,0,40.9-0.5,62.2-1.5
		c41.7-1.9,90.1-4.8,137.4-15.2c9-2,17.8-5.1,26.2-8.1c2.1-0.7,4.2-1.5,6.2-2.2c3.3-1.1,6-3.2,8.5-4.9c0.4-0.3,0.8-0.6,1.1-0.8
		c5.8-4.2,8.3-10.1,7.2-17c-0.4-2.7-0.7-5.4-1-8.3c1.6,0.8,3.2,2.3,4.6,5.3C498,121.2,499.2,128.6,498.7,138.7z"/>
	<path class="st0" d="M217.8,270.1c-15.7,2.5-29.7,8.4-42.8,18.1l-2.1,1.6c-0.4,0.1-0.8,0.2-1.2,0.3c-7.9,2.5-18,6.6-25.5,15.7
		c-1.8,2.1-3.6,4.2-5.5,6.4c-3.1,3.5-6.3,7.1-9.2,11.1c-31.4,43.3-36.1,88-14,133.1c13.6,27.7,33.2,52.9,58.1,74.9
		c32.5,28.6,68.4,43.1,106.5,43.1c8.8,0,17.9-0.8,27-2.3c14.3-2.4,32.7-6.6,48.5-18.1c19.7-14.3,34.2-33.7,41.8-56
		c7.7-22.6,8-47.1,0.8-70.9c-17.1-56.8-52.5-103.5-105.4-138.9c-19.1-12.8-39.5-19.3-60.6-19.3C228.9,268.8,223.3,269.3,217.8,270.1
		z M367.2,425c9.6,24.1,9.6,47.3,0.1,68.8c-8.2,18.6-18.7,30.8-32.2,37.2c-17.1,8.2-34.6,12.3-51.8,12.3c-15.7,0-31.6-3.5-47.1-10.3
		c-38.2-16.8-68-47-91-92.5c-20.3-39.3-9.8-83.1,27.8-117.1c0.3-0.3,0.5-0.4,0.7-0.5c0.2,0.1,0.4,0.2,0.7,0.5
		c15.3,12.4,31.5,28.4,35.3,52.7c0.3,2.2,0.9,4.3,1.5,6.3c0.2,0.8,0.5,1.6,0.7,2.5c11.9,47.6,28.9,67.8,42.5,80
		c10.9,9.9,23.3,19.6,37.9,29.6c8.4,5.8,18,9.9,27.1,13.4c3.3,1.3,6.8,1.9,10.4,1.9c4.1,0,8.1-0.9,11.6-2.6l6.8-3.3l-11-13.4
		c-5.5-6.7-10.8-13.3-16.2-19.8l-0.5-0.7c-1.9-2.3-3.8-4.6-5.8-6.8c-2.5-2.8-5.2-5.5-7.7-8.1c-4.7-4.9-9.5-9.9-13.9-15.1
		c-21.2-25.1-36.8-53.6-49.1-78.1c-11.2-22.2-22.9-38.5-37-51.4c-1.3-1.2-2.7-2.4-4.1-3.5c0.9-0.4,1.7-0.8,2.6-1.1
		c3.4-1.5,6.5-2.9,9.7-3.7c6-1.4,12-2.2,17.9-2.2c15.5,0,30.8,5,45.6,14.7C319,341.3,348.8,378.4,367.2,425z"/>
	<path class="st0" d="M425.7,58.2V46.6c-54-13.9-110.2-20.9-166.8-20.9c-56.3,0-115,6.9-174.6,20.6L84.2,58
		c57.6,14.4,115.7,21.7,172.5,21.7C313.2,79.7,370,72.5,425.7,58.2z M257.7,47.8c27.2,0,54.4,1.6,81.5,4.8
		c-27,3.4-54.3,5.1-81.7,5.1c-27.1,0-54.9-1.7-82.9-5C202.5,49.4,230.3,47.8,257.7,47.8z"/>
</g>
</svg>
