<?xml version="1.0" encoding="utf-8"?>
<!-- Generator: Adobe Illustrator 24.0.3, SVG Export Plug-In . SVG Version: 6.00 Build 0)  -->
<svg version="1.1" id="Слой_1" xmlns="http://www.w3.org/2000/svg" xmlns:xlink="http://www.w3.org/1999/xlink" x="0px" y="0px"
	 viewBox="0 0 529.1 529.7" style="enable-background:new 0 0 529.1 529.7;" xml:space="preserve">
<g>
	<path d="M524.1,456.7c-4.5-4.9-9.2-9.6-13.9-14.3c-28-28.1-56-56.1-84.1-84.2c-18.1-18.2-36.2-36.4-54.5-54.4
		c-9.8-9.7-23.7-9.8-33.7-0.6c-1,1-2.2,1.8-2.8,2.4c-11.3-11.3-22.3-22.2-33.5-33.4c28-37.7,40-80.1,33.4-127.1
		c-6.6-47.1-29.4-84.9-67.7-113C200-17,105.2-9.5,46.1,52.7c-55.6,58.6-62.4,151-12.1,217.5c25,33,57.9,54.4,98.4,63
		c51.2,10.9,97.8-0.3,140.1-31.7c10.2,10.3,20.3,20.4,30.4,30.6c0.9,0.9,1.7,1.9,2.6,2.9c-0.4,0.6-0.6,1.1-0.9,1.4
		c-11.8,13.2-11.6,25.1,0.9,37.6c22.7,22.8,45.4,45.5,68.2,68.3c26.5,26.5,52.9,53.1,79.5,79.5c10,9.9,23.8,10.5,33.6,1.1
		c12.3-11.8,24.3-23.8,36-36.1C530.8,478.7,531.2,464.2,524.1,456.7z M168.3,312.6C88.4,312.5,24.7,248,24.8,167.2
		C24.9,88.5,89.6,24.7,169.1,24.8c79,0.1,142.9,64.5,143.1,143.8C312.5,249.3,246.5,312.6,168.3,312.6z M508,462.8
		c-2.9-1.9-5.4-4.3-7.9-6.8c-26.7-27-53.4-54-80.2-80.9c-17.8-18-35.8-35.8-53.7-53.7c-0.9-0.9-2.2-1.7-2.7-2.9
		c-0.6-1.3-0.4-2.9-0.6-4.3c1.5,0.1,3.4-0.3,4.3,0.5c2.9,2.4,5.5,5.3,8.2,8c41.2,41.3,82.4,82.5,123.6,123.7
		c3.5,3.5,7.3,6.7,10.8,10.1c1.1,1.1,1.8,2.7,3.5,5.4C510.9,462.4,508.9,463.4,508,462.8z"/>
	<path d="M59.8,207c-16.6-47.2-8.1-91.2,21-131.5c-35.7,31-49.7,86.2-34.2,133.2c16.4,49.3,59.8,83.5,112.5,87.7
		C110.4,282.9,76.3,254,59.8,207z"/>
</g>
</svg>
