<?xml version="1.0" encoding="utf-8"?>
<!-- Generator: Adobe Illustrator 24.0.3, SVG Export Plug-In . SVG Version: 6.00 Build 0)  -->
<svg version="1.1" id="Слой_1" xmlns="http://www.w3.org/2000/svg" xmlns:xlink="http://www.w3.org/1999/xlink" x="0px" y="0px"
	 viewBox="0 0 511.7 419.5" style="enable-background:new 0 0 511.7 419.5;" xml:space="preserve">
<path d="M476.5,2.8c-19.2-7-40.5-0.5-54.5,16.8c-53.4,65.9-106.8,131.7-160.2,197.6c-18.8,23.2-37.6,46.3-56.8,70
	c-1.3-1.6-2.3-2.8-3.2-3.9c-19.3-25.1-38.6-50.1-57.9-75.2c-17.7-23-35.2-46.1-53.1-68.9c-15.9-20.3-43.5-25.9-65-13.6
	c-27.7,15.7-34.2,50.7-14.2,76.7C51.7,254.3,91.9,306.4,132,358.5c10.6,13.7,20.9,27.6,31.7,41.2c20.2,25.5,57.7,26.5,78.5,2.2
	c3.2-3.8,5.4-8.4,8.5-12.3c21.3-26.5,42.7-52.8,64.1-79.2c61.9-76.3,123.8-152.7,185.8-229c6.9-8.4,10.8-18,11.1-28.8
	C512.4,30.2,498.5,10.8,476.5,2.8z"/>
</svg>
