<?xml version="1.0" encoding="utf-8"?>
<!-- Generator: Adobe Illustrator 24.0.3, SVG Export Plug-In . SVG Version: 6.00 Build 0)  -->
<svg version="1.1" id="Слой_1" xmlns="http://www.w3.org/2000/svg" xmlns:xlink="http://www.w3.org/1999/xlink" x="0px" y="0px"
	 viewBox="0 0 884.9 795.3" style="enable-background:new 0 0 884.9 795.3;" xml:space="preserve">
<g>
	<g>
		<path d="M732.7,736.5c-83.4-29.2-164.8-64.9-247.5-96.7c-4.6-1.8-6.9-1-9.8,2.7c-38.2,46.9-76.5,93.7-114.8,140.6
			c-5.2,6.3-10.7,12-19.6,12.2c-9.2,0.2-17.3-5.5-20.8-15.1c-8.8-24.1-17.5-48.2-26.2-72.4c-14.3-39.6-28.7-79.2-42.9-118.9
			c-5.5-15.5-16.1-25.4-31.3-31.4c-67.3-26.4-134.5-53.1-201.7-79.7c-11.3-4.5-17.7-13-18.1-25.2c-0.4-11.9,5.2-20.7,15.9-26.2
			c203.9-103.3,407.9-206.3,611.8-309.6C703,78.8,778.2,40.8,853.4,2.7c16.1-9.3,35.9,6.6,31,24.3c-41.2,227.6-82.2,455.3-123.2,683
			C758.3,726.1,747.8,735.8,732.7,736.5z M867.5,35.1c-0.4-0.2-0.7-0.4-1.1-0.6c-151,186.8-302.1,373.6-453.2,560.4
			c103.3,42.2,208.2,82.2,312,123.8c11.8,4.6,19,0.6,21.3-11.9C786.9,482.9,827.4,259,867.5,35.1z M855.5,19.7
			c-0.2-0.3-0.3-0.6-0.5-0.8c-277.2,139.8-554,280.4-831.2,420.2c-5.5,2.8-9.2,6.7-8.8,13.2c0.3,6.3,4.1,9.9,9.7,12.1
			c74,29.9,148.2,56.4,221.5,89.1C448.7,376.1,652.1,197.9,855.5,19.7z M807.4,83.5c-0.3-0.3-0.6-0.6-0.8-0.9
			C622.9,243.5,439.2,404.4,256,564.9c30.7,68.1,51.3,140.1,78.2,209.9c1.2,3.3,3.1,5.6,6.9,5.2c3.8-0.3,5.4-2.9,6-6.3
			c9.8-47.6,19.8-95.2,29.4-142.9c2.4-11.9,6.2-22.7,14.2-32.4C530.2,427.2,668.4,255,807.4,83.5z M464.7,632
			c-17.3-6.9-33.8-13.5-50.4-20c-10.8-4.2-18.3-0.1-20.6,11.3c-8.7,41.9-17.3,83.9-26.1,125.8c0.3,0.2,0.7,0.3,1,0.5
			C400.5,710.5,432.4,671.6,464.7,632z"/>
	</g>
</g>
</svg>
