<svg width="28" height="27" viewBox="0 0 28 27" fill="none" xmlns="http://www.w3.org/2000/svg">
<path d="M20.1833 8.2125V9.675C20.1833 10.0125 19.95 10.2375 19.6 10.2375H18.0833C17.7333 10.2375 17.5 10.0125 17.5 9.675V8.2125C17.5 7.875 17.7333 7.65 18.0833 7.65H19.6C19.8333 7.65 20.1833 7.875 20.1833 8.2125ZM14 16.5375C15.75 16.5375 17.15 15.1875 17.15 13.5C17.15 11.8125 15.75 10.4625 14 10.4625C12.25 10.4625 10.85 11.8125 10.85 13.5C10.85 15.1875 12.25 16.5375 14 16.5375ZM19.0167 12.825C19.0167 13.05 19.0167 13.275 19.0167 13.5C19.0167 16.2 16.8 18.3375 14 18.3375C11.2 18.3375 8.98333 16.2 8.98333 13.5C8.98333 13.275 8.98333 13.05 8.98333 12.825C8.98333 12.6 9.1 12.375 9.1 12.15H7.81667V18.7875C7.81667 19.125 8.05 19.35 8.4 19.35H19.3667C19.7167 19.35 19.95 19.125 19.95 18.7875V12.15H18.6667C18.9 12.375 18.9 12.6 19.0167 12.825ZM28 13.5C28 20.925 21.7 27 14 27C6.3 27 0 20.925 0 13.5C0 6.075 6.3 0 14 0C21.7 0 28 6.075 28 13.5ZM22.1667 7.425C22.1667 6.4125 21.35 5.625 20.3 5.625H7.7C6.65 5.625 5.83333 6.4125 5.83333 7.425V19.575C5.83333 20.5875 6.65 21.375 7.7 21.375H20.3C21.35 21.375 22.1667 20.5875 22.1667 19.575V7.425Z" fill="white"/>
</svg>
