<svg width="28" height="28" viewBox="0 0 28 28" fill="none" xmlns="http://www.w3.org/2000/svg">
<path d="M14 0C6.3 0 0 6.3 0 14C0 21.7 6.3 28 14 28C21.7 28 28 21.7 28 14C28 6.3 21.7 0 14 0ZM21.35 18.9H19.1333C17.85 18.9 17.7333 18.2 16.6833 17.15C15.75 16.2167 15.2833 16.9167 15.2833 18.2C15.2833 18.55 15.1667 18.7833 14.7 18.7833C13.4167 18.7833 11.55 19.0167 9.68333 16.9167C7.81667 14.9333 5.83333 10.7333 5.83333 10.3833C5.83333 10.15 6.06667 10.0333 6.41667 10.0333H8.63333C9.21667 10.0333 9.21667 10.2667 9.45 10.7333C10.15 12.25 11.7833 15.4 12.25 13.65C12.4833 12.6 12.6 10.3833 11.55 10.15C10.85 10.0333 11.9 9.33333 13.4167 9.33333C13.7667 9.33333 14.2333 9.33333 14.7 9.45C15.5167 9.68333 15.5167 10.0333 15.5167 10.5C15.5167 12.4833 15.2833 13.7667 15.75 14.1167C16.2167 14.4667 17.5 12.3667 18.2 10.7333C18.4333 10.2667 18.4333 10.0333 18.9 10.0333H21.5833C22.9833 10.0333 21.35 12.0167 20.1833 13.65C19.25 14.9333 19.25 14.9333 20.4167 15.9833C21.2333 16.8 22.1667 17.7333 22.1667 18.3167C22.1667 18.6667 21.9333 18.9 21.35 18.9Z" fill="white"/>
</svg>
