<?xml version="1.0" encoding="utf-8"?>
<!-- Generator: Adobe Illustrator 24.0.3, SVG Export Plug-In . SVG Version: 6.00 Build 0)  -->
<svg version="1.1" id="Слой_1" xmlns="http://www.w3.org/2000/svg" xmlns:xlink="http://www.w3.org/1999/xlink" x="0px" y="0px"
	 viewBox="0 0 39.9 40" style="enable-background:new 0 0 39.9 40;" xml:space="preserve">
<style type="text/css">
	.st0{fill:#240C04;}
</style>
<g>
	<path class="st0" d="M28.8,10.7c-3.9,1.5-7.6,3-11.6,4.5c-3.2,1.2-6.6,2.5-9.8,3.9c-0.6,0.2-1.1,0.9-1.6,1.4c0.6,0.2,1,0.6,1.6,0.9
		c1.2,0.4,2.5,0.9,3.9,1.1c0.7,0.1,1.7,0.1,2.2-0.4c3.7-2.2,7.6-4.7,11.3-7.1c0.4-0.2,0.9-0.4,1.2-0.6c0.1,0.1,0.1,0.2,0.2,0.4
		c-3.5,3.1-7,6.4-10.7,9.7c3.2,2.4,6.2,4.6,9.3,6.9c1,0.7,1.9,0.4,2.1-1c1.4-6,2.6-12,3.9-17.9C31.2,10.7,30.4,10.1,28.8,10.7z"/>
	<path class="st0" d="M39.9,9.3C39.9,3.7,36,0,30.4,0H9.3C4.3,0,0.7,3.2,0,8.1v24.1C0.7,37,4.2,40,9.5,40h20.8
		c5.9,0,9.6-3.9,9.6-9.6c0-3.5,0-7,0-10.5C39.9,16.4,40,12.8,39.9,9.3z M37.9,30.8c0,4.1-2.9,6.9-7,7c-3.7,0-7.4,0-11,0
		c-3.5,0-7,0-10.6,0c-4.4,0-7.2-2.9-7.2-7.4c0-7,0-14.1,0-21.1c0-4.2,2.9-7.2,7.4-7.2c7,0,14.1,0,21.2,0c4.2,0,7.2,2.9,7.2,7.1
		C37.9,16.4,37.9,23.6,37.9,30.8z"/>
</g>
</svg>
