<svg width="40" height="40" viewBox="0 0 40 40" fill="none" xmlns="http://www.w3.org/2000/svg">
<path d="M0 20.0623C0 16.4486 0 12.8349 0 9.34579C0 3.98754 3.86293 0.124611 9.09657 0C16.324 0 23.5514 0 30.7788 0C35.8879 0 39.8754 3.73832 39.8754 8.84735C40 16.1994 40 23.5514 39.8754 30.9034C39.7508 36.1371 36.0125 39.7508 30.7788 39.8754C23.5514 39.8754 16.324 39.8754 9.09657 39.8754C3.73832 39.8754 0 36.0125 0 30.6542C0 27.0405 0 23.5514 0 20.0623ZM20.0623 37.757C23.5514 37.757 27.0405 37.757 30.5296 37.757C35.0156 37.757 37.8816 34.891 37.8816 30.5296C37.8816 23.5514 37.8816 16.4486 37.8816 9.4704C37.8816 4.98442 35.0156 2.11838 30.5296 2.11838C23.5514 2.11838 16.4486 2.11838 9.4704 2.11838C4.98442 2.24299 2.11838 5.10903 2.11838 9.59502C2.11838 16.5732 2.11838 23.5514 2.11838 30.5296C2.11838 35.0156 4.98442 37.8816 9.4704 37.8816C13.0841 37.8816 16.5732 37.757 20.0623 37.757Z" fill="#240C04"/>
<path d="M31.7755 20.5607C32.0247 21.6822 32.274 22.6791 32.6478 23.8006C33.5201 26.2928 32.7724 29.2835 30.654 31.1526C28.5356 33.1464 25.6696 33.6448 23.1774 32.5234C22.5543 32.2741 21.8067 32.1495 21.1836 32.1495C13.3331 32.648 7.60105 26.9159 7.97489 19.0654C7.97489 18.3177 7.85028 17.5701 7.60105 16.947C6.47956 14.4548 7.10261 11.3396 9.22099 9.22117C11.2148 7.22741 14.33 6.60435 16.6976 7.60124C17.4453 7.97507 18.4422 8.09968 19.1898 8.09968C26.4173 7.60124 32.1493 13.2087 31.7755 20.5607ZM19.4391 11.9626C17.9437 12.5857 16.3238 12.9595 14.9531 13.8318C12.8347 15.2025 12.8347 17.9439 14.8285 19.5639C16.0746 20.4361 17.5699 20.9346 18.9406 21.433C19.8129 21.8068 20.9344 21.8068 21.8067 22.1807C22.3051 22.4299 22.8035 23.0529 22.8035 23.4268C22.8035 23.9252 22.3051 24.6729 21.8067 24.7975C20.0621 25.6698 18.4422 25.1713 17.0715 23.676C16.3238 22.8037 15.4515 22.4299 14.5792 23.4268C13.707 24.4237 14.33 25.1713 15.0777 25.7944C17.0715 27.4143 19.4391 28.0374 21.9313 27.4143C24.5481 26.9159 26.168 25.4205 26.4173 23.4268C26.5419 21.5576 25.2958 19.9377 22.6789 19.0654C21.3082 18.567 19.8129 18.4424 18.3176 17.8193C17.6945 17.5701 16.9468 16.8224 16.9468 16.4486C17.0715 15.8255 17.8191 15.0779 18.4422 14.9533C20.0621 14.3302 21.5574 14.9533 22.6789 16.324C23.4266 17.1963 24.2989 17.4455 25.1712 16.5732C26.0434 15.5763 25.545 14.8287 24.6727 14.2056C23.302 12.8349 21.5574 12.2118 19.4391 11.9626Z" fill="#240C04"/>
</svg>
