<svg width="40" height="40" viewBox="0 0 40 40" fill="none" xmlns="http://www.w3.org/2000/svg">
<path d="M39.8754 20.0623C39.8754 23.5514 39.8754 27.0405 39.8754 30.5296C39.8754 36.0125 36.1371 39.8754 30.6542 39.8754C23.5514 39.8754 16.4486 39.8754 9.3458 39.8754C3.73832 39.8754 0 36.0125 0 30.5296C0 23.4268 0 16.324 0 9.34579C0 3.73832 3.86293 0 9.47041 0C16.5732 0 23.676 0 30.6542 0C36.1371 0 39.8754 3.86293 39.8754 9.34579C40 12.9595 39.8754 16.4486 39.8754 20.0623ZM20.1869 2.11838C16.5732 2.11838 12.9595 2.11838 9.22118 2.11838C5.10904 2.11838 2.11838 4.98442 2.11838 9.22118C2.11838 16.4486 2.11838 23.5514 2.11838 30.7788C2.11838 34.891 4.98442 37.757 9.09657 37.757C16.324 37.757 23.5514 37.757 30.7788 37.757C34.891 37.757 37.757 34.7664 37.757 30.7788C37.757 23.5514 37.757 16.4486 37.757 9.22118C37.757 4.98442 34.7664 2.11838 30.5296 2.11838C27.1651 2.11838 23.676 2.11838 20.1869 2.11838Z" fill="#240C04"/>
<path d="M10.5918 35.0156C11.7132 31.4019 10.0933 29.2835 8.09954 26.7913C3.86278 21.6822 4.85967 14.3302 9.71948 9.71962C15.5762 4.23676 25.1712 4.48598 30.6541 10.3427C34.2678 14.2056 35.3893 18.9408 33.3955 23.9252C31.1525 29.4081 26.7911 32.1495 21.059 32.648C20.3114 32.7726 19.5637 32.7726 18.9407 32.648C16.4485 31.9003 14.3301 32.7726 12.3363 34.1433C12.0871 34.3925 11.5886 34.5171 10.5918 35.0156ZM21.3083 23.9252C23.8005 21.3084 25.9189 19.0654 28.1618 16.6978C28.0372 16.5732 28.0372 16.4486 27.9126 16.4486C26.6665 17.1963 25.2958 17.8193 24.0497 18.6916C22.8036 19.5639 21.8067 19.6885 20.8098 18.3178C20.1868 17.4455 19.3145 16.6978 18.4422 15.7009C15.95 18.3178 13.707 20.6854 11.464 23.1776C11.5886 23.3022 11.5886 23.3022 11.7132 23.4268C13.707 22.3053 15.7008 21.3084 17.8192 20.1869C18.4422 20.81 19.0653 21.433 19.5637 22.0561C20.1868 22.5545 20.6852 23.1776 21.3083 23.9252Z" fill="#240C04"/>
</svg>
