<svg width="40" height="40" viewBox="0 0 40 40" fill="none" xmlns="http://www.w3.org/2000/svg">
<path d="M40.0001 19.9377C40.0001 23.5514 40.0001 27.1651 40.0001 30.6542C40.0001 35.8879 36.2618 39.8754 31.0281 39.8754C23.6761 40 16.3241 40 9.09667 39.8754C3.98764 39.8754 0.124708 36.0125 0.124708 30.9034C9.73474e-05 23.5514 9.73474e-05 16.324 0.124708 8.97196C0.124708 3.73832 4.11225 0 9.34589 0C16.4487 0 23.5515 0 30.6543 0C36.1372 0 40.0001 3.86293 40.0001 9.34579C40.0001 12.8349 40.0001 16.4486 40.0001 19.9377ZM2.24309 19.9377C2.24309 23.4268 2.24309 26.7913 2.24309 30.2804C2.24309 30.405 2.24309 30.5296 2.24309 30.5296C2.3677 34.891 5.10913 37.757 9.4705 37.757C16.5733 37.757 23.6761 37.757 30.6543 37.757C35.0157 37.757 37.8817 34.7664 37.8817 30.405C37.8817 23.4268 37.8817 16.4486 37.8817 9.4704C37.8817 5.10903 35.1403 2.11838 30.7789 2.11838C23.6761 2.11838 16.4487 2.11838 9.34589 2.11838C4.98452 2.24299 2.24309 5.10903 2.24309 9.4704C2.24309 12.9595 2.24309 16.4486 2.24309 19.9377Z" fill="#240C04"/>
<path d="M7.72609 32.5233C7.8507 31.9003 7.8507 31.5265 7.97532 31.1526C8.84759 28.5358 9.09681 26.0436 8.09993 23.1776C6.23077 17.4455 9.09681 11.3395 14.3305 8.4735C19.5641 5.60746 26.1685 6.85357 30.156 11.3395C34.0189 15.7009 34.3928 22.4299 30.9037 27.2897C27.4146 32.1495 21.0594 33.8941 15.452 31.7757C14.5797 31.4019 13.5828 31.4019 12.5859 31.5265C11.0906 31.6511 9.59525 32.1495 7.72609 32.5233ZM10.5921 29.7819C13.0843 28.785 15.2027 29.4081 17.4457 30.1557C22.1809 31.7757 27.1653 29.6573 29.7822 25.4205C32.399 21.1838 31.7759 15.9501 28.4115 12.3364C25.047 8.72273 19.6887 7.85045 15.3273 10.2181C10.966 12.5857 8.72298 17.4455 9.84447 22.3053C10.4675 24.6729 12.3367 26.9159 10.5921 29.7819Z" fill="#240C04"/>
<path d="M24.1746 26.1682C23.0531 25.7944 22.1809 25.5452 21.3086 25.1713C18.5672 23.8006 16.4488 21.8069 14.7042 19.3146C13.832 18.0685 13.3335 16.5732 14.2058 15.0779C14.455 14.7041 14.8288 14.2056 15.0781 14.2056C16.698 13.9564 17.0718 15.4517 17.8195 16.324C18.4426 17.0717 17.9441 17.5701 17.4457 18.0685C17.1964 18.3178 17.0718 19.19 17.3211 19.4393C18.1933 20.4361 19.1902 21.433 20.1871 22.3053C21.0594 22.9284 21.9316 23.1776 22.6793 21.9315C22.8039 21.6822 23.5516 21.6822 23.9254 21.6822C24.2993 21.6822 24.5485 21.9315 24.7977 22.1807C25.5454 22.6791 26.9161 23.1776 26.293 24.2991C26.0438 25.1713 24.9223 25.6698 24.1746 26.1682Z" fill="#240C04"/>
</svg>
