<?xml version="1.0" encoding="utf-8"?>
<!-- Generator: Adobe Illustrator 24.0.3, SVG Export Plug-In . SVG Version: 6.00 Build 0)  -->
<svg version="1.1" id="Слой_1" xmlns="http://www.w3.org/2000/svg" xmlns:xlink="http://www.w3.org/1999/xlink" x="0px" y="0px"
	 viewBox="0 0 39.9 39.9" style="enable-background:new 0 0 39.9 39.9;" xml:space="preserve">
<style type="text/css">
	.st0{fill:#240C04;}
</style>
<g>
	<path class="st0" d="M30.5,0C23.4,0,16.3,0,9.2,0C3.7,0,0,3.9,0,9.3v10.6v10.7c0.1,5.4,4,9.2,9.3,9.2h21.3c5.2,0,9.2-3.9,9.2-9.2
		c0-7.1,0-14.2,0-21.3C39.9,3.9,36,0,30.5,0z M37.8,30.7c0,4.1-2.7,7.1-6.9,7.1c-7.2,0.1-14.6,0.1-21.8,0c-4.2-0.1-7-3.1-7-7.2
		c0-7,0-14.1,0-21.1C2.1,5,5,2.1,9.5,2c7,0,14.1,0,21.2,0c4.2,0.1,7.1,3,7.1,7.4c0,3.5,0,7.1,0,10.6C37.8,23.6,37.9,27,37.8,30.7z"
		/>
	<path class="st0" d="M29.9,22.5c-1.4-1.4-1.4-1.5-0.2-3.1c1.1-1.6,2.1-3.2,3.1-4.7c0.5-0.9,0.1-1.4-0.7-1.4c-1.2,0-2.6-0.1-3.9,0
		c-0.5,0.1-1.1,0.6-1.5,1.1c-0.6,1.1-1.1,2.4-1.9,3.4c-0.5,0.7-1.4,1.2-2.1,2c-0.2-0.9-0.5-1.7-0.6-2.7c-0.1-4.5-0.7-5-5.2-4.2
		c-0.4,0.1-0.9,0.4-1.1,0.5c0.5,0.6,1.1,1.1,1.2,1.7c0.1,1.2,0.1,2.5,0.1,3.7c0,0.4-0.2,0.9-0.5,1c-0.2,0.1-0.9-0.2-1.1-0.5
		c-0.7-1-1.6-2-2-3.1c-0.7-2.6-2.6-3.1-5-2.9c-0.2,0-0.4,0-0.6,0c-1,0-1.2,0.4-0.7,1.2c2,3.4,3.6,6.9,6.1,9.6c1.9,2,4,3.2,6.7,3.2
		c2.1,0.1,2.1,0.1,2.5-2.1c0.2-1.4,1-1.6,2-0.7c0.1,0.1,0.2,0.1,0.2,0.2c1.7,2.7,4.4,2.7,7.1,2.5c1.2-0.1,1.6-0.6,0.9-1.6
		C31.9,24.5,30.9,23.5,29.9,22.5z"/>
</g>
</svg>
