<?xml version="1.0" encoding="utf-8"?>
<!-- Generator: Adobe Illustrator 24.0.3, SVG Export Plug-In . SVG Version: 6.00 Build 0)  -->
<svg version="1.1" id="Слой_1" xmlns="http://www.w3.org/2000/svg" xmlns:xlink="http://www.w3.org/1999/xlink" x="0px" y="0px"
	 viewBox="0 0 298.7 298.4" style="enable-background:new 0 0 298.7 298.4;" xml:space="preserve">
<path d="M286.7,133.2H164.1V10.6c0-6.6-5.4-12-12-12h-6c-6.6,0-12,5.4-12,12v122.6H11.4c-6.6,0-12,5.4-12,12v6c0,6.6,5.4,12,12,12
	h122.6v122.6c0,6.6,5.4,12,12,12h6c6.6,0,12-5.4,12-12V163.2h122.6c6.6,0,12-5.4,12-12v-6C298.7,138.6,293.3,133.2,286.7,133.2z"/>
</svg>
