<?xml version="1.0" encoding="utf-8"?>
<!-- Generator: Adobe Illustrator 24.0.3, SVG Export Plug-In . SVG Version: 6.00 Build 0)  -->
<svg version="1.1" id="Слой_1" xmlns="http://www.w3.org/2000/svg" xmlns:xlink="http://www.w3.org/1999/xlink" x="0px" y="0px"
	 viewBox="0 0 19 21.1" style="enable-background:new 0 0 19 21.1;" xml:space="preserve">
<path d="M14.9,13.5c-0.9,0-1.8,0.3-2.5,0.8L8,11.5c0.1-0.3,0.1-0.6,0.1-0.9c0-0.3,0-0.6-0.1-0.9l4.8-2.9c0.6,0.5,1.4,0.8,2.2,0.8
	c2.2,0,4-1.7,4-3.8C19,1.7,17.2,0,15,0s-4,1.7-4,3.8c0,0.4,0.1,0.8,0.2,1.2L6.5,7.7C5.8,7.2,4.9,6.9,4,6.9c-2.2,0-4,1.7-4,3.8
	s1.8,3.8,4,3.8c0.9,0,1.8-0.3,2.5-0.8l4.5,2.7c-0.1,0.3-0.1,0.6-0.1,0.9c0,2.1,1.8,3.8,4,3.8s4-1.7,4-3.8
	C18.9,15.2,17.1,13.5,14.9,13.5z M15,2.5c0.8,0,1.4,0.6,1.4,1.3c0,0.7-0.6,1.3-1.4,1.3s-1.4-0.6-1.4-1.3C13.6,3.1,14.2,2.5,15,2.5z
	 M4,11.9c-0.8,0-1.4-0.6-1.4-1.3c0-0.7,0.6-1.3,1.4-1.3s1.4,0.6,1.4,1.3C5.4,11.4,4.8,11.9,4,11.9z M15,18.6c-0.8,0-1.4-0.6-1.4-1.3
	c0-0.8,0.6-1.3,1.4-1.3s1.4,0.6,1.4,1.3C16.4,18,15.8,18.6,15,18.6z"/>
</svg>
