<?xml version="1.0" encoding="utf-8"?>
<!-- Generator: Adobe Illustrator 24.0.3, SVG Export Plug-In . SVG Version: 6.00 Build 0)  -->
<svg version="1.1" id="Слой_1" xmlns="http://www.w3.org/2000/svg" xmlns:xlink="http://www.w3.org/1999/xlink" x="0px" y="0px"
	 viewBox="0 0 763.5 762.8" style="enable-background:new 0 0 763.5 762.8;" xml:space="preserve">
<path d="M763.3,81.3c-0.8,200.9,1.5,402.2-0.8,603c-3.4,27.1-15.2,49.3-38.8,64.1c-16.2,10.1-34.1,13.8-53,13.8
	c-200.9-2.1-402.3,4.2-602.9-2.5c-29.5-5.6-50.3-21.9-60.4-50.8C-8.3,505.5,6.6,298.3,1.7,93.6C-1.1,43.3,31.5,3.5,82.5,0.5
	C285.8,1.9,489.6-2.3,692.7,2C735.1,6.7,760.2,40.5,763.3,81.3z M385.5,724C385.5,724,385.5,724,385.5,724
	c94.9-1.8,190.4,3.8,285-2.4c26.7-5.3,44.5-20.9,51.1-47.6c9.8-180.7,0.7-363.1,3.6-544.4c0.9-31.8-11.1-62.3-39.5-78.9
	c-15-9.1-31.7-12.2-49.1-12.2c-174.5,0.8-349.2-1.5-523.7,0.9C84.4,42.8,62.1,55.7,49,82c-6.8,13.7-9.2,28.4-9.2,43.7
	c0,170.6-0.1,341.1,0.1,511.7C39,674,53.3,712.8,93.2,720.2C189.9,729.7,288.2,721.4,385.5,724z"/>
<path d="M433.9,649.8c-131.3-62-281.6-268.3-287.7-415.1c-3.1-61.2,57.7-96.3,98-132.3c13.5-9.8,30.6-18.4,43.6-3.2
	c34.8,40.3,57.4,92.2,67.9,144.1c3.6,30.6-31.8,34.6-54,39.3c-8.4,2.1-11.1,6-8.2,14.2c5,14,10.5,27.9,16.7,41.4
	c25.6,54.5,62.5,102.1,111.1,137.9c11.3,8.4,15.6-7.8,21-14.9c4.8-6.5,9.5-13.3,15.1-19.1c28.2-28.1,61.7,12.7,84,30.1
	c21.1,21.6,84.2,72.8,60.5,104.6C570.4,626.9,492.9,668.6,433.9,649.8z M439,613.9c47.8,13.6,94.5-5.3,124.1-44.1
	c4.5-5.7,5.2-14.2,1.3-18.9c-22.6-29.5-47.2-56.8-77.5-78.7c-11.7-13.7-21.2,34.1-49.9,40.8c-23.2,6-44.7-14-61.8-27.1
	c-42.6-32.6-187.6-218.3-76.3-233.7c5.5-2.4,18.4-2.6,21.1-7.9c-4.6-38.7-27.2-83.4-49.4-115.1c-4.7-5.9-11.8,2.3-16.2,4.9
	c-32.4,32.1-82.3,61.5-72.3,114.3C202.8,372.1,329.2,553.4,439,613.9z"/>
</svg>
