<?xml version="1.0" encoding="utf-8"?>
<!-- Generator: Adobe Illustrator 24.0.3, SVG Export Plug-In . SVG Version: 6.00 Build 0)  -->
<svg version="1.1" id="Слой_1" xmlns="http://www.w3.org/2000/svg" xmlns:xlink="http://www.w3.org/1999/xlink" x="0px" y="0px"
	 viewBox="0 0 25.8 39" style="enable-background:new 0 0 25.8 39;" xml:space="preserve">
<g>
	<path d="M24,0c-3.7,0.1-7.4,0-11.1,0C9.2,0,5.5,0,1.7,0C1.2,0,0.7,0.2,0.3,0.7c-0.4,0.6-0.4,1.2-0.1,1.9C3.1,7.9,6,13.3,8.9,18.7
		C9,19,9,19.2,9,19.5c0,2.7,0,5.4,0,8.2c0,0.7,0.3,1.3,0.9,1.6c0.6,0.3,1.2,0.2,1.8-0.2c1.4-0.9,2.8-1.9,4.2-2.8
		c0.6-0.4,0.9-1,0.9-1.7c0-1.7,0-3.4,0-5.1c0-0.3,0.1-0.5,0.2-0.8c2.8-5.4,5.6-10.8,8.5-16.1C26.3,1.3,25.4,0,24,0z M21.6,5.4
		c-2.2,4.2-4.4,8.3-6.6,12.5c-0.2,0.4-0.3,0.9-0.3,1.4c0,1.6,0,3.3,0,4.9c0,0.1-0.1,0.3-0.2,0.4c-1,0.7-2.1,1.4-3.1,2.1
		c0,0-0.1,0-0.2,0.1c0-0.2,0-0.3,0-0.4c0-2.4,0-4.8,0-7.2c0-0.4-0.1-0.8-0.3-1.2C8.2,12.9,5.4,7.7,2.7,2.5C2.6,2.4,2.6,2.3,2.5,2.2
		c7,0,13.9,0,20.8,0C22.7,3.3,22.2,4.4,21.6,5.4z"/>
	<path d="M15.3,31.1c0-1-0.8-1.8-1.8-1.8c-1,0-1.8,0.8-1.8,1.8c0,1,0.8,1.8,1.8,1.8C14.5,33,15.3,32.1,15.3,31.1z"/>
	<path d="M11.6,33.3c-0.7,0-1.3,0.6-1.3,1.3c0,0.7,0.6,1.3,1.3,1.3c0.7,0,1.3-0.6,1.3-1.3C12.9,33.9,12.3,33.3,11.6,33.3z"/>
	<path d="M14.5,34.8c-0.6,0-1,0.4-1,1c0,0.6,0.4,1,1,1c0.6,0,1-0.4,1-1C15.5,35.2,15.1,34.8,14.5,34.8z"/>
	<path d="M11.8,37.2c-0.5,0-0.9,0.4-0.9,0.9c0,0.5,0.4,0.9,0.9,0.9c0.5,0,0.9-0.4,0.9-0.9C12.7,37.7,12.3,37.3,11.8,37.2z"/>
</g>
</svg>
