<?xml version="1.0" encoding="utf-8"?>
<!-- Generator: Adobe Illustrator 24.0.3, SVG Export Plug-In . SVG Version: 6.00 Build 0)  -->
<svg version="1.1" id="Слой_1" xmlns="http://www.w3.org/2000/svg" xmlns:xlink="http://www.w3.org/1999/xlink" x="0px" y="0px"
	 viewBox="0 0 61.1 66.8" style="enable-background:new 0 0 61.1 66.8;" xml:space="preserve">
<g>
	<g>
		<path d="M0,49.3c0.2-2,2.6-3.1,4.1-1.7c1.6,1.4,3.2,2.8,4.8,4.2c2.6,2.3,5.1,4.5,7.7,6.8c0-18.6,0-37.1,0-55.7c-0.1-1.9,1-3,2.8-3
			c1.2,0.3,2.1,1.2,2.1,2.4c0,20.7,0.1,41.5,0,62.2c-0.3,2.2-3.3,2.9-4.5,1C11.8,61,6.6,56.4,1.4,51.8C0.7,51.2-0.1,50.4,0,49.3z"/>
		<path d="M36.7,0c0.8,0.2,1.3,0.7,1.8,1.2c1.3,1.2,2.7,2.4,4,3.6c4,3.5,7.9,7,11.9,10.5c0.8,0.7,1.1,1.6,0.8,2.6
			c-0.4,1.8-2.8,2.4-4.1,1.1c-4.1-3.6-8.2-7.3-12.4-11c0,8,0,15.9,0,23.9c0,0.3-0.1,0.5-0.4,0.6c-1.7,0.9-3.2,2-4.6,3.2
			c0.1-11.3-0.1-22.7,0.1-34C34.2,0.6,35.5-0.1,36.7,0z"/>
		<path d="M61.1,54.6c-0.2,1.3-1.2,2.3-2.6,2.3c-1.9,0-3.7,0-5.6,0c-3,0-6,0-9,0c-1.2,0-2.2-0.7-2.5-1.8c-0.5-2,1.3-3.4,3.2-3.1
			c4.6,0,9.1,0,13.7,0C60,51.9,61,53,61.1,54.6z"/>
		<path d="M43.3,66.8c-3.1-0.7-2.5-5.2,0.7-5c4.7,0,9.4,0,14.1,0c1.7,0,2.5,0.6,2.8,2.2c0.1,0.8-0.3,1.8-1,2.2
			c-0.3,0.2-0.7,0.3-1,0.5C53.7,66.8,48.5,66.8,43.3,66.8z"/>
		<path d="M35.9,66.8c-3-0.7-2.5-4.9,0.5-4.9C39.9,62.1,39.3,67.2,35.9,66.8z"/>
		<path d="M51.1,47c-2.4,0-4.8,0-7.3,0c-3.3,0.1-3.5-4.8-0.2-4.9c4.9,0,9.9,0,14.8,0c1.2,0,2.2,0.7,2.5,1.9c0.4,1.7-1,3.2-2.7,3.1
			C55.9,47,53.5,47,51.1,47z"/>
		<path d="M38.8,54.4c-0.1,3.3-4.9,3.2-4.9,0C33.9,51.2,38.7,51.2,38.8,54.4z"/>
		<path d="M38.8,44.5c-0.1,3.3-4.9,3.2-4.9,0C33.9,41.3,38.7,41.3,38.8,44.5z"/>
	</g>
</g>
</svg>
