<?xml version="1.0" encoding="utf-8"?>
<!-- Generator: Adobe Illustrator 24.0.3, SVG Export Plug-In . SVG Version: 6.00 Build 0)  -->
<svg version="1.1" id="Слой_1" xmlns="http://www.w3.org/2000/svg" xmlns:xlink="http://www.w3.org/1999/xlink" x="0px" y="0px"
	 viewBox="0 0 150.3 82.1" style="enable-background:new 0 0 150.3 82.1;" xml:space="preserve">
<path d="M0.2,41.3C13.6,54.6,26.9,68,40.3,81.4c0.3,0.3,0.6,0.5,0.7,0.7c2.7-2.7,5.4-5.4,8.3-8.2c-9-9-18-18-27.1-27.1
	c0.4,0,0.7,0,1.1,0c42.3,0,84.7,0,127,0V35.3c-41.9,0-83.9,0-125.8,0c-0.5,0-1.1,0-1.6,0c-0.2,0-0.5-0.1-0.9-0.1
	C31.2,26,40.2,17,49.1,8.1C46.4,5.4,43.8,2.7,41,0c-0.3,0.3-0.7,0.8-1.1,1.2c-13,13-26,26-39,39c-0.3,0.3-0.6,0.5-0.9,0.7
	C0,41,0,41,0,41.1C0,41.1,0.1,41.2,0.2,41.3z"/>
</svg>
