<?xml version="1.0" encoding="utf-8"?>
<!-- Generator: Adobe Illustrator 24.0.3, SVG Export Plug-In . SVG Version: 6.00 Build 0)  -->
<svg version="1.1" id="Слой_1" xmlns="http://www.w3.org/2000/svg" xmlns:xlink="http://www.w3.org/1999/xlink" x="0px" y="0px"
	 viewBox="0 0 97 119.6" style="enable-background:new 0 0 97 119.6;" xml:space="preserve">
<g>
	<path d="M82.4,80.1c-2.1-14.4-12.7-25.9-26.8-28.7c-2.7-0.6-5.6-0.5-8.4-1c-3.8-0.6-6.5-3.7-6.7-7.4c-0.2-3.6,2.2-7.1,5.8-8.2
		c3.5-1.1,7.4,0.5,9.3,3.8c0.3,0.5,0.6,1,0.9,1.6c3.8-1.3,7.4-2.6,11.1-3.9c-2.6-8.1-10.1-13.5-18.7-13.7
		c-8.2-0.2-15.9,5.1-18.9,12.8c-3.1,8-0.8,17.1,5.5,22.4c4.2,3.6,9.1,4.7,14.5,5c11.7,0.6,20.7,10.2,20.7,21.9
		c0,10.3-6.9,19.2-16.8,21.6c-10.2,2.4-20.4-2.3-25.1-11.6c-2.5-5.1-3-10.4-1.5-15.9c0.2-0.6-0.1-1.7-0.4-1.9
		c-3.3-1.3-6.7-2.5-10.1-3.6c-1.4,2.3-2.4,7.4-2.4,11.6c0.2,25.8,27.5,42.1,50.3,30C77.1,108.2,84.4,94,82.4,80.1z"/>
	<path d="M45.4,76.4c4.1-1.5,8.7,0.1,10.8,4c0.8,1.4,1.4,1.6,2.8,1c1.6-0.7,3.3-1.4,5.1-1.8c1.8-0.5,1.7-1.3,1.1-2.7
		c-4.4-9.2-15.4-13.2-24.4-8.8c-9.3,4.4-13.3,15.3-9,24.3c4.5,9.4,15.5,13.4,24.8,8.8c4.5-2.2,7.6-5.7,9.3-10.7
		c-2.4-0.9-4.7-1.6-6.9-2.5c-1.3-0.5-2-0.5-2.8,1c-1.7,3.4-5.6,5.2-9.2,4.5c-3.7-0.7-6.6-3.6-7.3-7.3C39,82,41.4,77.9,45.4,76.4z"/>
	<path d="M12,89.3c-0.1-0.4-0.2-0.9-0.3-1.3c-0.2,0-0.3,0-0.5-0.1C7.5,98.4,3.8,108.8,0,119.6c4,0,7.6,0,11.2,0
		c1.2,0,1.7-0.4,2.1-1.5c1.3-4,2.8-7.9,4.1-11.9c0.2-0.6,0.1-1.6-0.2-2.1C14.4,99.5,12.7,94.6,12,89.3z"/>
	<path d="M85.8,88c-0.2,0-0.4,0.1-0.6,0.1c-0.6,5.9-2.5,11.4-5.7,16.5c-0.2,0.3-0.2,0.9-0.1,1.3c1.5,4.2,3,8.5,4.5,12.7
		c0.1,0.4,0.7,0.9,1.1,0.9c3.9,0.1,7.7,0,12,0C93.2,108.8,89.5,98.4,85.8,88z"/>
	<path d="M47,19.8c0.5,0,1.3-0.8,1.5-1.4c2-5.6,4-11.2,6-16.8c0.1-0.4,0.2-0.9,0.4-1.6c-3.8,0-7.4,0-11,0c-1.2,0-1.8,0.4-2.2,1.6
		c-1.9,5.5-3.8,11-5.8,16.4c-0.8,2.2-1.5,4.4-2.5,6.9c0.6-0.2,0.8-0.2,1-0.3C38.2,21.8,42.3,20.1,47,19.8z"/>
</g>
</svg>
