<?xml version="1.0" encoding="utf-8"?>
<!-- Generator: Adobe Illustrator 25.0.0, SVG Export Plug-In . SVG Version: 6.00 Build 0)  -->
<svg version="1.1" id="Слой_1" xmlns="http://www.w3.org/2000/svg" xmlns:xlink="http://www.w3.org/1999/xlink" x="0px" y="0px"
	 viewBox="0 0 511.7 506.2" style="enable-background:new 0 0 511.7 506.2;" xml:space="preserve">
<g>
	<path d="M423.1,370c-27.4-67.2-54.8-134.3-82.2-201.5c-14.4-35.3-28.7-70.6-43.1-105.8c-5-12.3-14.1-18.8-25.8-19.5
		c-4.1,1.2-8.4,2-12.3,3.6c-49.2,20-98.3,40-147.4,60.1c-17.2,7-23,21.2-16,38.5c41.9,102.7,83.8,205.4,125.8,308.2
		c6.8,16.6,21.1,22.7,37.8,15.9c49-19.9,98-39.9,146.9-60C425.1,402,430.6,388.3,423.1,370z M404.8,399.1
		c-24.3,10-48.7,19.9-73,29.8c-25.3,10.3-50.5,20.6-75.8,30.9c-11.6,4.7-19.5,1.3-24.3-10.4c-41.8-102.3-83.5-204.5-125.1-306.8
		c-1.7-4.2-2.8-9.1-2.3-13.5c0.7-7,6.4-10.4,12.5-12.9c36.1-14.6,72.1-29.3,108.2-44c12.9-5.3,25.9-10.6,38.8-15.9
		c11.4-4.6,19.6-1.2,24.2,10c41.9,102.5,83.8,205.1,125.6,307.7c1.2,3,2,6.3,2.5,7.9C416,390.6,412.2,396,404.8,399.1z"/>
	<path d="M508.7,340.8c-2.1-11.5-6.9-22.5-10.8-33.6c-1.3-3.9-4.4-5.9-8.7-4.4c-3.9,1.3-5.2,4.9-3.7,9.5c0.6,1.7,1.4,3.4,2.1,5.1
		c7.2,16.9,10.7,34.6,10.3,53c0,3.5,0.2,7,0,10.5c-0.2,3.7-0.6,7.3-1.2,10.9c-6,34.5-22.2,63.2-49.8,85c-8,6.3-17.3,11.2-26,16.7
		c-3.6,2.3-5.1,5.3-3.2,9.3c1.6,3.5,5.4,4.5,9.4,2.6c14.5-7,27.8-15.8,39.1-27.3C503.9,439.6,518.6,393.8,508.7,340.8z"/>
	<path d="M99.9,23c15.2-6.4,31.2-9,47.6-9.7c5.5-0.2,8.5-3.2,8.2-7.3c-0.3-4.1-3.6-6.5-9.2-6.1c-8.3,0.6-16.6,1.1-24.8,2.6
		C54.5,14.8,4.2,72.7,0,142.2c0,1.8,0,3.7,0,5.5c-0.1,5.8,2.3,9.3,6.6,9.4c4.1,0.1,6.6-2.8,7.1-8.5c0.5-6,0.4-12,1.4-17.9
		C23.6,79.3,51.9,43.4,99.9,23z"/>
	<path d="M472.9,374.6c-0.8-5.9-1.6-14.7-3.3-23.3c-1.2-5.8-3.6-11.4-5.8-16.9c-1.9-4.8-5.7-6.5-9.4-5c-3.7,1.5-4.8,5.4-3.1,10.2
		c0.5,1.4,1.2,2.7,1.7,4.2c12,33.3,6.1,63.4-17.8,89.2c-6.6,7.1-15.8,12-23.9,17.7c-2.8,2-5.3,4.4-4,7.7c0.9,2.2,3.5,4.3,5.8,5.2
		c1.6,0.6,4.1-0.7,6-1.7C452.6,443.8,469.8,415.3,472.9,374.6z"/>
	<path d="M139.7,55.9c4.2-0.5,6.8-2.7,6.9-7.1c0.1-3.8-3.4-6.5-8-6.4c-1.3,0-2.7,0.2-4,0.3c0-0.2-0.1-0.4-0.1-0.6
		c-6.7,1.3-13.5,2.1-20,3.9c-6.7,1.9-13.4,4.3-19.4,7.6c-33.6,18.6-51.3,47.2-52.7,85.7c-0.2,4.8,2.4,7.8,6.3,8.1
		c4.1,0.2,6.8-2.7,7.1-7.8c0.3-3.8,0.5-7.6,0.9-11.4c4.4-35.5,34.9-66.4,70.4-71.2C131.5,56.6,135.6,56.4,139.7,55.9z"/>
	<path d="M321.8,176.2c-11.9-29.3-23.9-58.5-35.9-87.7c-0.7-1.6-2-3-3-4.5c-2.1,0.8-3.3,1.2-4.6,1.7
		c-50.2,20.5-100.4,40.9-150.6,61.4c-7.1,2.9-7.1,3-4.2,10.2c36.3,89,72.7,178,108.9,267c1.8,4.5,3.8,5.1,8.2,3.3
		C291,407,341.4,386.5,391.7,366c6.2-2.5,6.3-3,3.8-9.2C370.9,296.6,346.4,236.4,321.8,176.2z M380.3,365
		c-20,8.1-40.1,16.3-60.1,24.5c-23.6,9.6-47.1,19.2-70.7,28.8c-9.5,3.9-12.8,2.4-16.8-7.3c-31.6-77.3-63.1-154.6-94.7-231.9
		c-2.2-5.4-4.5-10.7-6.6-16.2c-2.6-6.7-0.9-11.1,5.6-13.7c44.8-18.4,89.6-36.7,134.4-54.9c6.8-2.8,11-0.5,14,6.8
		c17.8,43.7,35.6,87.5,53.5,131.2c15.9,39,31.8,77.9,47.7,116.9c0.8,2,1.3,4.1,1.8,5.5C388.2,360.7,384.8,363.2,380.3,365z"/>
	<path d="M336.7,395.8c-0.2-0.4-0.3-0.8-0.5-1.2c-11.6,5.2-23.4,10-34.7,15.8c-4.4,2.3-4.5,9.1-1.7,14c2.7,5,7.2,7.3,12.4,5.8
		c4.9-1.4,9.7-3.4,14.5-5.3c5.5-2.2,11.2-4.4,16.4-7.2c4.9-2.6,6.4-7.9,4.8-13.4C346.3,399.4,341.7,395.8,336.7,395.8z M340.3,413.4
		c-9.7,4.3-19.6,8.1-29.4,12c-0.3,0.1-0.6,0.1-1,0.2c-0.3,0.3-0.7,0.6-1,0.8c-1.8-2.1-4.5-4-5-6.3c-0.5-2.1,0.8-6.1,2.5-6.9
		c9.3-4.4,18.8-8.2,28.4-11.9c3.4-1.3,6.2,0.5,7.6,3.8C343.7,408.4,343.8,411.9,340.3,413.4z"/>
	<path d="M184.2,107c8.1-3.1,16-6.4,24-9.8c1.2-0.5,2.2-1.7,3.3-2.5c-0.1-0.6-0.2-1.3-0.3-1.9c-1.7-0.1-3.7-0.7-5.2-0.2
		c-7.9,3-15.8,6.2-23.5,9.6c-1.3,0.6-1.9,2.5-2.9,3.8C181.2,106.4,183,107.5,184.2,107z"/>
</g>
</svg>
