<?xml version="1.0" encoding="utf-8"?>
<!-- Generator: Adobe Illustrator 25.0.0, SVG Export Plug-In . SVG Version: 6.00 Build 0)  -->
<svg version="1.1" id="Слой_1" xmlns="http://www.w3.org/2000/svg" xmlns:xlink="http://www.w3.org/1999/xlink" x="0px" y="0px"
	 viewBox="0 0 70.4 52.4" style="enable-background:new 0 0 70.4 52.4;" xml:space="preserve">
<g>
	<path d="M70.4,32.6l0-0.1c-0.2-1.7-1-3.2-2.3-4.4c-0.2-0.2-0.4-0.3-0.5-0.4c0,0-0.1-0.1-0.1-0.1l0.2-0.1c0.3-0.1,0.5-0.2,0.8-0.3
		c0.3-0.1,0.5-0.3,0.6-0.6c0.1-0.3,0-0.5-0.2-0.7c-1.1-1.2-2.2-2-3.3-2.5c-1.2-0.5-2.5-0.7-3.8-0.6c-1,0.1-2,0.3-3,0.7
		c-0.6,0.2-1.2,0.6-1.8,1c0-1.3-0.4-2.5-1.2-3.6c-0.5-0.7-1-1.3-1.6-1.9l-0.3-0.3c-0.7-0.8-1.3-1.6-2-2.4l-1.1-1.3c0,0,0.1,0,0.1,0
		l0.1,0c0.2-0.1,0.4-0.2,0.6-0.3c0.4-0.2,0.6-0.6,0.6-1.1c0-0.6-0.2-1.1-0.3-1.5c-0.2-0.8-0.4-1.4-0.7-1.9c-0.1-0.2-0.2-0.4-0.3-0.6
		c-0.3-0.4-0.6-0.6-1.1-0.6c0,0,0,0,0,0c-0.7,0-1.4,0.2-2.1,0.5c-0.3,0.2-0.5,0.4-0.7,0.6c-0.1,0.1-0.1,0.1-0.2,0.2
		c-1.1,0.6-2.2,1.2-3.2,1.7l-0.3,0.2c0.5-0.8,0.9-1.6,1.3-2.5c0,0,0-0.1,0.1-0.1l0.5-0.4c0.2-0.2,0.4-0.3,0.6-0.5
		c0.1-0.1,0.1-0.1,0.3-0.1c0.5,0.1,1.1,0.1,1.6-0.1c0.7-0.2,1.3-0.6,1.6-1.3c0.3-0.6,0.5-1.2,0.6-2c0-0.2,0-0.3,0-0.5V4.9l0.9-0.2
		c0.1,0,0.2,0,0.4-0.1c0.3-0.1,0.5-0.3,0.6-0.5c0.1-0.2,0-0.5-0.1-0.8c-0.1-0.1-0.3-0.3-0.5-0.4c-0.2-0.1-0.5-0.3-0.7-0.4
		c-0.1-0.1-0.2-0.1-0.3-0.3c-0.5-0.9-1.2-1.5-2-1.9c-0.4-0.2-0.7-0.3-1.1-0.3l-0.1,0l-0.8,0l-0.2,0c-0.2,0-0.3,0.1-0.5,0.1
		C44,0.5,43.1,1,42.5,1.9c-0.5,0.7-0.8,1.6-0.8,2.6c0,0.1,0,0.3,0,0.4v0c0,0,0,0,0,0c-2.1,0.4-4,1.2-5.8,2.4c-3.2,2.2-5.4,5.3-6.5,9
		c-0.4,1.5-0.5,3-0.2,4.4c0.2,0.9,0.5,1.7,1,2.3c0.2,0.3,0.5,0.5,0.7,0.6l-1.4,0.4l-2.4-7.5c0-0.1,0-0.1-0.1-0.2
		c-0.2-0.3-0.5-0.5-0.8-0.4l-0.6,0.2c-0.5,0.2-1,0.3-1.5,0.4c-2,0.6-4,1.2-6,1.8L15,19.5c-0.4,0.1-0.6,0.4-0.5,0.9
		c0,0.1,0,0.2,0.1,0.3l2.1,6.8c0.1,0.5,0.3,0.9,0.4,1.4c0.2,0.5,0.6,0.7,1,0.6c0,0,0.1,0,0.1,0l3.7-1.1c0,0,0,0,0.1,0l0.1,1.9
		c0,0.1,0,0.2,0,0.2c0,0.2,0,0.3,0,0.5c0,0.1-0.1,0.3-0.2,0.4c-0.1,0.1-0.1,0.1-0.2,0.2c-2.2,3.3-3.4,6.5-3.8,9.8
		c-0.1,1-0.1,2,0,2.8c0.1,0.4,0.2,0.9,0.5,1.4c0.4,0.6,1.1,0.8,1.8,0.6c0.4-0.1,0.9-0.3,1.3-0.4l0.6-0.2c0,0,0.1,0,0.1,0l0,0
		c0,0.1,0.1,0.3,0.1,0.4c0.1,0.2,0.1,0.4,0.2,0.6c0.1,0.2,0.2,0.4,0.3,0.6c0.1,0.2,0.2,0.4,0.3,0.6c0.1,0.2,0.3,0.4,0.4,0.5
		c0.2,0.2,0.3,0.4,0.4,0.5c0.2,0.2,0.3,0.3,0.5,0.5c0.1,0.1,0.2,0.2,0.3,0.2c-0.3,0.2-0.5,0.3-0.6,0.6c-0.3,0.5-0.3,1.3,0.3,1.8
		c0.2,0.1,0.4,0.3,0.6,0.3c0.3,0.1,0.7,0.2,1.1,0.3c0.6,0.1,1.2,0.1,1.9,0.1c0.7,0,1.4,0,2.1-0.1c0.5-0.1,1-0.1,1.5-0.2l0.2,0
		c0.2,0,0.4,0,0.6-0.1c0.4,0,0.8-0.1,1.2-0.1c0.5-0.1,0.9-0.2,1.2-0.5c0.4-0.3,0.7-0.6,0.8-1c0.1-0.3,0-0.6-0.2-0.8
		c-0.2-0.2-0.5-0.4-0.8-0.5c-0.2,0-0.3,0-0.5,0c1.2-1,1.9-2.2,2.3-3.6c0.4-1.5,0.3-3-0.3-4.5l1.2-0.4c4-1.2,8-2.4,12-3.6l0.5-0.2
		c0.6-0.2,1.3-0.4,1.9-0.6c0.9-0.3,1.5-0.7,2.1-1.4c0.1,0.1,0.1,0.1,0.2,0.1c0.4,0.2,0.9,0.3,1.3,0.1l0.7-0.2l0.1,0.3
		c0.6,2.1,2.1,3.8,4.1,4.7c2.1,0.9,4.4,0.8,6.4-0.3c2.2-1.2,3.4-3,3.8-5.4l0-0.1C70.4,33.7,70.4,33.2,70.4,32.6z M31.5,45.2
		c-0.6,0.9-1.8,1.3-2.9,0.9c-0.9-0.3-1.6-1.2-1.7-2.1c1.6-0.5,3.1-0.9,4.7-1.4C32.1,43.3,32.1,44.4,31.5,45.2z M31,47.5
		c1-0.4,1.9-1.2,2.3-2.3c0.4-1,0.3-2.1-0.1-3.1c0.5-0.2,1-0.3,1.5-0.5c0.7,1.4,0.7,3.7-0.7,5.5c-1.5,1.9-4.1,2.7-6.4,2
		c-1.2-0.4-2.1-1.1-2.8-2c-0.5-0.7-0.8-1.3-0.9-2.1l1.5-0.5c0.3,1.4,1.1,2.4,2.4,3C28.8,47.9,29.9,47.9,31,47.5z M28,24.7l-9.5,2.9
		c-0.3-1-1.9-5.9-2.2-6.9l9.5-2.9L28,24.7z M66.7,26.2l-1.4,0.4c-1.6,0.5-3.3,1-4.9,1.5c-0.6,0.2-1.1,0.5-1.5,1
		c-0.4,0.5-0.8,1.1-1,1.6c-0.1,0.2-0.2,0.5-0.4,0.7c-0.2,0.3-0.3,0.6-0.5,1c-0.1,0.2-0.2,0.4-0.4,0.7l-0.1,0.1
		c-0.1,0.1-0.1,0.1-0.3,0.2c-0.4,0.1-0.9,0.3-1.3,0.4c-0.2,0.1-0.2,0-0.3-0.2c0,0,0,0,0-0.1c0.4-1.2,0.7-2.3,1-3.5
		c0.2-0.6,0.3-1.2,0.5-1.8l0-0.1c0-0.1,0.1-0.2,0.1-0.4c0-0.3,0.2-0.5,0.4-0.7c0.5-0.7,1.2-1.2,2.1-1.6c1.2-0.6,2.4-0.9,3.8-0.9
		c0,0,0.1,0,0.1,0c1.1,0,2.1,0.3,3,0.9C65.9,25.5,66.3,25.8,66.7,26.2C66.7,26.2,66.7,26.2,66.7,26.2z M57.6,34.3
		c0.3-0.3,0.5-0.6,0.6-0.9c0.2-0.3,0.3-0.7,0.5-1c0.1-0.3,0.3-0.6,0.4-0.9c0.2-0.3,0.4-0.7,0.7-1.1c0.2-0.3,0.5-0.6,1-0.7
		c1.2-0.3,2.4-0.7,3.5-1.1l0.7-0.2c0,0,0.1,0,0.1,0c0,0,0.1,0,0.1,0c2,0.9,3.1,2.4,3.4,4.5c0.4,2.6-1.3,5.6-4.7,6.2
		c-0.2,0-0.4,0.1-0.6,0.1c-0.1,0-0.2,0-0.3,0c-2.7,0-5.1-1.9-5.6-4.5C57.5,34.5,57.5,34.4,57.6,34.3z M19.6,41.1
		c0.4-3,1.6-5.8,3.5-8.8c0-0.1,0.1-0.1,0.1-0.2c0.1-0.2,0.2-0.3,0.3-0.4c0.1-0.1,0.3-0.1,0.4-0.2c0.1,0,0.2,0,0.2-0.1l14.4-4.4
		c-0.5,0.9-0.8,1.8-1,2.7c-0.3,1.4-0.2,2.7,0.2,3.9c0.3,0.9,0.9,1.6,1.6,2.1c0.8,0.5,1.8,0.7,2.7,0.4l1.9-0.6c1.6-0.5,3.3-1,4.9-1.5
		c0.4-0.1,0.8-0.3,1.3-0.5c0.9-0.4,1.5-1.1,1.8-2c0.2-0.5,0.3-1,0.5-1.7c0.4-1.4,0.7-2.6,1-3.8c0.4-1.8,0.1-3.5-1.1-4.9
		c-0.8-1.1-1.7-2.1-2.5-3.2l-0.7-0.8c-0.5-0.6-0.9-1.2-1.4-1.7L47,14.5c0.1,0,0.2,0,0.3,0c0.4,0.1,0.8,0,1.1-0.4
		c0.4-0.3,0.8-0.7,1-1.2c0.3-0.6,0.2-1.2-0.2-1.7c-0.1-0.1-0.2-0.2-0.3-0.3l0,0c0.2-0.1,0.4-0.1,0.6-0.1c0.1,0,0.1,0,0.1,0.1
		c0,0.1,0.1,0.2,0.1,0.3c0.1,0.2,0.2,0.4,0.3,0.6c0.3,0.7,0.4,1.3,0.5,1.9c-0.1,0-0.2,0.1-0.3,0.1c-0.2,0-0.4,0.1-0.6,0.1
		c-0.2,0-0.3,0.1-0.5,0.1c-0.1,0-0.3,0.1-0.4,0.1c-0.2,0.1-0.3,0.3-0.4,0.5c-0.1,0.2,0,0.4,0.1,0.6c0,0.1,0.1,0.1,0.1,0.2l0.4,0.5
		c1.4,1.6,2.7,3.3,4.1,4.9c0.4,0.4,0.7,0.8,0.9,1.2c0.5,0.7,0.8,1.3,0.9,2.1c0.1,0.6,0.1,1.2-0.1,1.7c-0.6,2.2-1.2,4.5-1.8,6.7
		c-0.1,0.3-0.2,0.7-0.3,0.9c-0.3,0.6-0.7,1-1.3,1.3c-0.3,0.2-0.6,0.3-1,0.4c-10.3,3.1-20.5,6.3-30.8,9.4c0,0-0.2,0-0.2,0.1
		c0,0-0.1-0.1-0.1-0.2c-0.1-0.3-0.2-0.6-0.2-0.9C19.4,42.7,19.4,42,19.6,41.1z M43.1,9L43,9.4c-0.2,0.4-0.4,0.8-0.6,1.2
		c-0.6,1-1.2,2.1-1.9,3.2c-0.1,0.1-0.2,0.2-0.3,0.2c-0.2,0.1-0.4,0.2-0.6,0.3c-0.4,0.2-0.5,0.7-0.3,1c0.2,0.4,0.6,0.5,1,0.3
		c0.1,0,0.1-0.1,0.2-0.1l5.2-2.8c0.5-0.3,1.1-0.6,1.6-0.9c0.1-0.1,0.2-0.1,0.3,0l0.1,0c0.1,0.1,0.2,0.1,0.3,0.2c0,0,0,0,0,0
		c0,0,0,0,0,0.1c-0.1,0.2-0.3,0.4-0.5,0.6c0,0-0.1,0-0.1,0c-0.1,0-0.2,0-0.3,0c-0.2,0-0.4,0-0.6,0.1c-0.5,0.1-1,0.3-1.5,0.7
		C43.5,15,42.2,16,40.8,17c-0.4,0.3-0.8,0.6-1.2,0.8c-0.2,0.1-0.5,0.2-0.9,0.1c-0.5-0.1-0.9-0.6-0.9-1c0-0.5,0-1,0.1-1.6
		c0.2-1.2,0.4-2.3,0.8-3.2c0.1-0.2,0.2-0.4,0.3-0.6c0.1-0.1,0.1-0.3,0.2-0.4c0.1-0.1,0.1-0.3,0.1-0.5c0-0.3-0.2-0.6-0.5-0.7
		c-0.3-0.1-0.7,0-0.9,0.2c-0.1,0.1-0.1,0.2-0.2,0.3c-0.4,0.7-0.7,1.6-1,2.6c-0.3,1.3-0.5,2.4-0.5,3.4c0,0.3,0,0.5,0,0.8
		c0,0.3,0.1,0.6,0.2,0.8c-1.1,0.1-2,0.3-3,0.5c-0.9,0.2-1.9,0.5-2.9,0.9c0,0,0,0,0,0v0c0-1.2,0.2-2.4,0.7-3.7c1.5-4,4.9-7.2,9-8.6
		c0.2-0.1,0.4-0.1,0.7-0.2c0.2,0,0.3-0.1,0.5-0.1c0.1,0,0.2,0,0.2,0c0.2,0,0.3,0.1,0.5,0.2c0.4,0.3,0.7,0.8,0.9,1.3
		C43.3,8.4,43.3,8.7,43.1,9z M47.8,23c0.1-0.4,0.1-0.9,0-1.3v0c-0.1-0.7-0.5-1.3-1.2-1.9c-0.7-0.5-1.4-0.9-2.3-1.1
		c-0.8-0.2-1.7-0.4-2.6-0.5c1.5-1.1,2.8-2.2,3.9-3.1c1.8,2.3,3.7,4.5,5.5,6.8c0.5,0.6,0.8,1.3,0.9,2c0.1,0.6,0.1,1.1,0,1.6
		c-0.4,1.4-0.7,2.9-1.1,4.3l-0.1,0.4c0,0.1-0.1,0.3-0.1,0.4l0,0.1c-0.2,0.7-0.8,1.2-1.6,1.5c-0.2-0.3-0.3-0.5-0.6-0.7
		c-0.4-0.3-0.8-0.4-1.2-0.5c-0.3,0-0.6-0.1-0.9-0.1l-0.3,0c0,0-0.1,0-0.1,0c0,0,0,0,0,0l0.5-2.4c0.3-1.3,0.6-2.6,0.9-3.9
		C47.6,24.3,47.7,23.7,47.8,23z M40.9,26.3C40.9,26.3,40.9,26.3,40.9,26.3c0.3-0.3,0.3-0.5,0.3-0.8c0-0.3,0-0.7,0-1l0-0.2
		c0.4-0.1,0.8-0.1,1.2-0.2l-0.2,1.4c-0.1,0.5-0.1,1-0.2,1.5c-0.1,1-0.2,2.1-0.3,3.1c-0.1,0.8-0.2,1.7-0.2,2.7c0,0.5,0.1,1.1,0.3,1.7
		l0,0c-0.3,0.1-0.6,0.1-0.9,0c-0.3-0.1-0.6-0.3-0.9-0.6c-0.5-0.5-0.7-1.1-0.9-1.9c-0.2-1-0.1-2,0.3-3C39.7,28.3,40.2,27.3,40.9,26.3
		z M30.9,21l0.1-0.1c0.1-0.1,0.2-0.2,0.4-0.2c0.7-0.3,1.4-0.5,2.1-0.7c1.4-0.3,2.6-0.5,3.8-0.6c0.8,0,1.5,0,2.2,0.1
		c1.3,0.1,2.5,0.3,3.6,0.6c0.3,0.1,0.7,0.2,1,0.2c0.5,0.1,1,0.4,1.5,0.7c0.5,0.4,0.7,0.9,0.6,1.6c-0.1,0.8-0.3,1.4-0.4,2
		c-0.3,1.6-0.7,3.1-1.1,4.7l-0.5,2.3c0,0.1,0,0.1,0,0.2c0,0.3,0,0.5,0.2,0.7c0.2,0.2,0.4,0.3,0.7,0.2c0.4-0.1,1-0.1,1.5,0
		c0.3,0,0.5,0.1,0.7,0.2c0,0,0,0,0.1,0c-1.4,0.4-2.8,0.9-4.2,1.3c-0.1-0.2-0.1-0.4-0.1-0.6c0-0.3-0.1-0.6,0-0.9
		c0.1-1.3,0.2-2.7,0.4-4.1c0.1-1,0.2-2,0.3-2.9l0-0.3c0-0.4,0.1-0.8,0.1-1.2l0.1-0.6c0-0.1,0-0.1,0-0.2c0-0.3-0.1-0.5-0.3-0.6
		c-0.1-0.1-0.3-0.2-0.5-0.2c0,0-0.1,0-0.1,0c-0.2,0-0.4,0.1-0.6,0.1c-0.3,0.1-0.6,0.1-0.9,0.1l-0.7,0.1c-0.9,0.1-1.8,0.2-2.7,0.3
		c-0.6,0.1-1.3,0-1.8,0c-0.9,0-1.7-0.1-2.5-0.2c-0.4-0.1-0.9-0.2-1.3-0.2L32,22.5c-0.3-0.1-0.5-0.2-0.7-0.5
		C31.2,21.8,31,21.4,30.9,21L30.9,21z M34.1,24.5c1.5,0.1,2.8,0.2,4,0.2c0.3,0,0.7,0,1-0.1c0.1,0,0.3,0,0.4,0l0,0c0,0.2,0,0.4,0,0.6
		l-15.8,4.8c0-0.6,0-1.2-0.1-1.8c0-0.4,0.2-0.6,0.5-0.7c3.2-1,6.4-2,9.6-2.9C33.9,24.5,34,24.5,34.1,24.5z M44.6,6.9
		c0.5-0.1,0.9-0.3,1.3-0.6L46,6.2c0.2-0.2,0.3-0.3,0.5-0.5c0.1-0.1,0.2-0.1,0.2-0.1c0.4-0.1,0.9-0.2,1.3-0.3l0.1,0
		c0,0.2,0,0.3-0.1,0.5l0,0.1c0,0.3-0.1,0.6-0.3,0.9c-0.2,0.4-0.6,0.6-1.1,0.6c-0.2,0-0.4,0-0.7-0.1c-0.4-0.1-0.7,0-1.1,0.2l-0.2,0.1
		l-0.3-0.7C44.5,6.9,44.6,6.9,44.6,6.9z M45.4,4.5c-0.2,0.2-0.4,0.4-0.7,0.6c-0.1,0.1-0.3,0.2-0.4,0.2c-0.3,0.1-0.7,0.1-1,0.2
		c-0.1-0.7-0.1-1.2,0-1.6v0c0.3-1.1,1-1.8,2.2-2.2c0.3-0.1,0.5-0.1,0.8-0.1c1.2,0,1.9,0.8,2.3,1.4c0,0,0.1,0.1,0.1,0.1
		c0,0.1,0.1,0.2,0.1,0.2c0,0,0,0.1,0.1,0.1L46.3,4C46,4.1,45.7,4.3,45.4,4.5z"/>
	<path d="M15.8,32.3L15.8,32.3c-0.1,0-0.2,0-0.4,0H0.9c-0.3,0-0.6,0.1-0.7,0.4c0,0,0,0,0,0L0,32.8v0.5l0.1,0.1
		c0.2,0.3,0.4,0.4,0.8,0.4c4.8,0,9.7,0,14.5,0c0.1,0,0.2,0,0.3,0c0.4-0.1,0.6-0.4,0.6-0.7C16.4,32.7,16.2,32.4,15.8,32.3z"/>
	<path d="M7.8,29.6c0,0,0.1,0,0.1,0c0,0,0,0,0.1,0h6c0.1,0,0.2,0,0.3,0c0.4-0.1,0.6-0.4,0.6-0.8c0-0.4-0.2-0.7-0.6-0.8
		c-0.1,0-0.2,0-0.3,0H8c0,0-0.1,0-0.1,0c-0.4,0-0.7,0.4-0.7,0.8C7.1,29.2,7.4,29.5,7.8,29.6z"/>
	<path d="M10.4,36.7c-0.1,0-0.1,0-0.2,0H4.6c-0.1,0-0.2,0-0.3,0c-0.2,0-0.4,0.2-0.6,0.4c-0.1,0.2-0.2,0.4-0.1,0.6
		c0.1,0.3,0.4,0.5,0.8,0.5c0.6,0,1.3,0,1.9,0h1c0.4,0,0.8,0,1.2,0l0.5,0c0.2,0,0.3,0,0.5,0c0.2,0,0.5,0,0.7,0c0.4,0,0.8-0.3,0.8-0.8
		C11.1,37.1,10.8,36.7,10.4,36.7z"/>
	<path d="M63.1,37.5C63.1,37.5,63.1,37.5,63.1,37.5c2.3,0,4.1-1.7,4.2-4c0-1.1-0.4-2.1-1.1-2.9c-0.8-0.8-1.8-1.2-2.9-1.2h0
		c0,0,0,0,0,0c-2.3,0-4.1,1.7-4.1,4c0,1.1,0.4,2.1,1.1,2.9C60.9,37,62,37.5,63.1,37.5z M63.2,31C63.2,31,63.2,31,63.2,31
		c1.4,0,2.5,1.1,2.5,2.5c0,0.7-0.3,1.3-0.7,1.7c-0.5,0.5-1.1,0.7-1.8,0.7c0,0,0,0,0,0c-0.7,0-1.3-0.3-1.8-0.7
		c-0.5-0.5-0.7-1.1-0.7-1.7C60.6,32.1,61.8,31,63.2,31z"/>
</g>
</svg>
