<svg width="44" height="55" viewBox="0 0 44 55" fill="none" xmlns="http://www.w3.org/2000/svg">
<path d="M13.9777 16.6934C14.378 16.4033 14.5295 15.877 14.2914 15.4043C14.1508 15.1143 13.9561 14.8564 13.783 14.5771C13.0906 13.46 12.9607 12.2891 13.6099 11.1182C14.0426 10.334 14.5944 9.625 15.0379 8.84082C15.514 8.00293 16.0441 7.17578 16.3578 6.27344C17.0719 4.18945 15.6979 1.21387 13.5666 0C13.3827 0 13.2096 0 13.0256 0C12.0844 0.623047 12.0195 1.16016 12.7768 1.99805C12.9824 2.22363 13.1879 2.44922 13.3935 2.6748C14.6376 4.07129 14.7675 5.2959 13.8046 6.88574C13.4584 7.45508 13.0365 7.9707 12.7227 8.55078C12.2034 9.52832 11.6084 10.4844 11.2946 11.5264C10.7104 13.417 11.4353 15.0713 12.6145 16.5537C12.9499 16.9727 13.5666 16.9941 13.9777 16.6934Z" fill="#444444"/>
<path d="M25.9759 40.3696C28.3128 39.0375 30.7362 37.8344 33.019 36.4057C36.1239 34.4721 37.8982 31.5717 38.569 28.0053C38.6772 27.436 38.5041 27.0063 38.0281 26.6518C37.1734 26.0287 36.243 25.5668 35.2152 25.3412C32.7485 24.8149 30.39 25.266 28.1721 26.308C26.5601 27.0707 25.0455 28.0483 23.4335 28.9721C23.347 28.7787 23.2171 28.4887 23.0765 28.1987C21.6051 25.2123 19.701 22.5698 16.8232 20.7543C14.8759 19.519 12.7662 18.9389 10.4402 19.476C9.96412 19.5834 9.54219 19.7553 9.39073 20.2817C9.22845 20.8295 9.49892 21.2055 9.88839 21.5493C12.6255 24.02 13.5884 27.1782 13.4045 30.7446C13.2855 33.1186 13.0799 35.4926 13.0258 37.8666C12.9717 40.5844 13.5992 43.1518 15.0922 45.4721C15.2112 45.6547 15.2761 45.891 15.3194 46.1166C15.5899 47.7387 16.3039 49.1352 17.4724 50.2953C17.8186 50.6391 18.1864 50.9076 18.7165 50.7465C19.2575 50.5854 19.4089 50.1557 19.5387 49.6508C19.8092 48.5229 20.0472 47.3735 20.4583 46.2992C21.4753 43.6137 23.5092 41.7768 25.9759 40.3696ZM15.4817 41.0678C15.3843 40.391 15.2112 39.725 15.2112 39.0698C15.2221 37.1469 15.2653 35.2133 15.3627 33.2905C15.4817 31.0883 15.644 28.9076 15.2004 26.7162C14.8434 24.9653 14.1294 23.3862 13.0691 21.9682C12.9501 21.8178 12.8419 21.6567 12.6796 21.4418C13.7182 21.5063 14.5621 21.8823 15.3627 22.3549C17.3966 23.5473 18.8896 25.2875 20.0905 27.2641C20.6531 28.1879 21.0858 29.2084 21.6051 30.1645C21.7891 30.5082 21.7241 30.7338 21.4537 30.9916C19.5604 32.8393 18.0133 34.934 16.9206 37.3403C16.4013 38.5326 15.9794 39.7895 15.4817 41.0678ZM19.8741 43.0229C19.1709 44.1078 18.6841 45.3324 18.0999 46.5033C18.0025 46.6967 17.9592 46.9008 17.851 47.2123C17.1803 45.5151 17.0937 43.8715 17.494 42.2172C19.0411 35.7934 22.9358 31.2387 28.8213 28.3168C30.628 27.4145 32.597 27.017 34.6418 27.393C36.4377 27.7153 36.5675 27.9516 35.9725 29.6381C35.2043 31.8403 33.7763 33.559 31.8073 34.7514C29.7733 35.9975 27.6312 37.0717 25.5432 38.2319C23.347 39.4672 21.2698 40.8852 19.8741 43.0229Z" fill="#444444"/>
<path d="M15.3193 48.4692C14.0319 47.3197 12.9609 46.0092 12.2144 44.4623C11.1325 42.2279 10.9918 39.8539 11.1325 37.4369C11.2407 35.6537 11.3921 33.8705 11.522 32.0873C11.5111 32.0873 11.5111 32.0873 11.5003 32.0873C11.5003 31.5287 11.5111 30.9809 11.5003 30.4223C11.4029 26.7377 9.95323 23.6762 7.2269 21.184C6.81578 20.808 6.38303 20.7113 5.84209 20.9047C4.40319 21.4096 3.2564 22.3012 2.35844 23.515C0.811356 25.6098 0.237961 28.0268 0.0648602 30.5619C-0.259703 35.224 0.908726 39.5424 3.21313 43.56C4.72776 46.2133 6.69678 48.4799 9.45557 49.9516C11.1 50.8217 12.8418 51.2514 14.7135 50.8539C15.2977 50.7358 15.9144 50.6606 16.0983 49.9516C16.2822 49.2104 15.7521 48.8559 15.3193 48.4692ZM9.07691 47.2016C6.3073 45.0424 4.60875 42.1527 3.40786 38.9301C2.27189 35.8686 1.8716 32.7211 2.31517 29.4877C2.60727 27.4145 3.22395 25.4701 4.78185 23.9662C5.907 22.8813 6.06929 22.9027 7.05379 24.0844C8.60088 25.9428 9.34738 28.0912 9.34738 30.4652C9.34738 32.4311 9.1851 34.3969 9.06609 36.352C8.88217 39.2846 8.83889 42.2065 10.1263 44.935C10.6673 46.0736 11.4354 47.1049 12.117 48.1684C12.236 48.3617 12.4091 48.5229 12.6579 48.8236C11.2082 48.5766 10.0939 47.9858 9.07691 47.2016Z" fill="#444444"/>
<path d="M41.5983 29.6697C40.9059 29.0037 39.9755 29.2615 39.7159 30.1746C39.6726 30.3142 39.6509 30.4539 39.6185 30.5935C39.2182 32.4412 38.4717 34.1277 37.1843 35.5457C35.9834 36.867 34.512 37.8123 32.9649 38.6824C30.7579 39.9177 28.4751 41.0564 26.3763 42.4529C22.8818 44.7732 21.1725 48.2215 20.5774 52.282C20.5125 52.7439 20.6748 53.1092 21.0534 53.3992C22.3842 54.4305 23.888 54.9461 25.5541 54.989C28.1398 55.0535 30.4874 54.2371 32.6945 52.991C36.1889 51.0144 38.991 48.2752 41.0898 44.8806C42.7992 42.1199 43.8919 39.1336 43.9785 36.4802C44.0001 33.4832 43.3726 31.3562 41.5983 29.6697ZM37.1193 46.7068C35.2477 48.8015 33.1164 50.574 30.5307 51.7449C28.9403 52.4646 27.2851 52.991 25.5216 52.8299C24.6994 52.7547 23.8988 52.4217 23.0874 52.2068C22.752 52.1101 22.7412 51.906 22.8061 51.5838C23.5526 47.7596 25.7163 44.9881 29.0918 43.0974C30.8769 42.0984 32.7161 41.1853 34.5012 40.1863C36.665 38.9832 38.6123 37.5222 39.9214 35.3738C40.4191 34.5574 40.8086 33.6765 41.2413 32.8172C41.7822 34.0525 42.0203 35.3631 41.8472 36.7166C41.3387 40.5408 39.6942 43.8386 37.1193 46.7068Z" fill="#444444"/>
<path d="M21.789 11.9242C21.0101 13.1166 20.3393 14.3627 20.3285 16.5326C20.3177 17.2845 20.9127 18.5199 21.7674 19.6263C22.1244 20.0883 22.7303 20.1527 23.1739 19.8627C23.6499 19.5404 23.7689 18.9926 23.4768 18.4447C23.3794 18.2513 23.2604 18.0795 23.1414 17.8969C22.2002 16.5111 22.2218 15.1254 23.1306 13.7396C23.5741 13.0629 24.0285 12.3969 24.4721 11.7308C25.0996 10.764 25.6838 9.76502 25.7812 8.59412C25.9651 6.39197 24.7642 4.83435 23.2279 3.47009C22.8385 3.1156 22.2651 3.23377 21.9081 3.599C21.5619 3.95349 21.5078 4.50134 21.8323 4.92029C22.0812 5.2533 22.3841 5.53259 22.6546 5.84412C23.8663 7.21912 23.9961 8.44373 23.0657 10.0121C22.6654 10.6566 22.211 11.2797 21.789 11.9242Z" fill="#444444"/>
<path d="M31.0065 15.0605C30.2167 16.2529 29.5892 17.499 29.5568 18.6162C29.546 20.4209 30.1302 21.6455 30.9957 22.7519C31.3743 23.2353 31.9802 23.2998 32.4454 22.9668C32.8782 22.6552 32.9863 22.0859 32.7051 21.5703C32.5752 21.3339 32.4238 21.1191 32.2723 20.8935C31.5474 19.7656 31.4068 18.5839 32.0776 17.3916C32.5536 16.5537 33.1054 15.7587 33.6247 14.9423C34.3603 13.7929 35.0744 12.622 35.0203 11.1826C34.9445 9.23824 33.8302 7.83101 32.4562 6.59566C32.0992 6.27339 31.515 6.35933 31.1688 6.69234C30.8009 7.02535 30.7144 7.58394 31.0173 8.01363C31.2662 8.35738 31.5799 8.65816 31.8612 8.98043C33.008 10.3017 33.2027 11.4619 32.4346 12.8584C32.0018 13.6103 31.4934 14.33 31.0065 15.0605Z" fill="#444444"/>
</svg>
