<svg width="49" height="56" viewBox="0 0 49 56" fill="none" xmlns="http://www.w3.org/2000/svg">
<path d="M47.2696 50.398C46.5094 50.398 45.7493 50.398 44.9678 50.398C44.9678 44.1932 44.9678 38.0747 44.9678 31.8806C45.7921 31.8806 46.5951 31.8914 47.3873 31.8806C48.1153 31.8698 48.4151 31.5569 48.4258 30.8123C48.4365 29.8195 48.4258 28.8375 48.4258 27.8448C48.4258 26.852 48.1367 26.5714 47.1411 26.5714C44.8072 26.5714 42.4626 26.5714 40.1287 26.5714C39.936 26.5714 39.7433 26.5606 39.5399 26.5499C38.9939 22.9349 37.4415 19.8918 34.8079 17.4314C32.1635 14.9603 29.0053 13.6654 25.4188 13.374C25.4188 12.7697 25.4188 12.2194 25.4188 11.6367C25.6008 11.6259 25.7614 11.5935 25.9113 11.5935C29.3693 11.5935 32.838 11.5935 36.296 11.5935C39.9574 11.5935 43.6081 11.5935 47.2696 11.5827C48.308 11.5827 48.6399 11.0432 48.2438 10.072C48.0083 9.51084 47.7513 8.9605 47.5479 8.38857C47.4837 8.21592 47.4944 7.95693 47.5693 7.80586C48.8433 5.36709 47.8477 2.73408 45.289 1.80605C45.1498 1.7521 44.9678 1.56865 44.9571 1.42837C44.9143 0.975147 44.7001 0.662207 44.3361 0.424805C44.1541 0.424805 43.9828 0.424805 43.8008 0.424805C43.5974 0.705371 43.287 0.953564 43.2227 1.2665C43.1478 1.6334 42.9979 1.7521 42.6874 1.86001C40.482 2.64775 39.3686 5.16206 40.3428 7.30947C40.6533 7.98931 40.6319 8.50727 40.2893 9.08999C40.2572 9.15474 40.2251 9.21948 40.2037 9.28423C40.1073 9.73745 39.8183 9.82378 39.39 9.82378C34.5724 9.81299 29.7547 9.81299 24.9371 9.82378C23.92 9.82378 23.6631 10.0828 23.6524 11.0863C23.6524 11.8417 23.6524 12.5863 23.6524 13.374C20.0338 13.6546 16.8862 14.9495 14.2526 17.4099C11.6082 19.8702 10.0452 22.9349 9.49918 26.5714C9.27435 26.5714 9.08165 26.5714 8.88894 26.5714C6.53365 26.5714 4.17835 26.5714 1.82306 26.5714C0.923761 26.5714 0.623996 26.8628 0.623996 27.7584C0.623996 28.6757 0.634702 29.5929 0.623996 30.5102C0.623996 31.6756 0.838114 31.8806 2.00506 31.8806C2.69023 31.8698 3.37541 31.8806 4.07129 31.8806C4.07129 38.0854 4.07129 44.2147 4.07129 50.398C3.24694 50.398 2.444 50.3872 1.64106 50.398C0.945173 50.4088 0.634702 50.7217 0.623996 51.4231C0.61329 52.4267 0.61329 53.4411 0.623996 54.4446C0.634702 55.4266 0.880938 55.6856 1.86588 55.6856C10.4092 55.6856 18.9525 55.6856 27.5065 55.6856C34.0906 55.6856 40.6747 55.6856 47.2588 55.6856C48.126 55.6856 48.4151 55.405 48.4258 54.531C48.4365 53.5382 48.4365 52.5562 48.4258 51.5634C48.4258 50.6894 48.1367 50.398 47.2696 50.398ZM42.0879 4.52539C42.5804 3.69448 43.3405 3.29521 44.2933 3.40313C45.3104 3.51104 45.9956 4.09375 46.2953 5.08652C46.5094 5.79873 46.4238 6.50015 45.9527 7.07207C45.4924 7.62241 45.4496 8.14038 45.7814 8.74468C45.9527 9.06841 46.0705 9.42451 46.2311 9.81299C44.7858 9.81299 43.394 9.81299 41.938 9.81299C42.0986 9.42451 42.2057 9.05762 42.3877 8.7231C42.6981 8.12959 42.6553 7.64399 42.2271 7.09365C41.5847 6.29512 41.5633 5.39946 42.0879 4.52539ZM24.5517 15.1438C31.7139 15.1653 36.9277 20.6688 37.7306 26.5391C28.9411 26.5391 20.1515 26.5391 11.3192 26.5391C12.1435 20.5824 17.4322 15.1222 24.5517 15.1438ZM46.67 53.8835C31.9173 53.8835 17.1753 53.8835 2.40117 53.8835C2.40117 53.3224 2.40117 52.772 2.40117 52.1461C3.172 52.1461 3.93212 52.1461 4.69223 52.1461C5.59153 52.1461 5.86988 51.8548 5.86988 50.9483C5.86988 44.4198 5.88059 37.8912 5.88059 31.3626C5.88059 30.4022 5.58082 30.1109 4.628 30.1109C3.9 30.1109 3.172 30.1109 2.41188 30.1109C2.41188 29.5174 2.41188 28.9778 2.41188 28.3951C17.1539 28.3951 31.8852 28.3951 46.6486 28.3951C46.6486 28.9347 46.6486 29.485 46.6486 30.1109C46.4452 30.1109 46.2418 30.1109 46.0384 30.1109C33.6731 30.1109 21.3078 30.1109 8.94247 30.1109C8.05388 30.1109 7.61494 30.413 7.62565 31.0173C7.63635 31.6 8.06459 31.8806 8.93176 31.8806C20.0338 31.8806 31.1251 31.8806 42.2271 31.8806C42.5268 31.8806 42.8266 31.8806 43.1585 31.8806C43.1585 38.0747 43.1585 44.204 43.1585 50.3764C43.0086 50.3872 42.848 50.398 42.6981 50.398C31.4784 50.398 20.2479 50.398 9.02812 50.398C8.84612 50.398 8.67482 50.3872 8.49282 50.4088C8.00035 50.452 7.63635 50.8188 7.62565 51.2721C7.61494 51.7577 7.97894 52.1354 8.51424 52.1461C9.40282 52.1677 10.3021 52.1569 11.1907 52.1569C21.5433 52.1569 31.8852 52.1569 42.2378 52.1569C43.6938 52.1569 45.1605 52.1569 46.67 52.1569C46.67 52.772 46.67 53.3116 46.67 53.8835Z" fill="#444444"/>
<path d="M10.0246 47.4644C19.6921 47.4644 29.3595 47.4644 39.0269 47.4644C39.9904 47.4644 40.2688 47.173 40.2688 46.2126C40.2688 42.8674 40.2688 39.5222 40.2688 36.177C40.2688 35.0439 40.0547 34.8281 38.9198 34.8281C34.1343 34.8281 29.3595 34.8281 24.5739 34.8281C19.7242 34.8281 14.8744 34.8281 10.0139 34.8281C9.029 34.8281 8.76135 35.0871 8.76135 36.0583C8.76135 39.4359 8.76135 42.8135 8.76135 46.2019C8.79347 47.173 9.07182 47.4644 10.0246 47.4644ZM10.5599 36.6302C19.8634 36.6302 29.1668 36.6302 38.5023 36.6302C38.5023 39.6193 38.5023 42.6084 38.5023 45.6515C29.1989 45.6515 19.9169 45.6515 10.5599 45.6515C10.5599 42.63 10.5599 39.6517 10.5599 36.6302Z" fill="#444444"/>
<path d="M24.5312 37.9033C22.8182 37.9033 21.3622 39.3493 21.3194 41.0867C21.2766 42.8456 22.7112 44.3348 24.4669 44.3672C26.2334 44.3995 27.6894 42.9859 27.7322 41.2054C27.7751 39.4356 26.287 37.9033 24.5312 37.9033ZM24.4455 42.5974C23.6533 42.5435 23.0538 41.8636 23.0859 41.0759C23.118 40.245 23.7925 39.6407 24.6168 39.6838C25.3984 39.7162 26.0086 40.3961 25.9765 41.1946C25.9444 42.0039 25.2271 42.6514 24.4455 42.5974Z" fill="#444444"/>
</svg>
