<svg width="50" height="50" viewBox="0 0 50 50" fill="none" xmlns="http://www.w3.org/2000/svg">
<path d="M25.41 0C25.41 0.566582 25.41 1.12339 25.41 1.71928C24.8242 1.71928 24.2678 1.71928 23.6528 1.71928C23.6528 1.14293 23.6528 0.566582 23.6528 0C24.2385 0 24.8242 0 25.41 0Z" fill="#444444"/>
<path d="M4.32453 32.4613C3.33858 32.4613 2.38191 32.4027 1.43501 32.4711C0.00977438 32.5688 -0.283082 31.8068 0.302631 30.6639C1.66929 28.0557 2.95786 25.4181 4.25619 22.7708C4.54905 22.1652 4.94929 21.9112 5.62286 21.921C8.79547 21.9503 11.9681 21.9405 15.1407 21.9405C15.3359 21.9405 15.5214 21.9405 15.7459 21.9405C15.7459 20.4459 15.7362 19.0197 15.7459 17.5837C15.7557 16.5775 15.7264 15.5616 15.7947 14.5554C15.9509 12.25 17.8838 10.5014 20.3047 10.5209C22.0326 10.5405 23.7507 10.5209 25.4785 10.5209C26.5719 10.5209 27.6554 10.5112 28.7488 10.5209C30.9452 10.5405 32.5364 11.7323 33.1318 13.8423C33.2587 14.2721 33.288 14.741 33.288 15.1904C33.3076 17.2613 33.2978 19.3225 33.2978 21.3934C33.2978 21.5497 33.2978 21.7158 33.2978 21.9307C33.5321 21.9307 33.7273 21.9307 33.9128 21.9307C37.0659 21.9307 40.2287 21.9405 43.3818 21.9112C44.0749 21.9014 44.4849 22.1359 44.7973 22.7708C46.0956 25.4474 47.4428 28.0947 48.7704 30.7616C48.8387 30.8886 48.907 31.0253 48.9656 31.1523C49.2487 31.8361 48.8875 32.4223 48.1456 32.432C47.1889 32.4516 46.2225 32.4418 45.2659 32.4418C45.1097 32.4418 44.9437 32.4418 44.729 32.4418C44.7192 32.6372 44.6997 32.813 44.6997 32.9791C44.6997 37.0624 44.6997 41.1554 44.6997 45.2387C44.6997 47.1534 43.9773 48.6773 42.2006 49.5174C41.5759 49.8104 40.8242 49.9765 40.1409 49.9765C32.0092 50.0058 23.8776 49.996 15.7362 49.996C13.4616 49.996 11.1774 50.0058 8.90285 49.996C6.71619 49.9863 5.06643 48.7359 4.50024 46.6356C4.37333 46.157 4.35381 45.6392 4.35381 45.141C4.34405 41.0675 4.35381 37.0037 4.35381 32.9302C4.35381 32.8032 4.34405 32.6567 4.32453 32.4613ZM32.3997 26.6392C32.263 26.8932 32.1849 27.0202 32.1166 27.1569C31.3552 28.6809 30.5742 30.2048 29.8323 31.7384C29.5883 32.2366 29.2564 32.4711 28.6902 32.4613C26.3278 32.4516 23.9752 32.4613 21.6128 32.4613C16.605 32.4613 11.5874 32.4711 6.57952 32.4613C6.21833 32.4613 6.10119 32.559 6.11095 32.9302C6.12071 37.1014 6.11095 41.2629 6.12071 45.4341C6.12071 47.1729 7.23357 48.267 8.97118 48.267C10.7967 48.267 12.6124 48.267 14.4378 48.267C14.5745 48.267 14.7209 48.2475 14.8869 48.2377C14.8869 48.0032 14.8869 47.8079 14.8869 47.6125C14.8869 44.7307 14.9162 41.849 14.8771 38.9672C14.8576 38.0295 15.5702 37.3359 16.4976 38.0001C17.2297 38.5277 17.9033 38.469 18.6159 37.9806C19.065 37.668 19.5531 37.6778 19.9826 37.9904C20.705 38.5081 21.359 38.4495 22.1107 38.0099C23.0673 37.4433 23.6823 37.8439 23.6823 38.9477C23.6823 41.8783 23.6823 44.8089 23.6823 47.7395C23.6823 47.9153 23.6823 48.0814 23.6823 48.2377C26.6402 48.2377 29.5297 48.2377 32.4387 48.2377C32.3997 41.0577 32.3997 33.9169 32.3997 26.6392ZM31.853 23.7282C31.6578 23.7184 31.5406 23.6988 31.4137 23.6988C23.0283 23.6988 14.6331 23.6988 6.24762 23.6988C5.91571 23.6988 5.73024 23.7868 5.57405 24.0994C4.56857 26.1605 3.53381 28.2022 2.50882 30.2438C2.45024 30.3708 2.40144 30.5076 2.32334 30.6737C2.49905 30.6834 2.6162 30.703 2.7431 30.703C11.1481 30.703 19.5531 30.703 27.958 30.7127C28.2899 30.7127 28.4364 30.5857 28.573 30.3025C29.3345 28.759 30.1057 27.2156 30.8768 25.6819C31.199 25.0469 31.5211 24.4022 31.853 23.7282ZM34.2056 48.2572C36.1971 48.2572 38.1299 48.2572 40.0628 48.2572C41.8394 48.2572 42.9425 47.1827 42.9523 45.4146C42.9621 41.2531 42.9523 37.0819 42.9621 32.9205C42.9621 32.5492 42.8449 32.4516 42.4837 32.4516C40.9902 32.4711 39.4868 32.4418 37.9933 32.4711C37.3978 32.4809 37.0268 32.266 36.7633 31.7287C36.0311 30.2048 35.2599 28.7004 34.5083 27.1863C34.4302 27.0397 34.3521 26.8932 34.2154 26.6392C34.2056 33.9169 34.2056 41.0577 34.2056 48.2572ZM28.2314 21.8916C29.2759 21.8916 30.3985 21.8916 31.5504 21.8916C31.5504 19.6058 31.5602 17.359 31.5504 15.1122C31.5407 13.3832 30.4473 12.2891 28.6999 12.2891C25.9178 12.2793 23.1454 12.2793 20.3633 12.2891C18.6257 12.2891 17.5226 13.3832 17.5128 15.1122C17.5031 17.1929 17.5128 19.2737 17.5128 21.3544C17.5128 21.5302 17.5324 21.6963 17.5421 21.8819C18.7038 21.8819 19.8264 21.8819 20.8319 21.8819C20.6073 21.1004 20.334 20.3384 20.1778 19.5569C20.0412 18.8536 20.4316 18.4238 21.1442 18.4238C23.3992 18.414 25.664 18.414 27.919 18.4238C28.6316 18.4238 29.0221 18.8536 28.8854 19.5667C28.7292 20.358 28.4559 21.1199 28.2314 21.8916ZM46.7204 30.703C46.6911 30.5857 46.6911 30.5174 46.6716 30.4685C45.588 28.2999 44.5142 26.141 43.4111 23.9821C43.333 23.8356 43.0597 23.7184 42.8742 23.7086C40.4044 23.6891 37.9347 23.6891 35.4649 23.6891C35.2502 23.6891 35.0256 23.6891 34.7621 23.6891C34.8206 23.8356 34.8402 23.904 34.8597 23.9528C35.9335 26.1019 37.0073 28.251 38.0714 30.4099C38.2178 30.703 38.413 30.703 38.6571 30.703C40.9316 30.703 43.2061 30.703 45.4806 30.703C45.8809 30.703 46.2909 30.703 46.7204 30.703ZM21.8764 48.2475C21.8764 45.5025 21.8764 42.8161 21.8764 40.032C21.2516 40.4912 20.6757 40.3642 20.1193 40.0223C19.9923 39.9441 19.8459 39.905 19.7288 39.8269C19.4066 39.6022 19.1138 39.6608 18.7819 39.8367C18.1181 40.1981 17.4445 40.6768 16.6733 40.0223C16.6733 42.8259 16.6733 45.5318 16.6733 48.2475C18.4109 48.2475 20.1193 48.2475 21.8764 48.2475ZM22.1302 20.2114C22.384 21.2176 23.4578 21.96 24.5804 21.921C25.703 21.8916 26.7378 21.1297 26.9038 20.2114C25.3126 20.2114 23.7311 20.2114 22.1302 20.2114Z" fill="#444444"/>
<path d="M12.2023 12.2791C11.6361 12.2791 11.0992 12.2791 10.5818 12.2791C9.96684 6.42769 6.74542 3.20404 0.849243 2.54954C0.849243 2.44209 0.849243 2.28579 0.849243 2.11972C0.849243 1.71921 0.849243 1.31869 0.849243 0.918176C7.16518 0.791184 12.378 6.28116 12.2023 12.2791Z" fill="#444444"/>
<path d="M48.1846 0.907828C48.1846 1.48418 48.1846 2.03122 48.1846 2.62711C45.5392 2.68572 43.2451 3.61374 41.3904 5.47955C39.5454 7.3356 38.6082 9.60192 38.5594 12.259C37.9737 12.259 37.4173 12.259 36.8609 12.259C36.6266 6.61272 41.5856 0.839448 48.1846 0.907828Z" fill="#444444"/>
<path d="M0 13.0015C0 12.5619 0 12.0148 0 11.4678C4.74427 11.2333 8.96141 15.7172 8.66855 20.1912C8.20974 20.1912 7.74117 20.1814 7.2726 20.1912C6.98951 20.201 6.97974 20.0251 6.96022 19.8102C6.76498 17.0164 5.3788 14.9943 2.86023 13.8123C2.00119 13.4118 1.01524 13.275 0 13.0015Z" fill="#444444"/>
<path d="M40.3653 20.1916C40.2091 15.3952 44.5044 11.2533 49.0534 11.4585C49.0534 12.0153 49.0534 12.5819 49.0534 13.1582C47.6965 13.1778 46.447 13.5197 45.3439 14.2523C43.372 15.5515 42.2591 17.3783 42.1127 19.7521C42.0932 20.0842 41.9956 20.2112 41.6539 20.1916C41.2341 20.1721 40.8144 20.1916 40.3653 20.1916Z" fill="#444444"/>
<path d="M21.8373 8.76195C21.2907 8.76195 20.744 8.76195 20.1583 8.76195C20.09 7.08174 19.5238 5.61644 18.3328 4.43444C17.1516 3.2622 15.7069 2.68585 14.0278 2.61747C14.0278 2.04112 14.0278 1.49407 14.0278 0.947031C17.874 0.653971 22.0423 4.33675 21.8373 8.76195Z" fill="#444444"/>
<path d="M35.0353 0.898861C35.0353 1.48498 35.0353 2.02226 35.0353 2.60837C33.366 2.67676 31.9115 3.24334 30.7303 4.41557C29.5491 5.58781 28.9634 7.04334 28.895 8.73332C28.3289 8.73332 27.7724 8.73332 27.216 8.73332C26.972 5.031 30.3593 0.850018 35.0353 0.898861Z" fill="#444444"/>
<path d="M12.2218 2.60795C11.636 2.60795 11.0894 2.60795 10.5134 2.60795C10.5134 2.0316 10.5134 1.49432 10.5134 0.908203C11.0796 0.908203 11.636 0.908203 12.2218 0.908203C12.2218 1.47478 12.2218 2.02183 12.2218 2.60795Z" fill="#444444"/>
<path d="M38.5399 2.60795C37.9737 2.60795 37.427 2.60795 36.8511 2.60795C36.8511 2.04137 36.8511 1.48456 36.8511 0.898438C37.4173 0.898438 37.9639 0.898438 38.5399 0.898438C38.5399 1.46502 38.5399 2.02183 38.5399 2.60795Z" fill="#444444"/>
<path d="M25.3808 5.25541C24.7951 5.25541 24.268 5.25541 23.692 5.25541C23.692 4.68883 23.692 4.13202 23.692 3.53613C24.2387 3.53613 24.7951 3.53613 25.3808 3.53613C25.3808 4.10271 25.3808 4.65953 25.3808 5.25541Z" fill="#444444"/>
<path d="M14.8966 8.75248C14.8966 8.17613 14.8966 7.63885 14.8966 7.0625C15.453 7.0625 16.0095 7.0625 16.6049 7.0625C16.6049 7.60954 16.6049 8.16636 16.6049 8.75248C16.0387 8.75248 15.4921 8.75248 14.8966 8.75248Z" fill="#444444"/>
<path d="M23.6824 7.04297C24.2486 7.04297 24.7855 7.04297 25.3712 7.04297C25.3712 7.59001 25.3712 8.14683 25.3712 8.74271C24.8245 8.74271 24.2681 8.74271 23.6824 8.74271C23.6824 8.1859 23.6824 7.62909 23.6824 7.04297Z" fill="#444444"/>
<path d="M32.4581 7.04297C33.0341 7.04297 33.5807 7.04297 34.1567 7.04297C34.1567 7.60955 34.1567 8.1566 34.1567 8.74271C33.6003 8.74271 33.0438 8.74271 32.4581 8.74271C32.4581 8.1859 32.4581 7.63886 32.4581 7.04297Z" fill="#444444"/>
<path d="M10.5233 15.7769C10.5233 15.1908 10.5233 14.6437 10.5233 14.0771C11.0993 14.0771 11.6362 14.0771 12.2219 14.0771C12.2219 14.634 12.2219 15.1908 12.2219 15.7769C11.6459 15.7769 11.109 15.7769 10.5233 15.7769Z" fill="#444444"/>
<path d="M36.8412 14.0664C37.4074 14.0664 37.954 14.0664 38.53 14.0664C38.53 14.633 38.53 15.1703 38.53 15.7661C37.9833 15.7661 37.4269 15.7661 36.8412 15.7661C36.8412 15.2093 36.8412 14.6721 36.8412 14.0664Z" fill="#444444"/>
<path d="M10.5134 19.2837C10.5134 18.7074 10.5134 18.1701 10.5134 17.5938C11.0796 17.5938 11.6165 17.5938 12.2022 17.5938C12.2022 18.1408 12.2022 18.6976 12.2022 19.2837C11.6556 19.2837 11.0991 19.2837 10.5134 19.2837Z" fill="#444444"/>
<path d="M38.5301 19.2837C37.9737 19.2837 37.427 19.2837 36.8511 19.2837C36.8511 18.7269 36.8511 18.1701 36.8511 17.584C37.4075 17.584 37.9542 17.584 38.5301 17.584C38.5301 18.131 38.5301 18.6781 38.5301 19.2837Z" fill="#444444"/>
<path d="M28.036 15.7661C28.0458 16.2252 27.6455 16.6452 27.1867 16.6648C26.7182 16.6843 26.3082 16.2936 26.2886 15.8247C26.2789 15.3558 26.6596 14.9455 27.1282 14.9357C27.6163 14.926 28.0165 15.2972 28.036 15.7661Z" fill="#444444"/>
<path d="M22.7746 15.8147C22.7649 16.2836 22.3549 16.6744 21.8863 16.6646C21.4275 16.6548 21.0175 16.2348 21.0273 15.7854C21.037 15.3165 21.4373 14.9355 21.9156 14.9355C22.3842 14.9453 22.7746 15.3458 22.7746 15.8147Z" fill="#444444"/>
</svg>
