<svg width="48" height="51" viewBox="0 0 48 51" fill="none" xmlns="http://www.w3.org/2000/svg">
<path d="M47.4124 18.5099C44.9706 7.55851 34.9742 -0.181251 23.5026 0.00322854C12.2175 0.187708 2.46703 8.33835 0.41519 19.3568C-1.68752 30.6352 4.48495 40.3456 12.421 44.5047C12.6669 44.0687 12.9043 43.6327 13.1501 43.1966C7.06246 39.6328 3.16228 34.5093 1.94135 27.6165C0.7289 20.7153 2.46703 14.5017 7.10485 9.19367C15.5835 -0.533439 30.701 -1.04495 39.8494 8.07002C44.411 12.6149 46.6748 18.1577 46.3865 24.5474C46.0219 32.7987 41.9691 38.9368 34.864 43.2134C35.1099 43.6494 35.3473 44.0771 35.5932 44.5131C44.1396 39.9682 49.9136 29.6877 47.4124 18.5099Z" fill="#444444"/>
<path d="M31.0486 43.0625C30.9553 42.9703 30.862 42.8697 30.7518 42.7439C30.9299 42.702 31.0486 42.6768 31.1673 42.6433C32.3543 42.3246 33.1258 41.5783 33.4819 40.4127C33.6515 39.8509 33.6176 39.3478 33.2954 38.8111C32.3204 37.1927 31.3877 35.5492 30.4551 33.9056C30.2516 33.5367 29.9802 33.3187 29.5648 33.2096C28.5728 32.9497 27.5977 32.6562 26.5973 32.3711C28.3863 30.0735 28.4371 28.0107 26.7668 26.4342C25.3 25.0506 23.0108 24.9751 21.4677 26.2497C20.6961 26.887 20.2213 27.692 20.0772 28.6731C19.8652 30.1154 20.3485 31.3313 21.4761 32.3543C20.4078 32.6562 19.4074 32.9497 18.4069 33.218C18.0592 33.3103 17.8134 33.4864 17.6268 33.805C16.6094 35.5827 15.5835 37.3437 14.566 39.1214C14.4897 39.2472 14.4304 39.4065 14.4304 39.549C14.3965 40.9662 15.3969 42.2575 16.7874 42.6181C16.9316 42.66 17.0757 42.6936 17.2792 42.7355C17.1436 42.8781 17.0418 42.9871 16.9401 43.0961C15.6937 44.3287 14.4473 45.5698 13.1925 46.8024C12.9297 47.0624 12.8194 47.3391 12.8449 47.6997C12.9381 49.3013 14.2523 50.6178 15.9311 50.643C18.9156 50.6849 21.8916 50.6681 24.8761 50.6514C25.7918 50.643 26.504 50.2069 26.9364 49.3935C27.7928 47.8003 26.6481 45.9471 24.7913 45.922C22.7734 45.8968 20.747 45.9136 18.7291 45.9136C18.6443 45.9136 18.568 45.9304 18.4662 45.9471C18.4662 46.4503 18.4662 46.9282 18.4662 47.4817C18.6782 47.4817 18.8478 47.4817 19.0089 47.4817C20.8742 47.4817 22.7395 47.4817 24.6048 47.4817C25.2576 47.4817 25.6307 47.7668 25.6307 48.2783C25.6392 48.7814 25.2576 49.0917 24.6217 49.0917C22.6971 49.0917 20.7809 49.0917 18.8562 49.0917C17.9236 49.0917 16.9909 49.0917 16.0583 49.0917C15.3885 49.0833 14.9052 48.7814 14.583 48.2028C14.4389 47.9512 14.4643 47.7668 14.6847 47.5404C16.2279 46.0394 17.754 44.5216 19.2717 43.0038C19.4752 42.8026 19.6872 42.7187 19.9754 42.7187C22.6716 42.7271 25.3763 42.7271 28.0725 42.7187C28.3863 42.7187 28.5982 42.8194 28.8102 43.0374C30.277 44.5048 31.7608 45.9639 33.2445 47.4313C33.66 47.8422 33.6685 47.9848 33.3124 48.4544C32.9817 48.882 32.5408 49.0917 31.9982 49.1001C31.2775 49.1001 30.5568 49.1001 29.8361 49.1001C29.5139 49.1001 29.1917 49.1001 28.8611 49.1001C28.8611 49.6451 28.8611 50.1398 28.8611 50.6681C29.8446 50.6681 30.8027 50.6681 31.7608 50.6681C31.9558 50.6681 32.1593 50.6681 32.3543 50.643C33.8974 50.4417 34.9996 49.36 35.2031 47.859C35.2625 47.423 35.1522 47.0875 34.8216 46.7689C33.5328 45.5446 32.2949 44.3036 31.0486 43.0625ZM24.0028 26.9122C25.3509 26.9122 26.4192 27.9771 26.4107 29.3104C26.4023 30.6185 25.3255 31.6667 23.9943 31.6583C22.6716 31.6583 21.5949 30.6018 21.5864 29.302C21.5779 27.9855 22.6632 26.9122 24.0028 26.9122ZM23.9943 41.1842C21.917 41.1842 19.8398 41.1842 17.7625 41.1842C16.9485 41.1842 16.3466 40.832 16.1176 40.1779C16.0498 39.9851 16.0583 39.7 16.16 39.5239C17.0164 37.9977 17.8982 36.48 18.7799 34.979C18.8647 34.828 19.0513 34.6939 19.2208 34.6436C20.7046 34.2075 22.2053 33.7799 23.6976 33.369C23.8926 33.3187 24.1215 33.3187 24.3165 33.3774C25.7833 33.7799 27.2586 34.1824 28.7169 34.6184C28.9289 34.6855 29.1578 34.87 29.268 35.0628C30.1329 36.5219 30.9638 37.9977 31.8286 39.4568C32.0151 39.7671 31.9982 40.027 31.8371 40.3121C31.4979 40.9242 30.9638 41.1926 30.2685 41.1926C28.1743 41.1842 26.0885 41.1842 23.9943 41.1842Z" fill="#444444"/>
<path d="M23.2483 19.0127C23.2483 19.5242 23.2483 20.0273 23.2483 20.5388C23.7655 20.5388 24.2657 20.5388 24.7575 20.5388C24.7575 20.0106 24.7575 19.5158 24.7575 19.0127C24.2403 19.0127 23.757 19.0127 23.2483 19.0127Z" fill="#444444"/>
<path d="M23.2396 23.7164C23.7653 23.7164 24.2486 23.7164 24.7658 23.7164C24.7658 23.2133 24.7658 22.7269 24.7658 22.207C24.2401 22.207 23.7399 22.207 23.2396 22.207C23.2396 22.7269 23.2396 23.2133 23.2396 23.7164Z" fill="#444444"/>
<path d="M24.766 15.8604C24.2488 15.8604 23.7485 15.8604 23.2313 15.8604C23.2313 16.3803 23.2313 16.8666 23.2313 17.3698C23.757 17.3698 24.2572 17.3698 24.766 17.3698C24.766 16.8498 24.766 16.3635 24.766 15.8604Z" fill="#444444"/>
<path d="M29.1409 38.0138C28.2337 38.0138 27.3349 38.0055 26.4277 38.0222C26.1479 38.0306 25.9614 37.9551 25.8088 37.7036C25.4526 37.1334 25.0711 36.5799 24.6811 36.0349C24.308 35.5066 23.6891 35.5066 23.316 36.0349C23.0278 36.429 22.714 36.8231 22.5021 37.2591C22.1884 37.8964 21.7305 38.0977 21.0183 38.039C20.1704 37.9719 19.3056 38.0222 18.4408 38.0222C18.4408 38.5673 18.4408 39.062 18.4408 39.5819C19.7126 39.5819 20.959 39.5735 22.1968 39.5903C22.6377 39.5987 22.943 39.431 23.1719 39.062C23.4178 38.6595 23.6976 38.2822 23.9943 37.8377C24.308 38.3073 24.5624 38.7518 24.8846 39.1291C25.0542 39.3303 25.3509 39.5567 25.5968 39.5651C26.8347 39.6071 28.081 39.5903 29.3189 39.5819C29.4122 39.5819 29.5733 39.4394 29.5733 39.3639C29.5987 38.9362 29.5818 38.5086 29.5818 38.0306C29.4122 38.0138 29.2765 38.0138 29.1409 38.0138Z" fill="#444444"/>
<path d="M20.4673 24.874V12.2539H18.6189L14.8713 14.9289L16.1007 16.7904L18.0254 15.4068V24.874H20.4673Z" fill="#444444"/>
<path d="M28.9035 24.3133C29.709 24.8835 30.6501 25.1686 31.7184 25.1686C32.7868 25.1686 33.7279 24.8835 34.5334 24.3133C35.3388 23.743 35.9663 22.9548 36.4071 21.9486C36.848 20.9423 37.0685 19.8187 37.0685 18.5609C37.0685 17.303 36.848 16.1794 36.4071 15.1731C35.9663 14.1669 35.3388 13.387 34.5334 12.8084C33.7279 12.2382 32.7868 11.9531 31.7184 11.9531C30.6501 11.9531 29.709 12.2382 28.9035 12.8084C28.0981 13.3786 27.4706 14.1669 27.0297 15.1731C26.5889 16.1794 26.3684 17.303 26.3684 18.5609C26.3684 19.8187 26.5889 20.9423 27.0297 21.9486C27.4706 22.9548 28.0896 23.743 28.9035 24.3133ZM29.6073 15.4499C30.1329 14.6365 30.8282 14.234 31.7184 14.234C32.6172 14.234 33.3209 14.6365 33.8466 15.4415C34.3723 16.2465 34.6266 17.2863 34.6266 18.5692C34.6266 19.391 34.5079 20.1373 34.279 20.7914C34.0501 21.4454 33.7109 21.9653 33.27 22.3427C32.8291 22.72 32.3119 22.9045 31.71 22.9045C31.1249 22.9045 30.6162 22.72 30.1753 22.3427C29.7344 21.9653 29.3953 21.4538 29.1664 20.7914C28.9374 20.1373 28.8187 19.391 28.8187 18.5692C28.8272 17.2946 29.0901 16.2549 29.6073 15.4499Z" fill="#444444"/>
</svg>
