<?xml version="1.0" encoding="utf-8"?>
<!-- Generator: Adobe Illustrator 25.0.0, SVG Export Plug-In . SVG Version: 6.00 Build 0)  -->
<svg version="1.1" id="Слой_1" xmlns="http://www.w3.org/2000/svg" xmlns:xlink="http://www.w3.org/1999/xlink" x="0px" y="0px"
	 viewBox="0 0 56.7 60.4" style="enable-background:new 0 0 56.7 60.4;" xml:space="preserve">
<g>
	<path d="M47.9,12.8C47.8,12.8,47.8,12.7,47.9,12.8c-0.2-0.2-0.3-0.3-0.4-0.3c-0.1,0-0.2-0.1-0.3-0.1c-4.4-1.6-8.7-1.2-12.9,1.4
		c-2.6,1.6-4.9,4-6.8,7.2c-2.1,3.4-3.9,7.3-5.6,12.5c-0.9,2.8-1.9,4.9-3.1,6.8c-2.3,3.6-4.9,5.7-8.2,6.6c-0.3,0-0.4,0.2-0.5,0.3
		c-0.3,0.1-0.4,0.4-0.4,0.7s0.2,0.5,0.4,0.7c1.8,0.8,3.5,1.3,5.3,1.3c1.4,0,2.8-0.3,4.2-0.8c2.7-1.1,4.9-3,7.1-6.1
		c1.9-2.8,3.2-5.8,4.4-8.6l1-2.4c1.1-2.7,2.3-5.5,3.6-8.2c1.1-2.3,2.3-4.2,3.9-5.6c1.8-1.6,4-2.8,6.9-3.5c0.4-0.1,0.8-0.2,1.3-0.4
		c0.2-0.1,0.4-0.3,0.5-0.5c0.1-0.2,0-0.5-0.2-0.7C47.9,12.9,47.9,12.8,47.9,12.8z M35.6,17c-1.3,1.5-2.4,3.2-3.3,5.2
		c-1.2,2.6-2.3,5.4-3.5,8.1l-1.4,3.2c-1.1,2.7-2.2,5.2-3.7,7.4c-1.3,1.8-2.6,3.2-4.1,4.1c0.7-0.8,1.3-1.7,2.1-2.8
		c1.4-2.2,2.5-4.7,3.5-7.8c1.5-4.6,3.1-8.2,5.2-11.6C32.1,20.2,33.7,18.4,35.6,17z"/>
	<path d="M56.7,20.4l-0.1-1c0-0.7-0.1-1.6-0.2-2.2c-0.5-4.6-2.3-8.5-5.2-11.6C47.8,2,43.4,0.1,37.9,0h-0.5c-3,0-6,0.6-9.5,1.8
		c-5,1.7-9.7,4.7-14,8.8c-6.3,6.1-10.5,13-12.6,20.7c-1.5,5.2-1.6,9.9-0.5,14.4c1.5,6.2,5,10.6,10.5,13.1c2.4,1.1,4.9,1.6,7.7,1.6
		c1.7,0,3.2-0.1,4.9-0.4c3.3-0.5,6.8-1.8,10.5-3.9c8-4.6,14.3-11.4,18.6-20.2c2.4-4.9,3.7-10.1,3.8-15.3
		C56.7,20.5,56.7,20.4,56.7,20.4z M53.1,20.5c0,4.7-1.1,9.4-3.3,13.8c0,0,0,0,0,0c-3.9,8-9.7,14.3-17.2,18.7c-3.3,1.9-6.2,3-9.2,3.5
		c-3.2,0.5-7,0.8-10.7-0.8c-4.5-2-7.4-5.6-8.6-10.7c-0.9-4-0.8-8.2,0.5-12.6c2-7.3,5.8-13.6,11.7-19.3c4-3.8,8.1-6.4,12.6-7.9
		c3.4-1.1,6.2-1.7,8.8-1.7c4.6,0.1,8.1,1.6,10.9,4.5c2.5,2.6,3.9,5.7,4.3,9.7c0,0.5,0.1,1,0.1,1.5C53,19.6,53.1,20.1,53.1,20.5z"/>
</g>
</svg>
