<?xml version="1.0" encoding="utf-8"?>
<!-- Generator: Adobe Illustrator 25.0.0, SVG Export Plug-In . SVG Version: 6.00 Build 0)  -->
<svg version="1.1" id="Слой_1" xmlns="http://www.w3.org/2000/svg" xmlns:xlink="http://www.w3.org/1999/xlink" x="0px" y="0px"
	 viewBox="0 0 95.2 120.7" style="enable-background:new 0 0 95.2 120.7;" xml:space="preserve">
<path d="M15.8,104.9c-1.3-2.1-2.4-4.4-3.2-6.7c-0.5-1.3-1.7-2.1-3-2.1c0,0,0,0,0,0c-1.3,0-2.5,0.9-3,2.1c-2.1,6.1-4.3,12.2-6.5,18.2
	c-0.3,1-0.2,2.1,0.4,2.9c0.6,0.8,1.6,1.3,2.6,1.3c0,0,0,0,0,0c2,0,4,0,6,0c1.3,0,2.5-0.9,3-2.1c0.4-1,0.7-2,1.1-3l0,0
	c0.9-2.6,1.9-5.3,2.8-7.9C16.4,106.7,16.3,105.7,15.8,104.9z M10.3,114.5c-0.4,1-0.7,2-1.1,3c-2,0-4,0-6,0
	c2.2-6.1,4.3-12.2,6.5-18.2c0.9,2.5,2.1,4.9,3.5,7.3C12.1,109.2,11.2,111.9,10.3,114.5z"/>
<path d="M95.1,116.4c-2.2-6.1-4.3-12.1-6.5-18.2c-0.4-1.3-1.6-2.1-3-2.1c0,0,0,0,0,0c-1.3,0-2.5,0.8-3,2.1c-0.8,2.3-1.9,4.5-3.2,6.7
	c-0.5,0.8-0.6,1.8-0.3,2.7c1.5,4.2,2.7,7.7,3.9,11c0.4,1.3,1.7,2.1,3,2.1c0,0,0,0,0,0c1.5,0,3.1,0,4.6,0h1.4c1,0,2-0.5,2.6-1.3
	C95.2,118.5,95.4,117.4,95.1,116.4z M90.7,117.5c-1.6,0-3.2,0-4.7,0c-1.1-3.2-2.4-6.8-3.9-11c1.4-2.3,2.6-4.7,3.5-7.2
	c2.2,6.1,4.3,12.1,6.5,18.2C91.8,117.5,90.7,117.5,90.7,117.5z"/>
<path d="M52.2,1.3C51.6,0.5,50.7,0,49.6,0h-6c-1.3,0-2.5,0.8-3,2.1C38.8,7,37.1,12,35.2,17.4c-0.4,1.2-0.1,2.5,0.8,3.3
	c0.6,0.6,1.4,0.9,2.2,0.9c0.4,0,0.8-0.1,1.2-0.2c1.9-0.7,3.8-1.2,5.8-1.4c1.2-0.1,2.3-0.9,2.7-2.1c0.8-2.2,1.5-4.4,2.3-6.5l0,0
	c0.6-1.6,1.2-3.3,1.7-4.9c0.3-0.8,0.5-1.5,0.8-2.3C53,3.2,52.8,2.2,52.2,1.3z M48.8,5.5c-0.6,1.6-1.2,3.3-1.7,4.9
	c-0.8,2.1-1.5,4.3-2.3,6.5c-2.3,0.2-4.5,0.7-6.6,1.6c1.8-5,3.6-10.2,5.4-15.3h6C49.4,3.9,49.1,4.7,48.8,5.5z"/>
<path d="M81.6,80.6c-1-6.4-3.3-12-7-16.5c-3.6-4.5-8.5-8-14.5-10.6c-3.5-1.5-7.5-2.2-12.8-2.4c-2.7-0.1-5.1-1.4-6.5-3.6
	c-1.4-2.2-1.7-4.8-0.8-7.3c1.2-3.2,3.5-5,6.8-5.3c0.3,0,0.6,0,0.9,0c2.7,0,5,1.2,6.6,3.6c0.6,0.9,1.6,1.4,2.7,1.4
	c0.4,0,0.7-0.1,1.1-0.2c1.9-0.7,3.7-1.3,5.5-2c0.9-0.3,1.6-1,1.9-1.9c0.3-0.9,0.3-1.8-0.2-2.7c-1.6-2.9-4-5.4-6.7-7.2
	c-3.3-2.1-7.1-3.2-11.1-3.2c-1.7,0-3.3,0.2-4.9,0.6c-4.5,1.1-8.7,4-11.5,8c-3.1,4.4-4.3,9.8-3.4,15.1c1.6,8.8,8.8,15.7,17.6,16.6
	c0.8,0.1,1.5,0.1,2.4,0.2c1,0.1,2.1,0.1,3.1,0.3c5.4,0.7,10.2,3.3,13.8,7.4C68,74.9,70,80.1,70,85.6c0,0.4-0.1,0.8-0.1,1.3
	c-0.1,0.9-0.1,1.8-0.3,2.7c-1.7,10.3-10.8,18.2-21.1,18.4c-0.2,0-0.4,0-0.6,0c-4.1,0-7.8-0.9-11-2.7c-3.3-1.8-6.1-4.6-8.4-8.1
	c-3.1-4.9-4-10.5-2.6-16.6c0.4-1.6-0.5-3.2-2-3.7c-0.5-0.2-5.1-1.8-5.5-1.9c-0.3-0.1-0.7-0.2-1.1-0.2c-0.5,0-1,0.1-1.5,0.4
	c-0.8,0.4-1.4,1.2-1.6,2c-1.3,5.3-1.4,10.5-0.3,15.8c1.6,7.6,6,14.5,12.2,19.4c6.2,4.9,13.8,7.6,21.5,7.6h0c1.8,0,3.7-0.2,5.5-0.5
	c9-1.5,16.9-6.4,22.2-13.7C80.8,98.5,83,89.6,81.6,80.6z M72.9,103.9c-4.8,6.6-12,11-20.2,12.4c-1.6,0.3-3.3,0.4-5,0.4c0,0,0,0,0,0
	c-7,0-13.9-2.5-19.5-6.9c-5.7-4.5-9.6-10.8-11.1-17.6c-1-4.9-1-9.6,0.2-14.4c0.9,0.3,4.5,1.6,5.5,1.9c-1.6,7-0.6,13.4,3,19.1
	c5.2,8.1,12.8,12.3,22,12.3c0.2,0,0.5,0,0.7,0c11.8-0.3,22.2-9.3,24.2-21c0.2-1,0.2-2,0.3-3c0-0.4,0.1-0.8,0.1-1.2
	c0-0.1,0-0.2,0-0.3c0-6.2-2.2-12.2-6.2-16.8c-4-4.7-9.6-7.7-15.7-8.5c-1.1-0.2-2.2-0.2-3.3-0.3c-0.8-0.1-1.5-0.1-2.2-0.2
	c-7.4-0.8-13.5-6.5-14.8-14c-1.7-9.7,5.1-17.6,12.5-19.4c1.4-0.3,2.8-0.5,4.2-0.5c3.4,0,6.6,0.9,9.4,2.7c2.4,1.5,4.3,3.6,5.7,6
	c-1.8,0.7-3.7,1.3-5.5,2c-2.1-3.2-5.4-5-9.2-5c-0.4,0-0.8,0-1.2,0.1c-4.5,0.4-7.9,3-9.5,7.3c-1.3,3.5-0.9,7.2,1.1,10.2
	c2,3,5.3,4.9,9.1,5c4.9,0.2,8.5,0.8,11.7,2.2C64.5,58.7,69,62,72.2,66c3.3,4.1,5.4,9.2,6.3,15C79.7,89.2,77.8,97.3,72.9,103.9z"/>
<path d="M61.9,90.2c-1-0.4-2-0.7-3-1.1C58.6,89,58.2,89,57.8,89c-1.1,0-2.1,0.5-2.7,1.5c-1.7,2.7-4.3,4.1-7.6,4.1
	c-0.1,0-0.3,0-0.4,0c-2.5-0.1-4.9-1.3-6.6-3.4c-1.7-2.1-2.3-4.7-1.8-7.1c0.8-3.9,3.8-6.8,7.7-7.4c0.4-0.1,0.8-0.1,1.2-0.1
	c3,0,5.8,1.6,7.5,4.2c0.6,0.9,1.6,1.4,2.7,1.4c0.4,0,0.7-0.1,1.1-0.2c0.7-0.3,1.5-0.5,2.2-0.8l0.9-0.3c0.9-0.3,1.6-1,1.9-1.9
	c0.3-0.9,0.2-1.9-0.2-2.7c-1.5-2.5-3.5-4.6-5.9-6.2c-3-2-6.5-3-10.2-3c-0.6,0-1.2,0-1.9,0.1c-4.5,0.4-8.7,2.6-11.8,6
	c-3.1,3.3-4.8,7.6-5,12c0,0.2,0,0.4,0,0.5c0.1,0.4,0.1,0.7,0.1,1.1c0.1,1,0.3,2,0.5,2.9c0.9,3.8,3,7.3,6,9.9c3,2.6,6.7,4.2,10.5,4.4
	c0.4,0,0.9,0,1.3,0c6.8,0,12.7-3.3,16.2-9.2c0.5-0.8,0.6-1.8,0.3-2.7C63.5,91.2,62.8,90.5,61.9,90.2z M47.4,100.8
	c-0.4,0-0.7,0-1.1,0c-3-0.2-6.1-1.5-8.6-3.6c-2.5-2.2-4.3-5.1-5-8.2c-0.2-0.8-0.3-1.7-0.4-2.6c0-0.4-0.1-0.8-0.2-1.2
	c0.1-3.6,1.6-7.2,4.1-10c2.6-2.8,6.1-4.6,9.8-5c0.5-0.1,1-0.1,1.6-0.1c3,0,5.9,0.9,8.4,2.5c2,1.3,3.6,3,4.9,5.1
	c-0.2,0.1-0.5,0.2-0.7,0.3c-0.8,0.3-1.6,0.6-2.3,0.8c-2.3-3.5-6.1-5.6-10.2-5.6c-0.6,0-1.2,0-1.7,0.1c-5.3,0.8-9.3,4.7-10.3,10
	c-0.7,3.4,0.2,6.9,2.5,9.7c2.2,2.8,5.5,4.5,9,4.6c0.2,0,0.3,0,0.5,0c4.5,0,8-1.9,10.3-5.5c1,0.4,2,0.7,3,1.1
	C58,98.1,53.2,100.8,47.4,100.8z"/>
</svg>
