<svg width="29" height="24" viewBox="0 0 29 24" fill="none" xmlns="http://www.w3.org/2000/svg">
<path d="M8.09277 21.3342C9.32781 21.3342 10.5363 21.3342 11.7514 21.3342C11.7514 14.8387 11.7514 8.36996 11.7514 1.89453C10.523 1.89453 9.31453 1.89453 8.09277 1.89453C8.09277 8.39669 8.09277 14.8588 8.09277 21.3342Z" fill="#323337"/>
<path d="M4.29443 21.3343C4.92523 21.3343 5.52947 21.3343 6.16026 21.3343C6.16026 14.8455 6.16026 8.3768 6.16026 1.90137C5.52283 1.90137 4.91195 1.90137 4.29443 1.90137C4.29443 8.39016 4.29443 14.8589 4.29443 21.3343Z" fill="#323337"/>
<path d="M15.9941 21.3343C16.6249 21.3343 17.2358 21.3343 17.86 21.3343C17.86 14.8322 17.86 8.37012 17.86 1.90137C17.2225 1.90137 16.6117 1.90137 15.9941 1.90137C15.9941 8.39016 15.9941 14.8656 15.9941 21.3343Z" fill="#323337"/>
<path d="M21.9568 21.321C22.5942 21.321 23.2184 21.321 23.8359 21.321C23.8359 14.8255 23.8359 8.36343 23.8359 1.90137C23.1985 1.90137 22.5809 1.90137 21.9568 1.90137C21.9568 8.39016 21.9568 14.8522 21.9568 21.321Z" fill="#323337"/>
<path d="M25.3499 21.3277C25.9807 21.3277 26.5982 21.3277 27.229 21.3277C27.229 14.8322 27.229 8.37012 27.229 1.90137C26.5915 1.90137 25.9807 1.90137 25.3499 1.90137C25.3499 8.38348 25.3499 14.8455 25.3499 21.3277Z" fill="#323337"/>
<path d="M2.58145 1.90723C2.25609 1.90723 1.95065 1.90723 1.65186 1.90723C1.65186 8.39602 1.65186 14.8581 1.65186 21.3335C1.97057 21.3335 2.26273 21.3335 2.58145 21.3335C2.58145 14.8314 2.58145 8.36929 2.58145 1.90723Z" fill="#323337"/>
<path d="M13.5972 21.341C13.8296 21.341 14.042 21.341 14.2744 21.341C14.2744 14.8389 14.2744 8.3768 14.2744 1.90137C14.0354 1.90137 13.8229 1.90137 13.5972 1.90137C13.5972 8.39016 13.5972 14.8589 13.5972 21.341Z" fill="#323337"/>
<path d="M19.573 21.3544C19.6992 21.3544 19.812 21.3544 19.9183 21.3544C20.0245 21.3544 20.1308 21.341 20.2503 21.341C20.2503 14.8455 20.2503 8.3768 20.2503 1.90137C20.0179 1.90137 19.8054 1.90137 19.573 1.90137C19.573 8.39685 19.573 14.8589 19.573 21.3544Z" fill="#323337"/>
<path d="M3.53724 0.0098893C2.50141 0.00320671 1.45893 0.0165719 0.416458 0.00320671C0.11766 -0.00347588 0.0114207 0.110128 0.0114207 0.410845C0.0247007 1.41323 0.0114207 2.41562 0.0180607 3.41801C0.0180607 3.61849 -0.0948186 3.93925 0.243819 3.94593C0.575817 3.95262 0.482858 3.63185 0.482858 3.43137C0.496138 2.4624 0.489498 1.49342 0.489498 0.484353C0.668777 0.484353 0.801576 0.484353 0.934375 0.484353C1.83077 0.484353 2.72716 0.491036 3.62356 0.477671C3.72316 0.470988 3.83604 0.397479 3.92236 0.323971C3.95556 0.297241 3.93564 0.136858 3.90244 0.116811C3.78956 0.06335 3.6634 0.0098893 3.53724 0.0098893Z" fill="#323337"/>
<path d="M28.9819 19.6101C28.9819 19.4096 29.0948 19.0888 28.7561 19.0821C28.4241 19.0755 28.5171 19.3962 28.5171 19.5967C28.5105 20.5657 28.5105 21.528 28.5105 22.5437C28.3312 22.5437 28.1984 22.5437 28.0656 22.5437C27.1692 22.5437 26.2728 22.537 25.3764 22.5504C25.2768 22.5504 25.1573 22.6306 25.0776 22.6974C25.0444 22.7241 25.0643 22.8845 25.0975 22.9046C25.2038 22.9647 25.3366 23.0115 25.4561 23.0115C26.4986 23.0182 27.5344 23.0048 28.5769 23.0182C28.8823 23.0249 28.9885 22.9113 28.9819 22.6105C28.9753 21.6148 28.9885 20.6124 28.9819 19.6101Z" fill="#323337"/>
<path d="M25.7217 0.484488C26.638 0.484488 27.5543 0.484488 28.5104 0.484488C28.5104 1.56039 28.5104 2.58282 28.5104 3.60526C28.5104 3.78569 28.537 3.97948 28.7628 3.93939C28.8557 3.92602 28.9752 3.72554 28.9752 3.60526C28.9885 2.52268 28.9819 1.44678 28.9885 0.364201C28.9885 0.0835324 28.869 -0.0033413 28.6034 0.0033413C28.039 0.0167065 27.4746 0.0033413 26.9102 0.0033413C26.3923 0.0033413 25.8677 -0.0100239 25.3498 0.0167065C25.2502 0.0233891 25.1506 0.163723 25.051 0.243915C25.1506 0.324106 25.2436 0.431027 25.3565 0.471123C25.4693 0.511218 25.6021 0.484488 25.7217 0.484488Z" fill="#323337"/>
<path d="M3.60389 22.5568C2.79381 22.5367 1.99038 22.5434 1.1803 22.5434C0.961185 22.5434 0.742066 22.5434 0.489748 22.5434C0.489748 22.3897 0.489748 22.2694 0.489748 22.1491C0.489748 21.2336 0.496388 20.3248 0.476468 19.4093C0.476468 19.2957 0.350308 19.1019 0.257349 19.0818C0.0581503 19.0417 0.0183105 19.2222 0.0183105 19.3892C0.0183105 20.4919 0.0183105 21.5945 0.0183105 22.6971C0.0183105 22.9243 0.11791 23.0179 0.343669 23.0179C1.43926 23.0112 2.53485 23.0179 3.63045 23.0179C3.80309 23.0179 3.98237 22.9778 3.93589 22.7773C3.90269 22.6837 3.71677 22.5635 3.60389 22.5568Z" fill="#323337"/>
</svg>
