<?xml version="1.0" encoding="utf-8"?>
<!-- Generator: Adobe Illustrator 25.0.0, SVG Export Plug-In . SVG Version: 6.00 Build 0)  -->
<svg version="1.1" id="Слой_1" xmlns="http://www.w3.org/2000/svg" xmlns:xlink="http://www.w3.org/1999/xlink" x="0px" y="0px"
	 viewBox="0 0 64.3 73" style="enable-background:new 0 0 64.3 73;" xml:space="preserve">
<g>
	<g>
		<path d="M32.6,0c1.3,0.7,2.7,1.4,4,2.2c4,2.3,7.9,4.6,11.9,6.9c1.3,0.7,1.8,2.1,1.2,3.4c-0.3,0.6-0.7,1-1.2,1.3
			c-4.7,2.7-9.4,5.4-14.1,8.1c-0.3,0.2-0.6,0.4-1,0.6c-1.8,0.9-3.8-0.3-3.8-2.3c0-1.8,0-3.7,0-5.5c0-0.1,0-0.3,0-0.5
			c-0.9,0.1-1.8,0.2-2.6,0.4c-6.1,1.2-11.2,4.2-15.3,9c-3.3,3.9-5.4,8.3-6.1,13.3c-1.3,9.7,1.7,17.9,8.9,24.4
			c4.1,3.6,8.9,5.8,14.3,6.4c9,1,16.7-1.8,22.9-8.3c3.9-4.1,6.2-9,7.1-14.6C59,43.5,59,42.2,59,41c0.1-1.4,0.8-2.4,2.1-2.7
			c1.5-0.4,3.1,0.8,3.1,2.4c0.1,2.3-0.2,4.7-0.7,6.9c-2.4,10.9-10.3,19.9-20.7,23.6c-2.8,1-5.8,1.6-8.8,1.8c-0.1,0-0.3,0-0.4,0.1
			c-1,0-2,0-3.1,0c-0.4,0-0.9-0.1-1.3-0.1c-3.7-0.3-7.2-1.3-10.5-2.8C8.1,65.2,0.9,54.9,0.1,43.1c-0.2-3.6,0.1-7.2,1-10.7
			c2.3-8.1,7-14.4,14.2-18.9c3.8-2.4,7.9-3.8,12.3-4.5c0.6-0.1,1.3-0.2,2-0.2c0-0.2,0-0.3,0-0.4c0-1.9,0-3.8,0-5.8
			c0-1,0.5-1.8,1.4-2.3c0.2-0.1,0.5-0.2,0.8-0.3C32,0,32.3,0,32.6,0z"/>
	</g>
</g>
</svg>
