<?xml version="1.0" encoding="utf-8"?>
<!-- Generator: Adobe Illustrator 25.0.0, SVG Export Plug-In . SVG Version: 6.00 Build 0)  -->
<svg version="1.1" id="Слой_1" xmlns="http://www.w3.org/2000/svg" xmlns:xlink="http://www.w3.org/1999/xlink" x="0px" y="0px"
	 viewBox="0 0 806.1 468.4" style="enable-background:new 0 0 806.1 468.4;" xml:space="preserve">
<g>
	<path d="M763.3,274.9c-19-16.2-38-32.5-58-47.4c-53.4-39.8-111.3-71.4-174.9-91.8c-44-14.1-89-21.7-135.3-20.7
		c-43.3,0.9-85.5,9-126.4,23c-85.7,29.3-160.3,77.2-227,137.8c-9.7,8.8-9.7,22.4-0.3,31.5c4.3,4.2,8.9,8.1,13.4,12
		c61.6,53.2,129.4,96,206.4,123.4c45.1,16.1,91.5,25.1,139.5,25.7c54.2,0.1,106.3-10.9,156.6-30.3c77.1-29.8,145-74.4,206.1-129.8
		C774.5,298.3,774.7,284.6,763.3,274.9z M298.7,437c-14-4.7-28.1-9-42-14.2c-64.7-24.5-122.7-60.3-176-104.1
		c-8.7-7.2-17.2-14.8-25.6-22.3c-4.6-4.1-4.6-5.3,0-9.5c28.8-26.6,60-50.2,93.1-71.4c45.6-29.2,93.9-52.5,146-67.5
		c1.3-0.4,2.6-0.7,3.8-1.1c0.3-0.1,0.6,0.1,1.6,0.2c-47.6,36.7-73.9,84.4-73.9,144.4c0,60,26.2,107.6,73.4,144.1
		C299,436.1,298.9,436.5,298.7,437z M242.8,291.8c-0.1-88.1,71.8-160.3,159.8-160.5c88.3-0.2,160.4,71.6,160.7,160.1
		c0.3,87.8-71.7,160.1-159.8,160.5C315.5,452.4,242.9,380,242.8,291.8z M748.2,298.9c-61.7,55.2-130.3,99.2-208.5,127.4
		c-10,3.6-20.3,6.5-30.5,9.7c-0.6,0.2-1.3,0.2-3.4,0.5c48.3-37.4,74.6-85.1,74.5-145.3c-0.1-60-26.4-107.5-73.6-143.9
		c0.2-0.3,0.4-0.7,0.6-1c13.8,4.6,27.8,8.7,41.5,13.9c74.6,28.4,140.3,71.1,199.6,124.1C756.4,291.5,756.3,291.7,748.2,298.9z"/>
	<path d="M72.5,211.5c5.6,0.9,11.1-2.5,13.4-7.6c2.6-5.6,1.4-11.6-3.8-16.3c-19.5-17.8-39.1-35.7-58.8-53.3
		c-2.6-2.3-6.2-3.4-7.9-4.3c-7.7,0.5-12,3.2-14.3,8.6c-2.3,5.4-1.1,10.9,3.8,15.4c19.7,18,39.3,35.9,59.2,53.6
		C66.3,209.6,69.6,211,72.5,211.5z"/>
	<path d="M802.5,134.5c-4.9-5.4-13.2-6.1-18.9-1c-20.3,18.2-40.5,36.6-60.6,55c-4.4,4-5.1,9.3-3,14.7c1.9,5,7,8.2,13.9,8.3
		c1-0.3,3.2-1,5.3-1.8c0.9-0.4,1.7-1.1,2.4-1.7c20-18.1,40-36.1,59.8-54.4C807.4,148.3,807.6,140.2,802.5,134.5z"/>
	<path d="M617.9,146.3c4.8-0.3,8.7-2.6,11.5-7c13.8-21.4,27.7-42.7,41.5-64c4.8-7.4,3.5-15.4-3-19.8c-6.7-4.5-14.7-2.4-19.7,5.1
		C640.2,73,632,85.3,624,97.8c-6.1,9.3-12.3,18.6-18,28.2C600.5,135.1,607.1,146.3,617.9,146.3z"/>
	<path d="M147.7,94.4c9.9,15.2,19.7,30.4,29.7,45.6c3.6,5.5,9.9,7.5,15.7,5.6c5.6-1.9,9.2-7.1,9.1-14.7c-0.7-1.5-1.7-4.7-3.4-7.4
		c-13.6-21.1-27.3-42.1-41.1-63.2c-4.8-7.3-12.8-9.2-19.4-4.8c-6.5,4.3-7.8,12.4-3.1,19.7C139.3,81.6,143.5,88,147.7,94.4z"/>
	<path d="M468.7,99.5c7.9,1.7,14.5-3.1,16.5-12c4.4-19.8,8.6-39.7,12.9-59.6c1-4.7,2.1-9.4,2.8-12.8c0.1-8.1-5-14-11.6-14.9
		c-7.2-1-13.4,3.2-15.1,10.7C469,34.5,464,58.1,458.9,81.7C456.9,90.9,460.8,97.8,468.7,99.5z"/>
	<path d="M310.2,37.7c3.7,17.1,7.3,34.2,11.1,51.3c1.7,7.5,8.5,11.9,15.7,10.6c7.1-1.3,12.3-7.8,10.8-15
		c-5.1-25-10.6-49.9-16.1-74.7c-1.4-6.1-6.8-9.9-12.9-9.9c-8.5,0-14.8,7.5-13.2,16.2C306.9,23.4,308.7,30.5,310.2,37.7z"/>
	<path d="M403.7,199.5c-51-0.2-92.5,40.8-92.7,91.7c-0.2,51.1,40.7,92.3,91.8,92.4c50.9,0.2,92.2-40.6,92.4-91.3
		C495.5,241.3,454.5,199.7,403.7,199.5z M433.5,291.4c-16.5-0.1-29.6-13.3-29.5-29.6c0.1-15.9,13.5-29.1,29.1-28.9
		c16.7,0.2,29.5,13.1,29.4,29.6C462.5,278.3,449.3,291.5,433.5,291.4z"/>
</g>
</svg>
