<?xml version="1.0" encoding="utf-8"?>
<!-- Generator: Adobe Illustrator 25.0.0, SVG Export Plug-In . SVG Version: 6.00 Build 0)  -->
<svg version="1.1" id="Слой_1" xmlns="http://www.w3.org/2000/svg" xmlns:xlink="http://www.w3.org/1999/xlink" x="0px" y="0px"
	 viewBox="0 0 410.5 625" style="enable-background:new 0 0 410.5 625;" xml:space="preserve">
<g>
	<path d="M381.4,54.2c9.2-14.9,18.5-29.7,27.7-44.5c2.9-4.7,0.6-9-5-9.4c-1.3-0.1-2.7,0-4,0c-118,0-235.9,0.2-353.9-0.3
		C31.7-0.1,18.5,2,6.1,10c-7.2,4.6-7.9,6-3,13.1c27.1,40,54.3,80,81.3,120c0.9,1.3,1.8,3.2,1.5,4.5c-1.9,7.4,0.2,14.1,2.9,20.9
		c4.8,11.8,9.4,23.7,14.4,36.3c-1.5-0.4-2.3-0.5-3-0.9c-23-10.2-48.9,7.6-50,33c-0.7,15.2-3.5,30.4-6.6,45.4
		c-4.3,20.9-11.6,41-21.4,60.1c-1.9,3.7-1.2,6.4,2.6,8.2c4,1.9,6.1-0.2,7.9-3.6c9.5-18.7,16.4-38.2,21.7-58.4
		c0.4-1.6,0.9-3.2,1.7-6.2c0.7,3,1.1,4.5,1.5,5.9c2.9,11.1,5.7,22.3,8.7,33.3c1.3,4.7,4.7,6.8,8,5.3c4.1-1.8,4-5.1,2.8-8.8
		c-1.7-5-3.7-10.1-4.8-15.2c-2.7-12.3-5-24.6-7.5-37c0.4-0.2,0.8-0.5,1.2-0.7c12.8,8.8,26.2,9,41.1,2.3
		c-6.2,14.4-11.8,27.5-17.7,40.6c-4.4,9.9-3.5,19.2,2.4,27.9c1.6,2.3,1.5,3.9,0.2,6.3c-6.5,11-12.9,22.2-19.3,33.3
		c-12.2,21.4-25.5,42.3-36.3,64.4C9.6,493.7,26.1,556,74.9,590c24.9,17.4,53.1,26.1,82.7,30.6c39,5.9,78.1,5.9,117-0.3
		c30.8-4.9,60.1-14.1,85.1-33.6c34.3-26.9,50-62.4,46.6-105.8c-1.6-19.9-9.1-38.1-19.1-55.3c-16.8-29-33.5-58-50.1-87
		c-0.8-1.5-1.4-4-0.7-5.3c4.4-8.3,4.2-16.5,0.8-25c-5.6-14.1-10.9-28.3-16.2-42.5c-2.9-7.6-5-15.5-4.6-23.9c4-0.4,8.1-1.5,7.4-5.8
		c-0.4-2.6-4-4.6-6.1-6.9c-0.6,0.2-1.3,0.4-1.9,0.6c1.6-5.9,2.7-11.9,4.8-17.6c6-16.4,12.4-32.7,18.6-49c2.7-7.1,2.6-14.1-1.4-20.6
		c-1.6-2.7-4-4.8-6.1-7.4c0.8-1.3,1.5-2.6,2.3-3.9C349.7,105.5,365.6,79.8,381.4,54.2z M12.8,19.2c4-2.2,7.6-4.1,11.6-6.4
		C49,52.8,73.4,92.4,98,132.3c-1.8,1.2-3.3,2.2-5.4,3.5C66.1,97,39.6,58.3,12.8,19.2z M84.4,261c-13.8-1.4-23.5-12.3-23.1-26
		c0.4-13.6,10.6-23.7,24.3-24.2c12-0.4,23,8.3,24.3,19.7c-7.3,0-14.6,0-21.9,0c-5.1,0-8.2,2.1-7.8,5.6c0.5,4.5,3.7,5.3,7.6,5.3
		c7.3-0.1,14.6,0,22.3,0C108,253.9,96.5,262.3,84.4,261z M348,377.7c12.3,21.4,25.3,42.3,36.4,64.3c16.4,32.4,17.3,65.7,0.9,98.6
		c-13.5,27-36.4,43.7-63.6,55.1c-33.9,14.2-69.7,18.3-106.1,18.3c-29.4,0-58.6-2.8-86.9-11.5c-28.2-8.7-53.9-21.7-72.1-46
		c-21.3-28.4-26.4-60.1-17-94.2c5.7-20.7,17.2-38.5,27.9-56.8c11.1-19,22.3-37.9,33.3-56.9c1.8-3.1,3.4-5,7.4-3.5
		c1.9,0.7,4.3,0.6,6.4,0.6c63.5,0,126.9,0.1,190.4-0.1c7.2,0,14.3-1.5,22.8-2.5C334.1,353.9,341.2,365.8,348,377.7z M323,301.1
		c1.2,3.6,2.8,7.1,4.1,10.7c4.7,13.1-2.6,23.9-16.3,23.9c-45,0.1-90,0-134.9,0c-20.2,0-40.3,0-60.5,0c-14,0-21.4-10.3-16.7-23.5
		c3.3-9.1,6.8-18.1,10.2-27.1c5.2-14,12-27.6,11.8-43.7c12.5,0,24.4,0,36.2,0c47.1,0,94.3,0.1,141.4,0c3.9,0,5,1.2,6.2,4.9
		C310.4,264.7,316.8,282.9,323,301.1z M329.2,159.5c-4.2,11.4-8.8,22.6-12.9,34.1c-4.3,12.2-8.3,24.5-12.6,37.6
		c-59.6,0-120.6,0-181.8,0c-3.8-25.1-15.3-47.5-24.1-70.8c-3.3-8.6,3-19,13-18.9c68.8,0.2,137.5,0.1,206.3,0.2
		C328.7,141.6,333.3,148.4,329.2,159.5z M325.1,126.2c-1.8,3-3.4,4.2-7.4,3.8c-7.9-0.8-16-0.3-24-0.3c-59.8,0-119.6,0-179.4,0.1
		c-3.1,0-5.5,0-7.5-3.3c-22.9-37.2-45.9-74.2-69-111.3c-0.6-1-1.1-2-2.1-3.8c120.1,0,239.3,0,359.2,0c-6.3,10.3-12.3,20.1-18.2,29.9
		C359.5,69.5,342.2,97.8,325.1,126.2z"/>
	<path d="M76.3,554.9c14.5,15.7,32.5,26,52.5,32.6c49.8,16.3,100.5,16.7,151.5,6.5c25.1-5,48.5-14.6,68.1-31.8
		c17.8-15.7,28.6-35.2,31.4-59.5c-109.5,0-218.3,0-327.4,0C54.8,523,62.7,540.3,76.3,554.9z"/>
	<path d="M215.5,453.7c4.1,0,6.9-2.6,6.8-6.1c-0.1-3.7-2.3-5.3-5.8-5.4c-4-0.2-6.9,2.6-6.7,6.3C210.1,452.2,212.4,453.6,215.5,453.7
		z"/>
	<path d="M216.7,386.3c-3.9-0.2-6.9,2.6-6.8,6.3c0.1,3.8,2.6,5.3,5.9,5.3c4,0.1,6.1-2.1,6.6-5.8
		C222.3,388.3,220.2,386.5,216.7,386.3z"/>
	<path d="M216.2,469.1c-3.6,0.2-6.1,2-6.3,6c-0.1,4,2.5,5.6,6.1,5.5c4,0,6.2-2.3,6.3-6.2C222.4,470.7,219.8,469.4,216.2,469.1z"/>
	<path d="M215.8,425.8c4,0.1,6.1-2,6.6-6.1c-0.2-3.5-2.2-5.2-5.7-5.4c-4-0.2-6.5,1.8-6.8,5.7C209.6,423.9,212.1,425.7,215.8,425.8z"
		/>
	<path d="M215.9,371c3.7-0.2,6.3-2,6.4-6c0.2-4-2.4-5.7-6.1-5.6c-3.9,0.1-6.3,2.3-6.3,6.2C209.8,369.3,212.3,370.7,215.9,371z"/>
	<path d="M272.6,59.9c-3.1-0.4-5.2,2-5.1,5.3c0.1,3.3,2.3,5.6,5.5,5c2.2-0.4,4.1-2.8,6.1-4.3c0-0.7-0.1-1.5-0.1-2.2
		C276.8,62.3,274.8,60.1,272.6,59.9z"/>
	<path d="M154.1,105.6c-0.8,0-1.5,0-2.3,0c-1.4,2.1-3.7,4-4,6.3c-0.4,3.1,2,5.3,5.3,5.2c3.2-0.1,5.7-2.2,5-5.4
		C157.8,109.5,155.5,107.6,154.1,105.6z"/>
	<path d="M201.8,58.8c-0.8,0-1.5,0-2.3,0c-1.4,2.1-3.6,4.1-3.9,6.3c-0.4,3.1,2,5.2,5.3,5.2c3.3-0.1,5.6-2.2,5-5.4
		C205.5,62.7,203.3,60.8,201.8,58.8z"/>
	<path d="M225.3,106.5c-3.4-0.2-5.8,1.9-5.4,5c0.2,2.2,2.5,4.3,3.8,6.4c0.7,0,1.5,0.1,2.2,0.1c1.5-2,3.9-3.8,4.3-6
		C230.9,108.8,228.7,106.6,225.3,106.5z"/>
	<path d="M128.5,71.1c0.8,0,1.5,0,2.3,0c1.4-2,3.7-3.9,4.1-6.2c0.5-3.1-1.8-5.3-5.1-5.3c-3.3,0-5.7,2.1-5.2,5.2
		C124.9,67.1,127.1,69.1,128.5,71.1z"/>
	<path d="M147.7,64.9c-0.1,3.2,2,5.7,5.2,5.3c2.2-0.3,4.2-2.6,6.3-3.9c0-0.8,0-1.5,0.1-2.3c-2-1.4-3.9-3.7-6.1-4.1
		C150,59.3,147.8,61.7,147.7,64.9z"/>
	<path d="M124.6,111.5c-0.8,3.1,1.7,5.8,4.8,5.5c2.2-0.2,4.3-2.5,6.4-3.8c0-0.8,0-1.5,0.1-2.3c-2.1-1.5-4.1-4-6.2-4
		C127.9,106.8,125.1,109.5,124.6,111.5z"/>
	<path d="M200.8,106.5c-3.3,0-5.7,2.1-5.2,5.3c0.4,2.2,2.7,4.1,4.1,6.2c0.7,0,1.4,0,2.2,0c1.4-2.1,3.7-4,4.1-6.2
		C206.4,108.6,204.1,106.5,200.8,106.5z"/>
	<path d="M231.5,88.2c-0.1,3.3,1.9,5.7,5.1,5.3c2.2-0.3,4.2-2.5,6.3-3.8c0-0.8,0.1-1.5,0.1-2.3c-2-1.5-3.8-3.8-6-4.2
		C233.9,82.6,231.6,84.9,231.5,88.2z"/>
	<path d="M267.5,111.7c-0.1,3.3,2.1,5.7,5.2,5.3c2.2-0.3,4.2-2.6,6.3-4c0-0.7,0-1.5,0-2.2c-2-1.5-3.9-3.8-6.2-4.2
		C269.7,106.1,267.5,108.4,267.5,111.7z"/>
	<path d="M297.2,106.5c-3.3,0-5.7,2.1-5.2,5.2c0.3,2.2,2.6,4.2,4.1,6.2c0.7,0,1.4,0,2.2,0c1.4-2,3.7-4,4.1-6.2
		C302.8,108.6,300.5,106.5,297.2,106.5z"/>
	<path d="M106.4,58.8c-0.8,0-1.5,0-2.3,0c-1.4,2.1-3.6,4.1-3.9,6.3c-0.5,3.2,2,5.2,5.2,5.2c3.3-0.1,5.6-2.2,5.1-5.4
		C110.2,62.7,107.9,60.9,106.4,58.8z"/>
	<path d="M296,71.2c0.7,0,1.5,0,2.2,0.1c1.4-2,3.7-3.9,4.1-6.2c0.6-3.2-1.8-5.3-5.1-5.3c-3.4-0.1-5.7,2.1-5.2,5.2
		C292.3,67.1,294.5,69.1,296,71.2z"/>
	<path d="M219.7,64.9c-0.1,3.2,2,5.7,5.2,5.3c2.2-0.3,4.2-2.5,6.3-3.9c0-0.8,0-1.5,0.1-2.3c-2-1.4-3.9-3.7-6.1-4.1
		C222,59.3,219.8,61.7,219.7,64.9z"/>
	<path d="M178.4,58.8c-0.8,0-1.6,0.1-2.3,0.1c-1.3,2.1-3.4,4.1-3.7,6.3c-0.4,3.2,2,5.2,5.3,5.1c3.3-0.1,5.6-2.3,5-5.5
		C182.1,62.7,179.8,60.8,178.4,58.8z"/>
	<path d="M308.5,83.4c-1.8,0.2-4.4,3-4.8,5c-0.6,3.2,2,5.7,5.2,5c2.2-0.4,4.1-2.7,6.1-4.2c0-0.8-0.1-1.5-0.1-2.3
		C312.8,85.7,310.5,83.3,308.5,83.4z"/>
	<path d="M284.9,83.1c-3.3-0.2-5.8,1.6-5.5,4.9c0.2,2.2,2.3,4.3,3.5,6.5c0.8,0.1,1.6,0.1,2.3,0.2c1.6-1.9,4-3.7,4.5-5.9
		C290.4,85.6,288.2,83.3,284.9,83.1z"/>
	<path d="M165.5,83.2c-3.1-0.4-5.3,2-5.2,5.3c0.1,3.3,2.3,5.6,5.4,5c2.2-0.4,4.1-2.7,6.1-4.2c0-0.8,0-1.5-0.1-2.3
		C169.8,85.7,167.8,83.5,165.5,83.2z"/>
	<path d="M320.3,59.7c-3.3,0.2-5.6,2.3-4.9,5.5c0.5,2.2,2.8,4,4.3,6c0.7,0,1.5-0.1,2.2-0.1c1.3-2.1,3.5-4.1,3.8-6.4
		C326,61.6,323.6,59.5,320.3,59.7z"/>
	<path d="M247.3,71.1c0.8,0,1.5,0,2.3,0c1.4-2,3.7-3.9,4.1-6.2c0.5-3.1-1.8-5.3-5.1-5.3c-3.3,0-5.7,2-5.2,5.2
		C243.7,67.1,245.9,69.1,247.3,71.1z"/>
	<path d="M261.4,83.3c-3.1-0.9-5.8,1.6-5.5,4.8c0.2,2.2,2.4,4.2,3.8,6.4c0.8,0,1.6,0.1,2.4,0.1c1.4-2,4-4.1,3.9-6.1
		C266,86.6,263.4,83.9,261.4,83.3z"/>
	<path d="M248.3,106.8c-1.8,0.1-4.4,2.9-4.9,4.9c-0.7,3.2,1.9,5.7,5,5.2c2.2-0.3,4.2-2.7,6.2-4.2c0-0.8,0-1.5,0-2.3
		C252.5,109.2,250.3,106.7,248.3,106.8z"/>
	<path d="M184,88.2c-0.7,3.1,1.7,5.8,5,5.2c2.2-0.3,4.2-2.5,6.2-3.9c0-0.8,0-1.6,0-2.4c-2.1-1.4-4.3-3.9-6.3-3.7
		C187.1,83.5,184.4,86.2,184,88.2z"/>
	<path d="M177.5,106.5c-3.3,0-5.7,2.1-5.2,5.2c0.4,2.2,2.6,4.2,4,6.2c0.7,0,1.5,0,2.2,0c1.4-2,3.7-3.9,4.1-6.2
		C183.1,108.7,180.8,106.5,177.5,106.5z"/>
	<path d="M213.4,83.2c-2.2,0.3-4.1,2.6-6.1,3.9c0,0.8,0,1.6,0,2.3c2,1.4,3.9,3.6,6.1,4c3.2,0.5,5.3-1.8,5.3-5.1
		C218.7,85.1,216.6,82.8,213.4,83.2z"/>
	<path d="M117.9,83.2c-3.2-0.4-5.2,2.1-5.1,5.3c0.1,3.2,2.1,5.7,5.4,5c2.2-0.4,4.1-2.7,6.1-4.1c0-0.8,0-1.5-0.1-2.3
		C122.1,85.7,120.1,83.5,117.9,83.2z"/>
	<path d="M141.6,83.4c-2-0.1-4.1,2.3-6.2,3.6c0,0.8,0,1.6,0,2.5c2,1.4,4,3.6,6.2,3.9c3.3,0.5,5.7-2.1,5-5.2
		C146,86.3,143.4,83.6,141.6,83.4z"/>
</g>
</svg>
