<?xml version="1.0" encoding="utf-8"?>
<!-- Generator: Adobe Illustrator 25.0.0, SVG Export Plug-In . SVG Version: 6.00 Build 0)  -->
<svg version="1.1" id="Слой_1" xmlns="http://www.w3.org/2000/svg" xmlns:xlink="http://www.w3.org/1999/xlink" x="0px" y="0px"
	 viewBox="0 0 366.9 512" style="enable-background:new 0 0 366.9 512;" xml:space="preserve">
<g>
	<path d="M366.8,223.4c0-18.1-7.9-32-24.4-39.7c-6.2-2.9-13.7-3.8-20.7-4.4c-7.5-0.7-15.2-0.2-23.2-0.2c0-2.4,0-4.2,0-6
		c0-15.3-0.1-30.7,0.1-46c0.1-5.6-1.9-10-6-13.7c-26.3-23.2-56.1-39.2-91.4-43.5c-4.4-0.5-10.7,0.2-12.7-2.3
		c-2.3-3-0.7-8.9-1.1-13.5c-0.2-3.1,1-4.6,3.7-6.1c14.8-8,18.2-27.6,6.5-39.5c-3.8-3.8-9.5-5.7-14.4-8.4c-3,0-6,0-9,0
		c-0.4,0.3-0.8,0.6-1.2,0.8c-11.5,3.3-18.3,10.9-19.4,22.7c-1,11.4,4.3,19.8,14.3,25.3c1,0.5,2.2,1.8,2.2,2.8
		c0.2,5.6,0.1,11.2,0.1,17c-2,0.2-3.5,0.3-5,0.4c-1.7,0.1-3.3,0.2-5,0.3c-23.7,2.7-45.9,9.9-65.9,22.8
		c-11.1,7.2-21.1,16.1-31.7,24.1c-1.8,1.3-4,3-6,3.1c-12.8,0.3-25.7,0.1-38.5,0.2c-3.8,0-7.7-0.1-11.5,0.5c-6.3,1-8.9,7.9-5.1,13
		c1.3,1.7,2.9,3.2,4.4,4.8c16.7,17,33.3,34.1,50,51.1c2.4,2.4,3.4,4.9,3.4,8.3c-0.1,101,0,201.9,0,302.9c0,8.8,2.9,12,11.4,12
		c72,0,144,0,215.9,0c9,0,11.6-2.7,11.6-11.6c0-34,0-68,0-102c0-1.8,0-3.5,0-5.8c4.4,0,8,0.1,11.6,0c7.8-0.3,15.8,0.2,23.4-1.4
		c20.4-4.4,33.1-20.7,33.2-42.8C367,306.7,366.9,265.1,366.8,223.4z M59.1,164.3c-9-8.4-18.9-17.6-29.4-27.4c10.3,0,19.7,0,29.4,0
		C59.1,146.7,59.1,156.5,59.1,164.3z M187.9,85.7c31.6,1.5,59.4,11.4,83.8,33.1c-28.4,0-55.9,0-83.8,0
		C187.9,108.1,187.9,97.3,187.9,85.7z M178.9,17.1c4.4-0.1,8.3,3.5,8.5,8c0.2,4.8-3.4,8.7-8.1,8.8c-4.6,0.1-8.7-3.9-8.7-8.4
		C170.6,21.2,174.6,17.3,178.9,17.1z M170.2,85.7c0,11.5,0,22.3,0,33.4c-27.8,0-55.3,0-84.1,0C110.6,97.3,138.4,87.2,170.2,85.7z
		 M281.1,494.7c-68.3,0-136.1,0-204.2,0c0-119.3,0-238.4,0-357.8c31.1,0,61.9,0,93.1,0c0,62.2,0,124.4,0,187.3c-12,0-24,0-35.9,0
		c-9.7,0-19.3,0-29,0c-1.2,0-2.3,0-3.5,0.2c-5,0.9-7.9,4.3-7.7,8.9c0.2,4.5,3.5,7.9,8.6,8c11.3,0.2,22.7,0.1,34,0.1c39,0,78,0,117,0
		c6,0,9.5-2.1,10.5-6.4c1-4-0.4-7.5-4.1-9.3c-2.4-1.1-5.5-1.4-8.2-1.4c-19.3-0.1-38.7,0-58,0c-1.8,0-3.6,0-5.8,0
		c0-62.5,0-124.7,0-187.3c31.1,0,62,0,93.2,0C281.1,256.3,281.1,375.3,281.1,494.7z M349.6,347c-0.1,18.4-10,28.3-28.5,28.4
		c-7.3,0-14.6,0-22.4,0c0-60,0-119.3,0-178.3c10.7,0,21.3-1,31.5,0.3c10.8,1.4,18.9,11.6,19.1,22.6c0.4,26.3,0.3,52.7,0.3,79
		C349.7,315,349.7,331,349.6,347z"/>
	<path d="M253.5,426.7c-24.8,0-49.6,0-74.4,0c0,0,0,0,0,0c-24.8,0-49.6,0-74.4,0c-7.9,0-10.9,3-10.9,10.9c-0.1,9.8-0.1,19.6,0,29.5
		c0.1,7.8,3.3,10.9,11,10.9c49.8,0,99.6,0,149.3,0c7.1,0,10.3-3.3,10.4-10.5c0.1-10,0-20,0-30C264.4,429.7,261.3,426.7,253.5,426.7z
		"/>
</g>
</svg>
