<?xml version="1.0" encoding="utf-8"?>
<!-- Generator: Adobe Illustrator 25.0.0, SVG Export Plug-In . SVG Version: 6.00 Build 0)  -->
<svg version="1.1" id="Слой_1" xmlns="http://www.w3.org/2000/svg" xmlns:xlink="http://www.w3.org/1999/xlink" x="0px" y="0px"
	 viewBox="0 0 196.9 504.8" style="enable-background:new 0 0 196.9 504.8;" xml:space="preserve">
<g>
	<path d="M196.8,459.5c-0.2-6.5-4.2-10.9-10.7-11.8c-1.4-0.2-2.9-0.3-4.5-0.5c-0.1-1.8-0.2-3.2-0.2-4.7c0-61,0-122,0-183
		c0-20,0.1-40,0-60c-0.1-13.4-8.5-21.8-21.8-22.1c-1.3,0-2.5-0.3-3.8-0.4c0-48.2,0-96,0-144.8c8.4,0,16.2,0.1,24,0
		c15.2-0.2,17.2-2.3,17.2-17.5c0-10.5-3.2-13.9-13.6-14c-41.3-0.3-82.7-0.6-124-0.7c-15.5,0-31,0.4-46.5,0.7
		c-9,0.2-12.5,3.9-12.6,13c0,1.2,0,2.3,0,3.5c0,11.6,3.2,14.8,14.9,14.8c8.8,0,17.5,0,26.4,0c0,48.9,0,96.9,0,145.4
		c-2,0-3.6-0.1-5.3,0c-11.5,0.5-20,9.1-20.3,20.6c-0.1,2.5,0,5,0,7.5c0,78.8,0,157.7,0,236.5c0,1.8,0,3.5,0,5.2
		c-10.6,1-14.9,4.2-15.5,11.6c-0.4,4.8-0.3,9.7,0.1,14.5c0.5,5.9,4.3,9.7,10.1,10.7c1.6,0.3,3.3,0.4,5.3,0.6c0,4.4,0,8.8,0,13.1
		c0.1,5.8,1.3,7.2,7,7.2c50.5,0,101,0,151.5,0c5.6,0,6.9-1.5,7-7.3c0.1-4.3,0-8.6,0-13c1.8-0.2,2.9-0.3,4-0.4
		c7.4-0.9,11.3-5.2,11.4-12.6C196.9,467.5,196.9,463.5,196.8,459.5z M26.3,421.2c0-69,0-137.8,0-207c48.1,0,96,0,144.7,0
		c0,69.1,0,137.8,0,207C122.6,421.2,74.6,421.2,26.3,421.2z M170.7,432.5c0,5,0,9.6,0,14.6c-48.1,0-96.1,0-144.4,0
		c0-4.8,0-9.6,0-14.6C74.4,432.5,122.3,432.5,170.7,432.5z M10.8,21.6c0-3.6,0-6.6,0-9.9c58.4,0,116.7,0,175.4,0c0,3.2,0,6.2,0,9.9
		C127.8,21.6,69.6,21.6,10.8,21.6z M144.6,32.7c0,48.3,0,96.1,0,144.4c-31.1,0-61.7,0-92.5,0c0-48.2,0-96.1,0-144.4
		C82.9,32.7,113.6,32.7,144.6,32.7z M38.9,187.9c38.7-0.1,77.3-0.1,116-0.1c0.8,0,1.7,0,2.5,0c10.7,0.2,14.1,4,13.3,15.3
		c-48,0-96.1,0-144.1,0C24.9,192.9,28.9,187.9,38.9,187.9z M170.7,494.2c-48.1,0-96,0-144.3,0c0-3.1,0-6.1,0-9.5
		c48,0,95.9,0,144.3,0C170.7,488,170.7,490.9,170.7,494.2z M175.4,473.6c-49.9,0-99.9,0-149.8,0c-4.8,0-9.6,0-14.8,0
		c0-5.5,0-10.1,0-15.2c2-0.1,3.8-0.2,5.5-0.2c51.6,0,103.2,0,154.8,0c4,0,8,0,12-0.1c2.6-0.1,3.3,1.2,3.5,3.6
		C187.4,473.6,187.4,473.6,175.4,473.6z"/>
	<path d="M98.5,276.3c11.3,0,20.6-9.4,20.6-20.8c0-11.5-9.1-20.8-20.4-20.9c-11.5-0.1-21,9.4-20.9,21
		C77.9,267,87.2,276.3,98.5,276.3z M98.3,245.2c5.9-0.1,10.5,4.5,10.5,10.4c0,5.7-4.5,10.1-10.1,10.2c-5.8,0.1-10.6-4.6-10.5-10.3
		C88.2,249.9,92.8,245.3,98.3,245.2z"/>
	<path d="M99.2,359.4c-11.4-0.3-21,8.6-21.4,19.9c-0.4,11.6,8.7,21.3,20.2,21.6c11.4,0.3,20.8-8.7,21.1-20.2
		C119.5,369.3,110.5,359.7,99.2,359.4z M98.1,390.5c-5.5-0.2-10.1-4.9-10-10.4c0.1-5.7,5.1-10.5,10.7-10.3c5.5,0.2,10,5,9.9,10.5
		C108.7,386.1,104,390.7,98.1,390.5z"/>
	<path d="M98.6,297.1c-11.7,0-20.9,9.2-20.8,21c0.1,11.4,9.3,20.5,20.8,20.5c11.4,0,20.5-9.2,20.5-20.7
		C119.1,306.3,110,297.1,98.6,297.1z M98.3,328.3c-5.4-0.1-10.1-4.8-10.2-10.3c-0.1-5.7,4.6-10.5,10.3-10.5
		c5.7,0,10.4,4.7,10.4,10.4C108.8,323.6,103.9,328.4,98.3,328.3z"/>
	<path d="M98.4,94.4c11.4,0.1,20.6-9.1,20.7-20.6c0.1-11.5-8.9-20.8-20.3-21.1c-11.4-0.3-21,9.3-21,20.9
		C77.8,85,87.1,94.3,98.4,94.4z M99,63.3c5.6,0.2,9.9,4.8,9.8,10.5c-0.1,5.6-4.7,10.1-10.3,10.1c-5.7,0-10.5-4.9-10.4-10.6
		C88.3,67.6,93.2,63.1,99,63.3z"/>
	<path d="M98.6,156.6c11.4,0,20.6-9.2,20.6-20.6c0-11.6-9-20.7-20.4-20.7c-11.7-0.1-21,9.2-20.9,20.9
		C77.9,147.6,87,156.6,98.6,156.6z M98.7,125.5c5.7,0.1,10.2,5,10.1,10.8c-0.2,5.5-4.8,10.1-10.3,10.1c-5.6,0-10.5-4.9-10.4-10.5
		C88.2,130.2,93.1,125.4,98.7,125.5z"/>
</g>
</svg>
