<?xml version="1.0" encoding="utf-8"?>
<!-- Generator: Adobe Illustrator 25.0.0, SVG Export Plug-In . SVG Version: 6.00 Build 0)  -->
<svg version="1.1" id="Слой_1" xmlns="http://www.w3.org/2000/svg" xmlns:xlink="http://www.w3.org/1999/xlink" x="0px" y="0px"
	 viewBox="0 0 297.4 413.6" style="enable-background:new 0 0 297.4 413.6;" xml:space="preserve">
<path d="M186.1,120.5c5.6-0.8,11.3-1.2,16.8-2.1c25.4-4.3,48.1-14.2,66.9-32.3c12.6-12.1,21.9-26.3,26.4-43.4c0.8-2.9,1.4-6,1.1-8.8
	c-1.1-10.6-9.2-17.7-19.9-17.8c-10.2-0.1-20.3,0-30.5,0c-1.6,0-3.2,0-4.8,0c-0.1-0.9-0.2-1.3-0.1-1.6c2.3-9.6-1.4-14.4-11.2-14.5
	c-0.7,0-1.3,0-2,0C157,0,85.2,0,13.4,0c-1.3,0-2.7,0-4,0C2.5,0.5-1.8,7.3,0.7,13.7c0.8,2,1.9,3.9,3,5.8C26.1,60,48.5,100.5,71,141
	c1.4,2.6,2.8,5.2,4.6,8.4c-5.1,1-9.8,1.9-14.5,2.8c-10,1.8-20,3.6-30,5.4c-4.6,0.8-8.2,3.1-9.4,7.8c-1.8,6.7,2.9,12.8,9.9,13
	c6.5,0.2,13,0,19.6,0c2.1,4.3,3.6,8.2,5.8,11.7c6.9,11,9.7,22.7,8.5,35.6c-0.4,3.7-0.8,7.1-2.3,10.6C45.3,275.2,27.8,314.2,10,353.1
	c-3.4,7.5-4.9,15.1-4.5,23.2c1.1,21.8,17.1,37.2,38.9,37.2c21.2,0,42.3,0,63.5,0c30.8,0,61.7-0.1,92.5,0
	c12.8,0.1,22.3-5.5,29.4-15.8c5.8-8.4,7.9-17.9,7.3-28c-0.2-3.3-0.7-6.5-1.1-9.9c1.8-0.6,3.4-1.2,4.9-1.7
	c9.8-3.6,18.6-8.9,25.9-16.5c24.5-25.4,26.9-66.2,5-93.9c-15.7-19.9-36.3-29.7-61.9-27.8c-8.6,0.6-16.5,3.7-24.5,6.6
	c-2.4,0.9-4.8,1.8-7.7,2.8c0-7.5,0-14.2,0-20.8c0-1,0.4-2,0.8-2.8c4.3-8.8,8.6-17.6,13-26.6c6.5,0,12.8,0.1,19.1,0
	c6.1-0.2,10.4-4.2,10.9-9.6c0.5-5.3-3.4-10.1-9.3-11.2c-7.8-1.5-15.7-2.8-23.6-4.2c-7-1.3-14-2.6-21.6-4.1
	c5.3-9.6,10.2-18.7,15.3-27.6C183,121.5,184.8,120.7,186.1,120.5z M239.7,25c13-0.2,26-0.3,39-0.1c7.3,0.1,11.9,6.4,10.4,13.8
	c-2.9,13.7-9.8,25.4-18.9,35.8c-16.1,18.3-36.6,29-60,34.5c-5.3,1.2-10.8,2-16.2,2.9c-1.6,0.2-3.2,0-5.3,0c1.8-3.3,3.4-6.2,4.9-9.1
	c1.1-2.2,3.1-2.2,5.1-2.5c17.8-3,34.4-8.9,49.1-19.7c12.2-9,21.6-20.2,27.7-34.1c0.7-1.5,1.3-3.1,1.8-4.7c1.1-3.8-0.4-6.1-4.4-6.5
	c-2.2-0.2-4.3-0.1-6.5-0.1c-11.3,0-22.6,0-35.1,0c1.9-3.5,3.2-6.2,4.9-8.6C236.7,25.7,238.4,25,239.7,25z M199.7,90.9
	c9.1-16.1,18-31.8,26.8-47.4c14,0,27.3,0,40.6,0C258.2,68.4,226.6,88.2,199.7,90.9z M220.2,397.6c-4.9,5.7-11.3,8.6-19,8.6
	c-53.2,0-106.3,0-159.5,0c-12.8,0-23-8.5-26.7-22.2c-2.4-8.7-2.2-17.4,1.8-25.8c3.7-7.8,7.2-15.7,10.7-23.5c62.7,0,125,0,187.6,0
	c4.1,9.1,9.1,17.9,12.1,27.4C231.2,374.7,229.2,387.1,220.2,397.6z M186.6,251.9c17.2-8.3,34.3-12.8,52-2.5
	c16.7,9.7,24.9,24.7,24.8,43.8c-0.1,19.1-11.8,35.4-29.7,42.2c-2.5,0.9-5,1.8-8.2,3C212.5,309.4,199.6,280.7,186.6,251.9z
	 M251.3,239.4c36,25.1,36.1,80.2,0.2,104.5c-5.7,3.8-13.9,7.4-19.4,8.3c-0.9-1.8-1.8-3.7-2.9-6.1c2.1-0.8,3.8-1.4,5.4-2
	c20.4-7.5,32.9-21.8,36-43.3c3.3-22.5-4.5-41.1-22.7-54.6c-15.5-11.5-32.8-13.9-51.1-7.2c-4.5,1.7-9,3.3-14,5.2
	c-1.1-2.4-2.1-4.3-3-6.4C204.1,226.2,227.9,223,251.3,239.4z M208.8,321.1c0.7,1.5,1.2,3,2,4.9c-60,0-119.4,0-179.3,0
	c0.7-1.8,1.3-3.3,2-4.8c12-26.5,24.1-53,35.9-79.6c1.6-3.7,3.6-4.8,7.5-4.8c29.5,0.2,59,0.2,88.5,0c4.2,0,6.1,1.5,7.7,5.1
	C184.9,268.4,196.9,294.7,208.8,321.1z M73.7,228.6c0-5.8,0-11.3,0-16.7c3.7-1.2,88.5-1.6,95.5-0.5c0,5.5,0,11.1,0,17.1
	C137.6,228.6,106,228.6,73.7,228.6z M171.6,201.2c-0.4,0.8-2.2,1.3-3.4,1.3c-3.5,0.2-7,0.1-10.5,0.1c-27,0-53.9-0.1-80.9,0.1
	c-3.8,0-6-0.9-7.6-4.6c-2.6-6.1-5.8-11.9-9-18.4c5.9,0,11.3,0,17.2,0c0,5.8,0,11.7,0,18c29.3,0,58,0,87.5,0c0-6.1,0-12.1,0-18.2
	c6.1,0,11.4,0,17.5,0C178.6,187,175.2,194.1,171.6,201.2z M86,189.3c0-3.2,0-6.2,0-9.6c23.3,0,46.6,0,70.3,0c0,3.1,0,6.2,0,9.6
	C132.8,189.3,109.5,189.3,86,189.3z M178.2,160.4c10.6,1.9,21.2,4,31.9,6c1.7,0.3,3.8,0.4,3.2,2.7c-0.2,0.9-2.2,1.7-3.4,1.9
	c-2.1,0.3-4.3,0.1-6.5,0.1c-27.3,0-54.6,0-82,0c-28.2,0-56.3,0-84.5,0c-1.3,0-2.7,0-4,0c-1.8,0-3.7-0.2-3.6-2.3c0-0.8,2-2,3.2-2.2
	c4.9-1.1,9.8-2,14.7-2.9c10.3-2,20.6-3.9,30.9-5.8c2.4-0.4,5-0.6,7.5-0.6c23.8,0,47.6-0.3,71.5,0.1
	C164.1,157.3,171.1,159.1,178.2,160.4z M161.2,144.1c-0.9,1.6-1.8,3.2-2.8,4.8c-25,0-49.5,0-74.2,0c-3.7-6.7-7.4-13.4-11.1-20.1
	C52.1,91,31.2,53.2,10.2,15.3c-0.4-0.7-0.8-1.4-1.2-2.2c-1.9-3.7-1.3-4.8,2.9-4.8c8.3-0.1,16.7,0,25,0c63.6,0,127.3,0,190.9,0
	c7.1,0,8.1,0.3,4.2,7.4C208.4,58.4,184.8,101.3,161.2,144.1z"/>
</svg>
