<?xml version="1.0" encoding="utf-8"?>
<!-- Generator: Adobe Illustrator 25.0.0, SVG Export Plug-In . SVG Version: 6.00 Build 0)  -->
<svg version="1.1" id="Слой_1" xmlns="http://www.w3.org/2000/svg" xmlns:xlink="http://www.w3.org/1999/xlink" x="0px" y="0px"
	 viewBox="0 0 932 980" style="enable-background:new 0 0 932 980;" xml:space="preserve">
<g>
	<path d="M931.3,959.1c-0.4-13-0.8-26-1-39c-0.5-31.1-17.5-50.9-43.9-64.2c-10-5.1-21.1-5.8-32.1-6.7c-1.3-0.1-2.6-0.2-4.4-0.4
		c0-2.1,0-3.8,0-5.6c-0.3-150.3-0.6-300.6-1-450.9c0-4.2,1.1-6.7,4.7-8.8c4-2.3,7.7-5.2,12.5-8.5c0,2.7,0,4.6,0,6.5
		c0,107.3,0,214.6,0,321.9c0,11.2,13.9,19.2,23.7,13.2c5.4-3.3,9.2-7.6,9.2-15.2c-0.2-117.3-0.1-234.6-0.3-351.9
		c0-5.2,1.2-9.5,4.2-13.9c12.9-18.7,21.9-39.2,25.6-61.7c1.2-7.2,1.4-14.6,1.4-21.9c0.4-52,0.8-104,1-156c0-12.5-0.1-25.1-4.8-36.9
		c-11-27.3-29.8-46.8-58.3-55.3c-7.5-2.3-15.8-2.1-23.7-2.6C833.6,0.5,823.3,0.3,813,0C592.7,0,372.3,0,152,0
		c-10.9,0.3-21.9,0.6-32.8,0.9c-13,0.3-25.9,0.9-38.9,0.7C62.4,1.4,47.7,8.9,34.4,19.7C20.4,31.3,9.8,45.4,4.7,63.1
		c-1.8,6.1-2.4,12.8-2.6,19.2c-0.7,23.8-1.1,47.6-1.6,71.3c-0.1,2.8-0.4,5.6-0.6,8.4c0,4,0,8,0,12c0.2,2.6,0.5,5.3,0.6,7.9
		c0.7,27,0.8,54,2.2,80.9c1.5,28.8,12.6,54.4,30,77c8.8,11.4,19.4,21.4,29.5,31.9c2.5,2.6,3.8,4.9,3.8,8.6
		c-0.1,154.5-0.1,309,0,463.5c0,4.2-1,5.6-5.4,6.7c-27.4,6.8-45.7,24.2-56.4,49.9c-1.6,3.9-2,8.4-2.2,12.7c-0.6,15-0.9,30-1.3,45
		c-0.1,2.3-0.5,4.6-0.7,6.9c0,1,0,2,0,3c3.7,4,7.3,8,11,12c303.3,0,606.7,0,910,0c3.7-4,7.3-8,11-12c0-0.7,0-1.3,0-2
		C931.7,963.7,931.3,961.4,931.3,959.1z M38.9,282.9c-3.4-11.7-4.5-24.3-4.6-36.5C33.8,194.2,34,142,34.1,89.9
		c0-5.3,0.9-10.6,1.1-15.9c0.7-14.7,10.2-24.4,20.2-33.1c3.7-3.2,10.1-4.5,15.4-4.7c33.8-1.4,67.6-2.9,101.4-3.1
		c98.2-0.4,196.3-0.1,294.5-0.1c0,0.1,0,0.2,0,0.3c118,0,236,0,354,0.1c12.3,0,24.7,0.2,36.9,1.4c20,2,37.8,20.4,39.4,40.5
		c1,12.6,1.4,25.3,1.4,37.9c0,44.3-0.4,88.7-0.4,133c0,26.7-7.3,51.1-21.7,73.6c-17.7,27.8-44.1,42.7-74.9,51.1
		c-7.2,1.9-14.8,3-22.2,3c-103.6,0.5-207.3,0.9-310.9,1c-78.7,0.1-157.3-0.4-236-0.6c-25.8-0.1-51.7-0.5-77.5,0.1
		c-12.4,0.3-24-2-35.5-6.3C78.4,352.9,51,324.7,38.9,282.9z M589.8,637.3c-34,0.1-68,0.2-102,0.3c-72,0.2-144,0.4-216,0.6
		c-2.7,0-5.4,0.2-8,0c-27.7-2.8-47.3,11.4-64.3,30.6c-8.8,10-15.6,21.5-17.2,34.9c-5.3,42.9,12.4,69.7,48.8,89.7
		c7.8,4.3,15.8,6.1,24.7,6c17-0.1,34,0.5,51,1c1.6,0.1,4.4,1.5,4.6,2.8c3.5,16,9.7,30.7,20.4,44.4c-78.2,0-155.5,0-232.7,0
		c0-150.2,0-300.3,0-451.2c2.8,0.7,4.8,1,6.7,1.8c22.7,8.6,46.4,10.6,70.2,10.8c48.3,0.5,96.7,0.5,145,0.7c2.1,0,4.3,0,7,0
		c0,2.7,0,4.5,0,6.3c0,36.5,0.1,73-0.2,109.5c-0.1,7.8,1.5,14.6,5.1,21.4c5,9.4,10.8,18,18.9,24.9c12.9,10.9,27.9,16,44.7,15.9
		c3.8,0,7.6,0,12.4,0c0,5.7,0.2,11-0.1,16.2c-0.6,9.9,9.1,16.7,16.3,16.8c8.9,0.1,15.3-6.3,16-16.2c0.4-5.1,0.8-10.3,1.2-16.2
		c10.3,0,20.6,0,31.6,0c0,5,0.3,10.3-0.1,15.5c-0.6,9.6,8.6,16.5,15.8,16.8c8.1,0.4,16.1-6.4,17.3-15c0.8-5.7,1.2-11.5,1.7-17.6
		c5.7-0.4,11.2-0.7,16.7-1c27.1-1.5,45.1-16.4,56.8-39.6c2.9-5.8,5.6-7.7,12-7.8c36.2-0.2,72.3-0.8,108.5-1.8
		c22.9-0.6,42.3-16.9,47.5-39.2c1-4.4,1.1-9.3,0.8-13.9c-1-14.9-21.4-42.1-42.6-42.9c-19.3-0.7-38.6-1.5-57.9-1.8
		c-18.7-0.3-37.3-0.1-56-0.1c-1.8,0-3.6,0-5.6,0c0-10.2,0-19.8,0-30c1.8-0.1,3.5-0.3,5.3-0.3c56-0.6,112-1,168-2
		c17.9-0.3,36.1,0.8,53.8-6.7c0,149.4,0,297.7,0,446.5c-76.7,0-153.6,0-231.3,0c1.4-2.3,2.5-4.3,3.8-6.1
		c10.1-14.3,14.9-30.1,14.9-47.8c0-48,0.6-96,0.9-144C604.1,644.3,596.1,637.2,589.8,637.3z M571.3,796.4
		c0.1,17.8-8.7,30.9-21.5,41.9c-7,6-15.6,8.8-24.9,8.8c-44.6,0-89.3,0.5-133.9-0.1c-23.5-0.3-44.9-22.5-45.7-46
		c-0.8-25.3-1-50.6-1.3-76c-0.2-16.3-0.4-32.7-0.6-49c0-1.8,0-3.6,0-5.9c76.2,0,151.7,0,227.9,0c0,2,0,3.9,0,5.8
		C571.2,716.1,571.1,756.2,571.3,796.4z M310.7,669.3c0,33.2,0,65.3,0,97.6c-0.5,0.2-1.1,0.6-1.7,0.6c-18.3-0.4-36.6-0.4-54.9-1.3
		c-27.3-1.3-42.3-26.8-40.7-50.6c0.6-9.3,3.1-18,8.3-25.9c6.6-9.9,15.4-17.2,27.5-18C269.6,670.4,290,670.1,310.7,669.3z
		 M555.7,440.9c-9.9,0-19.4-0.2-28.8,0c-17.6,0.4-36.7,19-35.9,38.2c0.3,7.3,0.2,14.7,0,22c-0.6,19.4,18.3,37.1,35.7,37.9
		c8.1,0.4,16.3,0.1,25.8,0.1c-5.5,7.8-10.8,13.4-19.2,13.9c-15.6,1-31.3,1.9-46.9,1.9c-33,0.1-66-0.3-98.9-1
		c-5.1-0.1-10.5-2.7-15.2-5.2c-6-3.2-9.5-8.7-9.7-15.8c-0.2-8.2-0.8-16.3-0.9-24.5c-0.4-31.7-0.6-63.3-0.9-95c0-1,0.1-2,0.2-3.4
		c64.9,0,129.8,0,194.9,0C555.7,419.9,555.7,429.6,555.7,440.9z M708,473.9c1.9,0,4.4,1.3,5.7,2.8c5.2,5.6,5.9,12.5,4,19.6
		c-1.7,6.5-5.6,9.2-13.4,9.6c-11.3,0.5-22.7,1.1-34,1c-47.8-0.5-95.6-1.3-143.4-2c-1,0-1.9-0.2-3.1-0.3c0-9.8,0-19.4,0-29.5
		c1.8-0.1,3.6-0.4,5.4-0.4C588.7,474.4,648.3,474.1,708,473.9z M898.4,947.1c-288.2,0-576.3,0-865.1,0c0.4-15.1-1.4-30.1,4.1-44.5
		c4.5-11.6,17.8-20.3,30.1-20.3c265.5,0,531,0,796.5-0.1c10.8,0,18.9,4.9,25.3,12.8c5.5,6.8,9.1,14.8,9.1,23.8
		C898.4,928.1,898.4,937.4,898.4,947.1z"/>
	<path d="M278,342.6c60,0,120,0,180,0c60.2,0,120.3,0,180.5,0c8.1,0,15.2-7.1,15.2-15.2c0-79.8-0.2-159.7,0.2-239.5
		c0-8.9-2.2-15.4-9.1-20.5c-1.6-1.2-3.7-2.3-5.6-2.3c-121-0.1-242-0.1-363-0.1c-6.3,0-14.2,8.1-14.2,14.4c0,82.5,0,165,0,247.5
		C262.1,335.1,269.6,342.6,278,342.6z M294.5,98.5c109.2-1.4,217.7-0.9,326.3-1c0,71.1,0,141.5,0,212.4c-109.1,0-217.7,0-326.3,0
		C294.5,239.6,294.5,169.6,294.5,98.5z"/>
	<path d="M758.1,211.3c24.5,1.1,46.1-4.2,63.9-21.9c15.8-15.7,25.6-33.8,26.9-56.7c2.4-41.9-41.1-85.7-79.8-82.6
		c-35.9-4.4-81.4,31.9-82.4,78C685.8,167.5,722.5,209.7,758.1,211.3z M767.3,82.1c30.5,0.3,48.9,18.5,49,49.4
		c0.1,27.9-19.5,47.4-47.8,47.6c-28.9,0.2-49.3-19.9-49.5-48.6C718.8,108.4,733.7,81.7,767.3,82.1z"/>
	<path d="M213.9,228.7c-15.8,0-31.6,0-47.5,0c0,0.1,0,0.2,0,0.3c-17,0-34-0.3-50.9,0.1c-9.8,0.2-15.7,5.3-15.8,14.4
		c-0.3,29,0.1,57.9,0.5,86.9c0.1,5.9,4.2,9.5,10.3,10.5c4.1,0.6,8.3,1.1,12.4,1.1c29.8,0.3,59.6,0.4,89.5,0.6
		c9.2,0.1,15.5-5.4,15.6-14.7c0.5-26.6,0.6-53.3,0.8-79.9c0-2.5-0.4-5-0.9-7.4C226.7,234.3,220,228.7,213.9,228.7z M195.6,309.8
		c-21.5,0-42.8,0-64.3,0c0-15.9,0-31.6,0-47.5c21.5,0,42.7,0,64.3,0C195.6,278,195.6,293.7,195.6,309.8z"/>
	<path d="M106.7,176.8c2.2,1.5,4.9,2.9,7.4,2.9c18.8,0.2,37.6,0.4,56.4,0.1c15.5-0.3,30.9-0.9,46.4-1.9c8.2-0.6,11-3.9,11-11.9
		c0.2-29.3,0.2-58.6,0.1-87.9c0-6.3-2.7-9.4-8.9-10.8c-2.6-0.6-5.3-1.1-7.9-1.1C194.9,66,178.6,66,162.3,66c0-0.3,0-0.7,0-1
		c-16,0-32,0-48,0c-7,0-16,8.9-16,15.8c0,25.5,0.4,51-0.2,76.4C98,165.6,99.8,172.2,106.7,176.8z M131.4,97.9c21.2,0,42.6,0,64.3,0
		c0,16.2,0,32.3,0,49.1c-21.5,0-42.7,0-64.3,0C131.4,130.7,131.4,114.5,131.4,97.9z"/>
	<path d="M767.2,228.8c-32-0.2-63.4,31.4-63.9,64.3c-0.4,33.5,30.3,65.6,63.2,65.9c34.3,0.3,65.9-30.8,66.3-65.1
		C833.2,260.1,801.9,229.1,767.2,228.8z M767.7,326.1c-20.1,0-31.8-12.1-31.8-32.8c0.1-20.2,11.4-31.2,31.9-31.3
		c21.1,0,32.3,11.1,32.1,32C799.9,315,788.6,326.2,767.7,326.1z"/>
	<path d="M431.4,119.4c-31.6,31-63.1,62.1-94.5,93.4c-7.3,7.3-14.3,14.9-21.1,22.6c-2.1,2.4-4,5.6-4.5,8.6
		c-1.5,8.1,4.2,12.4,9.9,16.4c4.8,3.3,8.9,0.5,12.8-2.2c2.3-1.6,4.6-3.3,6.7-5.3c16.3-15.7,32.8-31.2,48.7-47.3
		c22-22.3,43.6-44.9,65.2-67.6c2-2.1,3-5.2,5-8.7c-2.2-3.8-3.7-7.8-6.4-10.4C445.5,111.9,438.8,112.1,431.4,119.4z"/>
	<path d="M319.6,177.8c5.8,2.9,11.9,3.3,16.8-1.3c12.3-11.7,24.2-23.8,36.2-35.8c0.8-0.8,1.4-1.9,1.9-2.9c3.1-6,1-15.4-4.5-20
		c-5.4-4.5-13.6-5.2-18.9-0.3c-12.5,11.7-24.5,23.9-36.5,36.2c-2.3,2.3-3.1,6-4.6,9.1C310.9,169.5,314.1,175.1,319.6,177.8z"/>
</g>
</svg>
