<?xml version="1.0" encoding="utf-8"?>
<!-- Generator: Adobe Illustrator 25.0.0, SVG Export Plug-In . SVG Version: 6.00 Build 0)  -->
<svg version="1.1" id="Слой_1" xmlns="http://www.w3.org/2000/svg" xmlns:xlink="http://www.w3.org/1999/xlink" x="0px" y="0px"
	 viewBox="0 0 368.3 275.3" style="enable-background:new 0 0 368.3 275.3;" xml:space="preserve">
<g>
	<path d="M368.1,25.6c-1.9-20-22-31.4-40.3-22.7C293.6,19,259.5,35.3,225.3,51.4c-1.5,0.7-3.5,1.2-5.1,0.9
		c-13.2-2.2-25.2,4.1-30.8,16.4c-0.5,1-1.1,2.4-2,2.8c-7.8,3.4-15.8,6.6-24.4,10.2c-0.6-6.9-2.3-13.3-1.5-19.4
		c1.7-13.8,4.6-27.4,7-41c1.2-7-0.9-9.6-8-9.6c-15.6,0-31.2,0-46.7,0c-6.7,0-7.9,1-9.1,7.4c-1.1,5.3-4.9,8.6-10,8.5
		c-5-0.1-8.9-3.6-9.7-8.8c-0.8-5.5-2.5-7-8-7.1c-16.1,0-32.1,0-48.2,0c-6.4,0-8.8,2.7-7.8,9c1.7,9.9,3.6,19.8,5.2,29.7
		c1,6.1,2.9,12.5,1.9,18.4C20.8,112.9,12.8,157,5,201c-1.6,9.1-3.3,18.1-5,27.1c0,3.6,0,7.2,0,10.8c0.2,0.5,0.5,1.1,0.6,1.6
		c4,20.3,19.2,34.1,39.8,34.3c36.4,0.4,72.9,0.5,109.3,0c24.5-0.4,42.4-21.4,39.5-45.8c-1.6-13.7-4.4-27.2-6.8-40.7
		c-3.9-22.3-7.9-44.6-11.9-66.8c-0.5-2.5-0.2-4,2.6-5.1c8.6-3.3,17.1-6.9,25.5-10.6c2.4-1,4.4-1,6.8-0.1c11.3,4.5,24.9,0.2,32.1-9.6
		c1.2-1.7,3.2-3.2,5.2-3.9c35.5-12.8,71-25.4,106.5-38.1C361.7,49.8,369.3,38,368.1,25.6z M176.6,224.3c2,11.2,1,21.5-7.4,30.1
		c-6.6,6.7-14.9,8.9-23.9,8.9c-33.7,0.1-67.4,0.1-101,0c-15,0-25.7-6.8-30.3-18.7c-2.7-6.9-2.1-13.9-0.9-20.9
		c8.8-49.6,17.6-99.2,26.3-148.9c0.5-2.6,1.4-3.3,3.9-3.3c4.9,0.2,9.8,0.1,14.7,0c4.3-0.1,6.7-2.3,6.7-5.9c0-3.6-2.4-5.9-6.6-5.9
		c-5.2-0.1-10.3-0.1-15.5,0c-1.8,0-2.8-0.4-3.2-2.4c-1.8-11-3.8-21.9-5.9-33.5c8.3,0,16.2,0,24,0c1.9,0,3.8,0.1,5.8,0
		c6-0.5,10,0.3,14,6.7c8.9,14.3,30.5,11.6,37.5-3.9c0.5-1.1,1.7-2.6,2.6-2.6c12.6-0.2,25.1-0.1,38.3-0.1c-2.1,12-4.2,23.7-6.3,35.9
		c-1.4,0-2.7,0-3.9,0c-19.8,0-39.6,0-59.3,0c-1.2,0-2.4,0-3.6,0.1c-3.4,0.3-5.7,2.7-5.7,5.8c0,3.1,2.2,5.5,5.6,5.9
		c1.2,0.1,2.4,0.1,3.6,0.1c19.7,0,39.3,0,59,0c1.3,0,2.6,0,4.4,0c1.2,7,2.5,13.9,3.7,20.9C161,136.4,168.8,180.4,176.6,224.3z
		 M344.8,43.2c-18.8,6.8-37.6,13.6-56.4,20.3c-17.7,6.3-35.5,12.4-53.1,18.8c-2.5,0.9-4.9,3-6.4,5.2c-5.1,7.9-13.4,10.5-21.8,6.1
		c-3.2-1.7-6-1.7-9.2-0.4c-9.9,4.2-19.9,8.3-30.2,12.6c-0.7-4.3-1.4-8.1-2.1-12.1c8.9-3.7,17.5-7.5,26.3-10.8
		c4.3-1.6,6.8-4.1,8.1-8.6c2.2-7.5,10.5-11.9,18.4-9.9c3.8,1,6.9,0.4,10.3-1.2c34.4-16.5,68.9-32.8,103.4-49.2
		c9.3-4.4,18.9-1.2,22.7,7.5C358.7,30.2,354.4,39.7,344.8,43.2z"/>
	<path d="M70.9,227c-3.1,0.1-5.7,2.7-5.7,5.8c-0.1,3.3,2.6,6.1,5.8,6.1c3.1,0,6-2.8,5.9-6C76.9,229.7,74.1,226.9,70.9,227z"/>
	<path d="M47.3,203c-3.1-0.1-6,2.6-6.1,5.7c-0.1,3.1,2.6,5.9,5.8,6c3.2,0.1,6-2.5,6.1-5.7C53.2,206,50.4,203.1,47.3,203z"/>
</g>
</svg>
