<?xml version="1.0" encoding="utf-8"?>
<!-- Generator: Adobe Illustrator 25.0.0, SVG Export Plug-In . SVG Version: 6.00 Build 0)  -->
<svg version="1.1" id="Слой_1" xmlns="http://www.w3.org/2000/svg" xmlns:xlink="http://www.w3.org/1999/xlink" x="0px" y="0px"
	 viewBox="0 0 65.2 122.9" style="enable-background:new 0 0 65.2 122.9;" xml:space="preserve">
<path d="M65.2,121.4c-0.1-0.5-0.7-1.1-1.3-1.3c-0.5-0.2-1.1-0.1-1.7-0.1c-1.4,0-2.8,0-4.2,0c0-1.9,0.1-3.6-1.1-5
	c-1.2-1.4-2.8-1.9-4.7-1.8c0-1.9,0-3.7,0-5.4c0-0.9-0.4-1.3-1.3-1.3c-1,0-2.1,0-3.1,0c0.3-4.6-2-7.9-4.3-11.7
	c-1.1,2.1-2.1,3.8-3,5.6c-0.9,1.9-1.5,3.8-1.1,6.1c-1.1,0-2,0-3,0c-1.1-0.1-1.5,0.4-1.5,1.5c0,1.7,0,3.4,0,5.2
	c-1.9-0.1-3.7,0.2-4.6,1.9c-0.8,1.4-1.1,3.1-1.6,4.8c-6.2,0-12.7,0-19.3,0c0-0.6,0-1.1,0-1.5c0-15.3,0-30.6,0-46
	c0-2.1-0.9-3.7-2.7-4.7c-0.3-0.2-0.6-0.8-0.6-1.2c-0.1-3,0-5.9,0-8.9c0-0.3,0.1-0.6,0.1-0.9c9.3,0,18.4,0,27.7,0
	c0.1,0.8,0.2,1.5-0.7,2.1c-8.5,5.6-11.2,16-6.6,25.1c3.8,7.4,12.6,11.6,20.8,9.8c8.6-1.9,15-9.2,15.3-17.7c0.3-7.3-2.7-13-8.7-17.1
	c-0.6-0.4-0.9-0.9-0.9-1.6c0.1-1.6,0-3.2,0-4.8c0-0.7,0.2-1,0.9-1.3c3.7-1.7,5.8-4.6,5.8-8.6C60,29,60,15.7,60,2.3
	C60,0.7,59.3,0,57.7,0C48.3,0,39,0,29.6,0c-1.6,0-2.3,0.7-2.3,2.3c0,13.4,0,26.7,0,40.1c0,3.8,1.9,6.6,5.2,8.4
	c1.7,0.9,1.7,0.9,1.3,3c-0.4,0-0.8,0-1.3,0c-8.9,0-17.8,0-26.8,0c-2.3,0-2.5,0.2-2.5,2.6c0,3.4,0,6.8,0,10.2c0,0.4-0.3,0.9-0.6,1.1
	c-2,1.1-2.8,2.7-2.8,4.9c0,16.1,0,32.1,0,48.2c0,2.1,0,2.1,2.1,2.1c20.3,0,40.6,0,60.8,0c0.4,0,0.7,0,1.1,0
	C64.8,122.7,65.4,122.2,65.2,121.4z M30.3,2.9c9,0,17.8,0,26.7,0c0,9.6,0,19.2,0,28.9c-8.9,0-17.8,0-26.7,0
	C30.3,22.2,30.3,12.6,30.3,2.9z M30.3,43.1c-0.2-2.7,0-5.4,0-8.3c9,0,17.8,0,26.6,0c0,3.1,0.3,6.2-0.1,9.2c-0.3,2.8-3.2,4.9-6,4.9
	c-4.7,0.1-9.4,0.1-14.1,0C33.4,48.9,30.6,46.3,30.3,43.1z M37.1,57.5c0-1.8,0-3.7,0-5.6c4.4,0,8.8,0,13.3,0c0,1.9,0,3.7,0,5.6
	C45.9,57.5,41.5,57.5,37.1,57.5z M45.5,60.5c0,5.4,0,10.7,0,16.2c-1.3,0-2.4,0-3.7,0c0-5.4,0-10.8,0-16.2
	C43,60.5,44.3,60.5,45.5,60.5z M35,61c1.2-0.8,2.5-0.5,3.9-0.5c0,0.5,0,0.9,0,1.4c0,5.2,0,10.4,0,15.6c0,1.5,0.7,2.2,2.2,2.2
	c1.7,0,3.4,0,5.2,0c1.5,0,2.2-0.7,2.2-2.2c0-5.1,0-10.2,0-15.4c0-0.5,0-1,0-1.5c1.5-0.1,2.8-0.3,4.2,0.6c7.3,4.9,9.6,14.5,5.1,22
	C52.1,92.9,38,93.9,31,85.1C24.8,77.5,26.7,66.4,35,61z M6.7,119.9c-1.3,0-2.5,0-3.8,0c0-0.5,0-0.9,0-1.4c0-15.4,0-30.7,0-46.1
	c0-1.6,0.7-2.5,2-2.5c1.2,0,1.9,0.9,1.9,2.4c0,15.4,0,30.9,0,46.3C6.7,119.1,6.7,119.5,6.7,119.9z M43.4,100.9c0.2,0,0.3,0,0.5,0
	c0.4,1.2,0.9,2.5,1.1,3.7c0.1,0.5-0.2,1.3-0.6,1.6c-0.3,0.3-1.2,0.3-1.5,0c-0.4-0.3-0.8-1.1-0.7-1.6C42.5,103.4,43,102.1,43.4,100.9
	z M38,109.5c3.8,0,7.5,0,11.4,0c0,1.3,0,2.4,0,3.7c-3.8,0-7.6,0-11.4,0C38,112,38,110.8,38,109.5z M55.1,120c-7.6,0-15.2,0-22.7,0
	c-0.7-2.9,0.3-3.9,2.7-3.9c5.6,0.1,11.3,0.1,16.9,0C55.2,116,55.5,117.6,55.1,120z"/>
</svg>
