<svg width="80" height="28" viewBox="0 0 80 28" fill="none" xmlns="http://www.w3.org/2000/svg">
<path d="M79.9078 4.30655C79.4455 1.67164 77.2267 -0.131199 74.5455 0.00748059C73.4823 0.0537071 72.4191 0.192387 71.3559 0.423519C66.0398 1.53296 60.9549 3.33579 55.9162 5.18485C49.2134 7.63486 42.5568 10.2235 35.8539 12.7198C33.4039 13.6443 30.9077 14.5226 28.3652 15.216C24.7596 16.1868 21.0152 16.5566 17.3171 16.7415C12.0473 17.0188 6.82367 16.8339 1.6463 16.0943C0.583087 15.9556 -0.156538 16.4641 0.0283682 17.7122C0.305727 19.9773 1.41516 21.7339 2.98687 23.2594C7.0548 27.2811 15.4218 29.7311 22.5407 25.8943C24.9907 24.6 27.1633 22.8896 29.336 21.2255C30.353 20.4396 31.3699 19.6538 32.5256 19.099C40.1992 15.632 48.104 12.9509 56.3323 11.1481C62.0181 9.89996 67.7502 9.11411 73.5748 9.20656C74.8691 9.20656 76.2097 9.20656 77.504 9.20656C77.9663 9.20656 78.3361 9.11411 78.6597 8.74429C79.6767 7.44995 80.2314 6.01693 79.9078 4.30655ZM77.3191 6.75655C77.2267 6.89523 76.9493 6.98769 76.7644 6.98769C74.2219 7.03391 71.6795 6.98769 69.1833 7.08014C64.0059 7.3575 58.921 8.2358 53.9285 9.43769C46.3936 11.2405 39.136 13.7368 32.0633 16.8339C30.0756 17.7122 28.5039 19.0528 26.8398 20.3472C24.5747 22.1038 22.2633 23.7679 19.5822 24.7387C14.3124 26.6802 7.42461 25.016 3.81894 20.9481C3.07932 20.116 2.5246 19.1453 2.43215 18.3594C3.26422 18.4519 4.0963 18.5443 4.92838 18.5905C11.6775 19.1915 18.3803 19.0528 25.0369 18.0358C28.8737 17.4349 32.5718 16.233 36.2237 14.8924C43.2502 12.2113 50.2304 9.57637 57.303 6.98769C61.9719 5.2773 66.6408 3.65938 71.4946 2.59617C72.6965 2.31881 73.8984 2.18013 75.1002 2.1339C76.3484 2.04145 77.0418 2.91975 77.5502 3.89051C78.0125 4.86127 77.9201 5.83202 77.3191 6.75655Z" fill="#6A6A6A"/>
<path d="M2.94086 14.985C3.49558 15.2623 4.09653 15.0774 4.42011 14.4765C4.69747 13.968 4.97483 13.4133 5.29842 12.9048C6.87012 10.4548 8.71918 8.3746 11.1692 6.89535C12.6022 6.06327 14.1277 5.64723 15.6994 6.43308C16.8088 6.9878 17.872 7.63497 18.7966 8.42082C20.7381 9.99253 22.2173 12.0265 23.5579 14.1529C23.9739 14.8001 24.5749 14.985 25.0834 14.6614C25.6843 14.2916 25.7768 13.6444 25.3607 12.9972C25.222 12.7661 25.0371 12.535 24.8985 12.3039C23.4654 9.90007 21.6626 7.86611 19.49 6.15572C17.872 4.90761 16.0692 3.98308 13.989 3.89062C12.6947 3.89062 11.539 4.26044 10.4758 4.81516C6.87012 6.8029 4.37389 9.85385 2.52482 13.5057C2.20124 14.1067 2.43237 14.7076 2.94086 14.985Z" fill="#6A6A6A"/>
<path d="M16.7162 8.74414C16.069 8.74414 15.5605 9.20641 15.5605 9.85358C15.5605 10.4545 16.069 10.963 16.67 10.9168C17.2709 10.9168 17.7794 10.4545 17.7794 9.85358C17.8256 9.25263 17.3634 8.74414 16.7162 8.74414Z" fill="#6A6A6A"/>
<path d="M8.48768 13.644C7.88674 13.644 7.37825 14.1063 7.33202 14.661C7.2858 15.262 7.79429 15.8167 8.44146 15.8167C9.0424 15.8167 9.55089 15.3544 9.55089 14.7535C9.59712 14.1063 9.13486 13.644 8.48768 13.644Z" fill="#6A6A6A"/>
<path d="M11.3538 10.4088C11.3538 9.80781 10.8915 9.29932 10.2906 9.29932C9.68964 9.29932 9.18115 9.76158 9.18115 10.3625C9.18115 10.9635 9.64342 11.472 10.2444 11.472C10.7991 11.5182 11.3538 11.0559 11.3538 10.4088Z" fill="#6A6A6A"/>
<path d="M12.833 12.8122C12.833 13.4131 13.3415 13.9216 13.8962 13.9216C14.4972 13.9216 14.9594 13.4593 14.9594 12.8584C14.9594 12.2112 14.5434 11.7952 13.8038 11.7952C13.249 11.749 12.833 12.2112 12.833 12.8122Z" fill="#6A6A6A"/>
<path d="M18.7038 14.569C19.3509 14.6152 19.8132 14.1529 19.8132 13.5058C19.8132 12.8586 19.4434 12.4888 18.7962 12.4888C18.149 12.4888 17.733 12.9048 17.6868 13.5058C17.6406 14.1067 18.1028 14.569 18.7038 14.569Z" fill="#6A6A6A"/>
</svg>
