<svg width="54" height="56" viewBox="0 0 54 56" fill="none" xmlns="http://www.w3.org/2000/svg">
<path d="M52.6287 31.0358C52.4739 30.7779 52.2933 30.6747 51.9838 30.6489C50.5907 30.6231 49.1976 30.8037 47.8561 31.2164C44.9151 32.0936 42.4385 33.7962 40.5294 36.2729C39.0847 38.1303 38.156 40.349 37.7432 42.8772C37.382 45.199 36.4017 47.2629 34.7764 49.1461C33.5639 50.5392 32.0934 51.6485 30.2618 52.5515C29.7974 52.7836 29.2298 52.7579 28.7913 52.4999C29.5394 52.2419 30.3134 51.8807 31.1131 51.3905C33.2285 50.1264 34.8796 48.3722 36.0405 46.2051C36.7113 44.941 36.9693 43.5737 37.2273 42.258C37.6142 40.22 38.3624 38.3625 39.4459 36.7372C40.71 34.854 42.3095 33.3061 44.2185 32.171C45.9728 31.1132 47.7013 30.4941 49.5329 30.2361L51.442 29.9781C51.5452 29.9523 51.6226 29.9007 51.6484 29.7975C51.6742 29.6943 51.6484 29.5912 51.571 29.5396C50.6939 28.8172 49.6361 28.0433 48.3978 27.5531C47.1337 27.0629 45.9728 26.8308 44.8119 26.8308C43.9606 26.8308 43.1092 26.8823 42.2837 26.9339C41.9999 26.9597 41.7161 26.9597 41.4323 26.9855L41.4065 26.7018C41.3549 26.3148 41.3292 25.902 41.2776 25.4893C41.0712 23.8382 40.6584 22.1355 40.065 20.4844C39.1105 17.8014 37.769 15.6602 35.9373 13.9833C34.3379 12.487 32.3514 11.5841 30.0554 11.3003C29.9522 11.3003 29.849 11.3261 29.7974 11.4293C29.7458 11.5067 29.7458 11.6357 29.7974 11.7131C29.849 11.7905 29.9006 11.8679 29.9522 11.9452C30.0554 12.1258 30.1844 12.2806 30.2876 12.4612C31.1389 13.6479 31.7581 14.8088 32.1966 16.0471C32.9964 18.24 33.2801 20.5102 33.0222 22.8062C32.8416 24.5347 32.3514 26.2374 31.5517 27.8627C31.0099 28.9978 30.236 30.0039 29.5136 30.9842C29.1782 31.4228 28.8687 31.8614 28.5333 32.2999L28.0689 31.913C28.1205 31.8356 28.1721 31.7582 28.2237 31.6808C28.4301 31.4228 28.6365 31.139 28.8171 30.8811C29.1266 30.4683 29.462 30.0297 29.7716 29.5911C31.4743 27.2435 32.3772 24.5863 32.4804 21.6969C32.5578 19.6331 32.2224 17.6724 31.4743 15.815C30.8293 14.2413 29.9522 12.8482 28.8687 11.6873C28.7397 11.5325 28.4559 11.4293 28.2495 11.4809C28.0947 11.5325 27.9399 11.5583 27.7851 11.6099C27.2434 11.7647 26.65 11.9194 26.1341 12.1516C24.1992 13.0288 22.5481 14.5509 21.1034 16.7953C20.2005 18.2142 19.4782 19.8395 18.8848 21.7743C18.4204 23.2964 18.1367 24.7927 18.0077 26.2632C17.9819 26.4954 17.9561 26.7018 17.9303 26.9339V26.9855C16.0986 26.676 14.4217 26.676 12.7965 27.0113C11.1196 27.3725 9.54589 28.1723 7.998 29.488C7.92061 29.5654 7.89481 29.6685 7.92061 29.7459C7.94641 29.8491 8.0238 29.9265 8.12699 29.9265L8.61716 29.9781C8.95253 30.0297 9.26211 30.0555 9.59749 30.1071C12.1515 30.4167 14.4991 31.3712 16.6146 32.9449C19.4782 35.1119 21.3614 38.0013 22.2128 41.5099C22.2902 41.871 22.3675 42.2322 22.4449 42.5934C22.5739 43.2641 22.7029 43.9607 22.9351 44.6314C23.1673 45.3022 23.2189 45.9472 23.1931 46.7727V46.7469C22.7545 45.9213 22.316 45.0442 22.1354 44.1413C22.058 43.7543 21.9806 43.3415 21.9032 42.9546C21.8516 42.7224 21.8 42.4902 21.7742 42.258C21.284 39.8072 20.2779 37.6402 18.7558 35.8343C17.0015 33.7188 14.7829 32.1968 12.2031 31.3196C10.6552 30.8037 9.10732 30.5715 7.55944 30.6231C7.35305 30.6231 7.12087 30.7521 7.01768 30.9327C6.94028 31.0874 6.86289 31.2422 6.78549 31.397C6.52751 31.913 6.26953 32.4289 6.11474 32.9965C5.54718 34.9056 5.54718 36.9694 6.16634 39.3428C6.7339 41.5357 7.71422 43.5995 9.15892 45.715C10.552 47.7272 12.2547 49.5073 14.2153 51.0552C17.2079 53.4028 20.2521 54.8991 23.5285 55.6214C24.6636 55.8536 25.7213 55.9826 26.7274 55.9826C27.7593 55.9826 28.7397 55.8536 29.6942 55.6214C29.7458 55.6214 29.8232 55.6214 29.9006 55.6472H29.9522C30.1844 55.673 30.4424 55.7246 30.6745 55.7762C31.1905 55.8536 31.7065 55.9568 32.2224 55.9826C34.2863 56.0858 36.4533 55.7246 38.8009 54.8475C41.2002 53.9446 43.4962 52.6289 45.5858 50.9262C48.4236 48.6044 50.6165 45.8956 52.1128 42.8772C53.1189 40.8391 53.6864 38.8785 53.8412 36.9178C54.0218 34.6734 53.6348 32.7385 52.6287 31.0358ZM51.9838 38.4657C51.442 40.9939 50.2553 43.3931 48.372 45.8182C46.7726 47.882 44.8377 49.6621 42.6191 51.1068C40.194 52.7063 37.7948 53.7124 35.2924 54.1767C33.6155 54.4863 32.0676 54.4863 30.6229 54.1767C31.0357 53.9704 31.4743 53.764 31.887 53.5318C33.5381 52.6289 35.0086 51.4163 36.2985 49.8685C37.511 48.398 38.3624 46.8243 38.8783 45.1474C39.0589 44.5283 39.1879 43.9091 39.2911 43.2899C39.3427 43.032 39.3943 42.774 39.4459 42.516C40.0908 39.5234 41.5613 37.0468 43.8832 35.1635C45.7922 33.5899 48.0109 32.6611 50.4617 32.3773C50.5907 32.3515 50.7455 32.3515 50.8745 32.3515C50.9518 32.3515 51.055 32.3515 51.1324 32.3258C51.2614 32.3258 51.4162 32.2999 51.442 32.2999C51.4678 32.3257 51.5194 32.4547 51.571 32.5837V32.6095C52.3449 34.3122 52.4739 36.2471 51.9838 38.4657ZM24.0444 42.0774C22.5739 35.4473 18.5752 31.0616 12.0999 28.972C12.2547 28.9204 12.4095 28.8688 12.5643 28.8172C14.2153 28.3786 15.9438 28.327 17.9045 28.714C20.8971 29.2816 23.6574 30.5715 26.3663 32.6095C26.9596 33.0481 27.5014 33.5383 28.0947 34.0284C28.3011 34.209 28.5075 34.3638 28.7139 34.5444C27.553 35.8343 26.6242 37.0984 25.8245 38.3883C25.1021 39.5492 24.5088 40.7875 24.0444 42.0774ZM33.6155 15.0668C33.5123 14.8346 33.4091 14.6025 33.3059 14.3445C33.2543 14.2155 33.2027 14.1123 33.1512 13.9833C33.3833 14.1123 33.6155 14.2671 33.8477 14.4219C35.215 15.4022 36.3759 16.7179 37.3304 18.4722C38.7751 21.052 39.5749 23.9414 39.8071 27.2693C39.8071 27.4241 39.8071 27.4241 39.6781 27.4757C36.1953 28.5076 32.9964 30.3909 30.107 33.0739L29.8232 33.3319C29.8232 33.3319 29.8232 33.3061 29.849 33.3061L30.0038 33.1255C30.5455 32.4031 31.1131 31.6292 31.6549 30.8811C33.2801 28.585 34.2863 26.0568 34.6216 23.3738C35.0086 20.5102 34.6732 17.724 33.6155 15.0668ZM26.4952 51.4421C26.2631 51.4937 26.1857 51.4679 26.0567 51.2874C25.1279 49.8943 24.741 48.269 24.8184 46.3857C24.9474 44.0123 25.7213 41.6647 27.2176 39.1622C28.6623 36.7372 30.6229 34.596 32.9964 32.7643C35.5504 30.8037 38.1818 29.5138 40.9938 28.843C42.1289 28.585 43.1866 28.456 44.2185 28.456C45.1473 28.456 46.0502 28.5592 46.9015 28.7914C47.1079 28.843 47.2885 28.9204 47.4949 28.972C47.4175 28.9978 47.3401 29.0236 47.2627 29.0494C46.6178 29.2816 45.947 29.488 45.3279 29.7717C43.4446 30.5457 41.7161 31.7324 40.1682 33.2803C38.3108 35.1377 36.9951 37.2274 36.2727 39.5234C35.8858 40.7617 35.602 42.0774 35.3182 43.3415L35.2924 43.4447C35.1118 44.2445 34.8022 45.0442 34.2863 45.9472C33.2285 47.8304 31.7065 49.2751 29.6426 50.3586C28.7655 50.7972 27.7336 51.1584 26.4952 51.4421ZM25.3343 52.99C25.4375 53.1448 25.6439 53.1964 25.7471 53.1964C25.8761 53.1964 26.0051 53.1706 26.1083 53.1448C26.6758 52.99 26.9338 53.0674 27.1918 53.4028C27.2434 53.4802 27.295 53.5318 27.3724 53.5834L26.6758 53.8156C26.5726 53.8414 26.4952 53.9446 26.4952 54.0478C26.4952 54.1509 26.5468 54.2541 26.6242 54.3057L26.779 54.3831C24.8442 54.3831 22.8835 53.9704 20.8455 53.1448C17.4917 51.7775 14.4991 49.6363 11.9451 46.7211C10.2166 44.7346 8.90094 42.5676 8.1012 40.2974C7.32725 38.1561 7.12087 36.1955 7.45624 34.2864C7.53364 33.7962 7.74002 33.2803 7.94641 32.7901C7.998 32.6353 8.0754 32.4805 8.12699 32.3515C8.15279 32.3258 8.20439 32.2999 8.23019 32.2999C10.8874 32.3773 13.3124 33.2803 15.4795 34.9572C17.1047 36.2213 18.3688 37.8207 19.2202 39.6782C19.8393 41.0197 20.1489 42.4644 20.3295 43.5479C20.7939 46.1019 21.929 48.398 23.7606 50.3844C23.8896 50.5134 23.967 50.7198 24.0444 50.9262C24.1218 51.081 24.1734 51.2616 24.2766 51.3905C24.612 51.9065 24.9474 52.4483 25.3085 52.9384L25.3343 52.99ZM27.0628 30.4941C26.9596 30.6231 26.8822 30.7521 26.779 30.8553C26.6242 30.7521 26.4694 30.6747 26.3405 30.5715C25.8761 30.2619 25.3601 29.9523 24.87 29.6427C23.2447 28.6624 21.4646 27.9143 19.6329 27.3983C19.6072 27.3983 19.5814 27.3725 19.5814 27.3725C19.5814 27.3467 19.5814 27.3467 19.5814 27.2951C19.7103 25.3603 20.0457 23.606 20.5617 21.9807C21.542 18.8849 22.8835 16.6663 24.8184 14.9636C25.7729 14.1123 26.8306 13.5447 27.9915 13.2094C28.0947 13.1836 28.0947 13.1836 28.1463 13.2609C30.1328 15.7376 31.0615 18.6528 30.8809 21.9033C30.7519 24.5863 29.7716 27.0629 27.9915 29.2558C27.682 29.6685 27.3724 30.0813 27.0628 30.4941Z" fill="#6A6A6A"/>
<path d="M5.93356 22.6518C2.65721 22.6518 0 19.9946 0 16.7182C0 13.4419 2.65721 10.7847 5.93356 10.7847C9.20992 10.7847 11.8671 13.4419 11.8671 16.7182C11.8671 19.9946 9.20992 22.6518 5.93356 22.6518ZM5.93356 12.3326C3.50854 12.3326 1.54789 14.2932 1.54789 16.7182C1.54789 19.1433 3.50854 21.1039 5.93356 21.1039C8.35859 21.1039 10.3192 19.1433 10.3192 16.7182C10.3192 14.2932 8.35859 12.3326 5.93356 12.3326Z" fill="#6A6A6A"/>
<path d="M19.2973 12.3827C16.4595 12.3827 14.1377 10.0609 14.1377 7.2231C14.1377 4.38531 16.4595 2.06348 19.2973 2.06348C22.1351 2.06348 24.4569 4.38531 24.4569 7.2231C24.4569 10.0609 22.1351 12.3827 19.2973 12.3827ZM19.2973 3.61136C17.3109 3.61136 15.6856 5.23664 15.6856 7.2231C15.6856 9.20955 17.3109 10.8348 19.2973 10.8348C21.2838 10.8348 22.9091 9.20955 22.9091 7.2231C22.9091 5.23664 21.2838 3.61136 19.2973 3.61136Z" fill="#6A6A6A"/>
<path d="M33.7944 8.77136C31.3693 8.77136 29.4087 6.8107 29.4087 4.38568C29.4087 1.96066 31.3693 0 33.7944 0C36.2194 0 38.18 1.96066 38.18 4.38568C38.18 6.8107 36.2194 8.77136 33.7944 8.77136ZM33.7944 1.54789C32.2207 1.54789 30.9566 2.81199 30.9566 4.38568C30.9566 5.95936 32.2207 7.22347 33.7944 7.22347C35.3681 7.22347 36.6322 5.95936 36.6322 4.38568C36.6322 2.81199 35.3681 1.54789 33.7944 1.54789Z" fill="#6A6A6A"/>
<path d="M45.4042 10.8353C43.4178 10.8353 41.7925 9.21001 41.7925 7.22355C41.7925 5.2371 43.4178 3.61182 45.4042 3.61182C47.3907 3.61182 49.016 5.2371 49.016 7.22355C49.016 9.21001 47.3907 10.8353 45.4042 10.8353ZM45.4042 5.1597C44.2691 5.1597 43.3404 6.08843 43.3404 7.22355C43.3404 8.35867 44.2691 9.2874 45.4042 9.2874C46.5393 9.2874 47.4681 8.35867 47.4681 7.22355C47.4681 6.08843 46.5393 5.1597 45.4042 5.1597Z" fill="#6A6A6A"/>
</svg>
