<svg width="38" height="48" viewBox="0 0 38 48" fill="none" xmlns="http://www.w3.org/2000/svg">
<path d="M34.6145 33.371C34.5073 33.2773 34.4135 33.1031 34.4135 32.9624C34.4068 28.3201 34.4068 23.6711 34.4068 19.0289C34.4068 15.9809 34.4202 12.9329 34.4068 9.88496C34.4001 7.56717 32.7589 5.54412 30.5617 5.102C28.197 4.62638 25.9261 5.81207 25.0084 7.99589C24.7471 8.62558 24.6199 9.27537 24.6266 9.95195C24.6333 10.4678 24.6266 10.9836 24.6266 11.4994C24.4993 11.419 24.4323 11.3252 24.372 11.2381C21.9202 7.55377 19.301 3.99669 16.521 0.560192C15.9181 -0.183378 15.275 -0.190076 14.6721 0.560192C11.4768 4.5058 8.46898 8.57869 5.76266 12.8726C3.93388 15.7799 2.23908 18.7475 1.02659 21.9763C0.44379 23.5372 -0.0318269 25.1382 0.00166726 26.8263C0.0820532 31.2073 1.66968 34.9654 4.85832 37.9597C8.69005 41.5637 13.2586 42.8901 18.4435 41.9991C19.4484 41.825 20.4264 41.4833 21.4513 41.2154C21.4781 41.336 21.5116 41.4766 21.5451 41.6173C22.5499 45.9983 26.9376 48.8185 31.2718 47.7869C34.6011 46.9965 36.7648 44.8796 37.5084 41.5369C38.2185 38.2813 37.1668 35.5348 34.6145 33.371ZM21.4178 38.6497C21.3776 38.911 21.2704 39.0316 21.0427 39.132C14.9802 41.7647 7.93978 39.7014 4.28222 34.1883C2.62091 31.6829 1.81035 28.923 2.0783 25.9086C2.16539 24.9305 2.46014 23.9592 2.77498 23.0214C3.63243 20.4825 4.91861 18.1446 6.29187 15.8536C8.98479 11.3453 12.073 7.10495 15.3152 2.97847C15.3956 2.87799 15.4827 2.7775 15.6032 2.63013C16.1056 3.27322 16.588 3.87611 17.0569 4.4857C19.6694 7.88871 22.1547 11.3788 24.3988 15.0297C24.5596 15.2842 24.6333 15.5388 24.6333 15.8402C24.6266 21.5074 24.6266 27.1813 24.6266 32.8485C24.6266 33.1031 24.5596 33.2706 24.3586 33.438C22.7174 34.7979 21.7327 36.5396 21.4178 38.6497ZM35.5657 41.0479C35.0566 43.5064 33.1475 45.382 30.6555 45.8711C28.0898 46.3735 25.4304 45.1342 24.1241 42.8097C22.8313 40.5187 23.1595 37.5913 24.9481 35.6486C25.283 35.2802 25.6783 34.9587 26.0869 34.6706C26.4687 34.396 26.6429 34.0677 26.6429 33.5988C26.6362 29.613 26.6362 25.6272 26.6362 21.6414C26.6362 17.736 26.6295 13.8306 26.6362 9.91845C26.6362 8.28394 27.909 6.99776 29.5033 6.99776C31.0976 6.99107 32.3838 8.27724 32.3838 9.90506C32.3905 13.844 32.3838 17.7829 32.3838 21.7285C32.3838 21.7285 32.3838 21.7285 32.3771 21.7285C32.3771 25.6942 32.3771 29.6532 32.3771 33.6189C32.3771 34.0878 32.5781 34.4094 32.9599 34.6773C35.0834 36.1243 36.0816 38.5827 35.5657 41.0479Z" fill="#6A6A6A"/>
<path d="M12.2069 35.4141C10.9743 34.992 9.88909 34.3288 8.95125 33.4245C8.04021 32.547 7.35693 31.5086 6.88801 30.3296C6.66025 29.7602 6.16454 29.5124 5.62863 29.6799C5.05253 29.8607 4.78458 30.4435 5.01904 31.0598C5.54155 32.4197 6.31861 33.6255 7.34353 34.6638C8.55602 35.8964 9.97617 36.794 11.6174 37.3299C12.3275 37.5644 12.9839 37.1156 12.9839 36.4122C12.9839 35.9299 12.7294 35.5949 12.2069 35.4141Z" fill="#6A6A6A"/>
<path d="M31.2451 35.8297C30.9771 35.7159 30.8967 35.5819 30.8967 35.2938C30.9101 32.3397 30.9034 29.3788 30.9034 26.4246C30.9034 25.7413 30.9034 25.0647 30.9034 24.3815C30.9034 22.0905 30.9034 19.8062 30.8967 17.5152C30.8967 16.8051 30.5417 16.2893 29.9522 16.0883C29.001 15.7735 28.1301 16.45 28.1301 17.5219C28.1234 23.39 28.1234 29.2649 28.1368 35.1331C28.1368 35.5082 28.0765 35.7092 27.688 35.8833C25.9932 36.647 25.0286 38.4959 25.3032 40.3381C25.6047 42.341 27.3062 43.875 29.3158 43.9621C31.379 44.0492 33.1944 42.6693 33.6633 40.6596C34.1256 38.6768 33.114 36.647 31.2451 35.8297Z" fill="#6A6A6A"/>
</svg>
