<svg width="51" height="60" viewBox="0 0 51 60" fill="none" xmlns="http://www.w3.org/2000/svg">
<path d="M49.1558 6.66564C48.9416 5.828 48.5888 5.60296 47.7445 5.72798C45.2747 6.07804 42.8049 6.11555 40.3351 5.94052C35.8996 5.64046 31.5775 4.7153 27.268 3.69012C22.0008 2.4524 16.784 0.989647 11.4034 0.314528C7.95071 -0.110546 4.49805 -0.185559 1.0706 0.602079C-0.113893 0.877127 -0.315508 1.62726 0.46575 2.55242C1.77625 4.09019 3.06155 5.66547 4.32164 7.24074C4.78788 7.81584 5.00209 8.49096 5.0525 9.2536C5.31711 13.2168 5.64474 17.1925 5.94716 21.1557C6.4008 26.9692 6.84183 32.7827 7.29546 38.5962C7.61049 42.647 7.91291 46.6977 8.29094 50.7359C8.46735 52.6612 9.50063 54.1365 11.1892 55.0991C11.6806 55.3867 11.9452 55.6867 12.109 56.2368C12.8021 58.4747 14.6166 59.975 16.6328 59.9875C21.9 60 27.1798 60 32.447 60C33.4046 60 34.2615 59.6749 35.0049 59.0873C36.0256 58.2872 36.7061 57.2495 37.0337 56.0118C37.1345 55.6367 37.3235 55.4242 37.6637 55.2367C39.5791 54.199 40.6376 52.5987 40.814 50.4358C41.0408 47.6478 41.255 44.8723 41.4692 42.0844C41.9229 36.1833 42.3639 30.2823 42.8049 24.3938C43.1956 19.1178 43.5862 13.8419 43.9768 8.56598C43.9894 8.39095 44.0398 8.21591 44.0776 8.04088C45.1865 7.96587 46.2576 7.89086 47.3035 7.81584C47.3539 7.86585 47.3917 7.89086 47.4043 7.92836C47.4547 8.09089 47.4925 8.25342 47.5303 8.41595C48.929 15.3172 48.5636 22.1684 46.7994 28.9696C46.4844 30.1823 46.0812 31.3575 45.7031 32.5577C45.5141 33.1828 45.7284 33.6954 46.2576 33.8954C46.812 34.108 47.3413 33.8329 47.5933 33.1953C47.6941 32.9453 47.7697 32.6827 47.8579 32.4327C49.3322 27.9944 50.1639 23.4311 50.3403 18.7678C50.4789 14.667 50.1891 10.6288 49.1558 6.66564ZM32.3461 58.0121C27.142 58.0247 21.9378 58.0121 16.7336 58.0121C15.6373 58.0121 14.6292 57.2245 14.1378 55.9493C21.0809 55.9493 27.9484 55.9493 34.8285 55.9493C34.7151 56.962 33.4802 58.0121 32.3461 58.0121ZM41.7717 11.5165C41.4062 16.3798 41.0534 21.2307 40.688 26.0941C40.1587 33.0078 39.6295 39.9215 39.1003 46.8352C39.012 47.9729 38.9238 49.1231 38.823 50.2608C38.634 52.3987 37.0463 53.8989 34.8663 53.9364C32.9384 53.9614 30.9978 53.9489 29.0699 53.9489C24.2185 53.9489 19.3672 53.9489 14.5158 53.9489C12.0082 53.9489 10.4205 52.5612 10.2189 50.0858C9.80305 45.1724 9.42502 40.2465 9.047 35.3207C8.54296 28.932 8.05152 22.5309 7.56008 16.1298C7.38367 13.8044 7.18205 11.4915 7.05605 9.15358C6.99304 8.1159 6.72842 7.17823 6.12358 6.35309C5.25411 5.15288 4.32164 4.00268 3.42697 2.82747C3.30096 2.66494 3.17495 2.51491 2.97334 2.27737C5.41792 1.88981 7.7617 1.93981 10.1055 2.17736C15.2971 2.70245 20.3248 4.07769 25.3778 5.2904C29.8008 6.35309 34.2363 7.37827 38.7852 7.81584C39.8311 7.91586 40.877 7.97837 42.0111 8.05339C41.9229 9.20359 41.8473 10.3538 41.7717 11.5165Z" fill="#6A6A6A"/>
<path d="M29.8513 41.147C26.3356 41.147 22.8073 41.147 19.2917 41.147C18.4474 41.147 17.9938 41.5095 18.0064 42.1721C18.019 42.8098 18.4348 43.1348 19.2791 43.1348C21.018 43.1348 22.7569 43.1348 24.4959 43.1348C26.2726 43.1348 28.0619 43.1473 29.8387 43.1223C30.1537 43.1223 30.5695 43.0348 30.7333 42.8223C30.9349 42.5722 31.0357 42.1346 30.9727 41.8221C30.8593 41.2845 30.3805 41.147 29.8513 41.147Z" fill="#6A6A6A"/>
<path d="M19.0646 24.8313C20.0727 24.8563 21.0808 24.8438 22.0889 24.8438C24.6342 24.8438 27.167 24.8563 29.7124 24.8313C30.0653 24.8313 30.5189 24.7438 30.7457 24.5187C30.9599 24.3062 31.0481 23.8311 30.9851 23.5186C30.8969 23.031 30.4559 22.856 29.9771 22.856C28.1877 22.856 26.411 22.856 24.6216 22.856C22.9205 22.856 21.2194 22.856 19.5183 22.856C19.367 22.856 19.2284 22.856 19.0772 22.856C18.4094 22.8935 18.0187 23.2685 18.0061 23.8436C17.9935 24.4062 18.3968 24.8063 19.0646 24.8313Z" fill="#6A6A6A"/>
<path d="M22.2782 12.6165C23.0342 12.629 23.7903 12.6165 24.5463 12.6165C25.3276 12.6165 26.0962 12.629 26.8775 12.6165C27.5705 12.604 27.999 12.2039 27.9864 11.6163C27.9738 11.0162 27.5579 10.6536 26.8523 10.6411C25.3276 10.6411 23.7903 10.6411 22.2656 10.6411C21.5221 10.6411 21.0685 11.0287 21.0811 11.6413C21.0685 12.2289 21.5347 12.604 22.2782 12.6165Z" fill="#6A6A6A"/>
<path d="M26.8018 30.9323C27.5579 30.9198 27.9737 30.5572 27.9737 29.9321C27.9737 29.332 27.5579 28.9569 26.8396 28.9444C25.2897 28.9319 23.7398 28.9319 22.1899 28.9444C21.4968 28.9569 21.0558 29.382 21.0684 29.9571C21.081 30.5447 21.5094 30.9198 22.2151 30.9323C22.9963 30.9448 23.765 30.9323 24.5462 30.9323C25.2897 30.9323 26.0457 30.9323 26.8018 30.9323Z" fill="#6A6A6A"/>
<path d="M26.8521 47.2604C26.0708 47.2479 25.3022 47.2604 24.5209 47.2604C23.7397 47.2604 22.971 47.2479 22.1897 47.2604C21.4967 47.2729 21.0557 47.673 21.0557 48.2481C21.0557 48.8232 21.4967 49.2358 22.1897 49.2483C23.7397 49.2608 25.2896 49.2608 26.8521 49.2483C27.5578 49.2483 27.9736 48.8607 27.9736 48.2606C27.9736 47.648 27.5704 47.2729 26.8521 47.2604Z" fill="#6A6A6A"/>
<path d="M22.24 18.7179C22.9961 18.7304 23.7522 18.7179 24.5082 18.7179C25.2643 18.7179 26.0203 18.7179 26.7764 18.7179C27.545 18.7054 27.9735 18.3554 27.9861 17.7428C27.9987 17.1176 27.5828 16.7426 26.8268 16.7301C25.3021 16.7176 23.7648 16.7176 22.24 16.7301C21.5344 16.7301 21.0934 17.1051 21.0808 17.6927C21.0429 18.2929 21.5092 18.7179 22.24 18.7179Z" fill="#6A6A6A"/>
<path d="M22.2025 37.0207C23.7524 37.0333 25.3023 37.0333 26.8648 37.0207C27.5705 37.0207 27.9863 36.6332 27.9863 36.0331C27.9863 35.433 27.5705 35.0579 26.8648 35.0329C26.0836 35.0204 25.3149 35.0329 24.5336 35.0329C23.7524 35.0329 22.9837 35.0204 22.2025 35.0329C21.5094 35.0454 21.0684 35.458 21.0684 36.0331C21.0558 36.6207 21.4968 37.0207 22.2025 37.0207Z" fill="#6A6A6A"/>
</svg>
