<svg width="48" height="54" viewBox="0 0 48 54" fill="none" xmlns="http://www.w3.org/2000/svg">
<path d="M47.3887 24.1555C46.7495 21.2568 45.5804 18.582 43.8977 16.1364C43.4169 15.4322 42.9197 14.7335 42.3843 14.0729C42.0237 13.6308 41.9636 13.5871 42.3188 13.1286C42.6575 12.6809 42.8815 12.1951 42.9689 11.6492C43.0782 10.9996 43.1546 10.3391 42.7886 9.7386C42.1002 8.59224 41.1551 7.89351 39.7401 8.06274C39.6854 8.06819 39.6308 8.06819 39.5762 8.06819C39.1664 8.08457 38.784 8.17737 38.4562 8.43394C38.1284 8.6905 37.7951 8.94707 37.4837 9.22547C37.3144 9.38378 37.1887 9.38924 36.9975 9.26368C34.9761 8.01361 32.8399 7.02009 30.5344 6.41962C29.4253 6.1303 28.3054 5.91194 27.1854 5.6663C26.9395 5.61171 26.7592 5.51891 26.7428 5.23505C26.7265 4.96756 26.8521 4.8038 27.1034 4.73283C27.2619 4.6837 27.4148 4.64003 27.5733 4.5909C28.6168 4.26337 29.3325 3.28077 29.2724 2.25451C29.2123 1.21187 28.4419 0.349367 27.3547 0.147389C26.9286 0.0655063 26.4915 0.0436709 26.0599 0C24.3827 0 22.7109 0 21.0337 0C20.7277 0.038212 20.4218 0.0600475 20.1158 0.109177C19.0341 0.272943 18.2091 1.11907 18.1272 2.12896C18.0398 3.25894 18.6954 4.23607 19.7717 4.57452C19.9301 4.62365 20.0885 4.65641 20.2415 4.711C20.4382 4.7765 20.6294 4.84747 20.6239 5.10403C20.6185 5.3606 20.5365 5.5735 20.2688 5.65538C19.9793 5.74272 19.6897 5.81369 19.4056 5.89557C18.0944 6.27223 16.7614 6.57247 15.4884 7.03647C13.7893 7.65878 12.1722 8.47761 10.6151 9.43291C10.4895 9.31281 10.3638 9.19818 10.2382 9.07808C9.40228 8.24834 8.39156 7.93718 7.24427 8.09549C6.26087 8.23196 5.62713 8.88702 5.14089 9.68402C4.47437 10.7703 4.80763 12.2442 5.47415 13.0085C5.87298 13.467 5.90029 13.5816 5.49054 14.1166C5.45776 14.1603 5.42498 14.204 5.3922 14.2476C3.80784 16.1473 2.58406 18.2653 1.64983 20.5526C0.994234 22.163 0.420586 23.8061 0.223907 25.542C0.0709337 26.9013 0.0326904 28.2824 0.00537386 29.6525C-0.0328694 31.7214 0.125567 33.7685 0.721068 35.7774C2.8463 42.9394 7.1951 48.2017 14.0024 51.3842C16.2369 52.4269 18.5697 53.1147 21.0282 53.3549C21.58 53.4095 22.1318 53.4586 22.6836 53.5077C23.596 53.5077 24.5029 53.5077 25.4153 53.5077C25.5136 53.4914 25.6119 53.4695 25.7103 53.4641C27.4203 53.3986 29.0811 53.071 30.7201 52.5797C34.3478 51.488 37.5984 49.7193 40.352 47.1045C44.739 42.9339 47.2958 37.8408 47.8859 31.7979C48.1208 29.2049 47.946 26.6665 47.3887 24.1555ZM38.8113 10.2244C39.0899 9.84778 39.4833 9.52571 39.9422 9.55846C40.6798 9.60759 41.4719 10.0661 41.4719 11.016C41.4774 11.3981 41.3354 11.7202 41.095 12.0095C40.9802 12.1514 40.8382 12.206 40.6962 12.0859C40.0788 11.5837 39.4669 11.076 38.8659 10.552C38.7949 10.4974 38.7621 10.29 38.8113 10.2244ZM20.6239 3.02967C20.3835 3.02421 20.0995 2.91503 19.9137 2.76218C19.5258 2.44011 19.6624 1.92698 20.1541 1.77959C20.3617 1.71954 20.5857 1.68679 20.7988 1.68679C21.7658 1.67587 22.7273 1.68133 23.6943 1.68133C24.6613 1.68133 25.6229 1.68133 26.5899 1.68133C26.7592 1.68133 26.9341 1.70862 27.1034 1.73592C27.4258 1.79051 27.6935 2.05799 27.7044 2.31456C27.7099 2.56566 27.4367 2.92049 27.1471 2.98054C26.874 3.03513 26.5899 3.0788 26.3112 3.0788C24.41 3.07334 22.5197 3.06242 20.6239 3.02967ZM25.082 5.03853C25.0929 5.23505 24.9946 5.32785 24.8198 5.34968C24.4155 5.39335 24.0057 5.42611 23.6014 5.46432C23.6014 5.45886 23.6014 5.44794 23.6014 5.44248C23.2627 5.44248 22.9295 5.44248 22.5907 5.44248C22.394 5.44248 22.2957 5.34422 22.2902 5.14225C22.2848 4.93481 22.3667 4.79834 22.5798 4.79288C23.3173 4.78742 24.0494 4.78742 24.787 4.79288C24.929 4.79834 25.0711 4.83655 25.082 5.03853ZM8.47898 9.79865C8.48444 9.80411 8.49537 9.80957 8.50083 9.80957C9.22199 10.2081 9.2493 10.3555 8.6538 10.8904C8.22766 11.2725 7.7906 11.6383 7.34261 11.9931C7.02027 12.2497 6.88369 12.2278 6.66516 11.8676C6.51765 11.6274 6.4357 11.349 6.32643 11.0815C6.37014 10.0279 7.63216 9.25277 8.47898 9.79865ZM38.3742 46.6296C35.4732 49.1461 32.0805 50.7183 28.3217 51.4934C26.6664 51.8373 24.9782 51.8646 23.2955 51.8428C18.0452 51.7827 13.4779 49.9322 9.48423 46.5968C6.73072 44.2986 4.61641 41.5037 3.26151 38.1629C2.5185 36.3287 1.91753 34.4509 1.73178 32.4748C1.61159 31.2301 1.60066 29.9691 1.60613 28.7136C1.61705 27.4035 1.68808 26.0933 1.97763 24.8105C2.98834 20.3124 5.14089 16.4639 8.49537 13.2869C11.8061 10.1535 15.7069 8.18283 20.1978 7.35854C21.7712 7.06922 23.3501 7.06922 24.929 7.16202C26.0271 7.22753 27.1362 7.27666 28.2125 7.47318C31.2719 8.03544 34.0965 9.23093 36.6424 11.0214C41.5102 14.4441 44.5696 19.1005 45.9191 24.876C46.236 26.2244 46.2523 27.6164 46.2797 28.9975C46.2797 29.1176 46.2797 29.2322 46.2797 29.3523C46.3507 36.356 43.619 42.0823 38.3742 46.6296Z" fill="#6A6A6A"/>
<path d="M23.8908 10.0387C14.4229 9.78214 4.43049 17.7903 4.44142 29.4995C4.45234 40.0133 12.7784 48.9167 23.8854 48.9713C34.7246 49.0259 43.444 40.2699 43.4276 29.4013C43.4167 18.8056 34.6699 9.89678 23.8908 10.0387ZM35.9429 42.71C33.5117 44.9972 30.5998 46.4056 27.3327 47.0443C26.2182 47.2627 25.0545 47.2354 23.869 47.3227C22.749 47.2354 21.5798 47.2463 20.4544 47.0279C17.3512 46.4384 14.6086 45.0573 12.2376 42.9775C9.23274 40.3517 7.30419 37.071 6.41914 33.1843C6.13504 31.9451 6.14597 30.6786 6.10773 29.4122C5.92197 23.009 9.82278 17.1407 14.6961 14.1984C16.6629 13.0083 18.7717 12.1677 21.0499 11.8674C22.2518 11.7091 23.4811 11.6982 24.6994 11.7091C32.2442 11.7746 39.7344 17.3972 41.4226 25.8312C42.7393 32.4091 40.8544 38.0972 35.9429 42.71Z" fill="#6A6A6A"/>
<path d="M32.4301 35.2474C31.1954 33.779 29.9443 32.3215 28.7314 30.8367C28.043 29.996 28.043 29.7449 28.7314 28.9097C29.8896 27.5068 31.097 26.1475 32.2716 24.7555C33.3752 23.4508 34.4843 22.1462 35.5551 20.8142C35.7408 20.5849 35.8556 20.241 35.8774 19.9408C35.9321 19.1929 35.4895 18.6962 34.8776 18.3468C34.2767 18.0029 33.6702 18.0356 33.1075 18.4505C32.0968 19.2093 31.0861 19.9735 30.0863 20.7432C28.4091 22.0261 26.7373 23.3089 25.0601 24.5917C24.6175 24.9302 24.1313 25.1649 23.5631 25.1977C21.4925 25.3178 19.564 27.2829 19.6787 29.4938C19.6787 29.6685 19.6678 29.8377 19.6787 30.0124C19.6896 30.1652 19.7115 30.3235 19.7443 30.4709C20.1376 32.0376 21.1593 33.0311 22.6234 33.6098C23.3173 33.8827 24.0494 33.8827 24.776 33.7462C25.0437 33.6971 25.2458 33.7353 25.4589 33.9373C27.1962 35.5531 28.9445 37.1635 30.6982 38.7629C31.6925 39.6691 32.7142 40.548 33.714 41.4487C34.222 41.9018 34.7957 42.0055 35.4404 41.8526C35.8556 41.7544 36.1069 41.5033 36.2107 41.0939C36.3855 40.406 36.2325 39.8056 35.7791 39.2651C34.6646 37.9332 33.55 36.5903 32.4301 35.2474ZM34.1346 19.7934C34.1729 19.8262 34.2056 19.8534 34.2439 19.8862C34.1565 20.0336 34.0855 20.1919 33.9762 20.3174C32.7906 21.6712 31.6051 23.025 30.4086 24.3734C29.6383 25.2468 28.8625 26.1148 28.0867 26.9827C27.9993 27.081 27.8955 27.1792 27.7699 27.3102C27.3164 26.8135 26.8739 26.3277 26.3877 25.7927C28.9117 23.6583 31.4849 21.6767 34.1346 19.7934ZM23.9237 32.1959C22.5306 32.256 21.1483 30.6565 21.2357 29.4883C21.2139 28.0636 22.4431 26.8244 23.9128 26.7971C25.3278 26.7698 26.6226 28.009 26.6499 29.4064C26.6717 30.8858 25.4152 32.1359 23.9237 32.1959ZM33.2059 38.8011C32.9272 38.5609 32.6431 38.3317 32.3754 38.086C30.578 36.4429 28.7806 34.7943 26.9777 33.1567C26.7865 32.982 26.7755 32.8292 26.9285 32.649C27.0979 32.4525 27.2782 32.2614 27.4967 32.0267C29.4416 34.2921 31.3538 36.5193 33.266 38.7465C33.2441 38.7629 33.2277 38.7793 33.2059 38.8011Z" fill="#6A6A6A"/>
<path d="M9.42944 21.9713C9.94846 22.348 10.5112 22.67 11.0739 22.9757C11.3635 23.134 11.6967 23.2378 12.0191 23.2923C12.4998 23.3688 12.7293 23.145 12.7402 22.6537C12.7457 22.3534 12.6856 22.1678 12.3851 21.9604C11.8989 21.6274 11.3962 21.3217 10.8827 21.0324C10.5767 20.8577 10.2435 20.7321 9.91568 20.6011C9.67529 20.5083 9.47315 20.5957 9.31471 20.7922C8.93228 21.2562 8.93774 21.611 9.42944 21.9713Z" fill="#6A6A6A"/>
<path d="M35.2382 22.2284C35.0743 22.5014 35.0798 22.8016 35.2492 23.0527C35.3475 23.1947 35.5496 23.2656 35.7081 23.3693C35.7245 23.353 35.7354 23.3366 35.7518 23.3148C35.8665 23.2929 35.9867 23.2875 36.1014 23.2547C37.0029 22.9708 37.8115 22.5014 38.5381 21.9064C38.9314 21.5843 38.9369 21.295 38.6419 20.8856C38.4124 20.5635 38.1884 20.4598 37.8169 20.6508C37.0138 21.0657 36.238 21.5352 35.4568 21.9883C35.3639 22.0428 35.2929 22.1356 35.2382 22.2284Z" fill="#6A6A6A"/>
<path d="M31.4248 17.9919C31.993 17.2877 32.4355 16.5071 32.747 15.661C32.7852 15.5518 32.8071 15.4317 32.818 15.3171C32.8453 14.9513 32.5339 14.6129 32.1187 14.6074C31.7854 14.6293 31.5341 14.8913 31.3429 15.1861C30.955 15.7756 30.5999 16.387 30.2502 17.0039C30.1628 17.1567 30.1027 17.3423 30.0863 17.517C30.0699 17.648 30.0973 17.8282 30.1792 17.921C30.6217 18.4232 31.0369 18.4723 31.4248 17.9919Z" fill="#6A6A6A"/>
<path d="M11.9262 35.7112C11.6203 35.7767 11.2979 35.8641 11.0302 36.0224C10.4347 36.3772 9.83923 36.7539 9.29836 37.1851C8.91047 37.4963 8.97057 37.9548 9.34753 38.255C9.56607 38.4243 9.81738 38.4297 10.0468 38.3424C10.9483 38.0094 11.7623 37.5236 12.4999 36.9122C12.6365 36.7975 12.6965 36.5901 12.7949 36.4209C12.7348 35.875 12.4234 35.602 11.9262 35.7112Z" fill="#6A6A6A"/>
<path d="M24.7593 44.4402C24.7156 43.9707 24.7047 43.4958 24.6173 43.0373C24.5517 42.6824 24.2512 42.535 23.8579 42.5733C23.4591 42.6115 23.2678 42.7862 23.2187 43.1519C23.1859 43.4303 23.1367 43.7142 23.1367 43.9926C23.1476 44.6367 23.164 45.2808 23.2241 45.9195C23.2624 46.2962 23.4591 46.4545 23.7705 46.5036C24.3004 46.5855 24.6009 46.3781 24.6774 45.8213C24.7375 45.4009 24.7429 44.9697 24.7757 44.5439C24.7703 44.5439 24.7593 44.5439 24.7539 44.5439C24.7593 44.5166 24.7593 44.4784 24.7593 44.4402Z" fill="#6A6A6A"/>
<path d="M23.8854 16.4198C24.3716 16.4362 24.612 16.2396 24.683 15.721C24.7376 15.3007 24.7486 14.8695 24.7868 14.3181C24.7431 13.936 24.7103 13.4283 24.612 12.937C24.5355 12.5767 24.2405 12.4403 23.8198 12.4839C23.4538 12.5222 23.2625 12.7078 23.2134 13.068C23.1806 13.3355 23.1314 13.6085 23.1369 13.8814C23.1478 14.531 23.1587 15.1861 23.2243 15.8357C23.2735 16.2505 23.5029 16.4089 23.8854 16.4198Z" fill="#6A6A6A"/>
<path d="M38.3575 36.9453C37.6964 36.5632 37.0354 36.1865 36.3688 35.8208C36.2049 35.7334 36.0083 35.7116 35.9099 35.6843C35.3636 35.6734 35.0139 36.0992 35.1778 36.5304C35.2652 36.7597 35.4455 36.989 35.6477 37.1309C36.0847 37.442 36.5491 37.715 37.019 37.9661C37.3468 38.1353 37.6964 38.2772 38.0516 38.3646C38.3739 38.4465 38.5979 38.2772 38.7618 37.9443C38.9038 37.6604 38.8711 37.453 38.6416 37.2018C38.5542 37.109 38.4613 37.0053 38.3575 36.9453Z" fill="#6A6A6A"/>
<path d="M16.4443 17.9755C16.499 18.0465 16.57 18.1065 16.641 18.1666C16.9196 18.3904 17.171 18.374 17.5097 18.1174C17.8375 17.8718 17.9304 17.6425 17.761 17.3314C17.3622 16.5999 16.947 15.8739 16.5208 15.1587C16.4334 15.0059 16.2859 14.8749 16.1438 14.7712C15.898 14.591 15.6248 14.6183 15.3681 14.7493C15.155 14.853 15.0676 15.055 15.0566 15.2952C15.084 15.4371 15.0949 15.5845 15.1495 15.721C15.4664 16.5289 15.9035 17.2822 16.4443 17.9755Z" fill="#6A6A6A"/>
<path d="M31.7854 41.5142C31.6542 41.2794 31.4794 41.0611 31.2937 40.8646C31.1462 40.7117 30.944 40.537 30.72 40.6626C30.496 40.7882 30.2993 40.9738 30.1245 41.1648C30.0535 41.2412 30.0316 41.4214 30.0699 41.5196C30.4742 42.4586 30.9549 43.3484 31.6215 44.1344C31.7362 44.2654 31.9329 44.3255 32.0913 44.4183C32.6103 44.3582 32.9764 43.927 32.7851 43.4794C32.4956 42.8025 32.135 42.1583 31.7854 41.5142Z" fill="#6A6A6A"/>
<path d="M17.3732 40.7885C17.0509 40.5702 16.8051 40.5702 16.5592 40.8704C15.9145 41.6456 15.4283 42.519 15.0951 43.4634C14.9312 43.9274 15.2753 44.3477 15.7616 44.3586C16.0784 44.375 16.2861 44.1785 16.4226 43.9492C16.8816 43.2013 17.3241 42.4426 17.7502 41.6674C17.9469 41.3126 17.8322 41.0997 17.3732 40.7885Z" fill="#6A6A6A"/>
<path d="M10.8826 29.4994C10.8717 29.1173 10.6586 28.8171 10.3199 28.8116C9.36378 28.7952 8.41316 28.8007 7.45708 28.8116C7.17299 28.8171 6.9927 28.9863 6.90529 29.2592C6.77417 29.685 7.04733 30.1654 7.48986 30.1982C7.94332 30.2309 8.39677 30.2036 8.85569 30.2036C8.85569 30.22 8.85569 30.2364 8.85569 30.2527C9.35285 30.2255 9.85548 30.22 10.3526 30.1709C10.7078 30.1381 10.8935 29.8706 10.8826 29.4994Z" fill="#6A6A6A"/>
<path d="M36.9918 29.4664C36.9863 29.8267 37.2158 30.1651 37.5491 30.187C38.0189 30.2197 38.4942 30.1924 38.9641 30.1924C38.9641 30.2143 38.9641 30.2361 38.9641 30.2579C39.4612 30.2306 39.9639 30.2252 40.461 30.1761C40.8107 30.1433 41.0183 29.8485 41.0074 29.5101C40.991 29.1007 40.767 28.8277 40.3955 28.8059C39.8874 28.7786 39.3793 28.7622 38.8657 28.7622C38.4396 28.7622 38.008 28.7786 37.5818 28.8113C37.2213 28.8441 36.9973 29.1061 36.9918 29.4664Z" fill="#6A6A6A"/>
</svg>
