<svg id="Слой_1" data-name="Слой 1" xmlns="http://www.w3.org/2000/svg" viewBox="0 0 36 36"><defs><style>.cls-1{fill:#f79400;}</style></defs><path class="cls-1" d="M18.45,15.15a2.25,2.25,0,0,0,1.8-2.55,2.22,2.22,0,0,0-2.55-1.8C14.7,11.4,15.45,15.75,18.45,15.15Z"/><path class="cls-1" d="M18,0A18,18,0,1,0,36,18,18.05,18.05,0,0,0,18,0ZM16.8,7.65a5.34,5.34,0,0,1,6.45,4.2A5.47,5.47,0,0,1,19.2,18.3a5.34,5.34,0,0,1-6.45-4.2A5.35,5.35,0,0,1,16.8,7.65ZM23,21.75a28,28,0,0,1-2.7,1.05c1.8,1.95,4.5,3.6,3,5.25a1.76,1.76,0,0,1-1.8.3c-.45-.15-.9-.75-1.2-1.05-.6-.6-1.65-1.8-2.25-2.25l-1.2,1.2a17.05,17.05,0,0,1-2.4,2.25,2,2,0,0,1-1.65-.45c-1.5-1.65,1.2-3.15,3-5.25-.3-.15-1.05-.3-1.5-.45s-.9-.45-1.35-.6a2,2,0,0,1-1.05-.9,2.41,2.41,0,0,1,.45-1.65c.9-1.2,1.65-.6,2.7-.15,5.1,2.55,7.2-2.1,8.85.15C24.6,20.1,24.15,21.15,23,21.75Z"/></svg>