<svg id="Слой_1" data-name="Слой 1" xmlns="http://www.w3.org/2000/svg" viewBox="0 0 36 36"><defs><style>.cls-1{fill:#dc22b3;}</style></defs><path class="cls-1" d="M17.7,14.85A3,3,0,0,0,15,18.3,3,3,0,0,0,18.45,21a3,3,0,0,0,2.7-3.45A3.29,3.29,0,0,0,17.7,14.85Z"/><path class="cls-1" d="M24.45,11.25a3.29,3.29,0,0,0-1.8-.75c-1-.15-3.9-.15-5.1-.15a26.62,26.62,0,0,0-5,.3,3.59,3.59,0,0,0-2.25,3c-.15.9,0,1.8-.15,2.85V21c0,.45.15,1.05,0,1.35C10.5,26.25,14,25.8,17,25.8H20.4a10.63,10.63,0,0,0,2.1-.15,5.37,5.37,0,0,0,1.65-.6c.15-.15.6-.45.75-.6l.45-.9a7,7,0,0,0,.3-2.55c0-1.05.15-7.5-.3-7.8A2.23,2.23,0,0,0,24.45,11.25Zm-2.1,8.85c-.15.3-.3.45-.45.75-.15.15-.3.45-.45.6a4.26,4.26,0,0,1-1.35.9,4.92,4.92,0,0,1-6.9-3.15,4.28,4.28,0,0,1,0-1.95,7.31,7.31,0,0,1,.6-1.65,6.26,6.26,0,0,1,.9-1.2,8.32,8.32,0,0,1,1.2-.9,4.56,4.56,0,0,1,3.45-.15A7.5,7.5,0,0,1,21.75,15a4.38,4.38,0,0,1,.9,3.15A2.86,2.86,0,0,1,22.35,20.1Zm.3-6.15a1.43,1.43,0,0,1-.75-1.2c0-.75.6-.9.9-1.05h.75a2.07,2.07,0,0,0,.45.6C24.6,13.35,23.55,14.55,22.65,14Z"/><path class="cls-1" d="M18,0A18,18,0,1,0,36,18,18.05,18.05,0,0,0,18,0Zm9.15,23.4a8.73,8.73,0,0,1-.75,1.65c-.15,0-.15.15-.15.3a5.84,5.84,0,0,1-4.8,1.95H17c-1.65,0-4,.15-5.4-.6a3.14,3.14,0,0,1-.9-.6L10.5,26a.15.15,0,0,1-.15-.15c-.3-.15-.15-.3-.45-.3,0,0-.45-.75-.6-1.05s-.3-1.2-.45-1.2c0-.15,0-.6-.15-.75V14.4a6.15,6.15,0,0,1,.15-1.65,2,2,0,0,1,.45-1.2s.3-.45.45-.75c1.65-2.1,3.9-2.1,6.45-2.1,1.35,0,5.55,0,6.9.15.15,0,.75.15.9.15s.15.15.3.15a5,5,0,0,1,.9.45l.45.45.45.45c1.2,1.35,1.35,3.6,1.35,5.85C27.45,18,27.6,21.9,27.15,23.4Z"/></svg>