<?xml version="1.0" encoding="utf-8"?>
<!-- Generator: Adobe Illustrator 25.0.0, SVG Export Plug-In . SVG Version: 6.00 Build 0)  -->
<svg version="1.1" id="Слой_1" xmlns="http://www.w3.org/2000/svg" xmlns:xlink="http://www.w3.org/1999/xlink" x="0px" y="0px"
	 viewBox="0 0 15 16.1" style="enable-background:new 0 0 15 16.1;" xml:space="preserve">
<style type="text/css">
	.st0{fill:#020202;}
</style>
<path class="st0" d="M14.9,12.9c-0.1-0.2-0.2-0.4-0.3-0.6c-0.2-0.2-0.4-0.5-0.7-0.7c-0.3-0.3-0.7-0.6-1-0.9c-0.3-0.2-0.6-0.4-1-0.5
	c-0.4-0.1-0.8-0.1-1.2,0.1c-0.2,0.1-0.3,0.2-0.4,0.3C10,11,9.8,11.2,9.6,11.5c0,0.1-0.1,0.1-0.2,0.2c-0.2,0.2-0.5,0.3-0.9,0.3
	c-0.3,0-0.5-0.1-0.8-0.2c-0.5-0.2-0.8-0.6-1.2-0.9c-0.4-0.4-0.8-0.8-1.2-1.2C5,9,4.6,8.6,4.3,8C4.2,7.7,4,7.4,3.9,7.1
	c-0.1-0.2-0.1-0.5,0-0.7C4,6.1,4.2,5.9,4.4,5.7C4.6,5.5,4.8,5.4,5,5.2c0.2-0.2,0.4-0.3,0.6-0.5C5.9,4.4,6,4,6,3.6
	c0-0.3-0.1-0.6-0.3-0.9C5.5,2.4,5.4,2.1,5.2,1.8C5,1.5,4.8,1.1,4.5,0.8C4.3,0.5,4.1,0.3,3.8,0.1C3.5,0,3.2,0,2.9,0.1
	C2.8,0.1,2.6,0.2,2.5,0.4C2.3,0.5,2.1,0.7,1.9,0.8C1.7,1,1.4,1.3,1.2,1.5c-0.5,0.5-0.8,1.2-1,1.9C0,4.1,0,4.8,0,5.6
	c0.1,0.5,0.2,1,0.3,1.5c0.2,0.7,0.6,1.4,1,2c0.5,0.8,1.1,1.6,1.7,2.4c0.5,0.6,1.1,1.3,1.7,1.8c0.6,0.5,1.2,1,1.8,1.5
	c0.6,0.4,1.1,0.7,1.8,0.9c0.7,0.2,1.4,0.4,2.1,0.4c0.2,0,0.4,0,0.6,0c0.5-0.1,0.9-0.2,1.4-0.4c0.5-0.2,0.9-0.5,1.3-0.8
	c0.2-0.2,0.4-0.4,0.6-0.6c0.1-0.1,0.3-0.2,0.4-0.4C15,13.6,15.1,13.3,14.9,12.9z"/>
</svg>
