<?xml version="1.0" encoding="utf-8"?>
<!-- Generator: Adobe Illustrator 25.0.0, SVG Export Plug-In . SVG Version: 6.00 Build 0)  -->
<svg version="1.1" id="Слой_1" xmlns="http://www.w3.org/2000/svg" xmlns:xlink="http://www.w3.org/1999/xlink" x="0px" y="0px"
	 viewBox="0 0 15 10" style="enable-background:new 0 0 15 10;" xml:space="preserve">
<path d="M15,1c-0.2-0.5-0.5-0.8-1-0.9c0,0,0,0,0,0H1.1C1.1,0,1,0,1,0C0.5,0.2,0.1,0.6,0,1.1c0,0,0,0,0,0.1v7.7C0,8.9,0,9,0,9
	c0.1,0.6,0.6,1,1.2,1h12.5c0.6,0,1.1-0.4,1.2-1c0,0,0,0,0-0.1V1.1C15,1.1,15,1,15,1z M1.2,0.6C1.2,0.6,1.3,0.6,1.2,0.6
	c4.2,0,8.4,0,12.5,0c0.1,0,0.2,0,0.3,0c0,0,0,0,0,0c0,0,0,0-0.1,0c-2.1,1.3-4.3,2.7-6.4,4c0,0-0.1,0-0.1,0C5.4,3.3,3.3,2,1.2,0.6
	C1.2,0.6,1.2,0.6,1.2,0.6C1.2,0.6,1.2,0.6,1.2,0.6z M0.6,8.8c0,0,0-0.1,0-0.1c0-2.5,0-4.9,0-7.4c0-0.2,0-0.3,0.1-0.4
	c1.6,1,3.2,2.1,4.8,3.1C3.9,5.7,2.3,7.3,0.6,9C0.6,8.9,0.6,8.9,0.6,8.8z M13.8,9.4c-0.1,0-0.1,0-0.2,0c-4.1,0-8.2,0-12.4,0
	c-0.1,0-0.2,0-0.3,0C2.6,7.7,4.3,6,5.9,4.3c0,0,0.1,0.1,0.1,0.1c0.4,0.3,0.9,0.6,1.3,0.8c0.1,0.1,0.2,0.1,0.3,0
	c0.5-0.3,1-0.6,1.5-0.9c0,0,0,0,0.1,0c1.6,1.7,3.2,3.4,4.8,5.1C14,9.4,13.9,9.4,13.8,9.4z M14.4,8.7c0,0.1,0,0.2,0,0.3c0,0,0,0,0,0
	c-1.6-1.7-3.1-3.3-4.7-5c1.6-1,3.1-2,4.7-3c0,0.1,0,0.1,0,0.2c0,0.1,0,0.1,0,0.2C14.4,3.8,14.4,6.2,14.4,8.7z"/>
</svg>
