<?xml version="1.0" encoding="utf-8"?>
<!-- Generator: Adobe Illustrator 25.0.0, SVG Export Plug-In . SVG Version: 6.00 Build 0)  -->
<svg version="1.1" id="Слой_1" xmlns="http://www.w3.org/2000/svg" xmlns:xlink="http://www.w3.org/1999/xlink" x="0px" y="0px"
	 viewBox="0 0 10.5 15" style="enable-background:new 0 0 10.5 15;" xml:space="preserve">
<style type="text/css">
	.st0{fill:#323337;}
</style>
<g>
	<path class="st0" d="M10.4,4.1C9.8,1.5,7.3-0.3,4.6,0c-1,0.1-1.8,0.5-2.6,1C0.5,2.3-0.3,4.3,0.1,6.2c0.1,0.6,0.3,1.1,0.6,1.6
		c0.4,0.9,0.9,1.7,1.4,2.5C3,11.8,4,13.2,5,14.6c0.1,0.1,0.2,0.2,0.3,0.4c0.1-0.1,0.2-0.3,0.3-0.4c1-1.4,2-2.8,2.9-4.3
		c0.6-1,1.2-2,1.6-3.1C10.5,6.2,10.6,5.2,10.4,4.1z M9.2,6.8C8.8,8,8.1,9,7.5,10.1c-0.7,1.1-1.5,2.2-2.2,3.3c0,0,0,0,0,0.1
		c0,0,0,0,0,0c-1-1.4-1.9-2.8-2.8-4.2c-0.4-0.6-0.7-1.3-1-2C1.2,6.7,1,6.3,1,5.8C0.8,4.5,1.1,3.4,2,2.4c0.7-0.8,1.7-1.3,2.8-1.4
		C6.9,0.7,9,2.1,9.4,4.3C9.6,5.1,9.5,6,9.2,6.8z"/>
	<path class="st0" d="M5.3,2.7c-1.2,0-2.1,0.9-2.1,2.1c0,1.2,0.9,2.1,2.1,2.1c1.2,0,2.1-0.9,2.1-2.1C7.4,3.6,6.4,2.7,5.3,2.7z
		 M5.2,6C4.6,6,4,5.4,4,4.8s0.5-1.2,1.2-1.2c0.7,0,1.2,0.5,1.2,1.2C6.4,5.4,5.9,6,5.2,6z"/>
</g>
</svg>
