<svg id="Слой_1" data-name="Слой 1" xmlns="http://www.w3.org/2000/svg" viewBox="0 0 940 980"><path d="M746.93,333.25q0-141.75-.1-283.49a24.91,24.91,0,0,0-2.35-9.41c-7.57-17.68-20.48-30.12-38-37.76A23.39,23.39,0,0,0,698.4.65C689.94.23,681.47.19,673,0H270c-7.29.53-14.64.63-21.85,1.69-15.15,2.24-27,10.09-37,21.66C202.41,33.43,200.24,45.19,200,57.69c-.75,46.31-1.94,92.63-1.93,138.94q.08,367.2.76,734.39a24.39,24.39,0,0,0,2.29,9.46c7.8,17.54,20.59,30,38.48,37.21A45.7,45.7,0,0,1,244,980H702c3.07-1.6,6.07-3.35,9.22-4.77,17.29-7.82,27.68-21.93,35.16-38.61.83-1.84.53-4.25.53-6.39Q746.94,631.75,746.93,333.25ZM259.17,61.39h427v30h-427Zm427.06,857.9H259.42V828.12H686.23Zm0-153.43H259.41V153.36H686.25Z"/><path d="M939.18,471.16c-2.31-49.28-13.11-96.53-34.71-141-7-14.33-15.42-27.92-23.14-41.89-2.13-3.86-4.71-4.18-8-1.5-5.15,4.2-10.31,8.4-15.52,12.54-2.56,2-2.6,4.09-.89,6.83,4.49,7.2,9,14.41,13,21.86,25.09,46.1,39.64,95.2,39.53,147.89,0,23.74-1.09,47.7-4.4,71.18-6.25,44.28-21.36,86-40.42,126.42-3.4,7.21-6.49,14.58-9.47,22-.55,1.38-.45,4.28.37,4.75,7.5,4.42,15.23,8.46,23.27,12.8,4.87-9.68,9.32-18.22,13.51-26.89,23.53-48.63,39.31-99.54,44.92-153.41,1.06-10.23,1.83-20.49,2.73-30.73V478C939.72,475.72,939.29,473.45,939.18,471.16Z"/><path d="M29.41,495.9C28.45,444,36.51,394,59.72,347.16c6.93-14,15.25-27.29,22.74-41,.84-1.53,1.33-4.72.49-5.48-6.77-6.07-13.9-11.73-21.09-17.66-1.12,1.61-1.8,2.54-2.44,3.51C25.73,338,5.91,394.14,1.8,455.66Q.88,469.34,0,483v26c.74,9.1,1.16,18.24,2.27,27.3,6.09,49.46,20.3,96.62,41.09,141.83,4.38,9.52,9.09,18.89,13.82,28.24,1.43,2.84,3.59,6.22,7.27,4.46,7.56-3.62,14.77-8,22.31-12.08-2.76-5.92-5-10.94-7.4-15.84C49.93,624,30.63,562.41,29.41,495.9Z"/><path d="M140.53,642.27c-21.73-44.58-36.18-91.08-38.07-141.06C101,463,105.61,425.72,121.13,390.46c6.69-15.18,14.87-29.69,22.79-45.34-5.29-4.49-10.74-9.38-16.49-13.89-4.53-3.55-6.33-3.14-9.82,1.64-2.15,2.95-4.12,6.05-6,9.2C72,409.09,63.3,480.87,78.42,556.41,86.07,594.6,101.07,630,118,664.79a37.87,37.87,0,0,0,2.45,3.73l25.42-13.58c-.39-1.27-.48-1.76-.68-2.2C143.67,649.24,142.2,645.71,140.53,642.27Z"/><path d="M859.89,420.44a260,260,0,0,0-39.28-89c-2.33-3.41-4.33-4-7.5-1.3-6.31,5.41-12.73,10.69-19.21,16.1,2.14,3.21,4.12,6.07,6,9s3.68,6,5.34,9c32,59.46,38.76,122.33,25.24,187.92-7,33.83-19.67,65.56-35.13,96.29-.94,1.86-1.68,3.83-2.61,6,7.42,4,14.46,7.72,21.48,11.49,4,2.13,6.69,1.53,8.61-3,6.5-15.3,13.62-30.35,19.81-45.78C868.19,553.39,875.59,487.87,859.89,420.44Z"/><path d="M477.61,909.65c18.46.3,36.37-16.67,36.28-34.76-.08-15.55-11.25-36.82-36.61-36.47-18,.25-34.2,16.42-34.3,35.32C442.89,893.34,458.31,909.34,477.61,909.65Z"/></svg>